<?xml version="1.0" encoding="UTF-8"?>
<svg xmlns="http://www.w3.org/2000/svg" version="1.1" viewBox="0 0 736.2 339.1">
  <defs>
    <style>
      .cls-1 {
        fill: #000;
      }

      .cls-1, .cls-2, .cls-3, .cls-4, .cls-5, .cls-6, .cls-7, .cls-8, .cls-9 {
        stroke-width: 0px;
      }

      .cls-2 {
        fill: #1fff1f;
      }

      .cls-3 {
        fill: #171;
      }

      .cls-4 {
        fill: #65499e;
      }

      .cls-5 {
        fill: #979797;
      }

      .cls-6 {
        fill: #3d296d;
      }

      .cls-7 {
        fill: #23b628;
      }

      .cls-8 {
        fill: #e81e62;
      }

      .cls-9 {
        fill: #fff;
      }

      .cls-10 {
        display: none;
      }
    </style>
  </defs>
  <g id="Layer_2" data-name="Layer 2" class="cls-10">
    <rect class="cls-9" x="114.2" y="84" width="28.3" height="28.3"/>
    <rect class="cls-9" x="85.7" y="112.4" width="28.3" height="28.3"/>
    <rect class="cls-9" x="142.5" y="112.4" width="28.3" height="28.3"/>
    <rect class="cls-9" x="170.7" y="112.4" width="28.3" height="28.3"/>
    <rect class="cls-9" x="199.2" y="84" width="28.3" height="28.3"/>
    <rect class="cls-9" x="227.5" y="112.4" width="28.3" height="28.3"/>
    <rect class="cls-9" x="142.5" y="169" width="28.3" height="28.3"/>
    <rect class="cls-9" x="29" y="197.4" width="28.3" height="28.3"/>
    <rect class="cls-9" x="170.8" y="254.1" width="28.3" height="28.3"/>
    <rect class="cls-9" x="142.5" y="254.1" width="28.3" height="28.3"/>
    <rect class="cls-9" x="114.2" y="254.1" width="28.3" height="28.3"/>
    <rect class="cls-9" x="114.2" y="225.7" width="28.3" height="28.3"/>
    <rect class="cls-9" x="85.8" y="225.7" width="28.3" height="28.3"/>
    <rect class="cls-9" x="57.5" y="225.7" width="28.3" height="28.3"/>
    <rect class="cls-9" x="57.5" y="254.1" width="28.3" height="28.3"/>
    <rect class="cls-9" x="85.8" y="254.1" width="28.3" height="28.3"/>
    <rect class="cls-8" x="227.5" y="55.7" width="28.3" height="28.3"/>
    <rect class="cls-8" x="255.9" y="55.7" width="28.3" height="28.3"/>
    <rect class="cls-8" x="57.5" y="55.7" width="28.3" height="28.3"/>
    <rect class="cls-8" x="85.8" y="55.7" width="28.3" height="28.3"/>
    <rect class="cls-8" x="255.9" y="84" width="28.3" height="28.3"/>
    <rect class="cls-8" x="57.5" y="84" width="28.3" height="28.3"/>
    <rect class="cls-6" x="199.2" y="27.3" width="28.3" height="28.3"/>
    <rect class="cls-6" x="199.2" y="55.7" width="28.3" height="28.3"/>
    <rect class="cls-6" x="227.5" y="84" width="28.3" height="28.3"/>
    <rect class="cls-6" x="255.9" y="112.4" width="28.3" height="28.3"/>
    <rect class="cls-6" x="284.2" y="112.4" width="28.3" height="28.3"/>
    <rect class="cls-6" x="255.9" y="140.7" width="28.3" height="28.3"/>
    <rect class="cls-6" x="284.2" y="140.7" width="28.3" height="28.3"/>
    <rect class="cls-6" x="199.2" y="140.7" width="28.3" height="28.3"/>
    <rect class="cls-6" x="227.5" y="140.7" width="28.3" height="28.3"/>
    <rect class="cls-6" x="227.5" y="169" width="28.3" height="28.3"/>
    <rect class="cls-6" x="255.9" y="169" width="28.3" height="28.3"/>
    <rect class="cls-4" x="114.2" y="27.3" width="28.3" height="28.3"/>
    <rect class="cls-4" x="142.5" y="27.3" width="28.3" height="28.3"/>
    <rect class="cls-4" x="170.8" y="27.3" width="28.3" height="28.3"/>
    <rect class="cls-4" x="114.2" y="55.7" width="28.3" height="28.3"/>
    <rect class="cls-4" x="142.5" y="55.7" width="28.3" height="28.3"/>
    <rect class="cls-4" x="170.8" y="55.7" width="28.3" height="28.3"/>
    <rect class="cls-4" x="142.5" y="84" width="28.3" height="28.3"/>
    <rect class="cls-4" x="170.8" y="84" width="28.3" height="28.3"/>
    <rect class="cls-4" x="85.8" y="84" width="28.3" height="28.3"/>
    <rect class="cls-4" x="29.1" y="112.4" width="28.3" height="28.3"/>
    <rect class="cls-4" x="57.5" y="112.4" width="28.3" height="28.3"/>
    <rect class="cls-4" x="114.2" y="112.4" width="28.3" height="28.3"/>
    <rect class="cls-4" x="199.2" y="112.4" width="28.3" height="28.3"/>
    <rect class="cls-4" x="29" y="140.7" width="28.3" height="28.3"/>
    <rect class="cls-4" x="57.4" y="140.7" width="28.3" height="28.3"/>
    <rect class="cls-4" x="85.7" y="140.7" width="28.3" height="28.3"/>
    <rect class="cls-4" x="114" y="140.7" width="28.3" height="28.3"/>
    <rect class="cls-4" x="57.4" y="169" width="28.3" height="28.3"/>
    <rect class="cls-4" x="85.7" y="169" width="28.3" height="28.3"/>
    <rect class="cls-1" x="114.2" y="-1" width="28.3" height="28.3"/>
    <rect class="cls-1" x="142.5" y="-1" width="28.3" height="28.3"/>
    <rect class="cls-1" x="170.8" y="-1" width="28.3" height="28.3"/>
    <rect class="cls-1" x="199.2" y="-1" width="28.3" height="28.3"/>
    <rect class="cls-1" x="227.5" y="27.3" width="28.3" height="28.3"/>
    <rect class="cls-1" x="255.9" y="27.3" width="28.3" height="28.3"/>
    <rect class="cls-1" x="57.5" y="27.3" width="28.3" height="28.3"/>
    <rect class="cls-1" x="85.8" y="27.3" width="28.3" height="28.3"/>
    <rect class="cls-1" x="29.1" y="55.7" width="28.3" height="28.3"/>
    <rect class="cls-1" x="29.1" y="84" width="28.3" height="28.3"/>
    <rect class="cls-1" x="284.2" y="55.7" width="28.3" height="28.3"/>
    <rect class="cls-1" x="284.2" y="84" width="28.3" height="28.3"/>
    <rect class="cls-1" x="312.5" y="112.4" width="28.3" height="28.3"/>
    <rect class="cls-1" x="312.5" y="140.7" width="28.3" height="28.3"/>
    <rect class="cls-1" x="312.5" y="169" width="28.3" height="28.3"/>
    <rect class="cls-1" x="312.5" y="197.4" width="28.3" height="28.3"/>
    <rect class="cls-1" x=".8" y="112.4" width="28.3" height="28.3"/>
    <rect class="cls-1" x=".8" y="140.7" width="28.3" height="28.3"/>
    <rect class="cls-1" x=".8" y="169" width="28.3" height="28.3"/>
    <rect class="cls-1" x=".8" y="197.4" width="28.3" height="28.3"/>
    <rect class="cls-1" x="29" y="225.7" width="28.3" height="28.3"/>
    <rect class="cls-1" x="29" y="254.1" width="28.3" height="28.3"/>
    <rect class="cls-1" x="284.1" y="225.7" width="28.3" height="28.3"/>
    <rect class="cls-1" x="284.1" y="254.1" width="28.3" height="28.3"/>
    <rect class="cls-1" x="227.4" y="282.4" width="28.3" height="28.3"/>
    <rect class="cls-1" x="255.7" y="282.4" width="28.3" height="28.3"/>
    <rect class="cls-1" x="57.4" y="282.4" width="28.3" height="28.3"/>
    <rect class="cls-1" x="85.7" y="282.4" width="28.3" height="28.3"/>
    <rect class="cls-1" x="114" y="310.8" width="28.3" height="28.3"/>
    <rect class="cls-1" x="142.4" y="310.8" width="28.3" height="28.3"/>
    <rect class="cls-1" x="170.7" y="310.8" width="28.3" height="28.3"/>
    <rect class="cls-1" x="199.1" y="310.8" width="28.3" height="28.3"/>
    <rect class="cls-1" x="29.1" y="169" width="28.3" height="28.3"/>
    <rect class="cls-1" x="57.5" y="197.4" width="28.3" height="28.3"/>
    <rect class="cls-1" x="85.7" y="197.4" width="28.3" height="28.3"/>
    <rect class="cls-1" x="114.2" y="169" width="28.3" height="28.3"/>
    <rect class="cls-1" x="114" y="197.4" width="28.3" height="28.3"/>
    <rect class="cls-1" x="284.1" y="169" width="28.3" height="28.3"/>
    <rect class="cls-1" x="255.6" y="197.4" width="28.3" height="28.3"/>
    <rect class="cls-1" x="227.5" y="197.4" width="28.3" height="28.3"/>
    <rect class="cls-1" x="199.2" y="169" width="28.3" height="28.3"/>
    <rect class="cls-1" x="199.2" y="197.4" width="28.3" height="28.3"/>
    <rect class="cls-1" x="142.5" y="140.7" width="28.3" height="28.3"/>
    <rect class="cls-1" x="170.8" y="140.7" width="28.3" height="28.3"/>
    <rect class="cls-1" x="142.4" y="225.7" width="28.3" height="28.3"/>
    <rect class="cls-1" x="170.7" y="225.7" width="28.3" height="28.3"/>
    <rect class="cls-5" x="170.7" y="169" width="28.3" height="28.3"/>
    <rect class="cls-5" x="170.7" y="197.4" width="28.3" height="28.3"/>
    <rect class="cls-5" x="142.5" y="197.4" width="28.3" height="28.3"/>
    <rect class="cls-5" x="284.1" y="197.4" width="28.3" height="28.3"/>
    <rect class="cls-5" x="255.9" y="225.7" width="28.3" height="28.3"/>
    <rect class="cls-5" x="227.5" y="225.7" width="28.3" height="28.3"/>
    <rect class="cls-5" x="199.2" y="225.7" width="28.3" height="28.3"/>
    <rect class="cls-5" x="255.9" y="254.1" width="28.3" height="28.3"/>
    <rect class="cls-5" x="227.5" y="254.1" width="28.3" height="28.3"/>
    <rect class="cls-5" x="199.2" y="254.1" width="28.3" height="28.3"/>
    <rect class="cls-5" x="198.9" y="282.4" width="28.3" height="28.3"/>
    <rect class="cls-5" x="170.7" y="282.4" width="28.3" height="28.3"/>
    <rect class="cls-5" x="142.5" y="282.4" width="28.3" height="28.3"/>
    <rect class="cls-5" x="114.2" y="282.4" width="28.3" height="28.3"/>
  </g>
  <g id="Layer_3" data-name="Layer 3">
    <rect class="cls-1" x="113.2" width="28.3" height="28.3"/>
    <rect class="cls-1" x="141.5" width="28.3" height="28.3"/>
    <rect class="cls-1" x="566" y="0" width="28.3" height="28.3"/>
    <rect class="cls-1" x="594.3" y="0" width="28.3" height="28.3"/>
    <rect class="cls-1" x="84.9" y="28.3" width="28.3" height="28.3"/>
    <rect class="cls-1" x="622.1" y="28.3" width="28.3" height="28.3"/>
    <rect class="cls-1" x="650.4" y="28.3" width="28.3" height="28.3"/>
    <rect class="cls-1" x="56.6" y="28.3" width="28.3" height="28.3"/>
    <rect class="cls-1" x="28.3" y="56.6" width="28.3" height="28.3"/>
    <rect class="cls-1" x="678.7" y="56.6" width="28.3" height="28.3"/>
    <rect class="cls-1" x="28.3" y="84.9" width="28.3" height="28.3"/>
    <rect class="cls-1" x="678.7" y="84.9" width="28.3" height="28.3"/>
    <rect class="cls-1" y="113.2" width="28.3" height="28.3"/>
    <rect class="cls-1" y="141.2" width="28.3" height="28.3"/>
    <rect class="cls-1" y="169.5" width="28.3" height="28.3"/>
    <rect class="cls-1" y="197.8" width="28.3" height="28.3"/>
    <rect class="cls-1" x="707" y="113.2" width="28.3" height="28.3"/>
    <rect class="cls-1" x="707" y="141.5" width="28.3" height="28.3"/>
    <rect class="cls-1" x="707" y="169.8" width="28.3" height="28.3"/>
    <rect class="cls-1" x="707" y="198.1" width="28.3" height="28.3"/>
    <rect class="cls-1" x="28.3" y="225.9" width="28.3" height="28.3"/>
    <rect class="cls-1" x="28.3" y="254.2" width="28.3" height="28.3"/>
    <rect class="cls-1" x="56.6" y="282.5" width="28.3" height="28.3"/>
    <rect class="cls-1" x="84.9" y="282.5" width="28.3" height="28.3"/>
    <rect class="cls-1" x="113.2" y="310.8" width="28.3" height="28.3"/>
    <rect class="cls-1" x="141.5" y="310.8" width="28.3" height="28.3"/>
    <rect class="cls-1" x="566" y="310.8" width="28.3" height="28.3"/>
    <rect class="cls-1" x="594.3" y="310.8" width="28.3" height="28.3"/>
    <rect class="cls-1" x="678.7" y="226.4" width="28.3" height="28.3"/>
    <rect class="cls-1" x="678.7" y="254.2" width="28.3" height="28.3"/>
    <rect class="cls-1" x="650.4" y="282.5" width="28.3" height="28.3"/>
    <rect class="cls-1" x="622.1" y="282.5" width="28.3" height="28.3"/>
    <rect class="cls-1" x="169.8" width="28.3" height="28.3"/>
    <rect class="cls-1" x="198.1" width="28.3" height="28.3"/>
    <rect class="cls-1" x="226.4" width="28.3" height="28.3"/>
    <rect class="cls-1" x="254.7" width="28.3" height="28.3"/>
    <rect class="cls-1" x="283" width="28.3" height="28.3"/>
    <rect class="cls-1" x="311.3" width="28.3" height="28.3"/>
    <rect class="cls-1" x="169.8" y="310.8" width="28.3" height="28.3"/>
    <rect class="cls-1" x="198.1" y="310.8" width="28.3" height="28.3"/>
    <rect class="cls-1" x="226.4" y="310.8" width="28.3" height="28.3"/>
    <rect class="cls-1" x="254.7" y="310.8" width="28.3" height="28.3"/>
    <rect class="cls-1" x="283" y="310.8" width="28.3" height="28.3"/>
    <rect class="cls-1" x="311.3" y="310.8" width="28.3" height="28.3"/>
    <rect class="cls-1" x="339.6" width="28.3" height="28.3"/>
    <rect class="cls-1" x="367.9" width="28.3" height="28.3"/>
    <rect class="cls-1" x="396.2" width="28.3" height="28.3"/>
    <rect class="cls-1" x="424.5" width="28.3" height="28.3"/>
    <rect class="cls-1" x="452.8" width="28.3" height="28.3"/>
    <rect class="cls-1" x="481.1" width="28.3" height="28.3"/>
    <rect class="cls-1" x="509.4" width="28.3" height="28.3"/>
    <rect class="cls-1" x="339.6" y="310.8" width="28.3" height="28.3"/>
    <rect class="cls-1" x="367.9" y="310.8" width="28.3" height="28.3"/>
    <rect class="cls-1" x="396.2" y="310.8" width="28.3" height="28.3"/>
    <rect class="cls-1" x="424.5" y="310.8" width="28.3" height="28.3"/>
    <rect class="cls-1" x="452.8" y="310.8" width="28.3" height="28.3"/>
    <rect class="cls-1" x="481.1" y="310.8" width="28.3" height="28.3"/>
    <rect class="cls-1" x="509.4" y="310.8" width="28.3" height="28.3"/>
    <rect class="cls-1" x="537.7" y="310.8" width="28.3" height="28.3"/>
    <rect class="cls-1" x="537.7" width="28.3" height="28.3"/>
  </g>
  <g id="Layer_4" data-name="Layer 4">
    <rect class="cls-2" x="112.9" y="28.3" width="28.3" height="28.3"/>
    <rect class="cls-2" x="141.2" y="28.3" width="28.3" height="28.3"/>
    <rect class="cls-2" x="565.7" y="28.3" width="28.3" height="28.3"/>
    <rect class="cls-2" x="594" y="28.3" width="28.3" height="28.3"/>
    <rect class="cls-2" x="169.5" y="28.3" width="28.3" height="28.3"/>
    <rect class="cls-2" x="197.8" y="28.3" width="28.3" height="28.3"/>
    <rect class="cls-2" x="226.1" y="28.3" width="28.3" height="28.3"/>
    <rect class="cls-2" x="254.4" y="28.3" width="28.3" height="28.3"/>
    <rect class="cls-2" x="282.7" y="28.3" width="28.3" height="28.3"/>
    <rect class="cls-2" x="311" y="28.3" width="28.3" height="28.3"/>
    <rect class="cls-2" x="339.3" y="28.3" width="28.3" height="28.3"/>
    <rect class="cls-2" x="367.6" y="28.3" width="28.3" height="28.3"/>
    <rect class="cls-2" x="395.9" y="28.3" width="28.3" height="28.3"/>
    <rect class="cls-2" x="424.2" y="28.3" width="28.3" height="28.3"/>
    <rect class="cls-2" x="452.5" y="28.3" width="28.3" height="28.3"/>
    <rect class="cls-2" x="480.8" y="28.3" width="28.3" height="28.3"/>
    <rect class="cls-2" x="509.1" y="28.3" width="28.3" height="28.3"/>
    <rect class="cls-2" x="537.4" y="28.3" width="28.3" height="28.3"/>
    <rect class="cls-7" x="112.9" y="56.6" width="28.3" height="28.3"/>
    <rect class="cls-7" x="141.2" y="56.6" width="28.3" height="28.3"/>
    <rect class="cls-7" x="565.7" y="56.6" width="28.3" height="28.3"/>
    <rect class="cls-7" x="594" y="56.6" width="28.3" height="28.3"/>
    <rect class="cls-7" x="169.5" y="56.6" width="28.3" height="28.3"/>
    <rect class="cls-7" x="197.8" y="56.6" width="28.3" height="28.3"/>
    <rect class="cls-7" x="226.1" y="56.6" width="28.3" height="28.3"/>
    <rect class="cls-7" x="254.4" y="56.6" width="28.3" height="28.3"/>
    <rect class="cls-7" x="282.7" y="56.6" width="28.3" height="28.3"/>
    <rect class="cls-7" x="311" y="56.6" width="28.3" height="28.3"/>
    <rect class="cls-7" x="339.3" y="56.6" width="28.3" height="28.3"/>
    <rect class="cls-7" x="367.6" y="56.6" width="28.3" height="28.3"/>
    <rect class="cls-7" x="395.9" y="56.6" width="28.3" height="28.3"/>
    <rect class="cls-7" x="424.2" y="56.6" width="28.3" height="28.3"/>
    <rect class="cls-7" x="452.5" y="56.6" width="28.3" height="28.3"/>
    <rect class="cls-7" x="480.8" y="56.6" width="28.3" height="28.3"/>
    <rect class="cls-7" x="509.1" y="56.6" width="28.3" height="28.3"/>
    <rect class="cls-7" x="537.4" y="56.6" width="28.3" height="28.3"/>
    <rect class="cls-7" x="112.9" y="84.9" width="28.3" height="28.3"/>
    <rect class="cls-7" x="141.2" y="84.9" width="28.3" height="28.3"/>
    <rect class="cls-7" x="565.7" y="84.9" width="28.3" height="28.3"/>
    <rect class="cls-7" x="594" y="84.9" width="28.3" height="28.3"/>
    <rect class="cls-7" x="169.5" y="84.9" width="28.3" height="28.3"/>
    <rect class="cls-7" x="197.8" y="84.9" width="28.3" height="28.3"/>
    <rect class="cls-7" x="226.1" y="84.9" width="28.3" height="28.3"/>
    <rect class="cls-7" x="254.4" y="84.9" width="28.3" height="28.3"/>
    <rect class="cls-7" x="282.7" y="84.9" width="28.3" height="28.3"/>
    <rect class="cls-7" x="311" y="84.9" width="28.3" height="28.3"/>
    <rect class="cls-7" x="339.3" y="84.9" width="28.3" height="28.3"/>
    <rect class="cls-7" x="367.6" y="84.9" width="28.3" height="28.3"/>
    <rect class="cls-7" x="395.9" y="84.9" width="28.3" height="28.3"/>
    <rect class="cls-7" x="424.2" y="84.9" width="28.3" height="28.3"/>
    <rect class="cls-7" x="452.5" y="84.9" width="28.3" height="28.3"/>
    <rect class="cls-7" x="480.8" y="84.9" width="28.3" height="28.3"/>
    <rect class="cls-7" x="509.1" y="84.9" width="28.3" height="28.3"/>
    <rect class="cls-7" x="537.4" y="84.9" width="28.3" height="28.3"/>
    <rect class="cls-7" x="112.9" y="112.9" width="28.3" height="28.3"/>
    <rect class="cls-7" x="141.2" y="112.9" width="28.3" height="28.3"/>
    <rect class="cls-7" x="565.7" y="112.9" width="28.3" height="28.3"/>
    <rect class="cls-7" x="594" y="112.9" width="28.3" height="28.3"/>
    <rect class="cls-7" x="169.5" y="112.9" width="28.3" height="28.3"/>
    <rect class="cls-7" x="197.8" y="112.9" width="28.3" height="28.3"/>
    <rect class="cls-7" x="226.1" y="112.9" width="28.3" height="28.3"/>
    <rect class="cls-7" x="254.4" y="112.9" width="28.3" height="28.3"/>
    <rect class="cls-7" x="282.7" y="112.9" width="28.3" height="28.3"/>
    <rect class="cls-7" x="311" y="112.9" width="28.3" height="28.3"/>
    <rect class="cls-7" x="339.3" y="112.9" width="28.3" height="28.3"/>
    <rect class="cls-7" x="367.6" y="112.9" width="28.3" height="28.3"/>
    <rect class="cls-7" x="395.9" y="112.9" width="28.3" height="28.3"/>
    <rect class="cls-7" x="424.2" y="112.9" width="28.3" height="28.3"/>
    <rect class="cls-7" x="452.5" y="112.9" width="28.3" height="28.3"/>
    <rect class="cls-7" x="480.8" y="112.9" width="28.3" height="28.3"/>
    <rect class="cls-7" x="509.1" y="112.9" width="28.3" height="28.3"/>
    <rect class="cls-7" x="537.4" y="112.9" width="28.3" height="28.3"/>
    <rect class="cls-7" x="112.9" y="141.2" width="28.3" height="28.3"/>
    <rect class="cls-7" x="141.2" y="141.2" width="28.3" height="28.3"/>
    <rect class="cls-7" x="565.7" y="141.2" width="28.3" height="28.3"/>
    <rect class="cls-7" x="594" y="141.2" width="28.3" height="28.3"/>
    <rect class="cls-7" x="169.5" y="141.2" width="28.3" height="28.3"/>
    <rect class="cls-7" x="197.8" y="141.2" width="28.3" height="28.3"/>
    <rect class="cls-7" x="226.1" y="141.2" width="28.3" height="28.3"/>
    <rect class="cls-7" x="254.4" y="141.2" width="28.3" height="28.3"/>
    <rect class="cls-7" x="282.7" y="141.2" width="28.3" height="28.3"/>
    <rect class="cls-7" x="311" y="141.2" width="28.3" height="28.3"/>
    <rect class="cls-7" x="339.3" y="141.2" width="28.3" height="28.3"/>
    <rect class="cls-7" x="367.6" y="141.2" width="28.3" height="28.3"/>
    <rect class="cls-7" x="395.9" y="141.2" width="28.3" height="28.3"/>
    <rect class="cls-7" x="424.2" y="141.2" width="28.3" height="28.3"/>
    <rect class="cls-7" x="452.5" y="141.2" width="28.3" height="28.3"/>
    <rect class="cls-7" x="480.8" y="141.2" width="28.3" height="28.3"/>
    <rect class="cls-7" x="509.1" y="141.2" width="28.3" height="28.3"/>
    <rect class="cls-7" x="537.4" y="141.2" width="28.3" height="28.3"/>
    <rect class="cls-7" x="112.9" y="169.5" width="28.3" height="28.3"/>
    <rect class="cls-7" x="141.2" y="169.5" width="28.3" height="28.3"/>
    <rect class="cls-7" x="565.7" y="169.5" width="28.3" height="28.3"/>
    <rect class="cls-7" x="594" y="169.5" width="28.3" height="28.3"/>
    <rect class="cls-7" x="169.5" y="169.5" width="28.3" height="28.3"/>
    <rect class="cls-7" x="197.8" y="169.5" width="28.3" height="28.3"/>
    <rect class="cls-7" x="226.1" y="169.5" width="28.3" height="28.3"/>
    <rect class="cls-7" x="254.4" y="169.5" width="28.3" height="28.3"/>
    <rect class="cls-7" x="282.7" y="169.5" width="28.3" height="28.3"/>
    <rect class="cls-7" x="311" y="169.5" width="28.3" height="28.3"/>
    <rect class="cls-7" x="339.3" y="169.5" width="28.3" height="28.3"/>
    <rect class="cls-7" x="367.6" y="169.5" width="28.3" height="28.3"/>
    <rect class="cls-7" x="395.9" y="169.5" width="28.3" height="28.3"/>
    <rect class="cls-7" x="424.2" y="169.5" width="28.3" height="28.3"/>
    <rect class="cls-7" x="452.5" y="169.5" width="28.3" height="28.3"/>
    <rect class="cls-7" x="480.8" y="169.5" width="28.3" height="28.3"/>
    <rect class="cls-7" x="509.1" y="169.5" width="28.3" height="28.3"/>
    <rect class="cls-7" x="537.4" y="169.5" width="28.3" height="28.3"/>
    <rect class="cls-7" x="112.9" y="197.6" width="28.3" height="28.3"/>
    <rect class="cls-7" x="141.2" y="197.6" width="28.3" height="28.3"/>
    <rect class="cls-7" x="565.7" y="197.6" width="28.3" height="28.3"/>
    <rect class="cls-7" x="594" y="197.6" width="28.3" height="28.3"/>
    <rect class="cls-7" x="169.5" y="197.6" width="28.3" height="28.3"/>
    <rect class="cls-7" x="197.8" y="197.6" width="28.3" height="28.3"/>
    <rect class="cls-7" x="226.1" y="197.6" width="28.3" height="28.3"/>
    <rect class="cls-7" x="254.4" y="197.6" width="28.3" height="28.3"/>
    <rect class="cls-7" x="282.7" y="197.6" width="28.3" height="28.3"/>
    <rect class="cls-7" x="311" y="197.6" width="28.3" height="28.3"/>
    <rect class="cls-7" x="339.3" y="197.6" width="28.3" height="28.3"/>
    <rect class="cls-7" x="367.6" y="197.6" width="28.3" height="28.3"/>
    <rect class="cls-7" x="395.9" y="197.6" width="28.3" height="28.3"/>
    <rect class="cls-7" x="424.2" y="197.6" width="28.3" height="28.3"/>
    <rect class="cls-7" x="452.5" y="197.6" width="28.3" height="28.3"/>
    <rect class="cls-7" x="480.8" y="197.6" width="28.3" height="28.3"/>
    <rect class="cls-7" x="509.1" y="197.6" width="28.3" height="28.3"/>
    <rect class="cls-7" x="537.4" y="197.6" width="28.3" height="28.3"/>
    <rect class="cls-7" x="112.9" y="225.9" width="28.3" height="28.3"/>
    <rect class="cls-7" x="141.2" y="225.9" width="28.3" height="28.3"/>
    <rect class="cls-7" x="565.7" y="225.9" width="28.3" height="28.3"/>
    <rect class="cls-7" x="594" y="225.9" width="28.3" height="28.3"/>
    <rect class="cls-7" x="169.5" y="225.9" width="28.3" height="28.3"/>
    <rect class="cls-7" x="197.8" y="225.9" width="28.3" height="28.3"/>
    <rect class="cls-7" x="226.1" y="225.9" width="28.3" height="28.3"/>
    <rect class="cls-7" x="254.4" y="225.9" width="28.3" height="28.3"/>
    <rect class="cls-7" x="282.7" y="225.9" width="28.3" height="28.3"/>
    <rect class="cls-7" x="311" y="225.9" width="28.3" height="28.3"/>
    <rect class="cls-7" x="339.3" y="225.9" width="28.3" height="28.3"/>
    <rect class="cls-7" x="367.6" y="225.9" width="28.3" height="28.3"/>
    <rect class="cls-7" x="395.9" y="225.9" width="28.3" height="28.3"/>
    <rect class="cls-7" x="424.2" y="225.9" width="28.3" height="28.3"/>
    <rect class="cls-7" x="452.5" y="225.9" width="28.3" height="28.3"/>
    <rect class="cls-7" x="480.8" y="225.9" width="28.3" height="28.3"/>
    <rect class="cls-7" x="509.1" y="225.9" width="28.3" height="28.3"/>
    <rect class="cls-7" x="537.4" y="225.9" width="28.3" height="28.3"/>
    <rect class="cls-7" x="112.9" y="254.2" width="28.3" height="28.3"/>
    <rect class="cls-7" x="141.2" y="254.2" width="28.3" height="28.3"/>
    <rect class="cls-7" x="565.7" y="254.2" width="28.3" height="28.3"/>
    <rect class="cls-7" x="594" y="254.2" width="28.3" height="28.3"/>
    <rect class="cls-7" x="169.5" y="254.2" width="28.3" height="28.3"/>
    <rect class="cls-7" x="197.8" y="254.2" width="28.3" height="28.3"/>
    <rect class="cls-7" x="226.1" y="254.2" width="28.3" height="28.3"/>
    <rect class="cls-7" x="254.4" y="254.2" width="28.3" height="28.3"/>
    <rect class="cls-7" x="282.7" y="254.2" width="28.3" height="28.3"/>
    <rect class="cls-7" x="311" y="254.2" width="28.3" height="28.3"/>
    <rect class="cls-7" x="339.3" y="254.2" width="28.3" height="28.3"/>
    <rect class="cls-7" x="367.6" y="254.2" width="28.3" height="28.3"/>
    <rect class="cls-7" x="395.9" y="254.2" width="28.3" height="28.3"/>
    <rect class="cls-7" x="424.2" y="254.2" width="28.3" height="28.3"/>
    <rect class="cls-7" x="452.5" y="254.2" width="28.3" height="28.3"/>
    <rect class="cls-7" x="480.8" y="254.2" width="28.3" height="28.3"/>
    <rect class="cls-7" x="509.1" y="254.2" width="28.3" height="28.3"/>
    <rect class="cls-7" x="537.4" y="254.2" width="28.3" height="28.3"/>
    <rect class="cls-3" x="113.2" y="282.2" width="28.3" height="28.3"/>
    <rect class="cls-3" x="141.5" y="282.2" width="28.3" height="28.3"/>
    <rect class="cls-3" x="566" y="282.2" width="28.3" height="28.3"/>
    <rect class="cls-3" x="594.3" y="282.2" width="28.3" height="28.3"/>
    <rect class="cls-3" x="169.8" y="282.2" width="28.3" height="28.3"/>
    <rect class="cls-3" x="198.1" y="282.2" width="28.3" height="28.3"/>
    <rect class="cls-3" x="226.4" y="282.2" width="28.3" height="28.3"/>
    <rect class="cls-3" x="254.7" y="282.2" width="28.3" height="28.3"/>
    <rect class="cls-3" x="283" y="282.2" width="28.3" height="28.3"/>
    <rect class="cls-3" x="311.3" y="282.2" width="28.3" height="28.3"/>
    <rect class="cls-3" x="339.6" y="282.2" width="28.3" height="28.3"/>
    <rect class="cls-3" x="367.9" y="282.2" width="28.3" height="28.3"/>
    <rect class="cls-3" x="396.2" y="282.2" width="28.3" height="28.3"/>
    <rect class="cls-3" x="424.5" y="282.2" width="28.3" height="28.3"/>
    <rect class="cls-3" x="452.8" y="282.2" width="28.3" height="28.3"/>
    <rect class="cls-3" x="481.1" y="282.2" width="28.3" height="28.3"/>
    <rect class="cls-3" x="509.4" y="282.2" width="28.3" height="28.3"/>
    <rect class="cls-3" x="537.7" y="282.2" width="28.3" height="28.3"/>
    <rect class="cls-2" x="84.8" y="56.6" width="28.3" height="28.3"/>
    <rect class="cls-7" x="84.8" y="84.9" width="28.3" height="28.3"/>
    <rect class="cls-7" x="84.8" y="112.9" width="28.3" height="28.3"/>
    <rect class="cls-7" x="84.8" y="141.2" width="28.3" height="28.3"/>
    <rect class="cls-7" x="84.8" y="169.5" width="28.3" height="28.3"/>
    <rect class="cls-7" x="84.8" y="197.6" width="28.3" height="28.3"/>
    <rect class="cls-7" x="84.8" y="225.9" width="28.3" height="28.3"/>
    <rect class="cls-7" x="84.8" y="254.2" width="28.3" height="28.3"/>
    <rect class="cls-2" x="56.5" y="56.6" width="28.3" height="28.3"/>
    <rect class="cls-2" x="56.5" y="84.9" width="28.3" height="28.3"/>
    <rect class="cls-7" x="56.5" y="112.9" width="28.3" height="28.3"/>
    <rect class="cls-7" x="56.5" y="141.2" width="28.3" height="28.3"/>
    <rect class="cls-7" x="56.5" y="169.5" width="28.3" height="28.3"/>
    <rect class="cls-7" x="56.5" y="197.6" width="28.3" height="28.3"/>
    <rect class="cls-7" x="56.5" y="225.9" width="28.3" height="28.3"/>
    <rect class="cls-7" x="56.5" y="254.2" width="28.3" height="28.3"/>
    <rect class="cls-7" x="622.1" y="56.6" width="28.3" height="28.3"/>
    <rect class="cls-7" x="622.1" y="84.9" width="28.3" height="28.3"/>
    <rect class="cls-7" x="622.1" y="112.9" width="28.3" height="28.3"/>
    <rect class="cls-7" x="622.1" y="141.2" width="28.3" height="28.3"/>
    <rect class="cls-7" x="622.1" y="169.5" width="28.3" height="28.3"/>
    <rect class="cls-7" x="622.1" y="197.6" width="28.3" height="28.3"/>
    <rect class="cls-7" x="622.1" y="225.9" width="28.3" height="28.3"/>
    <rect class="cls-3" x="622.1" y="254.2" width="28.3" height="28.3"/>
    <rect class="cls-7" x="650.4" y="56.6" width="28.3" height="28.3"/>
    <rect class="cls-7" x="650.4" y="84.9" width="28.3" height="28.3"/>
    <rect class="cls-7" x="650.4" y="112.9" width="28.3" height="28.3"/>
    <rect class="cls-7" x="650.4" y="141.2" width="28.3" height="28.3"/>
    <rect class="cls-7" x="650.4" y="169.5" width="28.3" height="28.3"/>
    <rect class="cls-7" x="650.4" y="197.6" width="28.3" height="28.3"/>
    <rect class="cls-3" x="650.4" y="225.9" width="28.3" height="28.3"/>
    <rect class="cls-3" x="650.4" y="254.2" width="28.3" height="28.3"/>
    <rect class="cls-2" x="28.3" y="113.3" width="28.3" height="28.3"/>
    <rect class="cls-2" x="28.3" y="141.6" width="28.3" height="28.3"/>
    <rect class="cls-2" x="28.3" y="169.9" width="28.3" height="28.3"/>
    <rect class="cls-2" x="28.3" y="198" width="28.3" height="28.3"/>
    <rect class="cls-3" x="678.7" y="113.4" width="28.3" height="28.3"/>
    <rect class="cls-3" x="678.7" y="141.7" width="28.3" height="28.3"/>
    <rect class="cls-3" x="678.7" y="170" width="28.3" height="28.3"/>
    <rect class="cls-3" x="678.7" y="198.1" width="28.3" height="28.3"/>
  </g>
</svg>