<?xml version="1.0" encoding="UTF-8"?>
<svg xmlns="http://www.w3.org/2000/svg" version="1.1" xmlns:xlink="http://www.w3.org/1999/xlink" viewBox="0 0 280.4 282.5">
  <defs>
    <style>
      .cls-1 {
        fill: #f9f4da;
      }

      .cls-1, .cls-2, .cls-3, .cls-4, .cls-5, .cls-6, .cls-7, .cls-8 {
        stroke-width: 0px;
      }

      .cls-2 {
        fill: #000;
      }

      .cls-3 {
        fill: #faeaa1;
      }

      .cls-4 {
        fill: #51596e;
      }

      .cls-5 {
        fill: #a65025;
      }

      .cls-6 {
        fill: #722e15;
      }

      .cls-7 {
        fill: #c17b2a;
      }

      .cls-8 {
        fill: #fff;
      }

      .cls-9 {
        display: none;
      }
    </style>
  </defs>
  <g id="Layer_1" data-name="Layer 1" class="cls-9">
    <image width="663" height="594" transform="translate(-185.7 -154.3)" xlink:href="Eevee-1.png"/>
  </g>
  <g id="Layer_9" data-name="Layer 9">
    <rect class="cls-8" x="86.2" y="144.5" width="15" height="15"/>
    <rect class="cls-8" x="26.4" y="114.5" width="15" height="15"/>
  </g>
  <g id="Layer_8" data-name="Layer 8">
    <rect class="cls-1" x="131.1" y="174.2" width="15" height="15"/>
    <rect class="cls-1" x="131.1" y="189.2" width="15" height="15"/>
    <rect class="cls-1" x="116.1" y="189.2" width="15" height="15"/>
    <rect class="cls-1" x="116.1" y="204.2" width="15" height="15"/>
    <rect class="cls-1" x="101" y="219.1" width="15" height="15"/>
    <rect class="cls-1" x="86" y="204.2" width="15" height="15"/>
    <rect class="cls-1" x="71" y="204.2" width="15" height="15"/>
    <rect class="cls-1" x="85.9" y="189.2" width="15" height="15"/>
    <rect class="cls-1" x="71" y="189.3" width="15" height="15"/>
    <rect class="cls-1" x="56" y="189.3" width="15" height="15"/>
    <rect class="cls-1" x="41.3" y="204.2" width="15" height="15"/>
    <rect class="cls-1" x="41.1" y="189.3" width="15" height="15"/>
    <rect class="cls-1" x="26.4" y="174.2" width="15" height="15"/>
    <rect class="cls-1" x="26.4" y="189.2" width="15" height="15"/>
    <rect class="cls-1" x="235.8" y="84.5" width="15" height="15"/>
    <rect class="cls-1" x="235.8" y="69.6" width="15" height="15"/>
    <rect class="cls-1" x="235.8" y="54.7" width="15" height="15"/>
    <rect class="cls-1" x="175.9" y="69.5" width="15" height="15"/>
    <rect class="cls-1" x="175.9" y="54.7" width="15" height="15"/>
    <rect class="cls-1" x="161.2" y="54.7" width="15" height="15"/>
  </g>
  <g id="Layer_7" data-name="Layer 7">
    <rect class="cls-3" x="205.9" y="69.6" width="15" height="15"/>
    <rect class="cls-3" x="220.8" y="69.6" width="15" height="15"/>
    <rect class="cls-3" x="220.8" y="84.5" width="15" height="15"/>
    <rect class="cls-3" x="235.8" y="99.5" width="15" height="15"/>
    <rect class="cls-3" x="146" y="129.5" width="15" height="15"/>
    <rect class="cls-3" x="146" y="144.5" width="15" height="15"/>
    <rect class="cls-3" x="161" y="159.3" width="15" height="15"/>
    <rect class="cls-3" x="146" y="159.4" width="15" height="15"/>
    <rect class="cls-3" x="161" y="174.2" width="15" height="15"/>
    <rect class="cls-3" x="146.1" y="174.4" width="15" height="15"/>
    <rect class="cls-3" x="146" y="189.2" width="15" height="15"/>
    <rect class="cls-3" x="131.1" y="204.2" width="15" height="15"/>
    <rect class="cls-3" x="71" y="219.1" width="15" height="15"/>
    <rect class="cls-3" x="85.9" y="219.1" width="15" height="15"/>
    <rect class="cls-3" x="56" y="204.2" width="15" height="15"/>
    <rect class="cls-3" x="101" y="204.2" width="15" height="15"/>
    <rect class="cls-3" x="101" y="189.3" width="15" height="15"/>
  </g>
  <g id="Layer_6" data-name="Layer 6">
    <rect class="cls-4" x="41.3" y="84.7" width="15" height="15"/>
    <rect class="cls-4" x="56.3" y="69.6" width="15" height="15"/>
    <rect class="cls-4" x="71.2" y="69.7" width="15" height="15"/>
    <rect class="cls-4" x="190.9" y="69.5" width="15" height="15"/>
    <rect class="cls-4" x="175.9" y="84.5" width="15" height="15"/>
    <rect class="cls-4" x="161" y="99.5" width="15" height="15"/>
    <rect class="cls-4" x="146" y="114.5" width="15" height="15"/>
    <rect class="cls-4" x="131.1" y="129.5" width="15" height="15"/>
    <rect class="cls-4" x="161" y="189.2" width="15" height="15"/>
    <rect class="cls-4" x="86.2" y="234.1" width="15" height="15"/>
    <rect class="cls-4" x="101.2" y="234.1" width="15" height="15"/>
    <rect class="cls-4" x="56" y="219.1" width="15" height="15"/>
    <rect class="cls-4" x="71.2" y="69.2" width="15" height="15"/>
    <rect class="cls-4" x="82.8" y="69.2" width="15" height="15"/>
    <rect class="cls-4" x="56.3" y="67" width="15" height="15"/>
    <rect class="cls-4" x="190.9" y="71.8" width="15" height="15"/>
  </g>
  <g id="Layer_5" data-name="Layer 5">
    <rect class="cls-5" x="86.2" y="129.5" width="15" height="15"/>
    <rect class="cls-5" x="71.2" y="144.5" width="15" height="15"/>
    <rect class="cls-5" x="41.3" y="159.4" width="15" height="15"/>
    <rect class="cls-5" x="71.2" y="174.4" width="15" height="15"/>
    <rect class="cls-5" x="86.2" y="174.4" width="15" height="15"/>
    <rect class="cls-5" x="101.2" y="174.4" width="15" height="15"/>
    <rect class="cls-5" x="116.1" y="159.3" width="15" height="15"/>
    <rect class="cls-5" x="161" y="114.4" width="15" height="15"/>
    <rect class="cls-5" x="190.9" y="114.4" width="15" height="15"/>
    <rect class="cls-5" x="205.9" y="114.4" width="15" height="15"/>
    <rect class="cls-5" x="220.8" y="114.4" width="15" height="15"/>
    <rect class="cls-5" x="220.8" y="99.5" width="15" height="15"/>
    <rect class="cls-5" x="205.9" y="99.5" width="15" height="15"/>
    <rect class="cls-5" x="190.9" y="99.5" width="15" height="15"/>
    <rect class="cls-5" x="175.9" y="99.5" width="15" height="15"/>
    <rect class="cls-5" x="205.9" y="84.6" width="15" height="15"/>
    <rect class="cls-5" x="190.9" y="84.6" width="15" height="15"/>
    <rect class="cls-5" x="175.9" y="129.5" width="15" height="15"/>
    <rect class="cls-5" x="175.9" y="144.5" width="15" height="15"/>
    <rect class="cls-5" x="190.9" y="144.3" width="15" height="15"/>
    <rect class="cls-5" x="190.9" y="159.3" width="15" height="15"/>
    <rect class="cls-5" x="205.9" y="174.2" width="15" height="15"/>
    <rect class="cls-5" x="190.9" y="174.2" width="15" height="15"/>
    <rect class="cls-5" x="190.9" y="189.2" width="15" height="15"/>
    <rect class="cls-5" x="205.9" y="189.2" width="15" height="15"/>
    <rect class="cls-5" x="205.9" y="204.2" width="15" height="15"/>
    <rect class="cls-5" x="131.1" y="219.1" width="15" height="15"/>
    <rect class="cls-5" x="116.1" y="249" width="15" height="15"/>
    <rect class="cls-5" x="116.1" y="234.1" width="15" height="15"/>
    <rect class="cls-5" x="71.2" y="234.1" width="15" height="15"/>
    <rect class="cls-5" x="131.1" y="69.6" width="15" height="15"/>
    <rect class="cls-5" x="71.2" y="54.6" width="15" height="15"/>
    <rect class="cls-5" x="101.2" y="172.8" width="15" height="15"/>
  </g>
  <g id="Layer_4" data-name="Layer 4">
    <rect class="cls-6" x="56.3" y="39.8" width="15" height="15"/>
    <rect class="cls-6" x="56.3" y="54.6" width="15" height="15"/>
    <rect class="cls-6" x="41.3" y="69.7" width="15" height="15"/>
    <rect class="cls-6" x="26.4" y="99.6" width="15" height="15"/>
    <rect class="cls-6" x="116.1" y="84.6" width="15" height="15"/>
    <rect class="cls-6" x="131.1" y="99.7" width="15" height="15"/>
    <rect class="cls-6" x="146" y="99.6" width="15" height="15"/>
    <rect class="cls-6" x="146" y="84.6" width="15" height="15"/>
    <rect class="cls-6" x="161" y="84.6" width="15" height="15"/>
    <rect class="cls-6" x="161" y="69.7" width="15" height="15"/>
    <rect class="cls-6" x="190.9" y="129.4" width="15" height="15"/>
    <rect class="cls-6" x="175.9" y="114.5" width="15" height="15"/>
    <rect class="cls-6" x="161" y="129.4" width="15" height="15"/>
    <rect class="cls-6" x="161" y="144.3" width="15" height="15"/>
    <rect class="cls-6" x="175.9" y="159.4" width="15" height="15"/>
    <rect class="cls-6" x="175.9" y="174.2" width="15" height="15"/>
    <rect class="cls-6" x="175.9" y="189.2" width="15" height="15"/>
    <rect class="cls-6" x="190.9" y="204.2" width="15" height="15"/>
    <rect class="cls-6" x="146" y="204.2" width="15" height="15"/>
    <rect class="cls-6" x="116.1" y="219.1" width="15" height="15"/>
    <rect class="cls-6" x="101.2" y="129.5" width="15" height="15"/>
    <rect class="cls-6" x="131.1" y="144.5" width="15" height="15"/>
    <rect class="cls-6" x="131.1" y="159.4" width="15" height="15"/>
    <rect class="cls-6" x="116.1" y="174.4" width="15" height="15"/>
    <rect class="cls-6" x="86.2" y="159.4" width="15" height="15"/>
    <rect class="cls-6" x="41.3" y="174.4" width="15" height="15"/>
    <rect class="cls-6" x="56.3" y="174.4" width="15" height="15"/>
    <rect class="cls-6" x="116.1" y="174.2" width="15" height="15"/>
    <rect class="cls-6" x="175.9" y="114.4" width="15" height="15"/>
    <rect class="cls-6" x="116.1" y="84" width="15" height="15"/>
    <rect class="cls-6" x="41.3" y="68.8" width="15" height="15"/>
    <rect class="cls-6" x="56.3" y="37.6" width="15" height="15"/>
  </g>
  <g id="Layer_3" data-name="Layer 3">
    <rect class="cls-7" x="56.3" y="24.7" width="15" height="15"/>
    <rect class="cls-7" x="71.2" y="24.7" width="15" height="15"/>
    <rect class="cls-7" x="71.2" y="39.6" width="15" height="15"/>
    <rect class="cls-7" x="41.3" y="39.6" width="15" height="15"/>
    <rect class="cls-7" x="41.3" y="54.6" width="15" height="15"/>
    <rect class="cls-7" x="86.2" y="69.7" width="15" height="15"/>
    <rect class="cls-7" x="101.2" y="84.6" width="15" height="15"/>
    <rect class="cls-7" x="86.2" y="84.6" width="15" height="15"/>
    <rect class="cls-7" x="71.2" y="84.6" width="15" height="15"/>
    <rect class="cls-7" x="56.3" y="84.6" width="15" height="15"/>
    <rect class="cls-7" x="41.3" y="99.6" width="15" height="15"/>
    <rect class="cls-7" x="56.3" y="99.6" width="15" height="15"/>
    <rect class="cls-7" x="71.2" y="99.6" width="15" height="15"/>
    <rect class="cls-7" x="86.2" y="99.6" width="15" height="15"/>
    <rect class="cls-7" x="101.2" y="99.6" width="15" height="15"/>
    <rect class="cls-7" x="116.1" y="99.6" width="15" height="15"/>
    <rect class="cls-7" x="116.1" y="114.5" width="15" height="15"/>
    <rect class="cls-7" x="131.1" y="114.5" width="15" height="15"/>
    <rect class="cls-7" x="41.3" y="114.5" width="15" height="15"/>
    <rect class="cls-7" x="56.3" y="114.5" width="15" height="15"/>
    <rect class="cls-7" x="71.2" y="114.5" width="15" height="15"/>
    <rect class="cls-7" x="86.2" y="114.5" width="15" height="15"/>
    <rect class="cls-7" x="101.2" y="114.5" width="15" height="15"/>
    <rect class="cls-7" x="41.3" y="129.5" width="15" height="15"/>
    <rect class="cls-7" x="56.3" y="129.5" width="15" height="15"/>
    <rect class="cls-7" x="71.2" y="129.5" width="15" height="15"/>
    <rect class="cls-7" x="26.4" y="144.3" width="15" height="15"/>
    <rect class="cls-7" x="41.3" y="144.5" width="15" height="15"/>
    <rect class="cls-7" x="56.3" y="144.5" width="15" height="15"/>
    <rect class="cls-7" x="56.3" y="159.4" width="15" height="15"/>
    <rect class="cls-7" x="71.2" y="159.4" width="15" height="15"/>
    <rect class="cls-7" x="116.1" y="129.5" width="15" height="15"/>
    <rect class="cls-7" x="116.1" y="144.5" width="15" height="15"/>
    <rect class="cls-7" x="131.1" y="84.6" width="15" height="15"/>
    <rect class="cls-7" x="146" y="69.5" width="15" height="15"/>
    <rect class="cls-7" x="101.2" y="249" width="15" height="15"/>
    <rect class="cls-7" x="146" y="69.7" width="15" height="15"/>
    <rect class="cls-7" x="131.1" y="84.8" width="15" height="15"/>
    <rect class="cls-7" x="101.2" y="78.3" width="15" height="15"/>
    <rect class="cls-7" x="86.2" y="68.4" width="15" height="15"/>
  </g>
  <g id="Layer_2" data-name="Layer 2">
    <rect class="cls-2" x="41.3" y="24.7" width="15" height="15"/>
    <rect class="cls-2" x="56.3" y="9.7" width="15" height="15"/>
    <rect class="cls-2" x="71.2" y="9.7" width="15" height="15"/>
    <rect class="cls-2" x="86.2" y="9.7" width="15" height="15"/>
    <rect class="cls-2" x="86.2" y="24.7" width="15" height="15"/>
    <rect class="cls-2" x="86.2" y="39.6" width="15" height="15"/>
    <rect class="cls-2" x="86.2" y="54.6" width="15" height="15"/>
    <rect class="cls-2" x="101.2" y="54.6" width="15" height="15"/>
    <rect class="cls-2" x="101.2" y="69.5" width="15" height="15"/>
    <rect class="cls-2" x="116.1" y="69.5" width="15" height="15"/>
    <rect class="cls-2" x="131.1" y="54.6" width="15" height="15"/>
    <rect class="cls-2" x="146" y="54.6" width="15" height="15"/>
    <rect class="cls-2" x="161" y="39.6" width="15" height="15"/>
    <rect class="cls-2" x="175.9" y="39.6" width="15" height="15"/>
    <rect class="cls-2" x="190.9" y="39.6" width="15" height="15"/>
    <rect class="cls-2" x="190.9" y="54.6" width="15" height="15"/>
    <rect class="cls-2" x="205.9" y="54.6" width="15" height="15"/>
    <rect class="cls-2" x="220.8" y="54.6" width="15" height="15"/>
    <rect class="cls-2" x="235.8" y="39.6" width="15" height="15"/>
    <rect class="cls-2" x="250.7" y="54.6" width="15" height="15"/>
    <rect class="cls-2" x="250.7" y="69.5" width="15" height="15"/>
    <rect class="cls-2" x="250.7" y="84.5" width="15" height="15"/>
    <rect class="cls-2" x="250.7" y="99.5" width="15" height="15"/>
    <rect class="cls-2" x="235.8" y="114.4" width="15" height="15"/>
    <rect class="cls-2" x="220.8" y="129.4" width="15" height="15"/>
    <rect class="cls-2" x="205.9" y="129.4" width="15" height="15"/>
    <rect class="cls-2" x="205.9" y="144.3" width="15" height="15"/>
    <rect class="cls-2" x="205.9" y="159.3" width="15" height="15"/>
    <rect class="cls-2" x="220.8" y="174.2" width="15" height="15"/>
    <rect class="cls-2" x="220.8" y="189.2" width="15" height="15"/>
    <rect class="cls-2" x="220.8" y="204.2" width="15" height="15"/>
    <rect class="cls-2" x="205.9" y="219.1" width="15" height="15"/>
    <rect class="cls-2" x="190.9" y="219.1" width="15" height="15"/>
    <rect class="cls-2" x="175.9" y="204.2" width="15" height="15"/>
    <rect class="cls-2" x="161" y="204.2" width="15" height="15"/>
    <rect class="cls-2" x="146" y="219.1" width="15" height="15"/>
    <rect class="cls-2" x="131.1" y="234.1" width="15" height="15"/>
    <rect class="cls-2" x="131.1" y="249" width="15" height="15"/>
    <rect class="cls-2" x="116.1" y="264" width="15" height="15"/>
    <rect class="cls-2" x="101.2" y="264" width="15" height="15"/>
    <rect class="cls-2" x="86.2" y="249" width="15" height="15"/>
    <rect class="cls-2" x="71.2" y="249" width="15" height="15"/>
    <rect class="cls-2" x="56.3" y="234.1" width="15" height="15"/>
    <rect class="cls-2" x="41.3" y="219.1" width="15" height="15"/>
    <rect class="cls-2" x="26.4" y="204.2" width="15" height="15"/>
    <rect class="cls-2" x="11.4" y="189.2" width="15" height="15"/>
    <rect class="cls-2" x="11.4" y="174.2" width="15" height="15"/>
    <rect class="cls-2" x="26.4" y="159.3" width="15" height="15"/>
    <rect class="cls-2" x="11.4" y="144.3" width="15" height="15"/>
    <rect class="cls-2" x="11.4" y="129.4" width="15" height="15"/>
    <rect class="cls-2" x="26.4" y="129.4" width="15" height="15"/>
    <rect class="cls-2" x="11.4" y="114.4" width="15" height="15"/>
    <rect class="cls-2" x="11.4" y="99.6" width="15" height="15"/>
    <rect class="cls-2" x="26.4" y="84.6" width="15" height="15"/>
    <rect class="cls-2" x="26.4" y="69.7" width="15" height="15"/>
    <rect class="cls-2" x="26.4" y="54.7" width="15" height="15"/>
    <rect class="cls-2" x="26.4" y="39.8" width="15" height="15"/>
    <rect class="cls-2" x="101.2" y="144.5" width="15" height="15"/>
    <rect class="cls-2" x="101.2" y="159.3" width="15" height="15"/>
  </g>
</svg>