<?xml version="1.0" encoding="UTF-8"?>
<svg id="Layer_2" data-name="Layer 2" xmlns="http://www.w3.org/2000/svg" version="1.1" viewBox="0 0 612 792">
  <defs>
    <style>
      .cls-1 {
        fill: #000;
      }

      .cls-1, .cls-2, .cls-3, .cls-4, .cls-5, .cls-6 {
        stroke-width: 0px;
      }

      .cls-2 {
        fill: #3d296d;
      }

      .cls-3 {
        fill: #e81e62;
      }

      .cls-4 {
        fill: #979797;
      }

      .cls-5 {
        fill: #fff;
      }

      .cls-6 {
        fill: #65499e;
      }
    </style>
  </defs>
  <rect class="cls-5" x="258.64" y="314.7" width="28.34" height="28.34"/>
  <rect class="cls-5" x="230.18" y="343.04" width="28.34" height="28.34"/>
  <rect class="cls-5" x="286.98" y="343.04" width="28.34" height="28.34"/>
  <rect class="cls-5" x="315.2" y="343.04" width="28.34" height="28.34"/>
  <rect class="cls-5" x="343.66" y="314.7" width="28.34" height="28.34"/>
  <rect class="cls-5" x="372" y="343.04" width="28.34" height="28.34"/>
  <rect class="cls-5" x="286.98" y="399.72" width="28.34" height="28.34"/>
  <rect class="cls-5" x="173.5" y="428.06" width="28.34" height="28.34"/>
  <rect class="cls-5" x="315.32" y="484.74" width="28.34" height="28.34"/>
  <rect class="cls-5" x="286.98" y="484.74" width="28.34" height="28.34"/>
  <rect class="cls-5" x="258.64" y="484.74" width="28.34" height="28.34"/>
  <rect class="cls-5" x="258.64" y="456.4" width="28.34" height="28.34"/>
  <rect class="cls-5" x="230.3" y="456.4" width="28.34" height="28.34"/>
  <rect class="cls-5" x="201.96" y="456.4" width="28.34" height="28.34"/>
  <rect class="cls-5" x="201.96" y="484.74" width="28.34" height="28.34"/>
  <rect class="cls-5" x="230.3" y="484.74" width="28.34" height="28.34"/>
  <rect class="cls-3" x="372" y="286.36" width="28.34" height="28.34"/>
  <rect class="cls-3" x="400.34" y="286.36" width="28.34" height="28.34"/>
  <rect class="cls-3" x="201.96" y="286.36" width="28.34" height="28.34"/>
  <rect class="cls-3" x="230.3" y="286.36" width="28.34" height="28.34"/>
  <rect class="cls-3" x="400.34" y="314.7" width="28.34" height="28.34"/>
  <rect class="cls-3" x="201.96" y="314.7" width="28.34" height="28.34"/>
  <rect class="cls-2" x="343.66" y="258.02" width="28.34" height="28.34"/>
  <rect class="cls-2" x="343.66" y="286.36" width="28.34" height="28.34"/>
  <rect class="cls-2" x="372" y="314.7" width="28.34" height="28.34"/>
  <rect class="cls-2" x="400.34" y="343.04" width="28.34" height="28.34"/>
  <rect class="cls-2" x="428.68" y="343.04" width="28.34" height="28.34"/>
  <rect class="cls-2" x="400.34" y="371.38" width="28.34" height="28.34"/>
  <rect class="cls-2" x="428.68" y="371.38" width="28.34" height="28.34"/>
  <rect class="cls-2" x="343.66" y="371.38" width="28.34" height="28.34"/>
  <rect class="cls-2" x="372" y="371.38" width="28.34" height="28.34"/>
  <rect class="cls-2" x="372" y="399.72" width="28.34" height="28.34"/>
  <rect class="cls-2" x="400.34" y="399.72" width="28.34" height="28.34"/>
  <rect class="cls-6" x="258.64" y="258.02" width="28.34" height="28.34"/>
  <rect class="cls-6" x="286.98" y="258.02" width="28.34" height="28.34"/>
  <rect class="cls-6" x="315.32" y="258.02" width="28.34" height="28.34"/>
  <rect class="cls-6" x="258.64" y="286.36" width="28.34" height="28.34"/>
  <rect class="cls-6" x="286.98" y="286.36" width="28.34" height="28.34"/>
  <rect class="cls-6" x="315.32" y="286.36" width="28.34" height="28.34"/>
  <rect class="cls-6" x="286.98" y="314.7" width="28.34" height="28.34"/>
  <rect class="cls-6" x="315.32" y="314.7" width="28.34" height="28.34"/>
  <rect class="cls-6" x="230.3" y="314.7" width="28.34" height="28.34"/>
  <rect class="cls-6" x="173.62" y="343.04" width="28.34" height="28.34"/>
  <rect class="cls-6" x="201.96" y="343.04" width="28.34" height="28.34"/>
  <rect class="cls-6" x="258.64" y="343.04" width="28.34" height="28.34"/>
  <rect class="cls-6" x="343.66" y="343.04" width="28.34" height="28.34"/>
  <rect class="cls-6" x="173.5" y="371.38" width="28.34" height="28.34"/>
  <rect class="cls-6" x="201.84" y="371.38" width="28.34" height="28.34"/>
  <rect class="cls-6" x="230.18" y="371.38" width="28.34" height="28.34"/>
  <rect class="cls-6" x="258.52" y="371.38" width="28.34" height="28.34"/>
  <rect class="cls-6" x="201.84" y="399.72" width="28.34" height="28.34"/>
  <rect class="cls-6" x="230.18" y="399.72" width="28.34" height="28.34"/>
  <rect class="cls-1" x="258.64" y="229.68" width="28.34" height="28.34"/>
  <rect class="cls-1" x="286.98" y="229.68" width="28.34" height="28.34"/>
  <rect class="cls-1" x="315.32" y="229.68" width="28.34" height="28.34"/>
  <rect class="cls-1" x="343.66" y="229.68" width="28.34" height="28.34"/>
  <rect class="cls-1" x="372" y="258.02" width="28.34" height="28.34"/>
  <rect class="cls-1" x="400.34" y="258.02" width="28.34" height="28.34"/>
  <rect class="cls-1" x="201.96" y="258.02" width="28.34" height="28.34"/>
  <rect class="cls-1" x="230.3" y="258.02" width="28.34" height="28.34"/>
  <rect class="cls-1" x="173.62" y="286.36" width="28.34" height="28.34"/>
  <rect class="cls-1" x="173.62" y="314.7" width="28.34" height="28.34"/>
  <rect class="cls-1" x="428.68" y="286.36" width="28.34" height="28.34"/>
  <rect class="cls-1" x="428.68" y="314.7" width="28.34" height="28.34"/>
  <rect class="cls-1" x="457.02" y="343.04" width="28.34" height="28.34"/>
  <rect class="cls-1" x="457.02" y="371.38" width="28.34" height="28.34"/>
  <rect class="cls-1" x="457.02" y="399.72" width="28.34" height="28.34"/>
  <rect class="cls-1" x="457.02" y="428.06" width="28.34" height="28.34"/>
  <rect class="cls-1" x="145.28" y="343.04" width="28.34" height="28.34"/>
  <rect class="cls-1" x="145.28" y="371.38" width="28.34" height="28.34"/>
  <rect class="cls-1" x="145.28" y="399.72" width="28.34" height="28.34"/>
  <rect class="cls-1" x="145.28" y="428.06" width="28.34" height="28.34"/>
  <rect class="cls-1" x="173.5" y="456.4" width="28.34" height="28.34"/>
  <rect class="cls-1" x="173.5" y="484.74" width="28.34" height="28.34"/>
  <rect class="cls-1" x="428.56" y="456.4" width="28.34" height="28.34"/>
  <rect class="cls-1" x="428.56" y="484.74" width="28.34" height="28.34"/>
  <rect class="cls-1" x="371.88" y="513.09" width="28.34" height="28.34"/>
  <rect class="cls-1" x="400.22" y="513.09" width="28.34" height="28.34"/>
  <rect class="cls-1" x="201.84" y="513.09" width="28.34" height="28.34"/>
  <rect class="cls-1" x="230.18" y="513.09" width="28.34" height="28.34"/>
  <rect class="cls-1" x="258.52" y="541.43" width="28.34" height="28.34"/>
  <rect class="cls-1" x="286.86" y="541.43" width="28.34" height="28.34"/>
  <rect class="cls-1" x="315.2" y="541.43" width="28.34" height="28.34"/>
  <rect class="cls-1" x="343.54" y="541.43" width="28.34" height="28.34"/>
  <rect class="cls-1" x="173.62" y="399.72" width="28.34" height="28.34"/>
  <rect class="cls-1" x="201.96" y="428.06" width="28.34" height="28.34"/>
  <rect class="cls-1" x="230.18" y="428.06" width="28.34" height="28.34"/>
  <rect class="cls-1" x="258.64" y="399.72" width="28.34" height="28.34"/>
  <rect class="cls-1" x="258.52" y="428.06" width="28.34" height="28.34"/>
  <rect class="cls-1" x="428.56" y="399.72" width="28.34" height="28.34"/>
  <rect class="cls-1" x="400.1" y="428.06" width="28.34" height="28.34"/>
  <rect class="cls-1" x="372" y="428.06" width="28.34" height="28.34"/>
  <rect class="cls-1" x="343.66" y="399.72" width="28.34" height="28.34"/>
  <rect class="cls-1" x="343.66" y="428.06" width="28.34" height="28.34"/>
  <rect class="cls-1" x="286.98" y="371.38" width="28.34" height="28.34"/>
  <rect class="cls-1" x="315.32" y="371.38" width="28.34" height="28.34"/>
  <rect class="cls-1" x="286.86" y="456.4" width="28.34" height="28.34"/>
  <rect class="cls-1" x="315.2" y="456.4" width="28.34" height="28.34"/>
  <rect class="cls-4" x="315.2" y="399.72" width="28.34" height="28.34"/>
  <rect class="cls-4" x="315.2" y="428.06" width="28.34" height="28.34"/>
  <rect class="cls-4" x="286.98" y="428.06" width="28.34" height="28.34"/>
  <rect class="cls-4" x="428.56" y="428.06" width="28.34" height="28.34"/>
  <rect class="cls-4" x="400.34" y="456.4" width="28.34" height="28.34"/>
  <rect class="cls-4" x="372" y="456.4" width="28.34" height="28.34"/>
  <rect class="cls-4" x="343.66" y="456.4" width="28.34" height="28.34"/>
  <rect class="cls-4" x="400.34" y="484.74" width="28.34" height="28.34"/>
  <rect class="cls-4" x="372" y="484.74" width="28.34" height="28.34"/>
  <rect class="cls-4" x="343.66" y="484.74" width="28.34" height="28.34"/>
  <rect class="cls-4" x="343.42" y="513.09" width="28.34" height="28.34"/>
  <rect class="cls-4" x="315.2" y="513.09" width="28.34" height="28.34"/>
  <rect class="cls-4" x="286.98" y="513.09" width="28.34" height="28.34"/>
  <rect class="cls-4" x="258.64" y="513.09" width="28.34" height="28.34"/>
</svg>