<?xml version="1.0" encoding="UTF-8"?>
<svg id="Layer_2" data-name="Layer 2" xmlns="http://www.w3.org/2000/svg" version="1.1" viewBox="0 0 340.1 340.1">
  <defs>
    <style>
      .cls-1 {
        fill: #000;
      }

      .cls-1, .cls-2, .cls-3, .cls-4, .cls-5, .cls-6 {
        stroke-width: 0px;
      }

      .cls-2 {
        fill: #65499e;
      }

      .cls-3 {
        fill: #979797;
      }

      .cls-4 {
        fill: #3d296d;
      }

      .cls-5 {
        fill: #e81e62;
      }

      .cls-6 {
        fill: #fff;
      }
    </style>
  </defs>
  <rect class="cls-6" x="113.4" y="85" width="28.3" height="28.3"/>
  <rect class="cls-6" x="84.9" y="113.4" width="28.3" height="28.3"/>
  <rect class="cls-6" x="141.7" y="113.4" width="28.3" height="28.3"/>
  <rect class="cls-6" x="169.9" y="113.4" width="28.3" height="28.3"/>
  <rect class="cls-6" x="198.4" y="85" width="28.3" height="28.3"/>
  <rect class="cls-6" x="226.7" y="113.4" width="28.3" height="28.3"/>
  <rect class="cls-6" x="141.7" y="170" width="28.3" height="28.3"/>
  <rect class="cls-6" x="28.2" y="198.4" width="28.3" height="28.3"/>
  <rect class="cls-6" x="170" y="255.1" width="28.3" height="28.3"/>
  <rect class="cls-6" x="141.7" y="255.1" width="28.3" height="28.3"/>
  <rect class="cls-6" x="113.4" y="255.1" width="28.3" height="28.3"/>
  <rect class="cls-6" x="113.4" y="226.7" width="28.3" height="28.3"/>
  <rect class="cls-6" x="85" y="226.7" width="28.3" height="28.3"/>
  <rect class="cls-6" x="56.7" y="226.7" width="28.3" height="28.3"/>
  <rect class="cls-6" x="56.7" y="255.1" width="28.3" height="28.3"/>
  <rect class="cls-6" x="85" y="255.1" width="28.3" height="28.3"/>
  <rect class="cls-5" x="226.7" y="56.7" width="28.3" height="28.3"/>
  <rect class="cls-5" x="255.1" y="56.7" width="28.3" height="28.3"/>
  <rect class="cls-5" x="56.7" y="56.7" width="28.3" height="28.3"/>
  <rect class="cls-5" x="85" y="56.7" width="28.3" height="28.3"/>
  <rect class="cls-5" x="255.1" y="85" width="28.3" height="28.3"/>
  <rect class="cls-5" x="56.7" y="85" width="28.3" height="28.3"/>
  <rect class="cls-4" x="198.4" y="28.3" width="28.3" height="28.3"/>
  <rect class="cls-4" x="198.4" y="56.7" width="28.3" height="28.3"/>
  <rect class="cls-4" x="226.7" y="85" width="28.3" height="28.3"/>
  <rect class="cls-4" x="255.1" y="113.4" width="28.3" height="28.3"/>
  <rect class="cls-4" x="283.4" y="113.4" width="28.3" height="28.3"/>
  <rect class="cls-4" x="255.1" y="141.7" width="28.3" height="28.3"/>
  <rect class="cls-4" x="283.4" y="141.7" width="28.3" height="28.3"/>
  <rect class="cls-4" x="198.4" y="141.7" width="28.3" height="28.3"/>
  <rect class="cls-4" x="226.7" y="141.7" width="28.3" height="28.3"/>
  <rect class="cls-4" x="226.7" y="170" width="28.3" height="28.3"/>
  <rect class="cls-4" x="255.1" y="170" width="28.3" height="28.3"/>
  <rect class="cls-2" x="113.4" y="28.3" width="28.3" height="28.3"/>
  <rect class="cls-2" x="141.7" y="28.3" width="28.3" height="28.3"/>
  <rect class="cls-2" x="170" y="28.3" width="28.3" height="28.3"/>
  <rect class="cls-2" x="113.4" y="56.7" width="28.3" height="28.3"/>
  <rect class="cls-2" x="141.7" y="56.7" width="28.3" height="28.3"/>
  <rect class="cls-2" x="170" y="56.7" width="28.3" height="28.3"/>
  <rect class="cls-2" x="141.7" y="85" width="28.3" height="28.3"/>
  <rect class="cls-2" x="170" y="85" width="28.3" height="28.3"/>
  <rect class="cls-2" x="85" y="85" width="28.3" height="28.3"/>
  <rect class="cls-2" x="28.3" y="113.4" width="28.3" height="28.3"/>
  <rect class="cls-2" x="56.7" y="113.4" width="28.3" height="28.3"/>
  <rect class="cls-2" x="113.4" y="113.4" width="28.3" height="28.3"/>
  <rect class="cls-2" x="198.4" y="113.4" width="28.3" height="28.3"/>
  <rect class="cls-2" x="28.2" y="141.7" width="28.3" height="28.3"/>
  <rect class="cls-2" x="56.6" y="141.7" width="28.3" height="28.3"/>
  <rect class="cls-2" x="84.9" y="141.7" width="28.3" height="28.3"/>
  <rect class="cls-2" x="113.2" y="141.7" width="28.3" height="28.3"/>
  <rect class="cls-2" x="56.6" y="170" width="28.3" height="28.3"/>
  <rect class="cls-2" x="84.9" y="170" width="28.3" height="28.3"/>
  <rect class="cls-1" x="113.4" width="28.3" height="28.3"/>
  <rect class="cls-1" x="141.7" width="28.3" height="28.3"/>
  <rect class="cls-1" x="170" width="28.3" height="28.3"/>
  <rect class="cls-1" x="198.4" width="28.3" height="28.3"/>
  <rect class="cls-1" x="226.7" y="28.3" width="28.3" height="28.3"/>
  <rect class="cls-1" x="255.1" y="28.3" width="28.3" height="28.3"/>
  <rect class="cls-1" x="56.7" y="28.3" width="28.3" height="28.3"/>
  <rect class="cls-1" x="85" y="28.3" width="28.3" height="28.3"/>
  <rect class="cls-1" x="28.3" y="56.7" width="28.3" height="28.3"/>
  <rect class="cls-1" x="28.3" y="85" width="28.3" height="28.3"/>
  <rect class="cls-1" x="283.4" y="56.7" width="28.3" height="28.3"/>
  <rect class="cls-1" x="283.4" y="85" width="28.3" height="28.3"/>
  <rect class="cls-1" x="311.7" y="113.4" width="28.3" height="28.3"/>
  <rect class="cls-1" x="311.7" y="141.7" width="28.3" height="28.3"/>
  <rect class="cls-1" x="311.7" y="170" width="28.3" height="28.3"/>
  <rect class="cls-1" x="311.7" y="198.4" width="28.3" height="28.3"/>
  <rect class="cls-1" y="113.4" width="28.3" height="28.3"/>
  <rect class="cls-1" y="141.7" width="28.3" height="28.3"/>
  <rect class="cls-1" y="170" width="28.3" height="28.3"/>
  <rect class="cls-1" y="198.4" width="28.3" height="28.3"/>
  <rect class="cls-1" x="28.2" y="226.7" width="28.3" height="28.3"/>
  <rect class="cls-1" x="28.2" y="255.1" width="28.3" height="28.3"/>
  <rect class="cls-1" x="283.3" y="226.7" width="28.3" height="28.3"/>
  <rect class="cls-1" x="283.3" y="255.1" width="28.3" height="28.3"/>
  <rect class="cls-1" x="226.6" y="283.4" width="28.3" height="28.3"/>
  <rect class="cls-1" x="254.9" y="283.4" width="28.3" height="28.3"/>
  <rect class="cls-1" x="56.6" y="283.4" width="28.3" height="28.3"/>
  <rect class="cls-1" x="84.9" y="283.4" width="28.3" height="28.3"/>
  <rect class="cls-1" x="113.2" y="311.8" width="28.3" height="28.3"/>
  <rect class="cls-1" x="141.6" y="311.8" width="28.3" height="28.3"/>
  <rect class="cls-1" x="169.9" y="311.8" width="28.3" height="28.3"/>
  <rect class="cls-1" x="198.3" y="311.8" width="28.3" height="28.3"/>
  <rect class="cls-1" x="28.3" y="170" width="28.3" height="28.3"/>
  <rect class="cls-1" x="56.7" y="198.4" width="28.3" height="28.3"/>
  <rect class="cls-1" x="84.9" y="198.4" width="28.3" height="28.3"/>
  <rect class="cls-1" x="113.4" y="170" width="28.3" height="28.3"/>
  <rect class="cls-1" x="113.2" y="198.4" width="28.3" height="28.3"/>
  <rect class="cls-1" x="283.3" y="170" width="28.3" height="28.3"/>
  <rect class="cls-1" x="254.8" y="198.4" width="28.3" height="28.3"/>
  <rect class="cls-1" x="226.7" y="198.4" width="28.3" height="28.3"/>
  <rect class="cls-1" x="198.4" y="170" width="28.3" height="28.3"/>
  <rect class="cls-1" x="198.4" y="198.4" width="28.3" height="28.3"/>
  <rect class="cls-1" x="141.7" y="141.7" width="28.3" height="28.3"/>
  <rect class="cls-1" x="170" y="141.7" width="28.3" height="28.3"/>
  <rect class="cls-1" x="141.6" y="226.7" width="28.3" height="28.3"/>
  <rect class="cls-1" x="169.9" y="226.7" width="28.3" height="28.3"/>
  <rect class="cls-3" x="169.9" y="170" width="28.3" height="28.3"/>
  <rect class="cls-3" x="169.9" y="198.4" width="28.3" height="28.3"/>
  <rect class="cls-3" x="141.7" y="198.4" width="28.3" height="28.3"/>
  <rect class="cls-3" x="283.3" y="198.4" width="28.3" height="28.3"/>
  <rect class="cls-3" x="255.1" y="226.7" width="28.3" height="28.3"/>
  <rect class="cls-3" x="226.7" y="226.7" width="28.3" height="28.3"/>
  <rect class="cls-3" x="198.4" y="226.7" width="28.3" height="28.3"/>
  <rect class="cls-3" x="255.1" y="255.1" width="28.3" height="28.3"/>
  <rect class="cls-3" x="226.7" y="255.1" width="28.3" height="28.3"/>
  <rect class="cls-3" x="198.4" y="255.1" width="28.3" height="28.3"/>
  <rect class="cls-3" x="198.1" y="283.4" width="28.3" height="28.3"/>
  <rect class="cls-3" x="169.9" y="283.4" width="28.3" height="28.3"/>
  <rect class="cls-3" x="141.7" y="283.4" width="28.3" height="28.3"/>
  <rect class="cls-3" x="113.4" y="283.4" width="28.3" height="28.3"/>
</svg>