<?xml version="1.0" encoding="UTF-8"?>
<svg xmlns="http://www.w3.org/2000/svg" version="1.1" xmlns:xlink="http://www.w3.org/1999/xlink" viewBox="0 0 79.8 79.8">
  <defs>
    <style>
      .cls-1 {
        fill: #000;
      }

      .cls-1, .cls-2, .cls-3, .cls-4, .cls-5, .cls-6, .cls-7, .cls-8 {
        stroke-width: 0px;
      }

      .cls-2 {
        fill: #784a31;
      }

      .cls-3 {
        fill: #414241;
      }

      .cls-4 {
        fill: #995838;
      }

      .cls-5 {
        fill: #b17140;
      }

      .cls-6 {
        fill: #d88f67;
      }

      .cls-7 {
        fill: #fff;
      }

      .cls-9 {
        display: none;
      }

      .cls-8 {
        fill: #f18733;
      }
    </style>
  </defs>
  <g id="Layer_1" data-name="Layer 1" class="cls-9">
    <image width="224" height="224" transform="translate(-72 -132.1)" xlink:href="vulpix.png"/>
    <rect class="cls-5" x="31.9" y="59.8" width="4" height="4"/>
    <rect class="cls-5" x="35.9" y="59.8" width="4" height="4"/>
    <rect class="cls-5" x="39.9" y="59.8" width="4" height="4"/>
    <rect class="cls-5" x="35.9" y="63.8" width="4" height="4"/>
  </g>
  <g id="Layer_3" data-name="Layer 3">
    <rect class="cls-3" x="19.9" y="59.8" width="4" height="4"/>
    <rect class="cls-3" x="23.9" y="59.8" width="4" height="4"/>
    <rect class="cls-3" x="27.9" y="71.8" width="4" height="4"/>
    <rect class="cls-3" x="31.9" y="67.8" width="4" height="4"/>
    <rect class="cls-3" x="31.9" y="63.8" width="4" height="4"/>
    <rect class="cls-3" x="47.9" y="51.9" width="4" height="4"/>
    <rect class="cls-3" x="63.8" y="51.9" width="4" height="4"/>
    <rect class="cls-3" x="35.9" y="8" width="4" height="4"/>
    <rect class="cls-3" x="39.9" y="43.9" width="4" height="4"/>
  </g>
  <g id="Layer_4" data-name="Layer 4">
    <rect class="cls-2" x="27.9" y="67.8" width="4" height="4"/>
    <rect class="cls-2" x="35.9" y="67.8" width="4" height="4"/>
    <rect class="cls-2" x="27.9" y="59.8" width="4" height="4"/>
    <rect class="cls-2" x="39.9" y="39.9" width="4" height="4"/>
    <rect class="cls-2" x="35.9" y="35.9" width="4" height="4"/>
    <rect class="cls-2" x="39.9" y="31.9" width="4" height="4"/>
    <rect class="cls-2" x="31.9" y="39.9" width="4" height="4"/>
    <rect class="cls-2" x="27.9" y="39.9" width="4" height="4"/>
    <rect class="cls-2" x="12" y="51.9" width="4" height="4"/>
    <rect class="cls-2" x="47.9" y="27.9" width="4" height="4"/>
    <rect class="cls-2" x="55.9" y="27.9" width="4" height="4"/>
    <rect class="cls-2" x="51.9" y="23.9" width="4" height="4"/>
    <rect class="cls-2" x="51.9" y="19.9" width="4" height="4"/>
    <rect class="cls-2" x="43.9" y="23.9" width="4" height="4"/>
    <rect class="cls-2" x="43.9" y="19.9" width="4" height="4"/>
    <rect class="cls-2" x="31.9" y="47.9" width="4" height="4"/>
    <rect class="cls-2" x="59.8" y="23.9" width="4" height="4"/>
  </g>
  <g id="Layer_5" data-name="Layer 5">
    <rect class="cls-8" x="67.8" y="8" width="4" height="4"/>
    <rect class="cls-8" x="63.8" y="8" width="4" height="4"/>
    <rect class="cls-8" x="63.8" y="12" width="4" height="4"/>
    <rect class="cls-8" x="59.8" y="12" width="4" height="4"/>
    <rect class="cls-8" x="59.8" y="16" width="4" height="4"/>
    <rect class="cls-8" x="63.8" y="19.9" width="4" height="4"/>
    <rect class="cls-8" x="67.8" y="23.9" width="4" height="4"/>
    <rect class="cls-8" x="67.8" y="16" width="4" height="4"/>
    <rect class="cls-8" x="71.8" y="16" width="4" height="4"/>
    <rect class="cls-8" x="59.8" y="4" width="4" height="4"/>
    <rect class="cls-8" x="55.9" y="4" width="4" height="4"/>
    <rect class="cls-8" x="55.9" y="8" width="4" height="4"/>
    <rect class="cls-8" x="43.9" y="8" width="4" height="4"/>
    <rect class="cls-8" x="43.9" y="12" width="4" height="4"/>
    <rect class="cls-8" x="43.9" y="16" width="4" height="4"/>
    <rect class="cls-8" x="51.9" y="15.9" width="4" height="4"/>
    <rect class="cls-8" x="51.9" y="11.9" width="4" height="4"/>
    <rect class="cls-8" x="51.9" y="8" width="4" height="4"/>
    <rect class="cls-8" x="47.9" y="4" width="4" height="4"/>
    <rect class="cls-8" x="31.9" y="19.9" width="4" height="4"/>
    <rect class="cls-8" x="31.9" y="23.9" width="4" height="4"/>
    <rect class="cls-8" x="27.9" y="19.9" width="4" height="4"/>
    <rect class="cls-8" x="23.9" y="15.9" width="4" height="4"/>
    <rect class="cls-8" x="19.9" y="19.9" width="4" height="4"/>
    <rect class="cls-8" x="12" y="19.9" width="4" height="4"/>
    <rect class="cls-8" x="16" y="27.9" width="4" height="4"/>
    <rect class="cls-8" x="23.9" y="27.9" width="4" height="4"/>
    <rect class="cls-8" x="16" y="35.9" width="4" height="4"/>
    <rect class="cls-8" x="12" y="31.9" width="4" height="4"/>
    <rect class="cls-8" x="16" y="31.9" width="4" height="4"/>
    <rect class="cls-8" x="19.9" y="31.9" width="4" height="4"/>
    <rect class="cls-8" x="16" y="31.9" width="4" height="4"/>
    <rect class="cls-8" x="12" y="30.4" width="4" height="4"/>
    <rect class="cls-8" x="23.9" y="27.2" width="4" height="4"/>
    <rect class="cls-8" x="19.9" y="33.1" width="4" height="4"/>
    <rect class="cls-8" x="67.8" y="23.2" width="4" height="4"/>
    <rect class="cls-8" x="51.9" y="16" width="4" height="4"/>
  </g>
  <g id="Layer_6" data-name="Layer 6">
    <rect class="cls-5" x="4" y="23.9" width="4" height="4"/>
    <rect class="cls-5" x="4" y="27.9" width="4" height="4"/>
    <rect class="cls-5" x="8" y="27.9" width="4" height="4"/>
    <rect class="cls-5" x="8" y="31.9" width="4" height="4"/>
    <rect class="cls-5" x="8" y="35.9" width="4" height="4"/>
    <rect class="cls-5" x="8" y="47.9" width="4" height="4"/>
    <rect class="cls-5" x="27.9" y="31.9" width="4" height="4"/>
    <rect class="cls-5" x="12" y="55.9" width="4" height="4"/>
    <rect class="cls-5" x="16" y="55.9" width="4" height="4"/>
    <rect class="cls-5" x="19.9" y="55.9" width="4" height="4"/>
    <rect class="cls-5" x="23.9" y="55.9" width="4" height="4"/>
    <rect class="cls-5" x="19.9" y="51.9" width="4" height="4"/>
    <rect class="cls-5" x="23.9" y="51.9" width="4" height="4"/>
    <rect class="cls-5" x="27.9" y="51.9" width="4" height="4"/>
    <rect class="cls-5" x="27.9" y="55.9" width="4" height="4"/>
    <rect class="cls-5" x="31.9" y="51.9" width="4" height="4"/>
    <rect class="cls-5" x="35.9" y="51.9" width="4" height="4"/>
    <rect class="cls-5" x="39.9" y="51.9" width="4" height="4"/>
    <rect class="cls-5" x="43.9" y="51.9" width="4" height="4"/>
    <rect class="cls-5" x="43.9" y="55.9" width="4" height="4"/>
    <rect class="cls-5" x="39.9" y="55.9" width="4" height="4"/>
    <rect class="cls-5" x="35.9" y="55.9" width="4" height="4"/>
    <rect class="cls-5" x="31.9" y="55.9" width="4" height="4"/>
    <rect class="cls-5" x="51.9" y="51.9" width="4" height="4"/>
    <rect class="cls-5" x="55.9" y="51.9" width="4" height="4"/>
    <rect class="cls-5" x="59.8" y="51.9" width="4" height="4"/>
    <rect class="cls-5" x="63.8" y="43.9" width="4" height="4"/>
    <rect class="cls-5" x="63.8" y="47.9" width="4" height="4"/>
    <rect class="cls-5" x="59.8" y="39.9" width="4" height="4"/>
    <rect class="cls-5" x="59.8" y="43.9" width="4" height="4"/>
    <rect class="cls-5" x="59.8" y="47.9" width="4" height="4"/>
    <rect class="cls-5" x="55.9" y="43.9" width="4" height="4"/>
    <rect class="cls-5" x="55.9" y="47.9" width="4" height="4"/>
    <rect class="cls-5" x="51.9" y="47.9" width="4" height="4"/>
    <rect class="cls-5" x="47.9" y="47.9" width="4" height="4"/>
    <rect class="cls-5" x="43.9" y="47.9" width="4" height="4"/>
    <rect class="cls-5" x="39.9" y="47.9" width="4" height="4"/>
    <rect class="cls-5" x="35.9" y="47.9" width="4" height="4"/>
    <rect class="cls-5" x="35.9" y="43.9" width="4" height="4"/>
    <rect class="cls-5" x="35.9" y="39.9" width="4" height="4"/>
    <rect class="cls-5" x="23.9" y="43.9" width="4" height="4"/>
    <rect class="cls-5" x="31.9" y="59.8" width="4" height="4"/>
    <rect class="cls-5" x="35.9" y="63.8" width="4" height="4"/>
    <rect class="cls-5" x="35.9" y="59.8" width="4" height="4"/>
    <rect class="cls-5" x="39.9" y="59.8" width="4" height="4"/>
    <rect class="cls-5" x="8" y="36.9" width="4" height="4"/>
    <rect class="cls-5" x="4" y="23.2" width="4" height="4"/>
  </g>
  <g id="Layer_7" data-name="Layer 7">
    <rect class="cls-4" x="23.9" y="63.8" width="4" height="4"/>
    <rect class="cls-4" x="27.9" y="63.8" width="4" height="4"/>
    <rect class="cls-4" x="31.9" y="71.8" width="4" height="4"/>
    <rect class="cls-4" x="35.9" y="71.8" width="4" height="4"/>
    <rect class="cls-4" x="39.9" y="63.8" width="4" height="4"/>
    <rect class="cls-4" x="55.9" y="59.8" width="4" height="4"/>
    <rect class="cls-4" x="55.9" y="55.9" width="4" height="4"/>
    <rect class="cls-4" x="59.8" y="59.8" width="4" height="4"/>
    <rect class="cls-4" x="59.8" y="55.9" width="4" height="4"/>
    <rect class="cls-4" x="71.8" y="12" width="4" height="4"/>
    <rect class="cls-4" x="67.8" y="12" width="4" height="4"/>
    <rect class="cls-4" x="63.8" y="16" width="4" height="4"/>
    <rect class="cls-4" x="71.8" y="19.9" width="4" height="4"/>
    <rect class="cls-4" x="67.8" y="19.9" width="4" height="4"/>
    <rect class="cls-4" x="59.8" y="19.9" width="4" height="4"/>
    <rect class="cls-4" x="59.8" y="8" width="4" height="4"/>
    <rect class="cls-4" x="55.9" y="12" width="4" height="4"/>
    <rect class="cls-4" x="55.9" y="16" width="4" height="4"/>
    <rect class="cls-4" x="51.9" y="4" width="4" height="4"/>
    <rect class="cls-4" x="43.9" y="4" width="4" height="4"/>
    <rect class="cls-4" x="47.9" y="8" width="4" height="4"/>
    <rect class="cls-4" x="47.9" y="12" width="4" height="4"/>
    <rect class="cls-4" x="47.9" y="16" width="4" height="4"/>
    <rect class="cls-4" x="39.9" y="8" width="4" height="4"/>
    <rect class="cls-4" x="39.9" y="12" width="4" height="4"/>
    <rect class="cls-4" x="39.9" y="16" width="4" height="4"/>
    <rect class="cls-4" x="27.9" y="15.9" width="4" height="4"/>
    <rect class="cls-4" x="19.9" y="15.9" width="4" height="4"/>
    <rect class="cls-4" x="23.9" y="19.9" width="4" height="4"/>
    <rect class="cls-4" x="23.9" y="23.9" width="4" height="4"/>
    <rect class="cls-4" x="16" y="19.9" width="4" height="4"/>
    <rect class="cls-4" x="16" y="23.9" width="4" height="4"/>
    <rect class="cls-4" x="39.9" y="35.9" width="4" height="4"/>
    <rect class="cls-4" x="71.8" y="21.8" width="4" height="4"/>
    <rect class="cls-4" x="27.9" y="16" width="4" height="4"/>
  </g>
  <g id="Layer_8" data-name="Layer 8">
    <rect class="cls-6" x="8" y="51.9" width="4" height="4"/>
    <rect class="cls-6" x="12" y="47.9" width="4" height="4"/>
    <rect class="cls-6" x="16" y="47.9" width="4" height="4"/>
    <rect class="cls-6" x="19.9" y="47.9" width="4" height="4"/>
    <rect class="cls-6" x="16" y="51.9" width="4" height="4"/>
    <rect class="cls-6" x="12" y="39.9" width="4" height="4"/>
    <rect class="cls-6" x="12" y="43.9" width="4" height="4"/>
    <rect class="cls-6" x="16" y="43.9" width="4" height="4"/>
    <rect class="cls-6" x="19.9" y="43.9" width="4" height="4"/>
    <rect class="cls-6" x="23.9" y="39.9" width="4" height="4"/>
    <rect class="cls-6" x="23.9" y="35.9" width="4" height="4"/>
    <rect class="cls-6" x="27.9" y="35.9" width="4" height="4"/>
    <rect class="cls-6" x="31.9" y="35.9" width="4" height="4"/>
    <rect class="cls-6" x="31.9" y="31.9" width="4" height="4"/>
    <rect class="cls-6" x="35.9" y="31.9" width="4" height="4"/>
    <rect class="cls-6" x="35.9" y="27.9" width="4" height="4"/>
    <rect class="cls-6" x="39.9" y="27.9" width="4" height="4"/>
    <rect class="cls-6" x="27.9" y="23.9" width="4" height="4"/>
    <rect class="cls-6" x="19.9" y="27.9" width="4" height="4"/>
    <rect class="cls-6" x="19.9" y="23.9" width="4" height="4"/>
    <rect class="cls-6" x="12" y="23.9" width="4" height="4"/>
    <rect class="cls-6" x="39.9" y="19.9" width="4" height="4"/>
    <rect class="cls-6" x="35.9" y="15.9" width="4" height="4"/>
    <rect class="cls-6" x="35.9" y="12" width="4" height="4"/>
    <rect class="cls-6" x="47.9" y="23.9" width="4" height="4"/>
    <rect class="cls-6" x="47.9" y="19.9" width="4" height="4"/>
    <rect class="cls-6" x="51.9" y="27.9" width="4" height="4"/>
    <rect class="cls-6" x="55.9" y="23.9" width="4" height="4"/>
    <rect class="cls-6" x="55.9" y="19.9" width="4" height="4"/>
    <rect class="cls-6" x="63.8" y="23.9" width="4" height="4"/>
    <rect class="cls-6" x="59.8" y="31.9" width="4" height="4"/>
    <rect class="cls-6" x="59.8" y="27.9" width="4" height="4"/>
    <rect class="cls-6" x="55.9" y="35.9" width="4" height="4"/>
    <rect class="cls-6" x="51.9" y="35.9" width="4" height="4"/>
    <rect class="cls-6" x="47.9" y="35.9" width="4" height="4"/>
    <rect class="cls-6" x="43.9" y="39.9" width="4" height="4"/>
    <rect class="cls-6" x="47.9" y="39.9" width="4" height="4"/>
    <rect class="cls-6" x="51.9" y="39.9" width="4" height="4"/>
    <rect class="cls-6" x="55.9" y="39.9" width="4" height="4"/>
    <rect class="cls-6" x="51.9" y="43.9" width="4" height="4"/>
    <rect class="cls-6" x="47.9" y="43.9" width="4" height="4"/>
    <rect class="cls-6" x="43.9" y="43.9" width="4" height="4"/>
    <rect class="cls-6" x="35.9" y="17.3" width="4" height="4"/>
  </g>
  <g id="Layer_2" data-name="Layer 2">
    <rect class="cls-1" y="19.9" width="4" height="4"/>
    <rect class="cls-1" x="4" y="19.9" width="4" height="4"/>
    <rect class="cls-1" x="8" y="19.9" width="4" height="4"/>
    <rect class="cls-1" y="23.9" width="4" height="4"/>
    <rect class="cls-1" y="27.9" width="4" height="4"/>
    <rect class="cls-1" x="4" y="31.9" width="4" height="4"/>
    <rect class="cls-1" x="4" y="35.9" width="4" height="4"/>
    <rect class="cls-1" x="8" y="39.9" width="4" height="4"/>
    <rect class="cls-1" x="8" y="43.9" width="4" height="4"/>
    <rect class="cls-1" x="4" y="47.9" width="4" height="4"/>
    <rect class="cls-1" x="4" y="51.9" width="4" height="4"/>
    <rect class="cls-1" x="8" y="55.9" width="4" height="4"/>
    <rect class="cls-1" x="12" y="59.8" width="4" height="4"/>
    <rect class="cls-1" x="16" y="59.8" width="4" height="4"/>
    <rect class="cls-1" x="19.9" y="63.8" width="4" height="4"/>
    <rect class="cls-1" x="23.9" y="67.8" width="4" height="4"/>
    <rect class="cls-1" x="23.9" y="71.8" width="4" height="4"/>
    <rect class="cls-1" x="27.9" y="75.8" width="4" height="4"/>
    <rect class="cls-1" x="31.9" y="75.8" width="4" height="4"/>
    <rect class="cls-1" x="35.9" y="75.8" width="4" height="4"/>
    <rect class="cls-1" x="39.9" y="71.8" width="4" height="4"/>
    <rect class="cls-1" x="39.9" y="67.8" width="4" height="4"/>
    <rect class="cls-1" x="43.9" y="63.8" width="4" height="4"/>
    <rect class="cls-1" x="43.9" y="59.8" width="4" height="4"/>
    <rect class="cls-1" x="47.9" y="55.9" width="4" height="4"/>
    <rect class="cls-1" x="51.9" y="55.9" width="4" height="4"/>
    <rect class="cls-1" x="51.9" y="59.8" width="4" height="4"/>
    <rect class="cls-1" x="55.9" y="63.8" width="4" height="4"/>
    <rect class="cls-1" x="59.8" y="63.8" width="4" height="4"/>
    <rect class="cls-1" x="63.8" y="59.8" width="4" height="4"/>
    <rect class="cls-1" x="63.8" y="55.9" width="4" height="4"/>
    <rect class="cls-1" x="67.8" y="51.9" width="4" height="4"/>
    <rect class="cls-1" x="67.8" y="47.9" width="4" height="4"/>
    <rect class="cls-1" x="67.8" y="43.9" width="4" height="4"/>
    <rect class="cls-1" x="63.8" y="39.9" width="4" height="4"/>
    <rect class="cls-1" x="59.8" y="35.9" width="4" height="4"/>
    <rect class="cls-1" x="63.8" y="31.9" width="4" height="4"/>
    <rect class="cls-1" x="63.8" y="27.9" width="4" height="4"/>
    <rect class="cls-1" x="67.8" y="27.9" width="4" height="4"/>
    <rect class="cls-1" x="71.8" y="23.9" width="4" height="4"/>
    <rect class="cls-1" x="75.8" y="19.9" width="4" height="4"/>
    <rect class="cls-1" x="75.8" y="16" width="4" height="4"/>
    <rect class="cls-1" x="75.8" y="12" width="4" height="4"/>
    <rect class="cls-1" x="71.8" y="8" width="4" height="4"/>
    <rect class="cls-1" x="67.8" y="4" width="4" height="4"/>
    <rect class="cls-1" x="63.8" y="4" width="4" height="4"/>
    <rect class="cls-1" x="59.8" width="4" height="4"/>
    <rect class="cls-1" x="55.9" width="4" height="4"/>
    <rect class="cls-1" x="51.9" width="4" height="4"/>
    <rect class="cls-1" x="47.9" width="4" height="4"/>
    <rect class="cls-1" x="43.9" width="4" height="4"/>
    <rect class="cls-1" x="39.9" y="4" width="4" height="4"/>
    <rect class="cls-1" x="35.9" y="4" width="4" height="4"/>
    <rect class="cls-1" x="31.9" y="8" width="4" height="4"/>
    <rect class="cls-1" x="31.9" y="12" width="4" height="4"/>
    <rect class="cls-1" x="31.9" y="16" width="4" height="4"/>
    <rect class="cls-1" x="35.9" y="19.9" width="4" height="4"/>
    <rect class="cls-1" x="35.9" y="23.9" width="4" height="4"/>
    <rect class="cls-1" x="39.9" y="23.9" width="4" height="4"/>
    <rect class="cls-1" x="43.9" y="27.9" width="4" height="4"/>
    <rect class="cls-1" x="43.9" y="31.9" width="4" height="4"/>
    <rect class="cls-1" x="47.9" y="31.9" width="4" height="4"/>
    <rect class="cls-1" x="51.9" y="31.9" width="4" height="4"/>
    <rect class="cls-1" x="55.9" y="31.9" width="4" height="4"/>
    <rect class="cls-1" x="43.9" y="35.9" width="4" height="4"/>
    <rect class="cls-1" x="31.9" y="27.9" width="4" height="4"/>
    <rect class="cls-1" x="27.9" y="27.9" width="4" height="4"/>
    <rect class="cls-1" x="23.9" y="31.9" width="4" height="4"/>
    <rect class="cls-1" x="19.9" y="35.9" width="4" height="4"/>
    <rect class="cls-1" x="19.9" y="39.9" width="4" height="4"/>
    <rect class="cls-1" x="16" y="39.9" width="4" height="4"/>
    <rect class="cls-1" x="12" y="35.9" width="4" height="4"/>
    <rect class="cls-1" x="8" y="23.9" width="4" height="4"/>
    <rect class="cls-1" x="12" y="27.9" width="4" height="4"/>
    <rect class="cls-1" x="27.9" y="11.9" width="4" height="4"/>
    <rect class="cls-1" x="23.9" y="11.9" width="4" height="4"/>
    <rect class="cls-1" x="19.9" y="11.9" width="4" height="4"/>
    <rect class="cls-1" x="16" y="15.9" width="4" height="4"/>
    <rect class="cls-1" x="12" y="15.9" width="4" height="4"/>
    <rect class="cls-1" x="31.9" y="43.9" width="4" height="4"/>
    <rect class="cls-1" x="27.9" y="47.9" width="4" height="4"/>
    <rect class="cls-1" x="23.9" y="47.9" width="4" height="4"/>
    <rect class="cls-7" x="27.9" y="43.9" width="4" height="4"/>
  </g>
</svg>