<?xml version="1.0" encoding="UTF-8" standalone="no"?>
<!DOCTYPE svg PUBLIC "-//W3C//DTD SVG 1.1//EN" "http://www.w3.org/Graphics/SVG/1.1/DTD/svg11.dtd">
<svg width="3600.00" height="6000.00" viewBox="0.00 0.00 3600.00 6000.00" xmlns="http://www.w3.org/2000/svg" xmlns:xlink="http://www.w3.org/1999/xlink">
<g stroke-linecap="round" id="background">
<path d="M-2493.93,31.30" fill="none" stroke="rgb(161, 156, 198)" stroke-width="953.80" stroke-opacity="1.00" stroke-linejoin="round"/>
<path d="M-114.78,5624.40 C-92.55,5624.49 -40.58,5624.70 -10.84,5624.82 C26.41,5624.97 106.36,5625.28 149.06,5625.43 C186.39,5625.43 254.08,5625.25 284.43,5625.06 C297.00,5624.91 329.06,5624.41 335.70,5624.03 C348.90,5623.25 365.20,5620.89 369.11,5619.18 C373.13,5617.41 383.94,5615.14 392.26,5614.33 C396.36,5613.93 456.28,5613.44 479.14,5613.29 C505.27,5613.18 560.80,5613.00 590.20,5612.93 C622.88,5612.91 691.51,5612.90 727.46,5612.91 C766.68,5612.97 846.76,5613.11 887.60,5613.20 C926.44,5613.28 1001.99,5613.43 1038.69,5613.50 C1073.25,5613.57 1140.25,5613.69 1172.68,5613.75 C1202.97,5613.80 1261.41,5613.89 1289.56,5613.93 C1335.60,5614.00 1429.91,5614.14 1478.18,5614.21 C1514.92,5614.24 1578.09,5614.27 1604.53,5614.27 C1626.55,5614.23 1666.93,5614.13 1685.28,5614.06 C1711.71,5613.70 1756.27,5612.83 1766.80,5613.00 C1773.82,5613.26 1785.19,5614.00 1794.77,5615.14 C1805.92,5616.72 1841.20,5622.92 1857.41,5624.40 C1865.32,5624.97 1881.64,5625.55 1890.05,5625.56 C1905.63,5625.15 1935.16,5624.20 1949.93,5623.44 C1956.16,5623.03 1967.91,5623.87 1978.20,5625.13 C1988.74,5626.62 2025.30,5632.81 2041.30,5634.48 C2057.06,5635.79 2077.74,5635.88 2102.25,5635.20 C2117.84,5634.90 2149.59,5634.48 2165.75,5634.37 C2181.80,5634.55 2214.46,5635.24 2231.12,5636.01 C2239.25,5636.53 2254.95,5637.68 2262.04,5638.39 C2271.17,5639.48 2285.13,5641.69 2292.48,5643.66 C2299.34,5645.76 2312.80,5649.72 2320.07,5651.26 C2327.16,5652.74 2343.03,5654.87 2350.69,5655.36 C2357.98,5655.82 2371.25,5655.66 2379.18,5655.09 C2386.73,5654.57 2401.13,5655.27 2411.74,5656.38 C2425.65,5658.11 2459.16,5663.87 2475.46,5665.52 C2483.50,5666.14 2499.59,5666.74 2507.56,5666.74 C2515.47,5666.54 2531.15,5665.73 2538.90,5665.53 C2546.58,5665.53 2561.78,5666.08 2569.37,5666.78 C2584.56,5668.48 2614.94,5674.48 2631.56,5675.98 C2646.68,5677.03 2673.28,5676.86 2693.53,5675.79 C2701.61,5675.56 2717.77,5675.69 2725.86,5676.03 C2733.94,5676.57 2750.87,5678.30 2759.41,5679.48 C2774.00,5681.84 2842.74,5696.49 2846.34,5696.81 C2853.08,5697.37 2893.29,5697.74 2910.87,5697.73 C2930.12,5697.51 2953.58,5696.35 2954.78,5696.32 C2959.97,5696.20 2972.58,5697.99 2981.54,5699.68 C2989.02,5701.27 3005.46,5705.01 3013.80,5706.31 C3020.62,5707.35 3037.58,5708.89 3045.34,5709.03 C3050.44,5709.11 3131.03,5706.58 3140.99,5706.85 C3148.88,5707.19 3164.69,5708.73 3170.85,5709.72 C3178.15,5710.90 3194.06,5714.61 3199.20,5715.50 C3206.85,5716.80 3221.18,5718.15 3231.59,5718.66 C3246.72,5719.08 3286.24,5717.78 3297.95,5717.68 C3305.25,5717.75 3321.50,5718.49 3326.27,5719.00 C3333.84,5719.81 3339.90,5721.12 3350.71,5724.18 C3362.49,5727.49 3388.29,5728.86 3409.02,5729.26 C3438.34,5729.47 3505.42,5729.50 3543.19,5729.32 C3579.90,5729.09 3646.34,5728.79 3676.06,5728.73 C3696.11,5728.80 3736.02,5729.22 3755.87,5729.57 C3771.48,5730.12 3785.42,5729.51 3791.49,5729.02 C3792.68,5728.92 3795.04,5727.81 3796.40,5726.51 C3797.74,5725.20 3798.99,5720.65 3799.38,5719.34 C3799.93,5717.43 3801.83,5714.65 3803.51,5713.09 C3804.81,5711.96 3807.64,5710.41 3809.32,5709.93 C3809.79,5709.80 3816.19,5708.47 3817.59,5707.93 C3819.51,5707.16 3822.88,5704.47 3824.38,5702.66 C3825.98,5700.64 3829.09,5693.25 3830.09,5688.99 C3832.37,5678.59 3835.29,5669.55 3837.23,5667.06 C3838.06,5666.01 3842.21,5663.90 3842.52,5663.66 C3845.55,5661.38 3850.08,5652.91 3855.54,5641.18 C3869.99,5609.85 3890.93,5564.94 3897.42,5551.35 C3902.29,5541.66 3911.83,5524.40 3913.07,5521.96 C3916.04,5516.05 3920.80,5502.40 3922.69,5493.98 C3924.40,5485.69 3928.13,5468.85 3930.36,5463.48 C3931.66,5460.40 3936.22,5454.48 3937.53,5451.39 C3939.75,5446.08 3943.10,5429.70 3944.64,5421.65 C3946.51,5413.32 3952.39,5398.07 3956.32,5390.86 C3960.43,5383.85 3968.43,5369.62 3970.47,5363.52 C3971.76,5359.61 3973.40,5351.41 3973.66,5347.66 C3973.76,5346.28 3974.05,5336.52 3974.51,5333.05 C3974.96,5329.83 3976.52,5323.82 3977.61,5321.28 C3978.82,5318.54 3982.38,5313.45 3983.19,5311.20 C3985.65,5304.20 3986.68,5286.35 3986.91,5279.17 C3987.13,5265.21 3986.01,5196.71 3986.20,5184.06 C3986.13,5177.54 3984.53,5166.05 3982.96,5163.04 C3981.99,5161.29 3979.82,5158.85 3978.10,5157.60 C3975.21,5155.58 3965.20,5151.90 3962.85,5150.91 C3961.36,5150.27 3956.95,5148.08 3956.02,5147.41 C3955.25,5146.85 3952.45,5144.89 3949.60,5144.39 C3948.34,5144.19 3926.89,5143.99 3917.56,5144.04 C3910.10,5144.22 3888.02,5145.48 3887.94,5145.49 C3883.31,5145.75 3869.30,5142.96 3861.17,5141.00 C3848.88,5137.79 3837.20,5135.29 3828.69,5134.37 C3821.17,5133.57 3805.99,5133.21 3798.27,5133.59 C3795.89,5133.71 3774.09,5134.72 3765.38,5134.41 C3750.85,5133.77 3725.39,5130.42 3698.66,5126.03 C3691.29,5124.99 3675.39,5123.17 3669.21,5122.96 C3661.60,5122.71 3649.54,5124.33 3641.27,5124.08 C3634.81,5123.88 3617.84,5122.14 3610.63,5121.32 C3593.29,5118.84 3557.51,5113.99 3547.86,5113.09 C3537.11,5112.23 3525.06,5112.95 3519.40,5113.46 C3511.57,5113.78 3473.47,5110.95 3458.15,5109.60 C3425.48,5105.91 3364.33,5098.85 3335.86,5095.47 C3323.55,5094.31 3281.75,5092.22 3271.88,5092.18 C3251.06,5092.12 3207.78,5092.01 3185.31,5091.96 C3161.19,5091.91 3111.29,5091.83 3085.51,5091.80 C3058.08,5091.78 3001.56,5091.74 2972.47,5091.72 C2941.73,5091.72 2878.59,5091.71 2846.20,5091.72 C2812.15,5091.73 2742.39,5091.76 2706.68,5091.78 C2669.32,5091.81 2592.95,5091.89 2553.93,5091.93 C2513.26,5091.98 2430.27,5092.08 2387.95,5092.14 C2344.01,5092.21 2256.62,5092.34 2213.17,5092.41 C2171.41,5092.46 2089.54,5092.57 2049.45,5092.61 C2011.04,5092.65 1935.89,5092.71 1899.15,5092.74 C1864.09,5092.75 1795.65,5092.78 1762.26,5092.78 C1730.56,5092.78 1668.83,5092.77 1638.80,5092.76 C1610.45,5092.73 1555.42,5092.68 1528.75,5092.65 C1503.76,5092.61 1455.44,5092.52 1432.13,5092.47 C1410.49,5092.41 1351.51,5092.22 1346.27,5092.04 C1323.93,5090.96 1300.84,5088.87 1286.11,5086.73 C1273.09,5085.17 1234.41,5083.10 1225.09,5083.02 C1203.09,5082.88 1155.87,5082.63 1130.66,5082.52 C1102.22,5082.45 1042.13,5082.33 1010.48,5082.30 C975.61,5082.29 902.65,5082.32 864.56,5082.35 C823.25,5082.42 738.80,5082.57 695.65,5082.66 C655.35,5082.71 577.95,5082.77 540.86,5082.78 C506.98,5082.76 442.45,5082.66 411.78,5082.60 C384.34,5082.49 332.66,5082.24 308.43,5082.10 C297.52,5082.01 270.39,5081.78 261.01,5081.12 C239.79,5079.24 213.19,5073.82 199.71,5072.05 C182.02,5070.18 166.51,5070.17 138.46,5071.08 C122.21,5071.61 84.58,5072.80 74.28,5072.01 C67.13,5071.44 52.86,5069.00 46.78,5067.10 C37.22,5064.11 24.26,5061.48 15.65,5060.91 C14.66,5060.85 -54.47,5060.30 -80.75,5060.15 C-111.39,5060.06 -177.02,5059.95 -212.01,5059.93 C-251.36,5059.98 -334.06,5060.14 -377.41,5060.26 C-418.52,5060.37 -496.19,5060.58 -532.75,5060.67 C-564.77,5060.73 -624.26,5060.84 -651.73,5060.88 C-674.66,5060.90 -712.06,5060.88 -712.44,5060.91 C-714.37,5061.00 -717.08,5060.38 -718.28,5059.20 C-719.43,5058.02 -720.10,5055.26 -720.07,5053.34 C-719.40,5039.71 -720.79,4978.88 -720.75,4976.10 C-720.62,4969.31 -718.10,4958.40 -714.98,4951.48 C-712.51,4945.81 -707.91,4929.69 -706.24,4923.02 C-704.56,4915.69 -701.08,4899.62 -698.40,4891.10 C-695.63,4882.36 -689.95,4868.74 -685.72,4859.67 C-681.04,4850.31 -659.68,4810.16 -657.30,4804.39 C-653.83,4795.96 -649.60,4788.42 -643.90,4779.67 C-625.14,4751.85 -597.79,4711.07 -589.21,4698.11 C-583.66,4689.43 -576.09,4676.63 -573.85,4670.41 C-572.08,4665.43 -565.75,4653.74 -561.22,4646.85 C-556.53,4639.93 -547.11,4626.81 -543.26,4622.20 C-540.90,4619.39 -530.85,4607.66 -525.47,4599.53 C-522.39,4594.68 -513.18,4578.90 -512.17,4577.26 C-508.14,4570.73 -495.90,4555.53 -488.08,4547.05 C-480.09,4538.58 -452.45,4511.80 -438.24,4498.78 C-432.02,4493.18 -420.58,4483.01 -415.37,4478.44 C-407.52,4471.74 -402.79,4468.43 -399.83,4467.30 C-399.12,4467.03 -395.59,4466.18 -394.62,4465.79 C-390.83,4464.26 -377.72,4455.13 -369.12,4448.47 C-349.79,4433.21 -338.31,4425.63 -335.22,4424.19 C-333.92,4423.60 -326.83,4421.12 -323.48,4419.17 C-319.08,4416.55 -305.74,4405.69 -299.96,4401.61 C-292.89,4396.70 -282.30,4390.53 -273.38,4386.37 C-263.50,4381.87 -235.20,4369.65 -229.57,4366.99 C-223.21,4363.87 -217.43,4359.94 -216.52,4359.46 C-212.93,4357.58 -198.62,4354.03 -189.82,4352.25 C-174.04,4349.18 -145.98,4342.01 -127.27,4336.28 C-113.52,4331.71 -81.32,4320.53 -72.83,4318.36 C-62.70,4315.80 -23.24,4308.60 -6.25,4305.73 C2.60,4304.38 19.00,4301.99 26.55,4300.95 C32.79,4300.20 49.28,4298.31 56.76,4298.47 C59.83,4298.56 65.03,4299.65 67.30,4299.74 C72.49,4299.93 85.19,4298.27 92.75,4296.97 C99.73,4295.62 116.49,4292.10 123.91,4291.02 C132.55,4289.78 149.57,4288.53 156.69,4288.23 C171.33,4287.90 206.86,4289.15 219.69,4289.19 C227.81,4289.10 243.94,4288.51 251.93,4288.13 C267.98,4286.93 300.20,4283.30 316.22,4281.29 C331.61,4279.28 362.38,4275.17 377.77,4273.08 C396.26,4270.57 424.63,4268.13 440.43,4267.63 C455.75,4267.40 488.67,4267.97 505.54,4268.44 C521.65,4268.56 551.15,4267.70 564.19,4266.87 C576.91,4265.74 605.90,4261.95 615.42,4260.92 C628.74,4259.73 678.27,4257.43 689.35,4257.25 C714.52,4257.00 769.63,4256.65 799.58,4256.55 C834.32,4256.61 908.00,4256.84 946.93,4257.03 C983.89,4257.18 1054.17,4257.41 1087.51,4257.49 C1117.22,4257.49 1183.92,4257.40 1220.90,4257.31 C1258.35,4257.02 1322.12,4256.34 1348.44,4255.96 C1361.19,4256.10 1387.12,4256.67 1400.28,4257.09 C1413.86,4257.80 1441.44,4259.54 1455.45,4260.56 C1469.95,4261.88 1499.43,4264.80 1514.42,4266.40 C1545.80,4270.38 1610.01,4278.72 1642.84,4283.08 C1676.09,4287.56 1742.89,4296.58 1776.44,4301.13 C1811.78,4305.86 1878.46,4314.77 1909.81,4318.96 C1935.98,4322.49 1992.92,4330.23 2023.70,4334.44 C2048.73,4337.33 2110.44,4343.07 2135.20,4345.24 C2166.58,4347.82 2232.92,4353.18 2267.89,4355.96 C2303.06,4358.70 2372.07,4363.98 2405.91,4366.53 C2440.29,4369.08 2507.62,4374.12 2540.56,4376.62 C2567.91,4378.94 2626.67,4384.30 2663.09,4388.50 C2676.95,4390.49 2701.51,4394.20 2715.59,4395.91 C2730.79,4397.41 2760.91,4400.04 2775.85,4401.18 C2810.55,4403.18 2875.96,4407.18 2906.92,4409.76 C2928.73,4412.03 2950.73,4415.97 2966.92,4418.29 C2981.23,4419.97 3013.36,4422.67 3029.92,4423.63 C3048.61,4424.36 3074.72,4424.25 3089.03,4423.70 C3101.29,4423.18 3132.87,4424.94 3144.92,4425.78 C3157.65,4426.98 3185.13,4429.70 3199.87,4431.21 C3246.61,4434.61 3299.40,4435.03 3322.17,4435.20 C3347.73,4435.33 3401.66,4435.57 3430.02,4435.67 C3461.18,4435.74 3526.29,4435.85 3560.25,4435.89 C3597.00,4435.89 3673.31,4435.87 3712.86,4435.85 C3755.20,4435.79 3840.27,4435.66 3883.00,4435.58 C3922.65,4435.51 3998.87,4435.38 4035.42,4435.32 C4068.89,4435.26 4132.72,4435.15 4163.08,4435.09 C4190.35,4435.05 4241.80,4434.96 4265.97,4434.91 C4287.05,4434.88 4321.91,4434.83 4335.69,4434.82 C4328.78,4434.91 4314.76,4434.98 4307.18,4433.92 C4304.24,4433.53 4296.86,4435.43 4293.52,4436.61 C4286.33,4439.43 4271.78,4444.81 4265.03,4445.69 C4259.10,4446.42 4245.34,4445.64 4239.02,4445.44 C4221.51,4445.37 4187.03,4445.53 4170.06,4445.75 C4151.20,4446.02 4112.97,4445.52 4104.92,4444.67 C4099.17,4444.04 4090.86,4442.18 4087.91,4440.85 C4082.79,4438.40 4070.08,4432.75 4064.93,4430.68 C4055.64,4427.07 4044.38,4424.25 4037.50,4423.58 C4034.36,4423.29 4028.02,4423.24 4024.78,4423.26 C4017.80,4423.14 4002.60,4419.45 3993.94,4416.65 C3968.91,4408.06 3903.29,4383.85 3868.75,4370.93 C3854.14,4365.55 3821.02,4353.52 3802.50,4346.86 C3786.13,4341.29 3757.75,4331.96 3745.73,4328.19 C3725.99,4322.42 3697.54,4316.02 3690.93,4313.87 C3684.42,4311.74 3648.76,4297.93 3634.37,4293.01 C3619.81,4288.26 3583.57,4276.06 3576.37,4273.32 C3562.30,4267.73 3542.57,4256.44 3539.43,4254.84 C3523.10,4246.57 3464.01,4226.47 3449.09,4220.39 C3439.88,4216.43 3427.17,4210.30 3419.97,4206.55 C3409.14,4200.58 3380.20,4182.68 3368.16,4175.61 C3356.60,4169.06 3330.14,4155.15 3322.50,4150.87 C3310.53,4143.82 3278.17,4122.90 3266.73,4115.28 C3253.36,4106.14 3224.97,4086.54 3209.95,4076.07 C3196.20,4066.23 3170.75,4047.69 3159.05,4039.00 C3153.00,4034.32 3138.79,4023.09 3131.48,4017.01 C3118.45,4005.72 3101.65,3988.23 3091.71,3978.38 C3069.08,3956.84 3015.21,3907.87 3010.46,3902.64 C3007.06,3898.87 3005.09,3895.82 3002.64,3890.82 C3000.48,3886.51 2988.27,3876.27 2982.22,3871.81 C2975.28,3866.93 2961.83,3857.28 2955.85,3852.69 C2948.56,3846.94 2938.64,3837.67 2932.53,3830.94 C2931.05,3829.28 2926.19,3823.48 2924.29,3820.75 C2922.95,3818.82 2919.71,3812.58 2916.55,3808.73 C2916.41,3808.57 2890.79,3782.50 2885.90,3777.15 C2883.64,3774.89 2877.67,3770.47 2874.29,3768.37 C2871.56,3766.67 2853.21,3756.26 2847.31,3752.39 C2840.22,3747.72 2830.51,3738.61 2826.07,3732.80 C2822.52,3728.06 2818.83,3724.05 2815.54,3721.90 C2812.34,3719.87 2804.54,3717.20 2800.21,3716.62 C2798.03,3716.35 2788.46,3715.75 2783.68,3715.23 C2781.87,3715.02 2777.38,3714.06 2776.09,3713.47 C2775.21,3713.06 2772.75,3710.75 2770.46,3709.60 C2769.04,3708.87 2755.75,3704.48 2745.97,3702.00 C2728.08,3697.86 2698.22,3691.59 2681.68,3688.19 C2664.80,3684.90 2633.08,3678.91 2614.59,3675.81 C2597.10,3673.23 2570.14,3669.60 2557.44,3666.97 C2549.16,3665.19 2535.39,3660.55 2528.71,3659.08 C2520.87,3657.38 2489.25,3654.53 2473.84,3653.66 C2430.77,3652.21 2391.47,3652.16 2371.25,3652.14 C2349.61,3652.12 2304.90,3652.08 2281.84,3652.06 C2257.34,3652.04 2206.93,3652.01 2181.01,3652.00 C2153.67,3651.99 2097.55,3651.97 2068.78,3651.96 C2038.59,3651.96 1976.77,3651.95 1945.14,3651.94 C1912.10,3651.94 1844.57,3651.94 1810.10,3651.95 C1774.20,3651.95 1700.97,3651.96 1663.64,3651.97 C1624.89,3651.98 1545.96,3652.00 1505.78,3652.01 C1464.18,3652.03 1379.55,3652.06 1336.52,3652.07 C1293.50,3652.09 1208.74,3652.12 1167.01,3652.14 C1126.55,3652.15 1046.92,3652.18 1007.74,3652.19 C969.84,3652.20 895.33,3652.22 858.72,3652.23 C823.39,3652.24 754.00,3652.25 719.95,3652.26 C687.17,3652.26 622.91,3652.27 591.42,3652.27 C561.21,3652.27 502.06,3652.27 473.13,3652.27 C445.48,3652.27 391.47,3652.26 365.10,3652.26 C340.01,3652.25 291.11,3652.24 267.30,3652.23 C244.78,3652.22 181.64,3652.18 141.04,3652.14 C98.95,3652.04 23.20,3651.79 -10.45,3651.63 C-37.46,3651.50 -88.80,3651.44 -113.12,3651.52 C-134.89,3651.81 -190.71,3653.07 -225.90,3654.69 C-256.16,3656.92 -314.49,3661.55 -342.57,3663.96 C-356.75,3665.28 -385.53,3667.92 -400.14,3669.24 C-415.84,3670.41 -451.26,3672.18 -469.82,3672.93 C-485.28,3673.29 -516.93,3673.79 -533.12,3673.95 C-568.81,3673.76 -634.19,3673.35 -663.88,3673.13 C-698.74,3673.06 -739.84,3673.03 -746.09,3673.07 C-746.09,3673.07 -746.09,3667.86 -746.09,3667.86 C-743.49,3667.01 -737.20,3664.93 -733.52,3663.71 C-729.14,3662.19 -722.45,3659.63 -720.01,3657.42 C-718.68,3656.19 -716.38,3653.19 -715.66,3652.25 C-713.30,3649.16 -708.18,3646.20 -705.19,3645.12 C-702.66,3644.23 -686.10,3639.68 -675.60,3635.49 C-645.40,3622.82 -581.04,3595.67 -555.61,3585.37 C-552.15,3584.01 -541.90,3580.43 -537.93,3579.34 C-537.71,3579.28 -523.13,3577.23 -511.31,3573.94 C-500.78,3570.81 -472.40,3561.53 -456.70,3556.29 C-439.41,3550.77 -405.32,3540.82 -389.22,3536.31 C-356.36,3528.08 -287.69,3511.43 -265.72,3506.89 C-253.33,3504.72 -224.40,3499.16 -206.00,3495.08 C-179.51,3488.89 -119.96,3474.74 -85.61,3467.29 C-68.10,3463.99 -33.64,3457.86 -17.25,3455.37 C-0.50,3453.12 33.49,3448.93 50.73,3446.99 C82.68,3443.98 140.33,3438.76 172.08,3436.51 C188.55,3435.63 255.79,3433.28 287.18,3431.99 C315.72,3430.71 378.65,3427.82 413.03,3426.22 C448.16,3424.97 516.83,3422.98 550.38,3422.23 C581.93,3421.92 645.53,3421.63 677.57,3421.65 C709.85,3421.85 774.37,3422.25 806.61,3422.46 C837.07,3422.65 897.20,3423.02 926.86,3423.20 C957.21,3423.38 1018.90,3423.67 1050.23,3423.79 C1083.26,3423.66 1151.07,3423.15 1185.85,3422.77 C1211.20,3422.36 1261.28,3421.46 1286.01,3420.96 C1311.68,3420.36 1363.94,3419.04 1390.54,3418.33 C1418.51,3417.53 1478.75,3416.00 1511.03,3415.27 C1548.18,3414.65 1627.34,3413.51 1669.35,3412.99 C1714.84,3412.58 1787.97,3412.00 1815.61,3411.81 C1844.77,3411.66 1904.58,3411.39 1935.25,3411.27 C1967.42,3411.17 2033.27,3411.02 2066.95,3410.95 C2102.14,3410.92 2174.03,3410.88 2210.73,3410.87 C2248.94,3410.90 2325.70,3410.96 2364.25,3411.00 C2400.84,3411.01 2472.00,3411.02 2506.56,3411.02 C2539.10,3410.99 2602.17,3410.91 2632.68,3410.86 C2661.18,3410.78 2716.14,3410.61 2742.61,3410.52 C2767.06,3410.40 2826.33,3410.05 2861.16,3409.83 C2899.24,3409.45 2967.77,3408.62 2998.22,3408.16 C3021.05,3407.61 3060.70,3406.44 3077.51,3405.82 C3100.76,3405.26 3156.34,3404.21 3188.68,3403.73 C3230.09,3403.34 3311.94,3402.70 3352.37,3402.46 C3374.59,3402.40 3420.28,3402.28 3443.74,3402.22 C3468.45,3402.16 3519.10,3402.06 3545.05,3402.01 C3572.24,3401.96 3627.87,3401.87 3656.31,3401.83 C3685.99,3401.80 3746.59,3401.73 3777.51,3401.70 C3809.67,3401.67 3875.25,3401.62 3908.65,3401.59 C3943.30,3401.57 4013.85,3401.54 4049.74,3401.52 C4086.88,3401.51 4162.40,3401.50 4200.78,3401.49 C4240.40,3401.49 4320.89,3401.49 4361.76,3401.50 C4403.87,3401.50 4488.56,3401.52 4531.15,3401.53 C4572.52,3401.54 4653.99,3401.56 4694.09,3401.57 C4732.92,3401.58 4809.30,3401.60 4846.85,3401.61 C4883.13,3401.61 4954.42,3401.63 4989.43,3401.64 C5023.17,3401.65 5089.36,3401.66 5121.83,3401.67 C5153.02,3401.68 5214.13,3401.69 5244.04,3401.70 C5272.69,3401.70 5328.71,3401.72 5356.08,3401.72 C5382.18,3401.73 5433.10,3401.74 5457.93,3401.74 C5481.48,3401.75 5527.32,3401.76 5549.60,3401.76 C5576.33,3401.78 5643.25,3401.84 5683.43,3401.88 C5718.41,3401.88 5783.39,3401.92 5813.39,3401.96 C5838.92,3402.21 5886.65,3402.89 5915.61,3403.92 C5930.71,3404.74 5955.73,3406.80 5967.32,3407.91 C5981.46,3408.91 6018.39,3410.37 6038.29,3410.97 C6066.65,3411.38 6131.25,3411.85 6167.49,3411.91 C6203.47,3411.89 6267.00,3412.02 6294.56,3412.17 C6316.85,3412.54 6348.92,3413.79 6363.97,3415.23 C6378.24,3416.97 6401.06,3421.32 6414.48,3424.10 C6424.34,3425.90 6464.83,3429.60 6481.39,3430.59 C6499.72,3431.36 6532.66,3432.55 6547.28,3432.97 C6557.49,3433.15 6576.58,3432.20 6577.43,3432.16 C6582.59,3431.89 6596.33,3434.23 6604.79,3436.82 C6606.81,3437.44 6617.10,3440.77 6620.72,3441.92 C6625.76,3443.44 6628.74,3443.96 6631.36,3443.51 C6608.78,3443.55 6550.51,3443.60 6514.82,3443.61 C6480.16,3443.54 6416.28,3443.43 6387.05,3443.38 C6371.56,3443.34 6339.96,3443.40 6323.84,3443.50 C6307.02,3443.96 6272.65,3445.22 6255.12,3446.04 C6236.87,3447.21 6202.54,3449.66 6186.44,3450.95 C6170.24,3452.45 6137.31,3455.69 6120.59,3457.43 C6085.62,3461.66 6017.25,3470.29 5983.86,3474.70 C5955.69,3478.50 5892.67,3487.21 5857.83,3492.12 C5829.79,3496.36 5773.83,3504.21 5745.92,3507.81 C5713.73,3511.20 5648.87,3517.49 5616.21,3520.39 C5589.03,3522.25 5536.42,3525.37 5510.99,3526.63 C5469.80,3529.53 5404.67,3534.31 5380.74,3536.20 C5353.08,3538.43 5294.06,3543.21 5262.68,3545.78 C5227.59,3548.67 5153.68,3554.80 5114.87,3558.04 C5074.10,3561.45 4995.89,3567.97 4958.46,3571.08 C4924.74,3573.86 4861.02,3579.09 4831.01,3581.53 C4804.71,3583.65 4746.53,3588.24 4714.64,3590.71 C4679.50,3593.07 4636.06,3595.83 4607.29,3596.76 C4573.01,3598.15 4511.56,3600.73 4484.39,3601.93 C4455.29,3603.24 4392.28,3606.14 4358.37,3607.71 C4320.17,3609.50 4245.80,3612.91 4209.64,3614.53 C4177.39,3615.86 4116.81,3618.23 4088.48,3619.27 C4047.53,3620.33 3970.88,3621.83 3941.83,3621.75 C3916.04,3621.64 3864.15,3622.78 3838.04,3623.97 C3810.89,3625.66 3754.83,3629.78 3725.92,3632.21 C3709.57,3633.41 3675.10,3635.66 3656.97,3636.72 C3622.26,3638.16 3564.08,3640.19 3540.61,3640.79 C3515.01,3641.24 3461.66,3641.98 3433.92,3642.28 C3403.82,3642.43 3339.73,3642.60 3305.74,3642.63 C3267.59,3642.53 3187.11,3642.22 3144.79,3642.00 C3110.59,3641.72 3047.55,3641.15 3018.71,3640.86 C2988.35,3640.52 2926.11,3639.78 2894.23,3639.39 C2860.83,3638.95 2792.50,3638.02 2757.58,3637.53 C2721.14,3636.99 2648.43,3635.86 2612.16,3635.26 C2577.56,3634.60 2510.03,3633.20 2477.10,3632.47 C2445.84,3631.66 2384.98,3629.99 2355.39,3629.12 C2327.46,3628.18 2266.53,3625.88 2233.52,3624.53 C2195.12,3622.58 2122.23,3618.46 2087.74,3616.30 C2057.17,3613.94 1999.72,3609.02 1972.84,3606.46 C1945.69,3603.80 1889.65,3598.41 1860.77,3595.69 C1830.15,3592.90 1768.03,3587.31 1736.53,3584.52 C1709.50,3582.10 1654.15,3577.20 1625.85,3574.72 C1596.27,3572.19 1535.83,3567.06 1504.98,3564.47 C1472.85,3561.82 1407.68,3556.35 1374.63,3553.54 C1341.17,3550.39 1273.81,3543.78 1239.93,3540.31 C1205.62,3536.52 1136.60,3528.60 1101.88,3524.48 C1069.30,3520.29 1004.80,3511.74 972.88,3507.38 C940.45,3502.73 875.08,3493.16 842.13,3488.24 C808.68,3483.03 741.26,3472.34 707.29,3466.85 C673.65,3461.28 607.73,3450.32 575.47,3444.92 C544.58,3439.70 484.19,3429.44 454.69,3424.39 C426.57,3419.52 368.90,3409.43 339.35,3404.22 C300.16,3397.09 225.08,3383.25 189.19,3376.55 C156.61,3370.25 94.42,3358.04 64.81,3352.12 C36.86,3346.35 -17.55,3334.94 -44.00,3329.30 C-68.96,3323.80 -131.56,3309.36 -169.21,3300.43 C-203.33,3291.79 -267.16,3275.14 -296.87,3267.14 C-309.55,3263.58 -333.44,3256.76 -344.66,3253.50 C-356.71,3249.91 -391.17,3237.29 -405.57,3231.07 C-417.06,3226.08 -449.66,3211.98 -453.92,3208.72 C-455.87,3207.20 -461.14,3200.78 -464.35,3198.29 C-467.23,3196.09 -475.83,3191.39 -477.74,3190.00 C-479.34,3188.79 -481.34,3185.87 -481.54,3184.14 C-481.63,3183.26 -480.28,3178.00 -480.00,3177.42 C-478.67,3174.79 -472.86,3171.06 -471.26,3170.10 C-460.95,3163.99 -436.18,3149.36 -420.12,3141.30 C-405.77,3134.47 -371.19,3120.09 -355.31,3114.01 C-320.69,3101.59 -277.89,3087.27 -266.09,3083.50 C-253.14,3079.73 -243.84,3077.79 -237.93,3077.52 C-231.85,3077.23 -195.13,3068.44 -181.75,3065.08 C-164.52,3060.42 -130.96,3051.40 -114.64,3047.04 C-99.11,3043.18 -62.14,3034.57 -51.20,3032.60 C-38.02,3030.15 -10.48,3023.48 3.36,3020.01 C18.66,3015.88 53.68,3007.07 65.30,3004.72 C76.60,3002.72 100.10,2998.86 112.31,2997.00 C147.87,2992.30 213.36,2983.82 243.31,2980.04 C269.72,2976.74 326.39,2969.67 356.63,2965.90 C390.70,2961.66 462.66,2952.72 500.55,2948.01 C541.42,2942.94 620.33,2933.13 658.37,2928.39 C692.49,2924.12 756.81,2916.06 787.02,2912.26 C813.30,2908.94 867.30,2902.05 895.02,2898.49 C929.66,2893.68 987.19,2885.59 1013.62,2883.36 C1026.96,2882.46 1053.36,2881.29 1067.13,2880.77 C1082.41,2880.45 1114.23,2879.80 1130.76,2879.49 C1165.31,2878.16 1224.45,2874.43 1247.58,2872.75 C1272.46,2870.49 1326.12,2865.40 1354.90,2862.58 C1394.13,2859.27 1473.21,2852.94 1513.05,2849.92 C1541.03,2847.95 1599.73,2843.91 1630.46,2841.82 C1663.94,2839.62 1733.66,2835.10 1769.89,2832.78 C1807.75,2830.40 1880.88,2825.82 1916.14,2823.63 C1948.39,2821.63 2009.89,2817.85 2039.13,2816.06 C2065.36,2814.48 2130.28,2810.66 2168.95,2808.43 C2200.91,2806.72 2256.04,2803.93 2279.23,2802.86 C2305.79,2802.07 2367.25,2800.60 2402.15,2799.92 C2432.23,2799.53 2488.15,2798.89 2513.99,2798.64 C2542.43,2798.42 2601.90,2798.02 2632.93,2797.83 C2666.56,2797.68 2735.36,2797.39 2770.55,2797.27 C2805.45,2797.15 2874.94,2796.94 2909.53,2796.84 C2943.80,2796.76 3012.26,2796.61 3046.45,2796.54 C3083.86,2796.55 3158.50,2796.56 3195.72,2796.57 C3232.76,2796.60 3306.65,2796.66 3343.50,2796.70 C3378.68,2796.73 3444.39,2796.78 3474.94,2796.78 C3500.77,2796.75 3547.73,2796.67 3568.86,2796.61 C3578.89,2796.54 3603.84,2796.03 3613.94,2795.39 C3626.65,2794.87 3661.76,2797.75 3673.92,2798.75 C3707.08,2801.72 3777.70,2808.28 3815.14,2811.88 C3829.94,2813.44 3864.81,2817.23 3872.43,2818.32 C3891.69,2821.44 3918.08,2828.19 3923.08,2828.24 C3924.41,2828.25 3929.70,2827.59 3930.55,2827.56 C3934.18,2827.45 3938.81,2829.67 3944.38,2833.07 C3943.49,2834.82 3941.26,2837.18 3939.16,2838.28 C3937.40,2839.20 3916.26,2842.14 3910.21,2844.54 C3907.23,2845.75 3901.74,2849.26 3900.65,2849.79 C3895.30,2852.34 3877.63,2855.73 3870.31,2856.91 C3862.14,2858.08 3844.49,2860.38 3835.88,2861.52 C3828.56,2862.67 3812.42,2865.61 3806.30,2867.57 C3803.64,2868.44 3798.22,2871.03 3795.50,2871.87 C3789.33,2873.75 3774.53,2876.08 3768.40,2876.91 C3754.39,2878.51 3721.29,2882.10 3703.67,2884.56 C3680.97,2888.14 3613.56,2901.06 3580.76,2906.70 C3550.15,2911.19 3487.29,2920.15 3455.38,2925.04 C3423.58,2930.60 3360.85,2941.97 3329.91,2947.79 C3315.46,2950.09 3284.43,2954.68 3268.45,2956.62 C3251.52,2958.37 3176.39,2964.76 3145.30,2967.36 C3128.81,2968.77 3096.41,2971.81 3080.52,2973.44 C3051.88,2976.88 2990.65,2985.77 2967.16,2988.66 C2926.20,2992.96 2870.68,2997.67 2842.50,2999.91 C2809.54,3002.23 2741.97,3006.68 2707.36,3008.82 C2673.07,3010.64 2606.24,3013.88 2573.69,3015.30 C2541.46,3016.43 2477.02,3018.44 2444.81,3019.32 C2413.15,3020.24 2350.55,3022.19 2319.61,3023.23 C2286.98,3024.46 2221.89,3027.09 2189.43,3028.49 C2157.52,3029.97 2094.55,3032.68 2063.48,3033.90 C2031.89,3034.85 1966.04,3036.49 1931.78,3037.17 C1897.77,3037.53 1833.33,3038.28 1802.89,3038.68 C1775.79,3039.27 1722.76,3040.76 1696.83,3041.67 C1671.92,3042.82 1602.91,3045.23 1558.80,3046.49 C1532.57,3047.04 1478.60,3048.10 1450.88,3048.62 C1419.59,3049.17 1353.47,3050.31 1318.63,3050.89 C1280.23,3051.50 1202.20,3052.73 1162.56,3053.34 C1126.25,3053.88 1057.08,3054.91 1024.22,3055.39 C994.82,3055.80 939.46,3056.56 913.51,3056.90 C874.19,3057.32 802.67,3057.92 770.46,3058.09 C752.49,3057.95 707.60,3057.66 680.68,3057.52 C642.38,3057.46 579.29,3057.34 554.51,3057.28 C526.26,3057.24 466.30,3057.15 434.59,3057.12 C399.42,3057.09 326.04,3057.04 287.83,3057.02 C251.01,3056.91 179.94,3056.59 145.69,3056.37 C114.01,3056.05 53.21,3055.29 24.10,3054.86 C-13.11,3054.01 -87.63,3051.84 -124.94,3050.51 C-140.91,3049.73 -171.05,3048.08 -185.22,3047.22 C-211.57,3045.17 -265.84,3040.55 -293.76,3037.98 C-323.53,3034.86 -386.38,3027.80 -419.47,3023.86 C-454.74,3019.31 -526.18,3009.81 -562.37,3004.87 C-592.78,3000.67 -646.87,2993.21 -670.54,2989.94 C-672.38,2989.69 -721.33,2982.27 -728.06,2981.10 C-743.03,2978.10 -775.03,2970.62 -788.31,2967.30 C-823.24,2958.32 -896.02,2940.01 -919.90,2934.84 C-930.78,2932.67 -944.06,2931.77 -947.01,2931.34 C-952.89,2930.44 -965.42,2926.97 -974.23,2924.08 C-988.30,2919.19 -1055.77,2893.00 -1067.51,2888.91 C-1070.15,2888.02 -1086.64,2882.36 -1090.44,2880.02 C-1097.00,2875.93 -1103.51,2867.61 -1106.10,2864.37 C-1105.65,2862.97 -1104.56,2859.20 -1104.04,2858.24 C-1102.11,2854.76 -1096.29,2850.13 -1093.75,2848.11 C-1089.96,2845.22 -1073.57,2833.96 -1067.11,2829.62 C-1060.44,2825.28 -1052.12,2820.85 -1042.51,2816.48 C-1028.79,2810.39 -999.54,2797.54 -984.01,2790.79 C-967.99,2784.12 -939.76,2773.20 -926.24,2768.13 C-911.71,2763.08 -880.80,2752.73 -864.42,2747.42 C-832.78,2737.88 -769.71,2719.39 -740.97,2711.78 C-718.53,2706.48 -692.50,2701.67 -678.56,2699.25 C-665.06,2697.01 -637.65,2692.51 -623.75,2690.25 C-599.19,2685.87 -527.65,2670.63 -496.06,2663.65 C-479.44,2660.18 -447.28,2654.24 -431.74,2651.76 C-414.59,2649.37 -380.92,2645.68 -364.40,2644.37 C-348.19,2643.30 -317.79,2640.57 -303.64,2638.85 C-290.22,2636.92 -262.88,2631.99 -253.65,2629.88 C-242.19,2626.94 -219.16,2621.39 -196.25,2617.04 C-150.88,2609.56 -94.61,2601.54 -64.27,2597.35 C-28.05,2592.69 44.94,2583.53 81.71,2579.03 C112.22,2575.51 172.87,2568.89 203.02,2565.79 C244.67,2562.39 272.32,2561.96 310.20,2559.28 C343.57,2556.14 402.04,2550.38 427.13,2547.77 C456.14,2544.67 518.08,2537.98 551.01,2534.39 C587.85,2530.30 664.94,2521.72 705.18,2517.21 C743.39,2512.95 816.34,2504.87 851.08,2501.05 C882.34,2497.66 941.40,2491.31 969.19,2488.35 C1001.80,2485.00 1077.91,2477.63 1121.43,2473.61 C1149.73,2471.53 1193.01,2468.94 1216.08,2467.39 C1242.17,2465.21 1293.11,2460.73 1317.94,2458.43 C1346.18,2455.64 1406.18,2449.64 1437.96,2446.44 C1473.84,2443.14 1549.79,2436.50 1589.85,2433.15 C1618.45,2430.96 1675.38,2426.72 1703.71,2424.67 C1733.85,2422.58 1795.95,2418.37 1827.91,2416.24 C1861.51,2414.08 1928.99,2409.75 1962.87,2407.58 C1996.74,2405.41 2064.48,2401.07 2098.34,2398.90 C2132.20,2396.73 2200.34,2392.42 2234.62,2390.29 C2269.15,2388.15 2338.45,2383.86 2373.22,2381.71 C2408.23,2379.56 2478.07,2375.29 2512.90,2373.17 C2545.34,2371.27 2607.49,2367.74 2637.20,2366.10 C2664.20,2364.72 2716.38,2362.18 2741.56,2361.02 C2775.39,2359.81 2836.10,2358.06 2862.97,2357.53 C2884.03,2357.63 2934.16,2357.90 2963.24,2358.07 C3004.46,2358.16 3079.98,2358.31 3114.28,2358.35 C3141.73,2358.40 3199.46,2358.46 3229.75,2358.48 C3262.89,2358.48 3331.99,2358.47 3367.96,2358.45 C3406.78,2358.41 3484.96,2358.33 3524.33,2358.28 C3560.61,2358.27 3630.03,2358.26 3663.18,2358.27 C3693.19,2358.30 3750.07,2358.40 3776.95,2358.46 C3804.64,2358.59 3875.99,2359.34 3919.65,2359.95 C3949.56,2360.74 3995.99,2363.20 4020.23,2364.71 C4047.45,2366.92 4103.52,2371.85 4132.36,2374.57 C4165.35,2377.91 4232.31,2384.83 4266.29,2388.41 C4300.02,2392.09 4368.03,2399.74 4402.31,2403.70 C4437.11,2407.77 4503.04,2415.56 4534.17,2419.30 C4547.27,2420.92 4573.63,2424.26 4586.90,2425.97 C4607.18,2428.86 4639.92,2433.84 4652.39,2435.93 C4664.73,2437.79 4691.56,2441.14 4704.98,2442.70 C4720.06,2444.17 4751.90,2447.23 4768.65,2448.83 C4786.04,2450.88 4818.37,2454.99 4833.30,2457.06 C4848.53,2459.42 4879.65,2464.47 4895.56,2467.16 C4928.00,2473.10 4992.24,2485.39 5024.02,2491.76 C5040.18,2495.12 5071.80,2501.58 5087.27,2504.67 C5120.23,2510.70 5184.26,2521.85 5215.32,2526.96 C5221.43,2528.14 5237.76,2531.42 5243.85,2532.90 C5255.01,2535.62 5285.49,2546.36 5299.19,2549.89 C5306.72,2551.64 5321.80,2554.72 5328.84,2555.98 C5336.35,2557.18 5356.28,2559.49 5359.21,2559.91 C5366.43,2560.97 5375.39,2563.72 5384.10,2567.90 C5393.98,2572.62 5423.80,2580.32 5428.69,2581.78 C5433.24,2583.12 5441.53,2587.80 5441.79,2587.85 C5443.29,2588.14 5447.02,2587.74 5448.95,2587.50 C5451.02,2587.32 5453.91,2588.60 5455.57,2590.38 C5456.00,2590.85 5456.62,2591.75 5457.44,2593.07 C5447.02,2599.80 5441.28,2603.83 5437.96,2606.16 C5435.02,2608.29 5430.62,2608.79 5426.08,2608.76 C5422.01,2608.70 5402.08,2607.58 5393.50,2608.01 C5385.66,2608.41 5369.96,2610.62 5362.42,2612.24 C5354.69,2614.01 5338.99,2617.37 5330.46,2618.35 C5323.59,2619.12 5306.86,2619.75 5299.00,2619.77 C5290.88,2619.61 5273.99,2618.84 5265.69,2618.59 C5250.19,2618.46 5221.50,2620.31 5207.89,2621.92 C5193.77,2623.93 5166.73,2627.40 5144.16,2629.04 C5134.30,2629.60 5076.45,2630.01 5054.10,2630.16 C5029.36,2630.28 4977.47,2630.50 4950.33,2630.60 C4920.78,2630.68 4859.30,2630.81 4827.35,2630.87 C4793.01,2630.91 4721.93,2630.96 4685.18,2630.97 C4646.04,2630.96 4565.56,2630.93 4524.23,2630.90 C4483.71,2630.87 4404.49,2630.78 4365.78,2630.74 C4328.89,2630.68 4256.93,2630.56 4221.85,2630.50 C4188.59,2630.43 4123.88,2630.28 4092.43,2630.21 C4062.80,2630.12 4005.35,2629.94 3977.53,2629.85 C3951.52,2629.74 3876.25,2629.38 3826.99,2629.12 C3779.35,2628.75 3695.22,2627.97 3658.72,2627.55 C3633.37,2627.08 3587.71,2625.98 3567.40,2625.36 C3545.22,2624.48 3498.98,2622.48 3474.93,2621.35 C3448.49,2619.93 3391.23,2616.63 3360.41,2614.74 C3327.15,2612.53 3258.20,2607.82 3222.51,2605.30 C3185.97,2602.64 3116.89,2597.69 3084.33,2595.40 C3056.09,2593.51 3000.24,2589.88 2972.64,2588.14 C2954.41,2587.08 2921.82,2585.35 2907.46,2584.69 C2895.97,2584.34 2879.39,2584.12 2865.43,2583.46 C2850.08,2582.31 2814.53,2579.24 2794.32,2577.32 C2763.94,2573.96 2705.10,2567.20 2676.62,2563.80 C2643.71,2559.72 2573.45,2550.86 2536.10,2546.09 C2498.70,2541.29 2427.74,2532.23 2394.18,2527.98 C2364.44,2524.27 2301.69,2516.51 2268.66,2512.46 C2229.92,2507.88 2164.39,2500.44 2137.59,2497.58 C2111.61,2494.72 2060.03,2488.80 2034.43,2485.74 C2009.13,2482.47 1956.54,2475.52 1929.24,2471.84 C1896.22,2467.13 1822.36,2456.33 1781.53,2450.23 C1752.83,2445.77 1697.21,2437.05 1670.29,2432.79 C1641.04,2428.11 1580.24,2418.33 1548.68,2413.24 C1514.90,2407.74 1447.02,2396.53 1412.90,2390.82 C1379.15,2384.97 1312.00,2373.12 1278.60,2367.13 C1245.55,2361.00 1179.87,2348.58 1147.24,2342.29 C1114.90,2335.84 1050.48,2322.78 1018.40,2316.17 C986.58,2309.40 923.21,2295.71 891.66,2288.79 C860.52,2281.80 798.73,2267.76 768.08,2260.72 C737.91,2253.64 678.05,2239.44 648.36,2232.31 C614.74,2224.00 546.04,2206.78 510.97,2197.86 C476.47,2188.85 408.05,2170.73 374.14,2161.62 C342.39,2152.97 282.67,2136.68 254.70,2129.04 C230.50,2122.41 178.41,2107.99 150.52,2100.20 C132.64,2095.09 101.19,2086.08 87.62,2082.18 C75.30,2078.43 50.64,2070.30 38.30,2065.93 C24.17,2060.77 -55.59,2026.83 -78.62,2017.88 C-92.60,2012.62 -120.23,2003.02 -133.94,1998.69 C-166.76,1988.70 -228.84,1969.67 -258.11,1960.64 C-274.93,1955.41 -307.80,1945.09 -323.84,1940.00 C-337.98,1935.32 -367.80,1925.13 -383.50,1919.61 C-405.20,1911.33 -428.43,1900.90 -440.40,1895.31 C-454.54,1888.43 -477.05,1876.39 -493.82,1866.74 C-500.94,1862.59 -508.28,1857.32 -509.55,1855.52 C-510.69,1853.85 -511.57,1851.45 -511.83,1849.48 C-512.35,1844.97 -512.53,1838.64 -512.03,1834.98 C-511.49,1831.36 -508.61,1824.96 -506.87,1822.21 C-504.81,1819.02 -499.43,1813.36 -495.66,1810.45 C-491.76,1807.48 -477.96,1799.73 -470.45,1796.33 C-458.78,1791.05 -431.69,1782.32 -411.48,1776.53 C-395.42,1771.57 -364.88,1761.91 -350.40,1757.21 C-319.54,1746.73 -241.41,1720.56 -232.12,1717.66 C-220.08,1714.10 -184.47,1705.38 -170.63,1702.56 C-156.16,1699.85 -125.01,1694.85 -108.98,1692.44 C-92.45,1690.31 -58.74,1686.81 -41.74,1685.23 C-26.34,1684.23 4.90,1682.54 20.75,1681.85 C53.13,1681.17 118.06,1680.20 150.60,1679.90 C184.55,1679.90 249.33,1679.64 275.81,1678.95 C289.69,1678.36 317.53,1676.43 328.15,1675.04 C337.76,1673.66 377.55,1671.48 399.29,1670.81 C424.82,1670.38 482.37,1669.76 514.39,1669.57 C550.24,1669.56 619.97,1669.56 653.85,1669.57 C687.68,1669.58 755.73,1669.62 789.94,1669.65 C822.44,1669.65 884.75,1669.37 914.56,1669.08 C942.19,1668.46 997.26,1666.90 1024.70,1665.97 C1051.09,1664.71 1109.97,1662.29 1142.46,1661.13 C1185.10,1660.30 1249.44,1659.39 1271.14,1659.31 C1294.53,1659.24 1342.99,1659.11 1368.06,1659.05 C1394.81,1658.99 1449.99,1658.90 1478.43,1658.87 C1508.54,1658.84 1570.45,1658.79 1602.24,1658.77 C1635.72,1658.76 1704.35,1658.75 1739.51,1658.75 C1776.34,1658.77 1851.70,1658.80 1890.22,1658.82 C1930.42,1658.86 2012.50,1658.93 2054.39,1658.97 C2096.92,1659.02 2180.38,1659.11 2221.31,1659.15 C2260.54,1659.19 2337.33,1659.25 2374.87,1659.28 C2410.73,1659.30 2480.76,1659.34 2514.93,1659.35 C2547.41,1659.36 2610.68,1659.37 2641.47,1659.37 C2670.57,1659.37 2727.09,1659.35 2754.50,1659.33 C2780.23,1659.32 2829.98,1659.27 2854.02,1659.24 C2876.36,1659.21 2933.62,1659.13 2968.53,1659.08 C3004.98,1658.91 3066.21,1658.45 3091.00,1658.16 C3101.78,1658.14 3126.62,1658.70 3139.75,1659.12 C3169.73,1660.65 3231.41,1665.23 3259.35,1667.58 C3284.31,1670.04 3337.24,1675.46 3365.22,1678.42 C3396.22,1681.88 3461.01,1689.26 3494.79,1693.18 C3529.53,1697.35 3599.57,1705.85 3634.87,1710.20 C3670.73,1714.74 3741.85,1723.87 3777.10,1728.47 C3809.48,1732.86 3874.87,1741.79 3907.89,1746.34 C3941.55,1751.03 4009.52,1760.58 4043.83,1765.43 C4078.32,1770.36 4145.29,1779.99 4177.77,1784.69 C4207.97,1789.10 4266.08,1797.66 4294.00,1801.80 C4319.63,1805.66 4388.77,1816.34 4432.28,1823.16 C4469.32,1829.28 4534.52,1840.37 4562.68,1845.34 C4585.08,1849.44 4633.80,1858.52 4659.31,1864.50 C4676.82,1868.99 4700.06,1874.01 4711.68,1875.70 C4724.74,1877.25 4732.70,1878.45 4742.60,1880.82 C4762.75,1885.65 4823.54,1906.16 4838.69,1910.90 C4845.45,1912.85 4864.99,1918.23 4872.82,1919.81 C4879.12,1921.07 4894.49,1922.91 4899.74,1924.05 C4903.56,1924.96 4909.64,1927.05 4912.30,1929.15 C4914.90,1931.49 4920.82,1936.49 4923.83,1937.82 C4925.12,1938.41 4929.89,1940.08 4930.48,1940.89 C4931.25,1941.98 4931.07,1944.46 4930.48,1946.10 C4924.62,1948.13 4910.39,1953.00 4902.71,1955.47 C4894.17,1958.11 4878.93,1961.46 4873.08,1961.76 C4869.92,1961.90 4862.61,1961.10 4861.69,1961.02 C4856.28,1960.54 4837.68,1962.99 4830.41,1964.11 C4821.87,1965.58 4804.73,1968.51 4796.14,1969.97 C4788.75,1971.05 4773.39,1972.88 4765.74,1972.82 C4761.86,1972.77 4755.14,1971.82 4753.16,1971.69 C4740.90,1970.91 4683.19,1979.24 4664.33,1980.94 C4639.71,1982.62 4621.23,1982.72 4611.36,1982.77 C4590.51,1982.86 4547.32,1983.05 4524.98,1983.14 C4501.16,1983.23 4452.02,1983.39 4426.70,1983.47 C4399.89,1983.54 4344.80,1983.67 4316.50,1983.74 C4286.72,1983.80 4225.67,1983.91 4194.40,1983.96 C4161.64,1984.00 4094.63,1984.09 4060.38,1984.13 C4024.64,1984.16 3951.68,1984.21 3914.45,1984.24 C3875.73,1984.26 3796.81,1984.29 3756.61,1984.30 C3714.92,1984.31 3630.08,1984.31 3586.93,1984.31 C3544.12,1984.30 3459.86,1984.28 3418.41,1984.27 C3378.30,1984.25 3299.44,1984.21 3260.69,1984.19 C3223.29,1984.16 3149.84,1984.09 3113.79,1984.05 C3079.09,1984.01 3011.04,1983.92 2977.70,1983.88 C2945.70,1983.82 2883.06,1983.71 2852.42,1983.65 C2823.12,1983.59 2765.89,1983.45 2737.95,1983.38 C2711.36,1983.30 2659.53,1983.14 2634.29,1983.06 C2610.40,1982.97 2563.98,1982.79 2541.44,1982.70 C2502.41,1982.24 2421.93,1980.96 2380.50,1980.14 C2348.98,1979.13 2294.55,1976.91 2271.65,1975.71 C2247.10,1974.31 2194.19,1971.29 2165.82,1969.67 C2136.07,1967.96 2080.82,1964.71 2055.32,1963.17 C2027.30,1961.51 1968.73,1958.08 1938.18,1956.30 C1905.11,1954.40 1837.53,1950.40 1803.03,1948.31 C1768.34,1945.94 1698.77,1940.91 1663.89,1938.26 C1628.82,1935.33 1559.94,1929.25 1526.14,1926.10 C1492.49,1922.70 1424.63,1915.65 1390.42,1911.99 C1355.65,1908.06 1285.61,1899.94 1250.34,1895.75 C1216.81,1891.74 1152.62,1884.12 1121.97,1880.50 C1094.19,1877.27 1041.52,1871.22 1016.62,1868.39 C982.16,1864.56 916.42,1857.50 885.15,1854.27 C862.63,1852.28 811.44,1847.52 782.78,1844.77 C743.56,1840.65 678.85,1833.71 653.34,1830.88 C624.51,1827.62 563.49,1820.69 531.32,1817.01 C495.82,1812.91 422.92,1804.45 385.52,1800.08 C350.63,1795.95 283.63,1787.95 251.53,1784.08 C222.23,1780.47 159.20,1772.57 125.48,1768.27 C86.23,1762.96 15.93,1753.07 -15.13,1748.49 C-41.57,1744.27 -93.82,1735.74 -119.64,1731.44 C-147.07,1726.62 -203.32,1716.49 -232.13,1711.17 C-261.28,1705.56 -323.67,1693.44 -356.92,1686.93 C-390.24,1680.28 -454.47,1667.37 -485.38,1661.10 C-519.42,1654.19 -588.74,1640.09 -624.03,1632.91 C-654.90,1626.54 -711.86,1614.70 -737.93,1609.23 C-758.92,1604.66 -797.28,1596.17 -814.65,1592.23 C-827.09,1589.21 -851.63,1583.00 -863.74,1579.82 C-891.68,1571.88 -953.31,1553.67 -987.01,1543.41 C-1002.70,1538.45 -1030.92,1529.38 -1043.44,1525.28 C-1062.54,1518.82 -1087.20,1507.16 -1096.47,1504.06 C-1109.77,1499.80 -1140.84,1490.99 -1157.89,1486.31 C-1176.49,1480.88 -1196.91,1474.09 -1204.88,1470.36 C-1210.94,1467.48 -1222.95,1458.58 -1226.10,1455.66 C-1228.92,1453.02 -1234.47,1446.75 -1236.60,1443.79 C-1238.50,1441.12 -1241.95,1434.75 -1242.61,1431.28 C-1243.26,1427.62 -1243.21,1420.66 -1242.56,1417.18 C-1241.93,1413.95 -1238.96,1408.31 -1237.28,1406.01 C-1233.93,1401.48 -1225.10,1391.98 -1216.95,1383.65 C-1207.61,1374.20 -1199.42,1366.56 -1191.99,1361.42 C-1185.30,1356.82 -1170.47,1349.11 -1162.63,1345.90 C-1158.11,1344.06 -1138.95,1337.13 -1131.51,1334.36 C-1110.31,1325.78 -1095.82,1318.51 -1077.45,1308.14 C-1072.22,1305.12 -1057.93,1296.73 -1055.72,1295.57 C-1044.14,1289.53 -1008.32,1276.48 -993.12,1271.36 C-958.21,1260.27 -907.82,1245.46 -898.54,1243.41 C-890.34,1241.61 -881.77,1241.22 -875.60,1240.26 C-862.35,1238.16 -784.40,1220.70 -750.66,1213.05 C-734.13,1209.84 -700.93,1203.80 -683.89,1201.21 C-667.16,1198.94 -634.83,1195.40 -618.93,1193.79 C-603.73,1191.94 -574.79,1187.58 -558.47,1184.57 C-541.76,1181.05 -510.02,1173.01 -494.53,1168.85 C-479.91,1165.28 -453.12,1159.69 -440.12,1157.74 C-427.80,1156.10 -406.10,1154.41 -386.74,1152.37 C-351.10,1147.57 -283.86,1138.00 -252.26,1133.23 C-214.96,1127.36 -145.54,1116.69 -113.42,1111.88 C-100.17,1110.04 -69.18,1106.05 -51.45,1103.90 C-35.27,1102.28 -11.45,1100.85 -1.05,1100.46 C12.08,1099.59 47.43,1096.11 66.60,1094.05 C90.91,1091.08 144.87,1084.22 174.53,1080.32 C208.83,1075.68 277.91,1066.86 312.68,1062.68 C347.23,1059.15 413.18,1053.01 444.57,1050.39 C475.94,1048.29 538.84,1044.59 570.37,1042.98 C602.21,1041.42 666.29,1038.01 698.53,1036.17 C730.91,1034.08 795.48,1029.67 827.68,1027.36 C860.52,1024.78 926.75,1019.36 960.14,1016.53 C992.41,1013.81 1055.20,1008.62 1085.72,1006.15 C1116.40,1003.82 1179.98,999.18 1212.88,996.89 C1243.72,994.92 1304.79,991.14 1335.02,989.31 C1366.98,987.29 1430.93,983.20 1462.92,981.12 C1494.56,979.04 1559.73,974.72 1593.27,972.47 C1627.70,970.19 1694.06,966.03 1726.00,964.15 C1755.15,962.72 1817.03,960.20 1849.75,959.12 C1880.53,958.64 1940.37,958.14 1969.41,958.13 C2001.34,957.91 2064.03,957.29 2094.78,956.89 C2117.62,956.52 2164.74,955.68 2189.02,955.21 C2214.75,954.63 2268.38,953.40 2296.28,952.75 C2330.18,952.16 2404.56,951.08 2445.03,950.58 C2492.08,950.17 2572.28,949.57 2605.44,949.38 C2634.15,949.28 2693.34,949.09 2723.82,949.01 C2756.08,948.95 2822.36,948.86 2856.39,948.83 C2892.19,948.82 2965.57,948.83 3003.14,948.84 C3042.24,948.88 3118.95,948.99 3156.55,949.05 C3191.76,949.14 3259.79,949.34 3292.61,949.45 C3323.03,949.59 3381.49,949.89 3409.52,950.05 C3435.15,950.24 3484.04,950.64 3507.28,950.85 C3531.22,951.25 3577.55,952.18 3599.95,952.70 C3618.71,953.30 3652.63,954.58 3667.77,955.26 C3691.28,956.94 3740.30,960.97 3765.80,963.31 C3793.11,966.28 3849.63,972.82 3878.85,976.38 C3911.46,980.57 3977.59,989.25 4011.12,993.74 C4043.62,998.27 4107.97,1007.59 4139.81,1012.37 C4171.36,1017.31 4234.13,1027.21 4265.34,1032.17 C4296.34,1036.87 4359.00,1046.06 4390.67,1050.57 C4426.14,1055.31 4497.12,1064.40 4532.61,1068.75 C4562.17,1072.38 4624.31,1080.19 4646.22,1083.47 C4653.29,1084.67 4662.08,1086.43 4670.25,1088.49 C4692.14,1094.53 4763.80,1116.72 4797.43,1127.10 C4803.78,1128.90 4821.23,1133.67 4826.58,1134.79 C4834.32,1136.39 4844.39,1136.07 4852.96,1136.92 C4864.37,1138.21 4903.97,1144.72 4917.50,1147.30 C4921.38,1148.05 4926.66,1151.26 4930.48,1153.05 C4933.52,1154.48 4950.27,1161.07 4956.56,1163.49 C4956.47,1168.49 4956.41,1174.41 4955.80,1176.75 C4955.24,1178.76 4953.03,1182.44 4951.35,1184.36 C4949.39,1186.51 4942.54,1191.17 4938.37,1193.15 C4931.40,1196.42 4918.10,1200.73 4914.72,1200.86 C4913.34,1200.91 4909.05,1199.63 4908.33,1199.60 C4903.94,1199.40 4895.07,1203.01 4881.63,1208.99 C4877.85,1210.66 4862.02,1216.52 4857.18,1217.73 C4847.68,1220.05 4812.27,1224.97 4797.50,1226.95 C4759.75,1231.57 4675.41,1241.37 4663.37,1242.16 C4657.62,1242.50 4648.33,1242.70 4645.04,1242.55 C4642.30,1242.42 4629.69,1241.03 4621.70,1241.48 C4610.50,1242.22 4587.51,1244.38 4574.98,1245.67 C4560.32,1247.35 4525.13,1250.23 4504.48,1251.32 C4481.07,1252.21 4422.38,1252.68 4396.70,1252.84 C4367.38,1252.93 4305.09,1253.03 4272.12,1253.04 C4235.50,1252.98 4158.78,1252.78 4118.68,1252.65 C4079.65,1252.52 4004.74,1252.30 3968.86,1252.21 C3936.12,1252.16 3873.81,1252.10 3844.22,1252.09 C3817.79,1252.12 3750.26,1252.26 3709.17,1252.37 C3673.56,1252.65 3617.22,1253.35 3596.50,1253.78 C3575.90,1253.88 3516.60,1252.59 3483.07,1251.63 C3454.31,1250.45 3397.48,1247.95 3369.42,1246.64 C3337.89,1245.04 3271.35,1241.55 3236.35,1239.67 C3198.40,1237.54 3124.32,1233.28 3088.19,1231.16 C3055.00,1229.11 2991.59,1225.10 2961.35,1223.13 C2932.84,1221.14 2863.10,1215.76 2821.87,1212.39 C2788.99,1209.18 2729.62,1202.93 2703.14,1199.87 C2675.83,1196.84 2620.30,1190.85 2592.08,1187.89 C2564.98,1185.12 2509.11,1179.56 2480.33,1176.76 C2449.76,1173.87 2385.74,1167.33 2352.29,1163.69 C2315.69,1159.16 2247.17,1150.27 2215.26,1145.90 C2185.94,1141.63 2125.44,1132.62 2094.26,1127.89 C2061.22,1122.68 1993.85,1111.95 1959.53,1106.42 C1926.32,1101.12 1861.32,1090.83 1829.51,1085.83 C1799.10,1081.13 1737.47,1071.68 1706.26,1066.92 C1674.83,1062.22 1613.47,1053.16 1583.55,1048.80 C1555.14,1044.78 1497.61,1036.67 1468.49,1032.57 C1436.46,1027.96 1369.47,1018.26 1334.51,1013.15 C1301.23,1008.21 1238.52,998.82 1209.09,994.37 C1177.96,989.64 1113.97,979.87 1081.12,974.83 C1046.56,969.51 976.32,958.64 940.64,953.10 C906.63,947.74 840.65,937.25 808.67,932.12 C778.72,927.21 720.85,917.63 692.93,912.95 C657.22,906.73 585.61,893.96 549.73,887.40 C518.55,881.34 459.86,869.56 432.36,863.85 C404.68,857.98 348.74,846.01 320.50,839.93 C290.92,833.37 230.16,819.74 198.97,812.67 C166.65,805.24 101.53,790.20 68.72,782.59 C37.85,775.46 -21.73,761.77 -50.44,755.19 C-79.93,748.44 -137.75,735.27 -166.09,728.86 C-179.30,725.91 -205.36,720.08 -218.22,717.20 C-232.43,713.73 -262.50,706.11 -278.36,701.95 C-295.86,697.10 -332.50,686.70 -351.65,681.15 C-382.03,671.92 -443.21,652.97 -474.00,643.25 C-507.84,632.28 -578.50,609.11 -615.32,596.91 C-650.08,585.31 -714.36,563.86 -743.89,554.01 C-768.19,545.91 -818.75,528.86 -845.02,519.91 C-858.08,515.50 -889.62,504.48 -898.33,501.09 C-912.47,495.49 -942.18,483.52 -957.74,477.15 C-980.74,467.45 -1043.42,438.28 -1069.18,426.16 C-1082.29,419.67 -1112.64,402.21 -1126.61,393.96 C-1141.96,384.63 -1169.81,367.64 -1182.31,359.99 C-1186.75,357.21 -1189.50,355.21 -1192.08,352.54 C-1199.48,344.83 -1215.31,319.51 -1217.56,313.98 C-1219.44,309.29 -1221.07,296.16 -1221.02,286.54 C-1220.88,276.37 -1220.29,268.82 -1220.08,268.10 C-1219.26,265.48 -1215.09,260.16 -1211.67,256.49 C-1208.57,253.25 -1194.08,239.51 -1188.74,234.21 C-1182.41,227.73 -1173.66,216.89 -1171.08,214.61 C-1166.13,210.27 -1153.03,202.49 -1147.30,199.18 C-1133.18,191.41 -1102.16,175.23 -1088.45,168.49 C-1084.85,166.76 -1069.23,160.47 -1063.17,158.24 C-1051.77,154.30 -1023.03,146.88 -1002.37,142.16 C-993.49,140.20 -917.48,126.71 -885.44,121.15 C-867.24,118.12 -831.54,112.39 -814.03,109.69 C-797.39,107.37 -765.00,103.11 -749.25,101.17 C-730.79,99.15 -704.98,97.19 -690.52,96.17 C-676.36,95.44 -648.34,94.27 -634.49,93.82 C-607.37,93.52 -547.48,93.83 -514.81,93.96 C-474.32,93.95 -409.63,93.92 -385.43,93.91 C-362.89,93.91 -316.41,93.89 -292.48,93.89 C-267.16,93.88 -215.15,93.85 -188.44,93.84 C-160.35,93.82 -102.79,93.78 -73.32,93.76 C-42.46,93.74 20.65,93.69 52.89,93.66 C86.53,93.63 155.17,93.57 190.19,93.53 C226.60,93.50 300.79,93.42 338.58,93.38 C377.75,93.34 457.49,93.25 498.05,93.20 C540.00,93.15 624.63,93.05 667.31,93.00 C708.78,92.96 790.36,92.89 830.47,92.86 C869.23,92.84 945.40,92.81 982.81,92.79 C1018.86,92.79 1089.62,92.80 1124.32,92.81 C1157.67,92.82 1223.02,92.87 1255.01,92.89 C1285.65,92.93 1345.59,93.01 1374.88,93.06 C1402.82,93.12 1457.34,93.24 1483.92,93.30 C1509.16,93.38 1558.27,93.54 1582.15,93.62 C1604.67,93.72 1661.95,94.24 1696.69,94.67 C1738.12,95.63 1812.23,97.83 1844.91,99.07 C1870.26,100.55 1921.12,103.56 1946.63,105.09 C1973.39,106.64 2028.22,109.89 2056.28,111.59 C2086.73,113.44 2150.31,117.22 2183.43,119.14 C2218.06,121.08 2285.31,124.81 2317.93,126.60 C2348.31,128.23 2406.50,131.44 2434.31,133.02 C2460.48,134.49 2511.35,137.31 2536.05,138.66 C2564.37,140.55 2630.42,145.62 2668.14,148.81 C2712.01,152.98 2782.36,159.87 2808.85,162.58 C2837.74,165.62 2897.91,172.03 2929.19,175.40 C2962.88,179.10 3032.65,186.82 3068.73,190.84 C3106.97,195.17 3182.02,203.72 3218.82,207.94 C3253.01,211.92 3318.76,219.64 3350.33,223.39 C3379.28,226.89 3434.55,233.66 3460.88,236.92 C3495.53,241.40 3567.29,251.06 3604.41,256.23 C3631.13,260.45 3677.88,268.38 3697.92,272.09 C3725.26,276.92 3788.58,287.84 3824.56,293.94 C3854.50,298.94 3913.33,308.69 3942.21,313.44 C3974.24,318.66 4041.44,329.55 4076.62,335.23 C4114.94,341.37 4191.79,353.66 4230.31,359.81 C4264.85,365.37 4329.88,375.87 4360.39,380.82 C4386.87,385.15 4437.34,393.51 4461.33,397.52 C4501.00,404.86 4556.90,416.49 4582.79,421.95 C4613.87,427.96 4677.02,439.63 4704.37,444.01 C4717.47,445.87 4744.40,448.97 4752.68,450.17 C4775.24,453.91 4849.14,469.88 4877.72,476.23 C4913.44,484.42 4985.24,500.86 5021.33,509.12 C5051.02,515.69 5125.01,531.69 5156.07,537.53 C5172.00,540.26 5194.41,543.04 5205.51,544.75 C5216.87,546.73 5246.66,552.98 5263.51,557.08 C5279.53,561.12 5316.92,570.01 5325.56,571.22 C5327.46,571.49 5344.16,572.69 5353.09,573.92 C5363.30,575.53 5402.83,583.77 5413.46,586.31 C5428.25,590.08 5477.84,601.73 5478.41,601.92 C5479.94,602.45 5482.05,603.51 5482.76,604.10 C5483.42,604.70 5483.59,605.93 5483.04,606.64 C5481.19,608.82 5462.66,614.15 5457.44,615.66" fill="none" stroke="rgb(201, 221, 248)" stroke-width="953.80" stroke-opacity="1.00" stroke-linejoin="round"/>
</g>
</svg>
