<?xml version="1.0" encoding="UTF-8" standalone="no"?>
<!DOCTYPE svg PUBLIC "-//W3C//DTD SVG 1.1//EN" "http://www.w3.org/Graphics/SVG/1.1/DTD/svg11.dtd">
<svg width="3600.00" height="6000.00" viewBox="0.00 0.00 3600.00 6000.00" xmlns="http://www.w3.org/2000/svg" xmlns:xlink="http://www.w3.org/1999/xlink">
<g stroke-linecap="round" id="ground_2">
<path d="M3632.21,2944.53 C3632.30,2945.67 3632.64,2948.71 3632.53,2949.50 C3632.28,2951.17 3630.97,2953.84 3629.74,2955.42 C3624.95,2961.36 3613.01,2972.79 3606.13,2978.18 C3602.21,2981.24 3584.03,2993.96 3580.16,2996.42 C3570.67,3002.34 3560.09,3008.26 3553.57,3011.01 C3547.67,3013.48 3529.23,3019.68 3525.18,3020.80 C3521.13,3021.91 3503.16,3025.83 3496.02,3026.79 C3489.04,3027.71 3473.32,3027.91 3465.21,3027.26 C3458.39,3026.70 3442.10,3023.50 3434.36,3021.24 C3428.24,3019.44 3416.60,3014.31 3407.05,3009.59 C3400.92,3006.45 3389.12,2999.12 3385.07,2995.86 C3378.20,2990.28 3352.72,2964.32 3342.10,2953.20 C3330.59,2940.59 3308.98,2915.69 3299.11,2904.08 C3278.86,2879.16 3242.03,2832.99 3225.45,2811.73 C3217.51,2801.45 3193.67,2772.65 3179.97,2756.40 C3160.67,2734.34 3117.13,2685.11 3092.89,2657.96 C3071.21,2633.80 3025.90,2583.43 3002.28,2557.22 C2993.82,2548.00 2977.37,2530.50 2969.38,2522.21 C2958.23,2511.27 2934.88,2489.44 2923.35,2478.88 C2918.62,2474.69 2904.81,2463.29 2898.69,2458.49 C2892.89,2454.13 2880.64,2445.47 2874.72,2442.05 C2869.34,2438.95 2853.74,2431.60 2847.54,2429.71 C2839.70,2427.36 2827.35,2425.89 2818.03,2425.82 C2809.36,2425.78 2797.03,2427.38 2788.13,2429.25 C2774.02,2432.54 2750.67,2439.95 2731.06,2447.24 C2716.27,2453.04 2686.18,2465.89 2672.09,2472.10 C2657.66,2478.79 2628.24,2492.72 2613.25,2499.96 C2585.32,2514.27 2529.77,2542.91 2502.13,2557.25 C2472.01,2572.05 2416.85,2598.03 2385.75,2611.74 C2378.99,2614.54 2365.60,2619.49 2358.97,2621.64 C2352.97,2623.50 2336.78,2626.86 2329.01,2627.91 C2321.19,2628.95 2304.37,2629.96 2297.78,2629.79 C2293.15,2629.65 2277.77,2628.04 2268.87,2626.70 C2253.70,2624.02 2228.66,2617.99 2209.16,2612.30 C2194.58,2607.70 2164.45,2597.79 2148.35,2591.98 C2119.84,2580.95 2061.32,2556.43 2031.37,2543.62 C2002.41,2530.99 1944.54,2505.97 1915.63,2493.56 C1900.94,2487.61 1871.05,2475.84 1855.86,2470.01 C1840.92,2464.59 1811.87,2454.33 1797.75,2449.49 C1783.52,2444.90 1751.86,2435.66 1736.74,2431.69 C1729.43,2429.93 1715.05,2426.63 1707.98,2425.10 C1696.96,2422.92 1690.10,2421.81 1677.51,2420.28 C1661.67,2418.68 1623.07,2417.36 1615.76,2417.52 C1612.54,2417.59 1596.28,2418.57 1590.15,2419.10 C1581.84,2419.96 1572.66,2421.42 1560.17,2423.92 C1533.48,2429.95 1466.47,2447.46 1433.97,2456.13 C1417.08,2460.32 1383.81,2468.20 1367.42,2471.89 C1350.83,2475.31 1315.06,2481.83 1297.58,2484.57 C1280.38,2486.98 1248.13,2490.74 1232.78,2492.44 C1220.07,2493.73 1188.90,2496.72 1175.29,2496.91 C1167.34,2497.01 1154.63,2495.91 1148.30,2494.87 C1141.89,2493.74 1128.62,2489.35 1121.47,2486.69 C1114.04,2483.74 1097.24,2476.31 1093.35,2474.20 C1091.58,2473.23 1078.75,2464.98 1074.01,2461.69 C1068.64,2457.87 1059.40,2449.60 1049.44,2439.64 C1037.33,2426.93 987.52,2369.61 964.64,2342.91 C942.63,2317.28 897.72,2265.74 874.81,2239.82 C858.92,2222.54 813.35,2176.32 791.65,2154.60 C768.64,2132.35 730.17,2095.47 721.49,2088.57 C717.46,2085.39 708.38,2079.11 699.58,2074.03 C690.36,2069.01 678.38,2063.33 671.55,2060.93 C666.74,2059.24 648.72,2054.14 641.65,2052.68 C631.73,2050.82 619.64,2049.20 613.15,2049.01 C605.29,2048.86 592.43,2049.37 583.61,2050.20 C579.12,2050.66 561.91,2053.43 554.35,2054.88 C535.66,2058.89 508.91,2066.01 493.20,2070.67 C480.99,2074.52 448.46,2086.42 433.42,2092.13 C417.66,2098.44 391.18,2109.79 377.56,2115.72 C362.99,2122.41 335.16,2135.61 321.90,2142.11 C308.47,2148.99 280.79,2163.40 266.55,2170.95 C238.21,2186.48 186.26,2216.54 159.32,2232.38 C132.13,2249.10 79.12,2282.34 53.31,2298.85 C39.72,2307.79 12.26,2326.12 -1.61,2335.51 C-15.51,2345.19 -41.78,2363.74 -54.15,2372.61 C-79.84,2391.57 -131.61,2430.25 -157.70,2449.97 C-183.21,2469.43 -234.40,2508.71 -260.08,2528.53 C-285.18,2548.05 -334.43,2586.60 -358.59,2605.62 C-383.96,2625.97 -433.74,2666.17 -458.15,2686.02 C-481.65,2705.54 -529.96,2746.26 -554.76,2767.44 C-577.47,2787.36 -624.47,2829.39 -648.77,2851.51 C-660.13,2862.23 -681.44,2882.60 -691.38,2892.27 C-704.24,2905.27 -726.32,2928.96 -735.86,2939.47 C-740.92,2945.19 -746.63,2952.86 -748.32,2955.15" fill="none" stroke="rgb(161, 156, 198)" stroke-width="164.30" stroke-opacity="1.00" stroke-linejoin="round"/>
<path d="M3561.53,3030.87 C3564.51,3044.95 3572.34,3083.10 3573.66,3091.67 C3575.47,3104.69 3578.36,3133.35 3579.87,3154.30 C3581.22,3180.64 3583.91,3239.28 3585.24,3271.58 C3585.72,3289.33 3586.48,3325.42 3586.75,3343.76 C3586.73,3375.98 3586.22,3438.47 3585.72,3468.73 C3584.81,3500.63 3582.79,3565.74 3581.68,3598.95 C3580.43,3633.03 3578.02,3697.24 3576.86,3727.37 C3575.60,3758.62 3572.99,3822.19 3571.65,3854.51 C3570.38,3887.14 3567.96,3952.48 3566.82,3985.19 C3565.83,4017.12 3564.00,4080.65 3563.16,4112.23 C3562.45,4144.20 3561.12,4208.33 3560.52,4240.49 C3560.00,4272.27 3559.05,4335.37 3558.61,4366.70 C3558.30,4399.35 3557.81,4465.20 3557.61,4498.41 C3557.53,4531.66 3557.47,4597.23 3557.50,4629.55 C3557.62,4659.98 3557.99,4719.76 3558.25,4749.11 C3558.70,4779.14 3559.75,4837.44 3560.34,4865.72 C3561.17,4894.63 3563.33,4958.33 3564.65,4993.11 C3566.24,5028.73 3569.22,5092.28 3570.60,5120.20 C3572.17,5150.64 3575.52,5214.06 3577.29,5247.04 C3579.25,5282.33 3583.14,5352.18 3585.08,5386.74 C3586.94,5419.56 3590.58,5483.44 3592.37,5514.51 C3594.24,5546.61 3598.26,5614.53 3600.40,5650.35 C3602.41,5683.45 3606.30,5747.02 3608.19,5777.50 C3610.10,5807.21 3614.00,5866.57 3615.99,5896.22 C3618.12,5926.59 3622.66,5989.80 3625.07,6022.64 C3627.59,6055.60 3632.66,6121.32 3635.22,6154.07 C3637.48,6185.02 3641.67,6244.91 3643.60,6273.85 C3645.81,6312.35 3649.59,6387.01 3651.15,6423.16 C3652.10,6450.22 3653.68,6497.30 3653.65,6497.30 C3653.50,6497.30 3652.96,6496.78 3652.02,6495.75" fill="none" stroke="rgb(161, 156, 198)" stroke-width="164.30" stroke-opacity="1.00" stroke-linejoin="round"/>
<path d="M-111.44,5977.05 C-111.03,5977.94 -110.71,5978.48 -110.48,5978.68 C-110.34,5978.79 -91.57,5983.78 -84.61,5984.47 C-77.52,5985.15 -47.93,5983.79 -35.76,5983.11 C-21.07,5982.05 10.53,5979.71 27.44,5978.44 C45.79,5977.38 83.89,5975.49 103.65,5974.66 C131.95,5973.96 188.91,5972.95 217.55,5972.64 C248.57,5972.64 313.25,5972.78 346.92,5972.92 C383.34,5973.12 450.17,5973.54 480.58,5973.76 C509.74,5974.00 569.60,5974.53 600.29,5974.82 C632.51,5975.15 697.81,5975.85 730.89,5976.22 C764.22,5976.63 831.15,5977.51 864.74,5977.97 C897.48,5978.46 960.87,5979.48 991.53,5979.99 C1022.60,5980.54 1085.16,5981.68 1116.64,5982.27 C1148.53,5982.90 1212.59,5984.20 1244.74,5984.87 C1277.06,5985.60 1341.86,5987.13 1374.34,5987.92 C1406.98,5988.76 1470.86,5990.48 1502.11,5991.34 C1533.47,5992.26 1596.54,5994.14 1628.24,5995.10 C1660.29,5996.13 1724.71,5998.21 1757.07,5999.28 C1789.36,6000.36 1853.77,6002.49 1885.90,6003.55 C1917.85,6004.60 1981.59,6006.69 2013.37,6007.73 C2045.77,6008.78 2110.77,6010.88 2143.36,6011.92 C2176.05,6012.95 2241.52,6015.02 2274.30,6016.04 C2307.08,6017.06 2371.93,6019.05 2404.00,6020.02 C2435.24,6020.96 2496.90,6022.78 2527.31,6023.67 C2557.11,6024.53 2619.27,6026.27 2651.62,6027.16 C2683.22,6027.99 2745.67,6029.61 2776.52,6030.40 C2806.64,6031.13 2867.39,6032.54 2898.01,6033.21 C2929.83,6033.82 2994.67,6034.97 3027.68,6035.51 C3060.70,6035.97 3124.33,6036.77 3154.95,6037.11 C3186.68,6037.41 3251.25,6037.96 3284.09,6038.21 C3318.06,6038.41 3386.29,6038.77 3420.57,6038.94 C3453.40,6039.06 3517.56,6039.27 3548.89,6039.36 C3578.72,6039.41 3640.40,6039.47 3672.26,6039.48 C3709.53,6039.41 3781.21,6039.21 3815.64,6039.07 C3847.24,6038.87 3908.47,6038.41 3938.08,6038.16 C3966.07,6037.85 4022.43,6037.16 4050.80,6036.77 C4090.28,6036.04 4165.14,6034.48 4200.52,6033.64 C4226.80,6032.99 4263.05,6032.08 4273.03,6031.83 C4273.03,6031.83 4269.25,6034.88 4269.25,6034.88" fill="none" stroke="rgb(161, 156, 198)" stroke-width="164.30" stroke-opacity="1.00" stroke-linejoin="round"/>
<path d="M-4.35,6030.98 C-4.36,6030.90 -4.36,6030.76 -4.35,6030.57 C-3.42,6008.89 -1.05,5953.27 0.37,5919.34 C1.50,5881.03 3.15,5811.35 3.67,5780.00 C3.90,5749.17 4.13,5686.04 4.14,5653.73 C4.04,5620.46 3.76,5554.07 3.59,5520.96 C3.36,5490.09 2.86,5427.44 2.57,5395.66 C2.22,5363.15 1.42,5298.07 0.98,5265.52 C0.44,5233.00 -0.72,5169.03 -1.34,5137.58 C-2.04,5105.90 -3.51,5042.26 -4.29,5010.29 C-4.96,4978.37 -6.09,4914.78 -6.55,4883.11 C-6.80,4851.41 -7.09,4787.55 -7.13,4755.39 C-6.95,4723.11 -6.43,4658.62 -6.09,4626.40 C-5.79,4594.85 -5.24,4532.46 -4.99,4501.62 C-4.78,4468.44 -4.42,4402.19 -4.28,4369.12 C-4.20,4336.55 -4.13,4273.18 -4.12,4242.39 C-4.19,4213.60 -4.43,4153.20 -4.59,4121.58 C-4.87,4092.26 -5.41,4032.87 -5.68,4002.81 C-5.78,3968.20 -5.85,3902.46 -5.81,3871.34 C-5.67,3838.16 -5.29,3768.93 -5.05,3732.88 C-4.84,3699.38 -4.52,3637.12 -4.41,3608.38 C-4.42,3570.02 -4.77,3502.04 -5.11,3472.41 C-5.19,3446.18 -4.86,3401.83 -4.44,3383.71" fill="none" stroke="rgb(161, 156, 198)" stroke-width="164.30" stroke-opacity="1.00" stroke-linejoin="round"/>
<path d="M28.23,2358.99 C28.38,2355.50 28.75,2347.40 28.96,2342.80 C29.00,2341.85 29.04,2340.89 29.09,2339.94 C32.04,2357.47 34.71,2375.79 36.28,2391.81 C38.81,2418.58 44.55,2480.81 47.77,2516.28 C50.68,2551.79 55.81,2620.16 58.04,2653.01 C58.97,2670.85 60.56,2705.38 61.22,2722.08 C62.02,2753.20 62.32,2813.17 62.27,2843.60 C61.69,2874.73 60.01,2938.21 58.93,2970.56 C57.46,3003.95 54.48,3068.53 52.96,3099.74 C51.37,3128.55 48.13,3184.70 46.49,3212.04 C44.61,3240.66 39.97,3307.07 37.21,3344.87 C34.86,3375.45 30.39,3432.73 28.29,3459.43 C25.94,3488.84 21.00,3550.39 18.41,3582.52 C15.67,3616.62 10.27,3685.14 7.60,3719.55 C5.02,3754.22 -0.07,3823.82 -2.58,3858.75 C-4.89,3892.06 -9.41,3958.71 -11.63,3992.05 C-13.78,4025.69 -18.02,4093.29 -20.10,4127.23 C-22.09,4160.85 -25.89,4226.22 -27.71,4257.97 C-29.36,4287.78 -32.48,4345.45 -33.95,4373.32 C-35.83,4411.30 -39.45,4489.17 -41.20,4529.06 C-42.41,4562.72 -44.51,4622.16 -45.39,4647.94 C-45.72,4657.70 -46.29,4674.27 -46.53,4681.09" fill="none" stroke="rgb(161, 156, 198)" stroke-width="164.30" stroke-opacity="1.00" stroke-linejoin="round"/>
<path d="M-117.63,2329.26 C-101.42,2318.77 -88.35,2310.94 -64.86,2300.53 C-43.29,2291.32 42.77,2257.45 57.24,2251.22 C68.11,2246.36 91.35,2237.94 101.74,2234.33 C131.62,2224.19 195.54,2202.82 229.58,2191.59 C262.96,2181.04 328.38,2160.81 360.43,2151.13 C374.31,2147.06 400.18,2139.53 412.18,2136.07 C435.76,2129.53 465.69,2121.90 477.31,2119.06 C478.24,2118.83 479.98,2118.41 480.80,2118.21" fill="none" stroke="rgb(161, 156, 198)" stroke-width="164.30" stroke-opacity="1.00" stroke-linejoin="round"/>
<path d="M105.62,2536.97 C109.71,2531.36 119.77,2517.62 124.68,2512.51 C129.29,2507.76 135.26,2503.80 147.81,2496.43 C177.41,2479.38 220.12,2454.50 233.23,2446.66 C241.30,2441.69 249.08,2435.60 256.66,2431.37 C265.64,2426.38 337.90,2392.96 367.81,2379.36 C399.43,2365.05 460.59,2336.90 490.15,2323.06 C501.08,2317.90 526.23,2306.50 540.85,2300.43 C547.71,2297.74 561.55,2292.42 568.77,2290.09 C574.72,2288.25 594.72,2283.14 597.19,2282.66 C601.96,2281.74 621.31,2279.54 627.31,2280.11 C630.45,2280.45 636.05,2282.90 638.26,2284.71 C642.09,2287.95 648.82,2299.71 652.58,2307.54 C655.13,2313.10 661.51,2327.86 663.96,2333.17 C669.93,2345.45 688.13,2377.87 696.63,2391.94 C706.00,2406.77 723.55,2434.17 731.72,2446.74 C741.71,2461.60 759.00,2485.52 767.32,2496.32 C773.04,2503.63 796.34,2531.47 806.62,2543.53 C814.26,2552.16 835.78,2574.56 846.74,2584.43 C857.06,2593.42 885.30,2616.21 898.88,2626.99 C911.60,2636.86 942.47,2660.59 950.13,2665.56 C953.70,2667.87 963.05,2673.03 972.49,2677.23 C979.77,2680.27 991.60,2684.91 999.15,2686.81 C1005.59,2688.39 1018.35,2689.70 1029.23,2690.44 C1045.71,2691.32 1077.07,2692.89 1091.96,2693.57 C1104.27,2694.00 1126.83,2694.74 1147.99,2694.61 C1178.33,2693.65 1237.51,2691.40 1266.35,2690.12 C1300.73,2688.42 1370.57,2684.99 1406.05,2683.25 C1441.22,2681.57 1511.10,2678.30 1545.81,2676.71 C1581.04,2675.15 1647.58,2672.35 1678.88,2671.11 C1692.22,2670.66 1717.34,2669.88 1729.13,2669.55 C1750.40,2669.20 1788.67,2669.38 1800.32,2670.19 C1812.15,2671.18 1839.49,2673.64 1850.24,2674.90 C1865.47,2676.78 1897.25,2680.82 1913.65,2683.29 C1936.36,2687.23 1959.98,2692.64 1974.73,2696.39 C2005.11,2705.10 2064.75,2722.55 2094.03,2731.30 C2109.36,2735.82 2140.36,2744.76 2156.02,2749.17 C2171.97,2753.44 2204.39,2761.87 2220.85,2766.04 C2236.35,2769.75 2264.48,2776.26 2277.11,2779.06 C2287.84,2781.16 2305.23,2784.03 2311.53,2784.63 C2330.42,2786.19 2352.28,2786.94 2367.32,2787.39 C2375.03,2787.39 2386.95,2787.15 2397.46,2786.38 C2404.89,2785.71 2419.86,2783.98 2427.38,2782.91 C2441.20,2780.70 2472.15,2773.07 2486.96,2769.20 C2493.39,2767.41 2505.26,2763.83 2510.95,2762.08 C2521.35,2758.76 2555.36,2743.62 2568.36,2737.65 C2598.73,2723.29 2661.55,2693.59 2693.98,2678.25 C2706.37,2672.56 2741.26,2656.71 2754.24,2652.19 C2757.85,2650.94 2771.41,2647.22 2775.92,2646.17 C2778.75,2645.51 2785.82,2645.16 2790.22,2645.87 C2792.39,2646.24 2801.71,2648.14 2808.21,2651.04 C2813.29,2653.35 2823.53,2661.39 2828.28,2665.31 C2836.35,2672.13 2844.41,2679.64 2852.40,2688.12 C2864.06,2701.02 2908.31,2755.61 2927.89,2780.06 C2950.70,2808.87 2994.55,2863.72 3015.60,2889.77 C3025.31,2901.54 3048.13,2928.88 3061.25,2944.44 C3085.33,2972.19 3126.19,3016.95 3145.11,3037.35 C3153.10,3045.84 3174.37,3067.95 3187.66,3081.59 C3198.22,3091.94 3218.41,3110.73 3228.77,3120.19 C3240.34,3129.94 3264.51,3150.03 3277.38,3160.24 C3296.41,3174.65 3316.00,3187.66 3329.16,3195.88 C3345.39,3205.47 3372.05,3219.44 3384.12,3224.61 C3391.51,3227.66 3406.56,3233.39 3414.22,3236.08 C3432.70,3242.07 3460.02,3249.65 3475.53,3252.88 C3487.91,3255.26 3521.63,3260.12 3536.10,3261.74 C3547.39,3262.90 3584.63,3263.87 3600.03,3264.05 C3606.90,3264.02 3621.66,3263.60 3628.71,3263.36 C3636.55,3263.00 3648.53,3261.52 3661.73,3259.26 C3676.66,3256.22 3711.19,3248.20 3728.57,3244.03 C3734.30,3242.64 3741.13,3241.00 3742.22,3240.74" fill="none" stroke="rgb(161, 156, 198)" stroke-width="547.40" stroke-opacity="1.00" stroke-linejoin="round"/>
<path d="M3663.14,3515.22 C3651.10,3516.15 3619.30,3518.29 3605.93,3518.45 C3586.13,3518.69 3543.67,3519.18 3521.01,3519.44 C3495.48,3519.71 3441.57,3520.28 3413.18,3520.57 C3381.93,3520.88 3316.56,3521.52 3282.44,3521.85 C3245.46,3522.20 3168.78,3522.91 3129.08,3523.27 C3089.67,3523.66 3012.41,3524.44 2974.54,3524.84 C2938.22,3525.25 2867.12,3526.10 2832.34,3526.53 C2799.10,3526.98 2734.15,3527.89 2702.45,3528.35 C2672.29,3528.84 2607.52,3529.93 2572.90,3530.55 C2531.26,3531.39 2451.59,3533.13 2413.57,3534.02 C2379.15,3534.96 2313.94,3536.89 2283.13,3537.87 C2255.74,3538.90 2201.33,3541.01 2174.33,3542.08 C2146.71,3543.21 2090.87,3545.52 2062.64,3546.69 C2033.80,3547.92 1975.46,3550.42 1945.95,3551.70 C1915.58,3553.05 1854.14,3555.79 1823.06,3557.19 C1791.28,3558.65 1727.02,3561.61 1694.53,3563.12 C1661.36,3564.68 1595.08,3567.82 1561.98,3569.39 C1529.39,3570.95 1464.71,3574.04 1432.62,3575.59 C1401.04,3577.11 1338.19,3580.16 1306.93,3581.68 C1273.12,3583.38 1205.75,3586.75 1172.20,3588.44 C1138.89,3590.11 1072.54,3593.45 1039.49,3595.11 C1006.79,3596.77 942.32,3600.05 910.56,3601.68 C879.82,3603.29 819.38,3606.47 789.68,3608.05 C761.00,3609.61 699.47,3613.00 666.61,3614.84 C634.58,3616.67 571.71,3620.30 540.87,3622.11 C511.16,3623.89 451.03,3627.48 420.62,3629.28 C388.57,3631.13 322.85,3634.86 289.17,3636.75 C256.41,3638.54 192.74,3641.99 161.83,3643.64 C129.54,3645.34 63.59,3648.76 29.92,3650.50 C-5.11,3652.27 -74.67,3655.75 -109.19,3657.47 C-141.71,3659.05 -204.78,3662.10 -235.31,3663.55 C-263.85,3664.88 -331.90,3667.92 -371.41,3669.62 C-411.49,3671.19 -485.70,3673.90 -519.82,3675.05 C-547.00,3675.98 -594.04,3677.68 -613.89,3678.46 C-621.13,3678.78 -630.16,3679.88 -630.72,3679.84 C-632.24,3679.71 -635.03,3677.73 -636.31,3676.07 C-636.74,3675.49 -639.25,3669.16 -640.31,3665.43 C-641.63,3660.70 -642.35,3653.85 -641.68,3649.53 C-641.01,3645.48 -638.32,3638.62 -636.48,3635.24 C-633.30,3629.52 -625.99,3620.32 -617.74,3611.26 C-595.27,3587.17 -571.66,3562.81 -570.14,3561.24" fill="none" stroke="rgb(161, 156, 198)" stroke-width="547.40" stroke-opacity="1.00" stroke-linejoin="round"/>
<path d="M203.50,2602.94 C200.70,2611.53 199.23,2622.43 198.90,2624.81 C195.27,2652.43 186.93,2718.55 182.21,2757.05 C178.85,2785.84 171.75,2847.51 168.01,2880.37 C164.43,2913.49 157.66,2979.06 154.46,3011.50 C151.54,3045.05 146.26,3110.06 143.91,3141.53 C142.04,3170.67 138.48,3234.76 136.79,3269.70 C135.95,3301.37 135.11,3345.11 135.13,3357.18 C135.26,3365.23 136.92,3383.32 138.53,3391.05 C140.02,3397.57 143.29,3411.22 145.93,3417.48 C147.08,3420.17 150.35,3426.23 152.63,3428.85 C155.77,3432.46 161.64,3438.75 162.36,3439.40 C167.38,3443.89 178.55,3449.18 187.68,3452.47 C194.84,3454.86 209.93,3459.72 218.65,3461.71 C226.02,3463.37 242.25,3465.64 250.09,3466.49 C260.61,3467.40 298.80,3469.71 311.50,3470.18 C324.24,3470.50 351.91,3470.90 371.12,3470.65 C400.99,3469.71 460.70,3467.57 490.54,3466.36 C525.31,3464.81 595.05,3461.62 630.01,3459.97 C660.44,3458.47 718.86,3455.52 746.84,3454.08 C775.09,3452.59 834.12,3449.50 864.91,3447.90 C900.85,3446.15 973.00,3442.70 1009.23,3441.02 C1038.01,3439.73 1097.79,3437.09 1128.79,3435.73 C1162.00,3434.31 1230.63,3431.41 1266.04,3429.93 C1301.18,3428.49 1369.49,3425.71 1402.65,3424.37 C1433.83,3423.15 1494.19,3420.81 1523.38,3419.69 C1558.32,3418.43 1626.26,3416.06 1659.26,3414.95 C1689.13,3414.02 1747.10,3412.30 1775.19,3411.51 C1805.58,3410.71 1868.94,3409.06 1901.90,3408.23 C1933.46,3407.48 1994.62,3406.08 2024.22,3405.42 C2055.63,3404.75 2120.26,3403.38 2153.48,3402.69 C2188.29,3401.98 2257.10,3400.62 2291.10,3399.96 C2323.66,3399.38 2387.35,3398.27 2418.48,3397.76 C2449.22,3397.30 2512.33,3396.46 2544.70,3396.08 C2575.47,3395.78 2635.39,3395.27 2664.54,3395.06 C2693.16,3394.94 2753.06,3394.78 2784.35,3394.74 C2818.54,3394.80 2888.60,3394.98 2924.49,3395.12 C2954.22,3395.30 3015.47,3395.71 3046.99,3395.94 C3080.28,3396.22 3148.64,3396.82 3183.71,3397.15 C3220.15,3397.53 3291.16,3398.32 3325.74,3398.73 C3357.78,3399.19 3419.32,3400.14 3448.81,3400.63 C3475.77,3401.17 3545.78,3402.83 3588.83,3403.95 C3627.77,3405.42 3695.20,3408.46 3723.69,3410.03 C3735.50,3410.74 3757.66,3412.11 3768.01,3412.77 C3798.65,3414.83 3828.94,3418.67 3837.36,3419.76" fill="none" stroke="rgb(161, 156, 198)" stroke-width="547.40" stroke-opacity="1.00" stroke-linejoin="round"/>
<path d="M3525.26,3443.54 C3513.94,3438.47 3485.92,3425.90 3469.22,3418.40 C3453.87,3411.32 3424.40,3397.47 3410.28,3390.69 C3383.95,3377.44 3337.55,3352.82 3300.67,3334.17 C3275.90,3321.98 3220.31,3294.84 3189.49,3279.88 C3159.86,3265.11 3100.01,3234.58 3069.80,3218.83 C3042.05,3203.60 2988.20,3173.34 2962.09,3158.33 C2933.87,3141.18 2879.49,3107.80 2853.33,3091.57 C2824.47,3074.21 2771.25,3042.82 2746.88,3028.79 C2736.95,3023.42 2723.88,3016.76 2716.00,3013.30 C2701.23,3007.15 2672.52,2996.89 2661.27,2993.46 C2653.87,2991.33 2639.53,2988.17 2632.23,2986.76 C2624.79,2985.48 2605.79,2982.94 2601.48,2982.59 C2590.64,2981.72 2543.35,2981.58 2539.20,2981.68 C2533.35,2981.82 2495.97,2984.15 2478.26,2985.74 C2454.64,2988.44 2402.34,2994.94 2373.67,2998.74 C2332.34,3005.09 2266.75,3015.34 2242.48,3019.25 C2214.69,3023.81 2155.57,3033.55 2124.24,3038.74 C2090.05,3044.43 2021.34,3055.80 1986.81,3061.48 C1952.18,3067.09 1882.85,3078.23 1848.14,3083.76 C1813.71,3089.15 1744.66,3099.87 1710.04,3105.20 C1675.23,3110.48 1605.79,3120.91 1571.16,3126.07 C1539.66,3130.71 1480.39,3139.38 1452.63,3143.41 C1428.62,3146.83 1364.59,3155.59 1324.58,3160.93 C1294.68,3164.41 1245.95,3169.04 1220.38,3171.40 C1190.14,3173.77 1125.86,3178.69 1091.81,3181.24 C1061.06,3183.27 1002.40,3186.68 974.48,3188.07 C942.33,3189.03 877.05,3190.36 843.92,3190.73 C814.03,3190.79 749.76,3190.74 715.40,3190.65 C680.96,3190.35 614.50,3189.51 582.48,3188.98 C547.78,3187.95 479.88,3185.45 446.69,3183.98 C416.45,3182.17 358.15,3178.33 330.09,3176.29 C313.33,3174.82 279.45,3171.65 262.33,3169.95 C246.09,3168.13 214.54,3164.38 199.24,3162.45 C184.96,3160.42 156.71,3156.12 142.74,3153.85 C124.87,3150.49 91.87,3143.39 76.74,3139.67 C62.48,3135.94 33.09,3127.43 20.14,3122.90 C4.59,3117.14 -28.91,3102.15 -34.73,3098.92 C-39.94,3096.01 -49.77,3089.75 -51.57,3088.61" fill="none" stroke="rgb(161, 156, 198)" stroke-width="547.40" stroke-opacity="1.00" stroke-linejoin="round"/>
<path d="M346.46,2488.91 C343.06,2493.72 333.99,2506.59 330.60,2512.52 C327.13,2518.66 322.27,2531.66 320.56,2539.03 C318.72,2546.99 317.15,2560.66 316.54,2567.99 C315.83,2579.60 315.02,2605.27 315.58,2624.43 C317.05,2653.96 323.16,2714.03 326.03,2741.67 C329.85,2776.94 337.93,2846.83 342.18,2881.44 C344.42,2897.68 349.52,2932.72 352.40,2951.52 C355.48,2969.78 361.78,3005.30 364.99,3022.55 C371.09,3052.35 384.13,3114.30 390.24,3139.04 C393.73,3151.82 405.61,3184.17 408.21,3190.53 C420.38,3220.40 448.35,3288.08 458.88,3311.16 C462.10,3317.87 468.33,3330.54 471.64,3336.14 C475.29,3342.27 484.02,3354.53 490.25,3361.42 C492.59,3363.99 504.92,3376.44 507.73,3379.30" fill="none" stroke="rgb(161, 156, 198)" stroke-width="547.40" stroke-opacity="1.00" stroke-linejoin="round"/>
<path d="M424.00,2488.91 C436.82,2507.16 469.60,2553.89 489.57,2582.36 C510.74,2612.72 549.74,2668.76 567.59,2694.45 C585.37,2720.15 621.39,2771.98 639.64,2798.12 C658.61,2824.78 697.42,2878.77 717.26,2906.10 C737.69,2933.75 776.53,2985.63 794.93,3009.85 C803.04,3020.22 823.46,3045.85 836.31,3061.31 C848.00,3074.85 867.84,3096.31 877.15,3106.13 C885.47,3114.82 904.53,3134.33 915.27,3145.16 C925.21,3155.01 951.69,3179.30 960.86,3187.00 C973.33,3197.27 999.57,3218.58 1013.34,3229.64 C1025.07,3238.75 1055.94,3261.90 1065.67,3268.45 C1072.51,3272.81 1084.05,3279.47 1088.36,3281.59 C1099.20,3286.91 1122.83,3295.03 1126.35,3296.24" fill="none" stroke="rgb(161, 156, 198)" stroke-width="547.40" stroke-opacity="1.00" stroke-linejoin="round"/>
<path d="M462.76,2712.90 C467.81,2716.18 482.26,2725.44 487.69,2727.98 C493.36,2730.60 505.72,2736.13 512.41,2739.04 C527.74,2745.24 556.20,2754.73 564.65,2757.38 C585.29,2763.56 630.29,2776.81 659.32,2784.73 C677.53,2789.29 717.67,2799.02 739.59,2804.18 C780.08,2813.19 848.81,2828.23 877.05,2834.25 C908.35,2840.78 974.02,2854.34 1008.39,2861.37 C1045.82,2868.89 1120.63,2883.89 1158.01,2891.36 C1191.39,2898.05 1254.14,2910.64 1283.50,2916.55 C1308.84,2921.68 1367.33,2933.58 1400.48,2940.35 C1430.76,2946.94 1485.94,2958.90 1510.85,2964.27 C1540.11,2969.97 1601.50,2981.41 1633.64,2987.15 C1665.00,2992.15 1728.77,3000.72 1760.42,3004.70 C1789.04,3007.90 1844.53,3013.82 1874.50,3016.40 C1908.09,3018.65 1971.55,3022.62 2001.41,3024.35 C2035.91,3026.31 2103.19,3030.73 2135.96,3033.20 C2152.00,3034.71 2185.26,3038.12 2202.48,3040.02 C2218.91,3042.14 2250.97,3046.58 2266.61,3048.90 C2296.40,3053.87 2356.78,3064.43 2387.37,3070.04 C2420.14,3076.70 2482.68,3089.83 2512.45,3096.29 C2544.33,3103.68 2604.51,3118.11 2632.82,3125.14 C2647.72,3129.13 2677.13,3137.28 2691.63,3141.45 C2706.03,3146.10 2735.71,3156.73 2751.46,3162.79 C2770.29,3170.12 2789.22,3176.48 2793.85,3177.52 C2798.62,3178.58 2805.23,3178.96 2808.37,3178.40 C2818.45,3176.42 2850.53,3166.72 2862.41,3162.50 C2875.00,3157.74 2906.00,3144.25 2920.39,3137.83 C2935.35,3130.76 2965.35,3115.43 2981.03,3106.78 C2995.84,3098.10 3018.88,3084.52 3027.11,3079.62" fill="none" stroke="rgb(161, 156, 198)" stroke-width="547.40" stroke-opacity="1.00" stroke-linejoin="round"/>
<path d="M3350.13,3647.79 C3349.86,3653.26 3349.21,3667.41 3349.67,3676.56 C3349.81,3679.23 3356.22,3753.17 3359.03,3784.77 C3362.40,3821.49 3369.03,3893.04 3372.28,3927.87 C3375.38,3960.73 3381.47,4024.86 3384.46,4056.13 C3387.36,4086.24 3393.17,4147.91 3396.08,4179.46 C3398.88,4211.52 3404.14,4273.07 3406.60,4302.58 C3409.08,4333.63 3414.06,4397.09 3416.56,4429.50 C3418.99,4462.25 3423.77,4527.91 3426.13,4560.84 C3428.28,4592.16 3432.50,4654.88 3434.57,4686.27 C3436.61,4718.18 3440.63,4782.22 3442.61,4814.35 C3444.51,4846.21 3448.22,4909.67 3450.03,4941.26 C3451.82,4973.54 3455.35,5038.35 3457.10,5070.90 C3458.80,5103.65 3462.18,5168.48 3463.85,5200.56 C3465.50,5231.17 3468.81,5291.18 3470.46,5320.60 C3472.23,5350.62 3475.80,5409.52 3477.60,5438.40 C3479.45,5466.64 3483.53,5526.95 3485.76,5559.03 C3488.44,5596.02 3493.41,5663.78 3495.71,5694.56 C3497.86,5722.84 3502.35,5781.51 3504.69,5811.90 C3507.22,5844.40 3512.46,5911.25 3515.16,5945.61 C3517.85,5979.79 3523.21,6047.54 3525.87,6081.11 C3528.49,6114.08 3533.78,6180.67 3536.46,6214.29 C3539.54,6252.66 3545.65,6328.64 3548.68,6366.26 C3551.65,6403.12 3557.44,6474.70 3560.25,6509.42 C3562.58,6538.25 3566.75,6589.80 3568.59,6612.53 C3569.32,6621.60 3570.38,6634.63 3570.70,6638.60" fill="none" stroke="rgb(161, 156, 198)" stroke-width="547.40" stroke-opacity="1.00" stroke-linejoin="round"/>
<path d="M3091.97,3629.87 C3090.24,3641.16 3086.63,3667.61 3084.71,3688.52 C3083.65,3702.22 3081.49,3732.19 3080.40,3748.46 C3079.46,3765.64 3077.84,3799.04 3077.16,3815.27 C3076.47,3844.36 3075.62,3905.90 3075.47,3938.35 C3075.85,3970.44 3076.95,4033.76 3077.66,4064.98 C3078.67,4098.52 3080.85,4164.85 3082.04,4197.65 C3083.46,4229.57 3086.53,4293.03 3088.16,4324.57 C3089.99,4356.03 3093.87,4419.11 3095.91,4450.74 C3098.28,4482.89 3103.27,4548.17 3105.90,4581.29 C3108.56,4613.03 3113.85,4674.07 3116.47,4703.38 C3119.14,4731.15 3124.56,4785.62 3127.30,4812.32 C3131.24,4846.69 3139.55,4917.05 3143.92,4953.03 C3147.21,4979.43 3154.22,5035.20 3157.93,5064.57 C3162.06,5096.90 3170.64,5163.89 3175.08,5198.53 C3179.38,5232.73 3187.80,5300.37 3191.91,5333.81 C3195.83,5366.50 3203.73,5433.54 3207.72,5467.89 C3211.55,5502.12 3219.00,5569.90 3222.62,5603.46 C3226.02,5636.27 3232.54,5700.31 3235.66,5731.54 C3238.49,5760.95 3243.85,5817.95 3246.39,5845.54 C3249.36,5880.58 3254.86,5948.83 3257.38,5982.03 C3259.38,6012.28 3263.19,6072.10 3265.00,6101.68 C3266.68,6131.08 3269.93,6191.61 3271.50,6222.75 C3272.98,6254.26 3275.81,6317.62 3277.16,6349.46 C3278.30,6381.49 3280.36,6446.48 3281.28,6479.43 C3281.97,6513.71 3283.17,6582.50 3283.67,6617.00 C3283.95,6647.28 3284.20,6710.81 3284.18,6744.06 C3283.46,6782.99 3282.19,6818.64 3281.88,6827.33" fill="none" stroke="rgb(161, 156, 198)" stroke-width="547.40" stroke-opacity="1.00" stroke-linejoin="round"/>
<path d="M2935.11,3445.79 C2933.75,3451.21 2930.37,3465.20 2929.64,3472.08 C2926.85,3500.84 2921.38,3564.56 2918.70,3599.51 C2917.01,3630.36 2914.09,3693.81 2912.86,3726.40 C2912.11,3757.02 2910.90,3819.65 2910.44,3851.67 C2910.34,3884.95 2910.61,3949.67 2910.98,3981.11 C2911.69,4013.96 2913.19,4078.02 2913.98,4109.22 C2914.82,4137.18 2916.56,4191.13 2917.47,4217.13 C2918.81,4246.87 2922.53,4317.77 2924.91,4358.93 C2926.51,4384.15 2929.99,4437.80 2931.86,4466.22 C2934.00,4497.85 2938.54,4564.13 2940.93,4598.79 C2943.39,4633.76 2948.30,4703.15 2950.76,4737.57 C2953.21,4771.42 2958.10,4838.27 2960.54,4871.28 C2962.96,4903.63 2967.81,4967.94 2970.24,4999.90 C2972.67,5031.46 2977.52,5094.35 2979.94,5125.69 C2982.32,5157.26 2987.02,5220.65 2989.36,5252.46 C2991.64,5284.53 2996.26,5350.44 2998.59,5384.28 C3000.88,5418.70 3005.43,5488.01 3007.68,5522.91 C3009.88,5558.12 3014.10,5625.97 3016.11,5658.61 C3017.89,5687.62 3021.20,5742.01 3022.73,5767.38 C3024.77,5802.55 3028.38,5867.47 3029.95,5897.22 C3031.02,5922.46 3033.24,5979.20 3034.38,6010.71 C3035.26,6038.52 3037.13,6098.96 3038.12,6131.59 C3039.15,6167.32 3041.02,6236.62 3041.85,6270.21 C3042.47,6302.04 3043.48,6368.06 3043.86,6402.24 C3043.94,6433.37 3043.84,6494.81 3043.65,6525.12 C3043.23,6556.60 3042.10,6620.85 3041.40,6653.62 C3040.45,6687.85 3038.38,6755.29 3037.26,6788.49 C3036.05,6816.70 3032.61,6884.13 3029.67,6923.19 C3028.22,6937.69 3025.64,6962.44 3024.51,6972.68 C3023.79,6978.53 3021.80,6983.14 3021.39,6984.15" fill="none" stroke="rgb(161, 156, 198)" stroke-width="547.40" stroke-opacity="1.00" stroke-linejoin="round"/>
<path d="M2652.07,3568.37 C2651.97,3573.66 2651.73,3586.87 2651.76,3595.97 C2652.01,3607.55 2656.02,3677.91 2657.88,3709.45 C2660.15,3746.27 2664.59,3817.50 2666.76,3851.92 C2668.84,3883.10 2672.95,3943.40 2674.99,3972.51 C2677.09,4000.92 2681.87,4062.53 2684.56,4095.72 C2687.49,4129.86 2692.86,4191.38 2695.31,4218.77 C2698.02,4248.53 2703.73,4310.44 2706.72,4342.59 C2709.93,4376.41 2716.41,4444.06 2719.68,4477.88 C2723.02,4511.60 2729.72,4578.56 2733.08,4611.79 C2736.32,4643.32 2742.88,4706.56 2746.20,4738.27 C2749.59,4770.15 2756.43,4834.06 2759.88,4866.09 C2763.32,4898.06 2770.18,4961.90 2773.59,4993.76 C2776.97,5025.51 2783.68,5088.94 2787.02,5120.64 C2790.32,5152.48 2796.90,5216.33 2800.18,5248.33 C2803.44,5280.48 2809.93,5344.81 2813.15,5376.98 C2816.24,5408.65 2822.29,5471.42 2825.24,5502.53 C2828.06,5533.08 2833.63,5594.85 2836.38,5626.07 C2839.01,5657.32 2844.14,5719.48 2846.63,5750.39 C2848.98,5780.95 2853.56,5842.67 2855.78,5873.82 C2857.88,5906.24 2861.96,5972.33 2863.94,6006.01 C2865.69,6039.11 2868.93,6104.16 2870.43,6136.11 C2871.84,6169.25 2874.59,6236.72 2875.92,6271.05 C2877.16,6306.35 2879.44,6375.27 2880.48,6408.88 C2881.30,6440.00 2882.71,6499.76 2883.31,6528.39 C2883.69,6559.68 2883.97,6631.71 2883.86,6672.45 C2883.20,6707.10 2881.02,6764.84 2879.88,6791.97 C2878.81,6815.64 2875.75,6874.27 2873.76,6909.24 C2871.87,6937.08 2868.69,6981.77 2864.13,7027.40 C2862.51,7041.41 2859.10,7069.40 2855.69,7088.27 C2854.49,7094.28 2852.40,7104.76 2849.04,7113.63" fill="none" stroke="rgb(161, 156, 198)" stroke-width="547.40" stroke-opacity="1.00" stroke-linejoin="round"/>
<path d="M2357.06,3554.52 C2357.22,3577.58 2358.06,3597.17 2359.70,3611.89 C2362.65,3636.82 2369.79,3694.77 2373.97,3727.79 C2378.50,3763.44 2387.26,3833.06 2391.47,3867.03 C2395.09,3897.44 2402.07,3957.25 2405.44,3986.64 C2408.66,4015.96 2415.33,4078.33 2418.77,4111.39 C2422.25,4146.27 2428.33,4208.52 2430.95,4235.89 C2433.68,4265.30 2439.29,4326.16 2442.15,4357.61 C2445.12,4390.81 2451.01,4457.57 2453.94,4491.13 C2456.81,4524.89 2462.50,4592.59 2465.32,4626.54 C2467.80,4657.60 2472.69,4719.91 2475.12,4751.15 C2477.51,4782.78 2482.27,4846.42 2484.64,4878.44 C2486.96,4910.70 2491.50,4975.21 2493.73,5007.47 C2495.87,5039.73 2500.06,5104.24 2502.11,5136.50 C2504.01,5168.29 2507.71,5231.99 2509.52,5263.90 C2511.25,5296.05 2514.65,5360.59 2516.32,5392.98 C2517.90,5425.46 2520.97,5489.96 2522.46,5521.97 C2523.84,5553.46 2526.50,5615.91 2527.78,5646.87 C2528.96,5677.96 2531.21,5740.57 2532.28,5772.10 C2533.25,5803.28 2535.09,5865.28 2535.96,5896.11 C2536.73,5926.73 2538.23,5988.75 2538.96,6020.13 C2539.65,6052.47 2541.01,6118.09 2541.67,6151.37 C2542.25,6184.16 2543.34,6249.30 2543.84,6281.64 C2544.33,6314.99 2545.28,6382.70 2545.75,6417.06 C2546.19,6452.34 2547.00,6521.45 2547.37,6555.28 C2547.63,6586.57 2548.05,6646.64 2548.21,6675.40 C2548.27,6701.64 2548.09,6769.85 2547.86,6811.84 C2547.25,6846.14 2545.77,6907.94 2544.89,6935.44 C2543.96,6961.77 2541.77,7019.97 2540.50,7051.85 C2538.95,7087.77 2536.09,7151.89 2534.78,7180.08 C2534.04,7194.32 2532.07,7213.81 2531.23,7221.15" fill="none" stroke="rgb(161, 156, 198)" stroke-width="547.40" stroke-opacity="1.00" stroke-linejoin="round"/>
<path d="M2055.05,3571.63 C2058.80,3584.90 2064.27,3604.22 2069.74,3625.11 C2073.59,3640.11 2080.86,3671.18 2083.97,3686.76 C2086.55,3700.36 2091.90,3729.33 2094.66,3744.71 C2100.11,3778.68 2108.55,3833.91 2111.54,3855.17 C2114.60,3878.43 2121.28,3931.53 2124.91,3961.38 C2130.00,4005.97 2138.98,4085.81 2142.87,4121.07 C2145.62,4146.51 2151.38,4199.76 2154.38,4227.57 C2157.62,4257.76 2164.35,4320.49 2167.83,4353.05 C2171.56,4387.97 2179.27,4460.19 2183.24,4497.49 C2187.45,4537.16 2195.92,4616.87 2200.17,4656.91 C2204.14,4694.49 2211.82,4767.15 2215.53,4802.24 C2218.96,4834.83 2225.55,4897.54 2228.70,4927.64 C2231.59,4955.26 2237.08,5008.00 2239.69,5033.13 C2242.62,5061.75 2249.82,5134.45 2254.10,5178.53 C2256.59,5206.90 2260.94,5259.08 2262.82,5282.90 C2264.83,5309.19 2268.94,5365.05 2271.03,5394.62 C2273.37,5428.04 2278.03,5495.15 2280.35,5528.85 C2282.41,5559.69 2286.18,5619.89 2287.90,5649.26 C2289.42,5677.16 2292.40,5736.43 2293.84,5767.80 C2295.26,5805.81 2297.43,5868.94 2298.19,5894.07 C2298.96,5921.82 2300.51,5979.96 2301.28,6010.35 C2302.05,6043.20 2303.45,6110.44 2304.08,6144.82 C2304.57,6180.58 2305.39,6253.46 2305.73,6290.59 C2305.87,6322.04 2306.07,6385.47 2306.12,6417.44 C2306.07,6450.39 2305.89,6517.27 2305.75,6551.20 C2305.52,6585.69 2304.98,6653.24 2304.67,6686.29 C2304.29,6717.67 2303.45,6778.73 2302.99,6808.41 C2302.38,6839.81 2300.66,6913.90 2299.56,6956.59 C2298.26,6994.67 2295.53,7065.70 2294.12,7098.65 C2293.00,7124.23 2291.09,7167.79 2290.31,7185.76" fill="none" stroke="rgb(161, 156, 198)" stroke-width="547.40" stroke-opacity="1.00" stroke-linejoin="round"/>
<path d="M1739.29,3799.29 C1738.80,3807.30 1737.56,3827.65 1736.81,3839.98 C1736.56,3847.90 1736.60,3866.63 1736.89,3877.43 C1738.02,3901.91 1740.25,3934.42 1741.23,3947.27 C1743.90,3977.08 1750.16,4042.06 1753.76,4077.23 C1757.36,4111.87 1764.09,4177.64 1767.22,4208.78 C1770.54,4243.24 1776.67,4309.01 1779.48,4340.31 C1781.97,4369.02 1787.23,4428.16 1790.00,4458.58 C1792.99,4489.06 1799.31,4552.33 1802.63,4585.13 C1806.04,4617.93 1812.69,4681.18 1815.93,4711.65 C1818.94,4738.88 1824.90,4792.10 1827.85,4818.10 C1831.18,4845.85 1839.37,4911.02 1844.23,4948.43 C1848.89,4982.87 1857.11,5043.13 1860.67,5068.95 C1864.62,5097.30 1872.91,5156.54 1877.26,5187.43 C1881.99,5220.85 1891.64,5288.91 1896.54,5323.55 C1901.36,5357.88 1910.90,5426.26 1915.63,5460.29 C1920.27,5494.03 1929.57,5562.05 1934.23,5596.33 C1938.95,5631.45 1948.31,5701.50 1952.94,5736.42 C1957.49,5771.14 1966.50,5840.33 1970.96,5874.81 C1975.13,5907.43 1983.09,5969.88 1986.87,5999.72 C1990.26,6026.77 1996.64,6078.10 1999.64,6102.37 C2004.63,6144.51 2013.16,6219.18 2016.69,6251.71 C2019.21,6277.15 2024.26,6328.01 2026.79,6353.42 C2029.49,6381.59 2035.07,6439.50 2037.94,6469.25 C2041.13,6504.15 2047.02,6570.30 2049.70,6601.55 C2052.24,6632.22 2057.53,6696.84 2060.28,6730.78 C2062.68,6764.50 2066.89,6830.28 2068.70,6862.35 C2069.47,6880.23 2070.84,6916.92 2071.45,6935.74 C2071.96,6971.60 2072.41,7038.59 2072.34,7069.72 C2072.08,7112.12 2071.23,7135.30 2070.38,7151.29 C2069.90,7158.12 2068.53,7172.70 2066.89,7179.40 C2066.68,7180.25 2064.73,7187.47 2064.44,7188.55" fill="none" stroke="rgb(161, 156, 198)" stroke-width="547.40" stroke-opacity="1.00" stroke-linejoin="round"/>
<path d="M1418.30,3667.34 C1416.68,3696.35 1413.53,3758.84 1411.99,3792.32 C1411.68,3807.44 1411.77,3832.28 1412.23,3846.16 C1413.88,3877.82 1417.39,3938.34 1419.25,3967.19 C1421.60,4001.31 1426.58,4070.25 1429.19,4105.06 C1431.94,4137.04 1437.69,4201.60 1440.70,4234.17 C1443.90,4267.01 1450.27,4330.92 1453.44,4361.99 C1456.44,4389.68 1462.37,4442.89 1465.30,4468.41 C1468.31,4493.19 1475.89,4550.41 1480.45,4582.85 C1487.18,4626.39 1498.57,4698.77 1503.23,4727.62 C1507.92,4756.06 1517.82,4815.67 1523.03,4846.85 C1528.77,4880.77 1540.77,4951.36 1547.03,4988.03 C1553.32,5024.70 1565.44,5095.30 1571.27,5129.22 C1576.62,5160.40 1586.87,5220.02 1591.76,5248.46 C1596.73,5277.26 1609.16,5349.32 1616.63,5392.58 C1622.25,5425.06 1632.14,5482.40 1636.42,5507.27 C1640.79,5533.12 1649.73,5586.54 1654.31,5614.10 C1659.18,5644.06 1669.17,5706.05 1674.29,5738.08 C1679.43,5770.85 1689.46,5835.62 1694.36,5867.62 C1699.04,5899.31 1708.27,5962.85 1712.81,5994.69 C1717.21,6026.51 1725.81,6089.70 1730.00,6121.06 C1733.99,6152.04 1741.88,6215.14 1745.79,6247.25 C1749.51,6279.29 1756.73,6342.95 1760.23,6374.58 C1763.46,6405.44 1769.78,6468.43 1772.87,6500.56 C1775.73,6532.67 1781.18,6596.22 1783.77,6627.65 C1786.05,6657.86 1790.49,6721.33 1792.64,6754.61 C1794.46,6787.17 1797.78,6850.59 1799.28,6881.43 C1800.52,6913.73 1802.66,6979.04 1803.55,7012.05 C1803.82,7027.37 1804.24,7056.98 1804.39,7071.27 C1804.34,7087.02 1804.00,7118.66 1803.71,7134.55 C1803.16,7149.46 1801.66,7180.32 1800.71,7196.28 C1799.43,7213.22 1796.58,7243.22 1795.03,7258.66 C1793.18,7275.26 1789.33,7308.19 1787.33,7324.51 C1785.34,7339.43 1780.69,7371.56 1778.04,7388.77 C1774.99,7406.36 1768.88,7437.42 1765.84,7451.09 C1764.33,7457.32 1761.58,7468.49 1757.89,7480.98 C1754.44,7491.80 1744.01,7517.33 1741.99,7520.60 C1740.77,7522.58 1736.08,7528.79 1734.28,7529.84 C1733.09,7530.47 1731.06,7530.13 1729.46,7528.97 C1726.52,7526.75 1722.80,7520.42 1722.02,7519.09 C1712.51,7502.29 1703.89,7481.48 1698.32,7466.51 C1694.44,7455.34 1683.81,7419.43 1679.95,7405.65 C1676.02,7390.73 1667.97,7359.36 1663.86,7342.92 C1660.03,7326.46 1652.81,7294.30 1649.44,7278.61 C1643.50,7247.70 1632.00,7184.85 1626.44,7152.92 C1620.66,7117.01 1612.64,7066.85 1610.39,7052.61" fill="none" stroke="rgb(161, 156, 198)" stroke-width="547.40" stroke-opacity="1.00" stroke-linejoin="round"/>
<path d="M1083.70,3606.25 C1081.97,3617.24 1077.90,3643.11 1076.71,3666.36 C1076.38,3675.90 1076.61,3706.62 1076.87,3720.18 C1078.42,3753.02 1082.08,3818.39 1084.20,3850.93 C1086.51,3881.33 1091.55,3945.10 1094.29,3978.46 C1097.21,4011.85 1103.13,4076.73 1106.12,4108.23 C1109.27,4139.35 1115.77,4201.92 1119.13,4233.37 C1122.77,4265.37 1130.34,4329.07 1134.26,4360.77 C1138.52,4392.96 1147.40,4458.51 1152.03,4491.88 C1156.53,4523.46 1165.22,4583.64 1169.41,4612.22 C1173.40,4638.20 1181.21,4688.19 1185.03,4712.21 C1189.09,4736.45 1199.60,4796.58 1206.05,4832.49 C1214.42,4877.59 1227.16,4945.80 1231.52,4968.92 C1236.32,4994.28 1246.36,5047.25 1251.60,5074.86 C1257.29,5104.71 1269.09,5166.66 1275.22,5198.76 C1281.78,5233.10 1295.36,5304.03 1302.36,5340.62 C1309.50,5377.96 1323.48,5451.25 1330.32,5487.21 C1336.85,5521.77 1349.60,5589.49 1355.82,5622.65 C1361.74,5654.42 1373.26,5716.55 1378.87,5746.92 C1384.17,5775.89 1396.59,5844.35 1403.72,5883.84 C1411.07,5925.45 1424.96,6005.01 1431.49,6042.97 C1437.21,6077.27 1447.85,6142.31 1452.77,6173.03 C1457.19,6201.10 1465.64,6254.89 1469.67,6280.61 C1473.29,6303.98 1480.15,6348.37 1483.38,6369.39 C1489.15,6408.43 1498.87,6476.25 1502.82,6505.04 C1506.13,6531.34 1513.01,6587.34 1516.59,6617.04 C1519.69,6644.38 1526.36,6703.15 1529.93,6734.59 C1533.63,6768.62 1540.57,6836.58 1543.81,6870.51 C1546.54,6904.53 1551.53,6973.08 1553.79,7007.61 C1555.63,7042.40 1558.89,7107.91 1560.31,7138.64 C1560.87,7151.81 1561.89,7176.71 1562.34,7188.43 C1562.92,7210.91 1563.63,7249.70 1563.51,7262.58 C1562.91,7292.80 1560.42,7332.89 1559.36,7345.12 C1559.08,7348.30 1558.02,7352.20 1556.48,7356.76" fill="none" stroke="rgb(161, 156, 198)" stroke-width="547.40" stroke-opacity="1.00" stroke-linejoin="round"/>
<path d="M746.22,3668.97 C749.32,3693.31 757.51,3754.46 762.65,3787.99 C766.40,3810.24 774.66,3858.69 779.15,3884.88 C784.39,3915.01 795.58,3979.18 801.54,4013.22 C807.82,4048.61 820.45,4119.15 826.80,4154.30 C833.20,4189.21 846.03,4258.56 852.46,4292.99 C858.31,4323.82 870.07,4385.34 875.98,4416.05 C881.96,4446.63 893.98,4507.69 900.01,4538.15 C906.14,4568.59 918.58,4630.02 924.91,4661.01 C931.46,4692.68 944.79,4756.68 951.57,4789.02 C958.58,4822.03 972.45,4887.01 979.31,4918.99 C986.34,4951.39 1000.60,5016.86 1007.84,5049.93 C1015.29,5083.67 1030.41,5151.83 1038.08,5186.24 C1045.61,5219.90 1060.12,5284.88 1067.11,5316.18 C1073.56,5345.13 1085.91,5400.68 1091.82,5427.27 C1097.52,5452.96 1112.38,5520.31 1121.55,5561.97 C1128.59,5594.49 1141.03,5652.61 1146.43,5678.21 C1151.82,5704.29 1162.76,5757.76 1168.30,5785.14 C1174.16,5814.83 1186.16,5876.20 1192.30,5907.89 C1198.40,5940.16 1210.23,6003.71 1215.95,6034.99 C1221.44,6066.45 1232.18,6129.45 1237.43,6160.98 C1242.39,6192.17 1251.96,6254.28 1256.58,6285.20 C1261.07,6317.85 1269.95,6385.35 1274.32,6420.20 C1278.25,6453.73 1285.21,6513.83 1288.25,6540.40 C1290.10,6557.74 1293.31,6589.03 1294.66,6602.98 C1296.78,6631.46 1300.87,6690.63 1302.84,6721.31 C1303.98,6739.52 1306.01,6774.43 1306.92,6791.12 C1307.58,6806.09 1308.62,6838.80 1309.02,6856.54 C1309.06,6872.12 1308.43,6900.78 1307.98,6915.29 C1306.47,6946.97 1301.90,7010.48 1299.27,7043.69 C1297.74,7058.75 1294.33,7089.35 1291.59,7108.68 C1288.71,7126.18 1282.01,7158.82 1279.55,7168.65 C1274.61,7187.34 1266.22,7205.94 1263.56,7210.97 C1261.52,7214.74 1258.97,7218.09 1255.23,7220.81 C1254.73,7221.17 1254.09,7221.64 1253.32,7222.22 C1250.77,7220.15 1245.79,7216.20 1243.66,7213.81 C1240.23,7209.93 1233.73,7197.88 1230.74,7191.17 C1225.45,7178.81 1214.97,7150.51 1210.97,7139.34 C1206.29,7125.69 1196.50,7095.70 1191.13,7077.29 C1185.92,7057.92 1176.83,7023.02 1172.94,7007.49 C1164.52,6971.41 1148.84,6903.01 1141.58,6870.69 C1139.15,6859.86 1136.23,6846.87 1135.74,6844.72" fill="none" stroke="rgb(161, 156, 198)" stroke-width="547.40" stroke-opacity="1.00" stroke-linejoin="round"/>
<path d="M518.85,3597.69 C517.80,3609.37 515.09,3644.37 515.44,3656.47 C516.22,3681.39 518.36,3739.42 519.72,3772.54 C521.43,3809.05 524.85,3878.59 526.55,3911.63 C528.58,3945.40 532.81,4010.10 535.00,4041.03 C537.38,4070.29 542.52,4130.77 545.27,4161.97 C548.12,4191.43 554.16,4252.38 557.34,4283.86 C560.88,4316.64 568.29,4382.50 572.17,4415.56 C576.32,4447.32 584.98,4511.21 589.50,4543.34 C594.40,4576.28 604.17,4640.82 609.04,4672.42 C613.77,4702.14 623.19,4759.55 627.87,4787.25 C632.54,4813.81 642.13,4867.13 647.06,4893.88 C653.69,4927.78 668.59,5002.38 676.86,5043.08 C682.05,5068.05 692.98,5120.32 698.71,5147.61 C704.98,5177.22 718.04,5238.76 724.84,5270.69 C732.15,5304.79 746.78,5373.07 754.12,5407.24 C761.33,5440.79 775.64,5507.24 782.73,5540.16 C789.70,5572.44 804.09,5638.99 811.51,5673.25 C819.23,5708.86 834.55,5779.39 842.13,5814.30 C849.58,5848.53 864.28,5916.08 871.54,5949.40 C878.22,5980.19 890.91,6038.91 896.93,6066.84 C902.28,6091.89 914.09,6147.54 920.54,6178.13 C928.29,6216.26 940.82,6279.80 945.60,6305.23 C950.09,6329.94 959.80,6384.57 965.01,6414.50 C970.65,6447.68 981.14,6510.76 985.99,6540.64 C988.47,6557.62 993.06,6590.10 995.17,6605.60 C997.00,6620.37 999.99,6650.56 1001.16,6665.98 C1002.03,6681.69 1002.97,6714.46 1003.28,6731.14 C1003.23,6747.55 1002.88,6778.39 1002.58,6792.83 C1001.73,6811.56 999.03,6846.33 997.07,6859.64 C995.48,6868.81 992.22,6882.41 988.94,6889.37 C988.79,6889.68 983.11,6900.73 982.70,6901.53 C981.03,6901.86 976.49,6902.93 976.24,6902.98 C973.52,6903.44 970.07,6902.98 968.11,6901.91 C964.87,6900.03 960.01,6889.63 954.68,6877.04 C950.17,6865.57 941.43,6842.73 933.48,6819.24 C924.72,6790.88 906.90,6731.07 897.84,6699.62 C894.04,6685.46 886.80,6657.77 883.36,6644.23 C875.59,6610.58 860.65,6543.45 853.48,6509.97 C846.13,6474.70 835.60,6424.12 832.42,6408.82" fill="none" stroke="rgb(161, 156, 198)" stroke-width="547.40" stroke-opacity="1.00" stroke-linejoin="round"/>
<path d="M216.70,3606.25 C214.94,3620.16 210.71,3656.94 210.02,3667.63 C209.39,3681.26 209.07,3710.19 209.31,3728.28 C210.20,3755.03 212.80,3815.51 214.52,3849.23 C216.60,3880.58 220.98,3942.80 223.29,3973.68 C225.99,4007.37 231.66,4075.26 234.63,4109.45 C237.67,4141.14 244.05,4205.62 247.39,4238.42 C250.82,4271.08 257.47,4334.30 260.69,4364.86 C263.70,4392.58 269.61,4446.54 272.52,4472.79 C275.51,4498.98 282.74,4559.43 287.00,4593.69 C292.36,4634.61 301.06,4700.16 304.39,4724.79 C308.10,4751.82 315.88,4808.29 319.95,4837.73 C324.40,4869.57 333.64,4935.51 338.45,4969.61 C343.40,5004.15 353.41,5073.15 358.46,5107.60 C363.60,5141.97 373.99,5210.60 379.23,5244.88 C384.58,5279.07 395.38,5347.48 400.83,5381.69 C406.40,5415.92 417.63,5484.42 423.31,5518.68 C429.09,5552.97 440.60,5620.82 446.33,5654.39 C451.64,5685.59 461.83,5745.58 466.71,5774.36 C471.16,5800.72 479.63,5851.02 483.66,5874.95 C490.79,5917.91 503.17,5993.40 508.42,6025.94 C512.34,6051.31 520.19,6102.80 524.12,6128.93 C528.24,6157.18 536.77,6216.72 541.19,6248.03 C545.75,6281.29 554.58,6346.51 558.84,6378.47 C562.78,6409.46 570.40,6471.69 574.09,6502.93 C577.48,6533.42 584.23,6596.16 587.59,6628.40 C590.51,6658.78 596.21,6719.68 598.98,6750.20 C601.71,6782.42 606.62,6847.22 608.80,6879.79 C609.65,6896.13 611.19,6929.16 611.88,6945.86 C612.39,6962.86 613.25,6996.99 613.59,7014.12 C613.81,7048.61 613.88,7113.79 613.74,7144.47 C613.58,7157.68 613.12,7186.06 612.80,7201.24 C612.00,7221.59 610.18,7256.86 609.08,7269.33 C607.91,7280.90 605.72,7301.63 602.65,7323.07 C601.34,7331.22 598.76,7346.45 597.54,7352.66 C595.85,7360.59 590.19,7372.88 589.76,7373.78" fill="none" stroke="rgb(161, 156, 198)" stroke-width="547.40" stroke-opacity="1.00" stroke-linejoin="round"/>
<path d="M182.60,4093.34 C174.21,4116.90 169.32,4131.84 166.35,4151.50 C164.84,4162.88 162.38,4188.37 161.42,4202.65 C159.59,4239.74 156.80,4304.35 155.84,4331.86 C154.88,4364.44 153.21,4431.06 152.52,4465.09 C152.28,4498.21 152.34,4563.16 152.62,4594.99 C153.33,4626.49 155.12,4689.79 156.20,4721.59 C157.62,4754.26 160.76,4818.24 162.49,4849.54 C164.53,4881.99 168.86,4947.63 171.14,4980.81 C173.39,5012.20 177.83,5073.05 180.03,5102.51 C182.29,5130.72 186.76,5185.75 188.99,5212.55 C191.65,5241.97 198.12,5309.15 201.92,5346.91 C205.49,5380.41 212.09,5441.46 215.12,5469.01 C218.49,5499.19 225.58,5562.16 229.30,5594.96 C233.35,5630.31 241.46,5700.87 245.52,5736.08 C249.41,5769.79 257.04,5835.71 260.77,5867.92 C264.34,5898.64 271.80,5962.67 275.70,5995.99 C279.50,6028.34 286.88,6091.07 290.46,6121.45 C293.82,6149.90 300.61,6207.55 304.04,6236.75 C307.71,6268.41 315.29,6334.16 319.20,6368.26 C323.05,6402.10 330.54,6468.29 334.20,6500.63 C338.03,6534.81 345.87,6605.00 349.88,6641.00 C354.07,6678.82 362.24,6752.78 366.22,6788.91 C369.70,6820.60 376.15,6879.54 379.12,6906.79 C381.59,6929.60 387.04,6983.51 390.02,7014.61 C393.16,7050.73 396.79,7081.55 397.77,7089.15" fill="none" stroke="rgb(161, 156, 198)" stroke-width="547.40" stroke-opacity="1.00" stroke-linejoin="round"/>
<path d="M102.00,2101.99 C104.01,2112.21 111.01,2172.29 111.81,2179.07 C112.81,2186.90 113.99,2194.40 114.11,2195.18" fill="none" stroke="rgb(161, 156, 198)" stroke-width="10.20" stroke-opacity="1.00" stroke-linejoin="round"/>
<path d="M101.17,2102.47 C101.17,2102.47 101.44,2101.39 101.44,2101.39 C99.64,2105.33 92.99,2115.96 91.36,2118.52 C90.77,2119.44 90.65,2119.29 91.21,2118.52 C91.38,2118.30 91.72,2117.91 92.24,2117.35" fill="none" stroke="rgb(161, 156, 198)" stroke-width="10.20" stroke-opacity="1.00" stroke-linejoin="round"/>
<path d="M103.50,2107.41 C102.35,2109.86 99.52,2115.88 97.83,2119.44 C94.62,2125.96 90.96,2132.62 90.48,2133.48 C90.29,2133.81 90.11,2134.13 89.92,2134.46" fill="none" stroke="rgb(161, 156, 198)" stroke-width="10.20" stroke-opacity="1.00" stroke-linejoin="round"/>
<path d="M105.29,2119.75 C101.54,2126.30 95.73,2136.53 93.67,2140.20 C93.06,2141.32 91.52,2144.13 90.58,2145.82" fill="none" stroke="rgb(161, 156, 198)" stroke-width="10.20" stroke-opacity="1.00" stroke-linejoin="round"/>
<path d="M103.78,2129.50 C103.97,2129.73 102.31,2134.21 100.15,2138.98 C98.82,2141.84 95.89,2147.98 94.29,2151.24 C94.11,2151.60 93.81,2152.24 93.39,2153.15" fill="none" stroke="rgb(161, 156, 198)" stroke-width="10.20" stroke-opacity="1.00" stroke-linejoin="round"/>
<path d="M105.93,2137.50 C103.89,2142.90 97.66,2154.34 95.51,2157.55 C95.00,2158.29 94.49,2159.03 93.99,2159.77" fill="none" stroke="rgb(161, 156, 198)" stroke-width="10.20" stroke-opacity="1.00" stroke-linejoin="round"/>
<path d="M104.12,2102.00 C105.75,2103.87 110.53,2109.31 110.88,2109.73 C111.15,2110.06 111.67,2110.72 112.45,2111.73" fill="none" stroke="rgb(161, 156, 198)" stroke-width="10.20" stroke-opacity="1.00" stroke-linejoin="round"/>
<path d="M104.47,2112.16 C106.46,2114.25 111.18,2119.20 113.90,2122.06 C116.56,2124.82 118.82,2126.97 119.40,2127.46" fill="none" stroke="rgb(161, 156, 198)" stroke-width="10.20" stroke-opacity="1.00" stroke-linejoin="round"/>
<path d="M103.80,2115.75 C103.79,2115.73 103.81,2115.80 103.83,2115.82 C109.65,2123.57 117.20,2131.21 118.94,2132.71 C119.79,2133.44 120.39,2133.91 120.75,2134.12 C121.07,2134.29 120.22,2133.58 119.93,2133.35 C119.68,2133.15 119.20,2132.80 118.50,2132.31" fill="none" stroke="rgb(161, 156, 198)" stroke-width="10.20" stroke-opacity="1.00" stroke-linejoin="round"/>
<path d="M106.30,2126.25 C108.24,2129.41 111.71,2133.57 114.63,2136.07 C115.74,2137.02 116.52,2137.64 116.96,2137.93 C117.24,2138.12 117.64,2138.30 118.16,2138.48" fill="none" stroke="rgb(161, 156, 198)" stroke-width="10.20" stroke-opacity="1.00" stroke-linejoin="round"/>
<path d="M106.84,2135.60 C108.21,2137.51 110.45,2140.43 111.62,2141.69 C112.80,2142.95 116.35,2146.04 117.41,2146.82 C117.70,2147.04 118.10,2147.29 118.60,2147.58" fill="none" stroke="rgb(161, 156, 198)" stroke-width="10.20" stroke-opacity="1.00" stroke-linejoin="round"/>
<path d="M107.16,2143.46 C107.20,2143.61 107.31,2143.81 107.49,2144.04 C108.07,2144.75 110.61,2147.51 111.67,2148.52 C113.31,2150.07 115.35,2151.50 116.97,2152.26 C117.32,2152.41 117.94,2152.67 118.84,2153.02" fill="none" stroke="rgb(161, 156, 198)" stroke-width="10.20" stroke-opacity="1.00" stroke-linejoin="round"/>
<path d="M105.49,2106.97 C106.29,2107.87 108.29,2110.09 108.88,2110.73 C111.00,2113.00 114.63,2116.11 114.83,2116.14" fill="none" stroke="rgb(161, 156, 198)" stroke-width="10.20" stroke-opacity="1.00" stroke-linejoin="round"/>
<path d="M109.95,2141.43 C111.73,2142.46 114.75,2144.12 116.70,2145.12 C117.97,2145.77 121.54,2147.41 123.21,2148.17 C125.14,2149.04 126.40,2149.46 128.43,2149.98" fill="none" stroke="rgb(161, 156, 198)" stroke-width="10.20" stroke-opacity="1.00" stroke-linejoin="round"/>
<path d="M112.04,2137.16 C112.02,2137.15 112.05,2137.12 112.06,2137.12 C113.66,2137.54 118.01,2139.41 123.06,2141.87 C125.02,2142.83 125.85,2143.18 126.57,2143.37" fill="none" stroke="rgb(161, 156, 198)" stroke-width="10.20" stroke-opacity="1.00" stroke-linejoin="round"/>
<path d="M116.59,2136.82 C119.97,2140.09 124.10,2143.13 126.68,2144.08 C127.05,2144.21 127.83,2144.44 129.00,2144.78" fill="none" stroke="rgb(161, 156, 198)" stroke-width="10.20" stroke-opacity="1.00" stroke-linejoin="round"/>
<path d="M173.58,2073.67 C173.58,2073.67 173.54,2073.54 173.54,2073.54 C173.54,2073.54 173.44,2072.37 173.44,2072.37 C174.52,2078.42 176.21,2090.88 177.07,2097.53 C178.14,2106.24 180.36,2123.92 181.51,2132.89 C182.69,2141.88 184.67,2156.82 185.46,2162.78" fill="none" stroke="rgb(161, 156, 198)" stroke-width="10.20" stroke-opacity="1.00" stroke-linejoin="round"/>
<path d="M168.00,2051.31 C168.19,2052.12 168.63,2054.11 168.89,2055.30 C170.79,2064.07 172.54,2076.63 173.44,2083.36 C174.06,2087.37 175.17,2094.17 175.64,2096.95" fill="none" stroke="rgb(161, 156, 198)" stroke-width="10.20" stroke-opacity="1.00" stroke-linejoin="round"/>
<path d="M167.86,2039.79 C167.28,2044.33 166.62,2048.62 165.78,2052.46 C164.14,2059.33 162.25,2067.15 162.00,2068.10" fill="none" stroke="rgb(161, 156, 198)" stroke-width="10.20" stroke-opacity="1.00" stroke-linejoin="round"/>
<path d="M164.62,2033.02 C165.42,2037.42 166.76,2042.63 168.20,2046.62 C169.61,2050.44 172.28,2055.52 174.53,2058.46 C175.49,2059.69 177.09,2061.71 177.72,2062.51" fill="none" stroke="rgb(161, 156, 198)" stroke-width="10.20" stroke-opacity="1.00" stroke-linejoin="round"/>
<path d="M171.16,2058.76 C169.49,2065.13 164.74,2074.15 164.46,2074.65 C163.87,2075.72 163.27,2076.78 162.68,2077.85" fill="none" stroke="rgb(161, 156, 198)" stroke-width="10.20" stroke-opacity="1.00" stroke-linejoin="round"/>
<path d="M171.71,2063.51 C173.83,2066.00 181.51,2071.66 182.60,2072.57 C184.05,2073.78 185.71,2075.39 186.44,2076.23" fill="none" stroke="rgb(161, 156, 198)" stroke-width="10.20" stroke-opacity="1.00" stroke-linejoin="round"/>
<path d="M173.22,2067.98 C171.85,2071.47 168.96,2078.94 167.44,2082.92 C165.52,2088.12 165.29,2088.87 165.20,2089.49 C165.37,2089.30 165.55,2089.01 165.73,2088.64 C165.91,2088.26 166.35,2087.27 167.05,2085.66" fill="none" stroke="rgb(161, 156, 198)" stroke-width="10.20" stroke-opacity="1.00" stroke-linejoin="round"/>
<path d="M171.87,2073.67 C171.68,2074.04 171.57,2074.31 171.56,2074.46 C171.52,2075.57 174.83,2079.54 179.34,2083.81 C182.47,2086.75 185.03,2088.88 185.77,2089.45" fill="none" stroke="rgb(161, 156, 198)" stroke-width="10.20" stroke-opacity="1.00" stroke-linejoin="round"/>
<path d="M173.58,2071.23 C174.60,2072.29 177.19,2074.95 178.75,2076.57 C180.50,2078.38 183.18,2081.30 184.78,2083.12 C185.77,2084.26 187.05,2085.75 187.45,2086.16" fill="none" stroke="rgb(161, 156, 198)" stroke-width="10.20" stroke-opacity="1.00" stroke-linejoin="round"/>
<path d="M173.72,2081.94 C172.35,2084.66 168.44,2092.46 167.94,2093.54 C166.48,2096.69 165.74,2099.40 165.40,2100.62" fill="none" stroke="rgb(161, 156, 198)" stroke-width="10.20" stroke-opacity="1.00" stroke-linejoin="round"/>
<path d="M175.69,2083.80 C175.37,2084.58 174.54,2086.44 173.91,2087.83 C173.00,2089.86 171.16,2094.01 170.23,2096.12 C169.24,2098.41 168.13,2101.45 167.73,2103.02 C167.63,2103.46 167.54,2103.99 167.48,2104.61" fill="none" stroke="rgb(161, 156, 198)" stroke-width="10.20" stroke-opacity="1.00" stroke-linejoin="round"/>
<path d="M177.33,2089.19 C177.33,2089.13 177.27,2089.20 177.15,2089.39 C175.62,2091.81 172.63,2097.49 170.92,2101.28 C169.63,2104.19 167.89,2108.96 167.60,2110.07 C167.47,2110.56 167.21,2111.64 166.83,2113.32" fill="none" stroke="rgb(161, 156, 198)" stroke-width="10.20" stroke-opacity="1.00" stroke-linejoin="round"/>
<path d="M176.33,2099.69 C173.00,2103.32 167.99,2111.83 166.55,2114.65 C165.36,2116.97 163.40,2121.45 162.96,2122.45" fill="none" stroke="rgb(161, 156, 198)" stroke-width="10.20" stroke-opacity="1.00" stroke-linejoin="round"/>
<path d="M174.34,2105.25 C174.17,2105.50 174.01,2105.76 173.85,2106.01 C172.43,2108.21 168.87,2113.77 167.45,2116.37 C166.51,2118.10 165.63,2120.32 165.32,2121.65 C165.25,2121.94 165.16,2122.44 165.04,2123.15 C165.04,2123.15 166.75,2120.66 166.75,2120.66" fill="none" stroke="rgb(161, 156, 198)" stroke-width="10.20" stroke-opacity="1.00" stroke-linejoin="round"/>
<path d="M175.32,2112.43 C175.14,2112.68 174.97,2112.94 174.79,2113.19 C173.31,2115.34 170.12,2120.02 168.50,2123.08 C167.06,2125.82 166.76,2128.35 166.91,2128.58" fill="none" stroke="rgb(161, 156, 198)" stroke-width="10.20" stroke-opacity="1.00" stroke-linejoin="round"/>
<path d="M177.63,2116.22 C177.52,2116.29 177.36,2116.44 177.16,2116.68 C175.47,2118.71 170.65,2127.06 170.83,2129.30 C170.91,2130.05 171.28,2130.29 171.96,2130.00 C172.19,2129.90 172.55,2129.52 173.06,2128.86" fill="none" stroke="rgb(161, 156, 198)" stroke-width="10.20" stroke-opacity="1.00" stroke-linejoin="round"/>
<path d="M179.25,2122.05 C178.73,2123.31 177.42,2126.49 176.63,2128.41 C175.76,2130.51 174.51,2133.30 173.82,2134.71 C173.63,2135.08 173.38,2135.56 173.06,2136.15" fill="none" stroke="rgb(161, 156, 198)" stroke-width="10.20" stroke-opacity="1.00" stroke-linejoin="round"/>
<path d="M181.18,2093.05 C183.88,2095.52 189.86,2100.94 192.33,2102.89 C194.95,2104.94 196.29,2105.82 196.78,2106.06" fill="none" stroke="rgb(161, 156, 198)" stroke-width="10.20" stroke-opacity="1.00" stroke-linejoin="round"/>
<path d="M179.85,2090.20 C182.21,2093.01 189.13,2101.19 190.14,2102.28 C192.06,2104.35 194.17,2106.40 195.13,2107.20" fill="none" stroke="rgb(161, 156, 198)" stroke-width="10.20" stroke-opacity="1.00" stroke-linejoin="round"/>
<path d="M180.21,2097.12 C182.70,2100.56 186.55,2104.53 188.74,2106.80 C192.37,2110.70 193.17,2111.64 193.14,2111.62" fill="none" stroke="rgb(161, 156, 198)" stroke-width="10.20" stroke-opacity="1.00" stroke-linejoin="round"/>
<path d="M178.80,2104.43 C179.89,2106.83 182.09,2109.35 187.00,2113.65 C188.71,2115.18 191.12,2117.60 191.10,2117.58" fill="none" stroke="rgb(161, 156, 198)" stroke-width="10.20" stroke-opacity="1.00" stroke-linejoin="round"/>
<path d="M180.74,2108.02 C180.60,2108.09 180.56,2108.25 180.62,2108.51 C181.17,2110.70 183.58,2114.26 186.31,2117.13 C188.84,2119.77 191.64,2122.31 192.25,2122.85" fill="none" stroke="rgb(161, 156, 198)" stroke-width="10.20" stroke-opacity="1.00" stroke-linejoin="round"/>
<path d="M181.45,2116.77 C183.09,2119.16 187.57,2123.33 190.30,2124.65 C190.87,2124.92 192.08,2125.39 193.94,2126.06" fill="none" stroke="rgb(161, 156, 198)" stroke-width="10.20" stroke-opacity="1.00" stroke-linejoin="round"/>
<path d="M184.49,2123.81 C184.44,2124.05 184.43,2124.29 184.49,2124.54 C184.79,2125.81 186.14,2128.23 187.25,2129.26 C187.75,2129.72 191.13,2131.70 191.59,2131.92 C192.00,2132.10 192.83,2132.42 194.09,2132.88" fill="none" stroke="rgb(161, 156, 198)" stroke-width="10.20" stroke-opacity="1.00" stroke-linejoin="round"/>
<path d="M237.67,2029.90 C238.66,2034.60 241.23,2046.76 242.38,2053.99 C243.41,2061.46 245.30,2077.34 246.27,2085.15 C247.41,2092.82 249.72,2106.05 251.59,2113.32 C253.53,2120.69 255.73,2125.36 256.09,2126.10" fill="none" stroke="rgb(161, 156, 198)" stroke-width="10.20" stroke-opacity="1.00" stroke-linejoin="round"/>
<path d="M238.19,2018.58 C238.14,2018.52 238.09,2018.57 238.06,2018.74 C238.03,2018.87 236.80,2027.97 236.27,2031.87 C235.75,2035.79 234.78,2043.29 234.32,2046.85 C234.08,2048.74 233.99,2049.81 233.93,2051.57" fill="none" stroke="rgb(161, 156, 198)" stroke-width="10.20" stroke-opacity="1.00" stroke-linejoin="round"/>
<path d="M239.27,2043.86 C238.19,2046.09 235.11,2052.43 234.10,2054.35 C232.82,2056.74 229.42,2062.49 227.27,2065.98 C226.77,2066.76 226.28,2067.54 225.79,2068.32" fill="none" stroke="rgb(161, 156, 198)" stroke-width="10.20" stroke-opacity="1.00" stroke-linejoin="round"/>
<path d="M241.42,2054.16 C240.94,2055.99 239.63,2059.31 237.61,2063.67 C236.08,2066.95 233.28,2072.98 232.00,2075.73" fill="none" stroke="rgb(161, 156, 198)" stroke-width="10.20" stroke-opacity="1.00" stroke-linejoin="round"/>
<path d="M244.95,2065.83 C243.24,2068.59 239.09,2075.06 236.76,2078.68 C235.81,2080.18 234.07,2082.93 233.28,2084.18 C232.42,2085.56 231.24,2087.59 230.40,2089.04" fill="none" stroke="rgb(161, 156, 198)" stroke-width="10.20" stroke-opacity="1.00" stroke-linejoin="round"/>
<path d="M247.20,2070.62 C246.51,2071.38 245.99,2071.99 244.82,2073.48 C240.61,2078.83 233.62,2088.11 231.43,2091.09 C230.53,2092.34 229.21,2094.21 228.78,2094.83" fill="none" stroke="rgb(161, 156, 198)" stroke-width="10.20" stroke-opacity="1.00" stroke-linejoin="round"/>
<path d="M241.56,2060.19 C241.57,2060.15 241.49,2060.25 241.46,2060.29 C237.72,2066.44 232.28,2075.41 230.58,2078.24 C229.50,2080.06 225.98,2086.39 225.25,2087.73" fill="none" stroke="rgb(161, 156, 198)" stroke-width="10.20" stroke-opacity="1.00" stroke-linejoin="round"/>
<path d="M240.50,2066.49 C234.42,2073.62 229.18,2082.06 228.58,2083.54 C228.39,2084.02 228.03,2085.10 227.50,2086.77" fill="none" stroke="rgb(161, 156, 198)" stroke-width="10.20" stroke-opacity="1.00" stroke-linejoin="round"/>
<path d="M241.76,2079.70 C240.58,2081.09 238.43,2083.67 237.45,2084.86 C234.39,2088.65 233.06,2091.21 233.00,2092.02 C233.00,2092.02 235.48,2090.95 235.48,2090.95" fill="none" stroke="rgb(161, 156, 198)" stroke-width="10.20" stroke-opacity="1.00" stroke-linejoin="round"/>
<path d="M244.93,2085.19 C242.81,2087.61 238.24,2092.83 235.78,2095.72 C233.27,2098.72 231.51,2102.25 231.21,2103.33 C231.87,2103.50 232.33,2103.54 232.56,2103.45 C232.80,2103.35 233.15,2102.99 233.61,2102.35" fill="none" stroke="rgb(161, 156, 198)" stroke-width="10.20" stroke-opacity="1.00" stroke-linejoin="round"/>
<path d="M248.92,2087.09 C242.36,2093.83 234.71,2103.60 234.33,2104.35 C234.07,2104.86 233.63,2105.98 233.01,2107.71 C233.01,2107.71 235.97,2105.09 235.97,2105.09" fill="none" stroke="rgb(161, 156, 198)" stroke-width="10.20" stroke-opacity="1.00" stroke-linejoin="round"/>
<path d="M249.61,2093.32 C245.87,2097.61 241.69,2102.97 241.04,2104.46 C240.93,2104.73 240.86,2105.13 240.83,2105.66" fill="none" stroke="rgb(161, 156, 198)" stroke-width="10.20" stroke-opacity="1.00" stroke-linejoin="round"/>
<path d="M248.28,2094.95 C250.46,2095.30 254.49,2095.33 258.27,2094.97 C261.15,2094.68 264.86,2093.89 266.21,2093.55" fill="none" stroke="rgb(161, 156, 198)" stroke-width="10.20" stroke-opacity="1.00" stroke-linejoin="round"/>
<path d="M247.33,2089.22 C251.04,2088.89 258.68,2088.75 259.50,2088.77 C260.07,2088.79 261.39,2088.85 263.45,2088.95" fill="none" stroke="rgb(161, 156, 198)" stroke-width="10.20" stroke-opacity="1.00" stroke-linejoin="round"/>
<path d="M246.86,2079.50 C250.41,2079.65 255.63,2080.51 259.31,2081.63 C259.77,2081.78 260.63,2082.06 261.88,2082.49" fill="none" stroke="rgb(161, 156, 198)" stroke-width="10.20" stroke-opacity="1.00" stroke-linejoin="round"/>
<path d="M246.72,2074.35 C250.31,2074.04 255.47,2073.60 257.03,2073.47 C257.41,2073.44 257.94,2073.41 258.63,2073.37" fill="none" stroke="rgb(161, 156, 198)" stroke-width="10.20" stroke-opacity="1.00" stroke-linejoin="round"/>
<path d="M244.32,2061.61 C248.62,2061.87 254.97,2063.08 257.00,2064.29 C257.43,2064.55 258.26,2065.18 259.48,2066.17" fill="none" stroke="rgb(161, 156, 198)" stroke-width="10.20" stroke-opacity="1.00" stroke-linejoin="round"/>
<path d="M243.02,2049.82 C244.78,2049.59 248.50,2050.85 255.22,2053.47 C258.58,2054.76 259.93,2055.10 261.29,2055.35" fill="none" stroke="rgb(161, 156, 198)" stroke-width="10.20" stroke-opacity="1.00" stroke-linejoin="round"/>
<path d="M238.40,2027.93 C237.80,2029.02 237.28,2030.55 237.45,2031.55 C237.83,2033.66 242.30,2038.39 244.36,2040.10 C249.35,2044.21 255.51,2048.21 257.20,2049.23" fill="none" stroke="rgb(161, 156, 198)" stroke-width="10.20" stroke-opacity="1.00" stroke-linejoin="round"/>
<path d="M238.54,2029.63 C238.87,2031.37 241.55,2035.74 243.81,2037.89 C246.23,2040.13 251.64,2044.25 254.94,2046.19 C256.82,2047.30 263.04,2050.66 264.42,2051.22" fill="none" stroke="rgb(161, 156, 198)" stroke-width="10.20" stroke-opacity="1.00" stroke-linejoin="round"/>
<path d="M242.63,2049.96 C242.49,2050.05 242.45,2050.25 242.52,2050.55 C243.19,2053.31 245.56,2056.77 247.84,2058.74 C250.72,2061.19 255.40,2063.99 259.59,2065.84 C261.63,2066.73 262.05,2066.89 262.23,2066.90" fill="none" stroke="rgb(161, 156, 198)" stroke-width="10.20" stroke-opacity="1.00" stroke-linejoin="round"/>
<path d="M245.99,2063.10 C245.92,2064.37 246.80,2066.31 248.42,2068.17 C249.27,2069.13 253.76,2071.51 258.19,2073.59 C261.19,2074.96 265.14,2076.76 266.09,2077.18" fill="none" stroke="rgb(161, 156, 198)" stroke-width="10.20" stroke-opacity="1.00" stroke-linejoin="round"/>
<path d="M249.54,2076.52 C249.37,2076.74 249.35,2076.98 249.46,2077.26 C250.53,2079.68 253.97,2081.73 256.82,2082.42 C257.93,2082.68 261.72,2083.49 262.71,2083.67 C264.27,2083.95 267.35,2084.43 268.45,2084.60" fill="none" stroke="rgb(161, 156, 198)" stroke-width="10.20" stroke-opacity="1.00" stroke-linejoin="round"/>
<path d="M253.13,2090.61 C254.32,2091.54 264.42,2093.69 265.40,2094.05 C266.00,2094.27 267.09,2094.81 268.66,2095.65" fill="none" stroke="rgb(161, 156, 198)" stroke-width="10.20" stroke-opacity="1.00" stroke-linejoin="round"/>
<path d="M257.31,2096.37 C257.28,2096.37 257.33,2096.29 257.36,2096.28 C257.96,2096.13 261.68,2095.38 262.27,2095.28 C263.53,2095.07 264.55,2094.45 266.68,2092.78" fill="none" stroke="rgb(161, 156, 198)" stroke-width="10.20" stroke-opacity="1.00" stroke-linejoin="round"/>
<path d="M240.14,2039.52 C241.16,2039.84 243.66,2043.02 245.54,2046.62 C247.89,2051.23 251.39,2066.83 251.60,2073.90 C251.76,2084.16 251.60,2089.53 251.61,2090.82 C251.76,2090.71 251.42,2073.63 251.07,2066.00 C250.89,2062.39 250.60,2055.81 250.48,2052.84" fill="none" stroke="rgb(161, 156, 198)" stroke-width="10.20" stroke-opacity="1.00" stroke-linejoin="round"/>
<path d="M239.45,2048.06 C239.45,2048.06 239.45,2047.92 239.45,2047.92 C239.03,2046.06 238.51,2044.42 238.29,2044.96 C238.21,2045.16 236.51,2055.27 236.31,2059.52 C236.12,2063.78 236.76,2076.20 237.54,2079.88" fill="none" stroke="rgb(161, 156, 198)" stroke-width="10.20" stroke-opacity="1.00" stroke-linejoin="round"/>
<path d="M2150.83,2457.29 C2150.83,2457.29 2150.94,2456.87 2150.94,2456.87 C2150.86,2465.71 2141.21,2530.48 2140.34,2540.97 C2139.48,2554.77 2139.52,2558.14 2139.88,2560.82" fill="none" stroke="rgb(161, 156, 198)" stroke-width="10.20" stroke-opacity="1.00" stroke-linejoin="round"/>
<path d="M2207.38,2463.13 C2207.20,2464.74 2206.98,2466.80 2206.83,2468.57 C2205.52,2483.85 2202.92,2514.90 2201.61,2530.67 C2200.16,2546.67 2198.15,2568.78 2197.59,2574.90 C2197.26,2579.03 2196.85,2584.23 2196.77,2585.31" fill="none" stroke="rgb(161, 156, 198)" stroke-width="10.20" stroke-opacity="1.00" stroke-linejoin="round"/>
<path d="M2210.16,2447.99 C2209.82,2448.99 2209.17,2450.74 2208.59,2452.23 C2205.80,2459.14 2201.58,2469.66 2200.15,2473.28 C2198.56,2477.30 2197.12,2481.99 2196.83,2483.28" fill="none" stroke="rgb(161, 156, 198)" stroke-width="10.20" stroke-opacity="1.00" stroke-linejoin="round"/>
<path d="M2208.21,2456.41 C2208.21,2456.41 2208.04,2455.64 2208.04,2455.64 C2208.52,2457.97 2209.82,2463.98 2210.62,2467.66 C2213.29,2479.42 2214.59,2483.93 2214.98,2485.08" fill="none" stroke="rgb(161, 156, 198)" stroke-width="10.20" stroke-opacity="1.00" stroke-linejoin="round"/>
<path d="M2209.59,2469.31 C2209.19,2470.47 2208.77,2471.44 2208.10,2472.47 C2206.37,2475.08 2201.06,2482.22 2198.41,2485.78 C2196.00,2489.05 2194.57,2491.77 2194.23,2492.64" fill="none" stroke="rgb(161, 156, 198)" stroke-width="10.20" stroke-opacity="1.00" stroke-linejoin="round"/>
<path d="M2205.76,2477.62 C2206.46,2480.43 2207.88,2486.28 2208.60,2489.31 C2210.43,2497.48 2212.25,2501.48 2212.54,2501.68" fill="none" stroke="rgb(161, 156, 198)" stroke-width="10.20" stroke-opacity="1.00" stroke-linejoin="round"/>
<path d="M2208.41,2476.31 C2208.70,2479.17 2210.80,2487.00 2211.76,2489.86 C2212.76,2492.83 2214.72,2497.17 2215.21,2498.23" fill="none" stroke="rgb(161, 156, 198)" stroke-width="10.20" stroke-opacity="1.00" stroke-linejoin="round"/>
<path d="M2207.78,2482.65 C2207.78,2482.65 2207.78,2482.54 2207.78,2482.54 C2205.81,2485.42 2200.06,2493.82 2199.29,2495.00 C2196.51,2499.24 2195.82,2500.59 2195.89,2500.54 C2196.33,2499.83 2196.66,2499.32 2196.87,2499.00 C2197.07,2498.69 2197.45,2498.13 2198.01,2497.32" fill="none" stroke="rgb(161, 156, 198)" stroke-width="10.20" stroke-opacity="1.00" stroke-linejoin="round"/>
<path d="M2205.92,2489.21 C2205.83,2489.24 2205.67,2489.35 2205.45,2489.53 C2202.70,2491.86 2196.14,2499.60 2193.32,2503.07 C2191.17,2505.66 2188.23,2509.15 2187.44,2510.07" fill="none" stroke="rgb(161, 156, 198)" stroke-width="10.20" stroke-opacity="1.00" stroke-linejoin="round"/>
<path d="M2205.82,2494.09 C2205.24,2494.40 2201.23,2498.59 2200.71,2499.19 C2198.90,2501.29 2195.42,2506.35 2193.88,2508.61" fill="none" stroke="rgb(161, 156, 198)" stroke-width="10.20" stroke-opacity="1.00" stroke-linejoin="round"/>
<path d="M2207.86,2499.76 C2207.75,2499.81 2207.56,2499.95 2207.30,2500.18 C2205.50,2501.78 2193.67,2513.63 2191.07,2516.25 C2189.93,2517.43 2188.48,2518.98 2187.86,2519.67" fill="none" stroke="rgb(161, 156, 198)" stroke-width="10.20" stroke-opacity="1.00" stroke-linejoin="round"/>
<path d="M2204.56,2506.21 C2204.48,2506.26 2204.31,2506.40 2204.05,2506.62 C2201.14,2509.11 2195.79,2513.93 2194.60,2515.06 C2190.79,2518.68 2188.59,2521.32 2188.59,2521.66 C2188.60,2521.88 2189.01,2521.67 2189.81,2521.04 C2190.10,2520.81 2190.63,2520.32 2191.39,2519.57" fill="none" stroke="rgb(161, 156, 198)" stroke-width="10.20" stroke-opacity="1.00" stroke-linejoin="round"/>
<path d="M2202.14,2511.51 C2199.45,2513.53 2194.00,2517.87 2192.82,2518.89 C2189.18,2522.06 2188.12,2523.49 2187.52,2524.67 C2188.04,2524.54 2188.45,2524.36 2188.77,2524.13 C2189.08,2523.90 2189.73,2523.29 2190.70,2522.30" fill="none" stroke="rgb(161, 156, 198)" stroke-width="10.20" stroke-opacity="1.00" stroke-linejoin="round"/>
<path d="M2203.98,2513.69 C2203.38,2514.21 2201.82,2515.56 2200.88,2516.38 C2197.08,2519.71 2193.00,2523.72 2192.75,2524.48 C2192.59,2525.01 2192.68,2525.22 2193.02,2525.10 C2193.14,2525.05 2193.37,2524.78 2193.72,2524.28" fill="none" stroke="rgb(161, 156, 198)" stroke-width="10.20" stroke-opacity="1.00" stroke-linejoin="round"/>
<path d="M2199.45,2516.43 C2200.59,2520.32 2203.06,2526.96 2203.74,2528.33 C2205.60,2532.06 2209.03,2536.31 2209.58,2536.32" fill="none" stroke="rgb(161, 156, 198)" stroke-width="10.20" stroke-opacity="1.00" stroke-linejoin="round"/>
<path d="M2198.69,2520.63 C2199.27,2523.55 2202.61,2528.71 2205.26,2530.68 C2206.27,2531.42 2208.57,2532.50 2210.05,2533.09 C2210.05,2533.09 2210.35,2532.87 2210.35,2532.87 C2210.35,2532.87 2209.85,2531.26 2209.85,2531.26" fill="none" stroke="rgb(161, 156, 198)" stroke-width="10.20" stroke-opacity="1.00" stroke-linejoin="round"/>
<path d="M2201.03,2519.38 C2203.60,2521.38 2206.95,2524.48 2210.47,2528.17 C2211.58,2529.34 2214.15,2532.00 2215.61,2533.51 C2217.22,2535.15 2217.77,2535.63 2217.77,2535.46" fill="none" stroke="rgb(161, 156, 198)" stroke-width="10.20" stroke-opacity="1.00" stroke-linejoin="round"/>
<path d="M2203.73,2509.54 C2204.42,2511.86 2208.78,2522.02 2209.09,2522.66 C2209.30,2523.10 2209.71,2523.85 2210.30,2524.90" fill="none" stroke="rgb(161, 156, 198)" stroke-width="10.20" stroke-opacity="1.00" stroke-linejoin="round"/>
<path d="M2205.42,2507.19 C2205.37,2507.16 2205.37,2507.22 2205.42,2507.35 C2206.22,2509.45 2209.18,2514.06 2211.40,2515.96 C2212.30,2516.72 2214.20,2517.95 2215.45,2518.68" fill="none" stroke="rgb(161, 156, 198)" stroke-width="10.20" stroke-opacity="1.00" stroke-linejoin="round"/>
<path d="M2206.00,2505.55 C2206.75,2506.71 2207.39,2507.51 2208.76,2508.88 C2212.18,2512.27 2215.92,2515.66 2218.31,2517.54 C2218.97,2518.05 2219.62,2518.56 2220.28,2519.07" fill="none" stroke="rgb(161, 156, 198)" stroke-width="10.20" stroke-opacity="1.00" stroke-linejoin="round"/>
<path d="M2206.22,2499.32 C2208.58,2502.02 2214.34,2507.59 2215.58,2508.62 C2217.09,2509.87 2219.41,2511.59 2220.76,2512.51" fill="none" stroke="rgb(161, 156, 198)" stroke-width="10.20" stroke-opacity="1.00" stroke-linejoin="round"/>
<path d="M2208.38,2493.74 C2208.54,2494.20 2208.64,2494.50 2208.70,2494.63 C2209.52,2496.41 2217.82,2504.43 2218.41,2504.96 C2219.00,2505.49 2219.97,2506.34 2221.34,2507.50 C2221.47,2507.61 2221.85,2507.96 2221.74,2507.83" fill="none" stroke="rgb(161, 156, 198)" stroke-width="10.20" stroke-opacity="1.00" stroke-linejoin="round"/>
<path d="M2157.16,2444.17 C2155.03,2447.78 2151.11,2452.81 2148.87,2455.68 C2147.50,2457.39 2143.28,2462.36 2141.50,2464.45 C2141.08,2464.94 2140.67,2465.42 2140.26,2465.91" fill="none" stroke="rgb(161, 156, 198)" stroke-width="10.20" stroke-opacity="1.00" stroke-linejoin="round"/>
<path d="M2151.81,2452.37 C2151.86,2453.37 2154.15,2461.00 2154.66,2462.46 C2155.28,2464.22 2156.24,2466.66 2156.81,2467.98" fill="none" stroke="rgb(161, 156, 198)" stroke-width="10.20" stroke-opacity="1.00" stroke-linejoin="round"/>
<path d="M2150.52,2459.91 C2150.64,2461.87 2152.63,2469.43 2153.09,2470.82 C2154.09,2473.78 2158.06,2480.43 2159.25,2481.40" fill="none" stroke="rgb(161, 156, 198)" stroke-width="10.20" stroke-opacity="1.00" stroke-linejoin="round"/>
<path d="M2152.25,2471.61 C2151.80,2474.12 2152.79,2479.10 2154.23,2482.03 C2155.60,2484.75 2158.30,2488.32 2159.56,2489.93" fill="none" stroke="rgb(161, 156, 198)" stroke-width="10.20" stroke-opacity="1.00" stroke-linejoin="round"/>
<path d="M2152.68,2483.03 C2152.65,2482.96 2152.52,2483.12 2152.51,2483.19 C2152.37,2485.56 2152.69,2488.11 2153.48,2489.88 C2154.23,2491.57 2155.47,2494.00 2156.07,2495.02 C2157.28,2497.00 2159.39,2499.39 2160.27,2500.33" fill="none" stroke="rgb(161, 156, 198)" stroke-width="10.20" stroke-opacity="1.00" stroke-linejoin="round"/>
<path d="M2149.26,2490.63 C2149.18,2490.75 2149.15,2490.91 2149.19,2491.13 C2149.57,2493.40 2152.87,2498.49 2155.50,2501.29 C2156.36,2502.20 2158.20,2503.92 2159.39,2504.98" fill="none" stroke="rgb(161, 156, 198)" stroke-width="10.20" stroke-opacity="1.00" stroke-linejoin="round"/>
<path d="M2148.93,2500.03 C2149.25,2501.83 2152.49,2508.75 2154.42,2511.95 C2156.01,2514.58 2158.50,2518.10 2159.04,2518.85" fill="none" stroke="rgb(161, 156, 198)" stroke-width="10.20" stroke-opacity="1.00" stroke-linejoin="round"/>
<path d="M2149.93,2508.50 C2149.91,2508.85 2149.95,2509.16 2150.05,2509.43 C2150.49,2510.54 2152.08,2512.63 2153.17,2513.27 C2153.57,2513.51 2154.51,2513.95 2155.98,2514.60" fill="none" stroke="rgb(161, 156, 198)" stroke-width="10.20" stroke-opacity="1.00" stroke-linejoin="round"/>
<path d="M2143.95,2502.54 C2143.06,2502.30 2135.06,2505.91 2134.39,2506.19 C2133.92,2506.39 2132.85,2506.83 2131.20,2507.51" fill="none" stroke="rgb(161, 156, 198)" stroke-width="10.20" stroke-opacity="1.00" stroke-linejoin="round"/>
<path d="M2147.53,2496.53 C2147.42,2496.52 2147.26,2496.55 2147.04,2496.63 C2145.12,2497.30 2136.37,2501.85 2135.03,2502.59 C2134.24,2503.03 2133.81,2503.24 2133.72,2503.22 C2133.51,2503.14 2133.63,2502.83 2134.08,2502.28 C2134.28,2502.04 2134.78,2501.55 2135.58,2500.82" fill="none" stroke="rgb(161, 156, 198)" stroke-width="10.20" stroke-opacity="1.00" stroke-linejoin="round"/>
<path d="M2146.70,2488.66 C2145.04,2489.40 2143.96,2489.93 2142.26,2490.84 C2140.81,2491.62 2137.66,2493.31 2136.97,2493.71 C2135.71,2494.45 2133.10,2496.06 2133.12,2496.06" fill="none" stroke="rgb(161, 156, 198)" stroke-width="10.20" stroke-opacity="1.00" stroke-linejoin="round"/>
<path d="M2149.24,2483.41 C2148.67,2483.61 2147.13,2484.15 2146.57,2484.39 C2144.29,2485.36 2136.38,2489.65 2135.20,2490.34 C2133.86,2491.14 2132.34,2492.13 2131.69,2492.60" fill="none" stroke="rgb(161, 156, 198)" stroke-width="10.20" stroke-opacity="1.00" stroke-linejoin="round"/>
<path d="M2150.96,2477.62 C2150.17,2477.89 2149.36,2478.23 2147.26,2479.17 C2145.51,2479.96 2141.86,2481.62 2140.82,2482.16 C2139.27,2482.97 2137.15,2484.26 2136.45,2484.79 C2136.31,2484.89 2136.08,2485.08 2135.76,2485.35" fill="none" stroke="rgb(161, 156, 198)" stroke-width="10.20" stroke-opacity="1.00" stroke-linejoin="round"/>
<path d="M2147.70,2472.48 C2147.23,2472.59 2146.81,2472.72 2146.43,2472.86 C2143.91,2473.86 2139.54,2475.98 2139.22,2476.20 C2139.37,2476.09 2139.51,2475.97 2139.66,2475.83 C2139.81,2475.69 2140.18,2475.36 2140.76,2474.82" fill="none" stroke="rgb(161, 156, 198)" stroke-width="10.20" stroke-opacity="1.00" stroke-linejoin="round"/>
<path d="M2150.00,2466.25 C2149.61,2466.37 2149.24,2466.49 2148.90,2466.63 C2148.39,2466.83 2143.61,2468.88 2143.29,2468.87 C2143.10,2468.86 2143.13,2468.57 2143.41,2467.99" fill="none" stroke="rgb(161, 156, 198)" stroke-width="10.20" stroke-opacity="1.00" stroke-linejoin="round"/>
<path d="M2151.00,2459.25 C2150.93,2459.21 2150.76,2459.22 2150.47,2459.31 C2147.77,2460.12 2143.98,2462.11 2141.91,2463.76 C2140.22,2465.12 2139.87,2465.61 2139.86,2465.65" fill="none" stroke="rgb(161, 156, 198)" stroke-width="10.20" stroke-opacity="1.00" stroke-linejoin="round"/>
<path d="M3672.48,2470.40 C3668.88,2477.55 3659.56,2495.99 3653.83,2507.28 C3645.14,2523.10 3623.86,2559.17 3613.81,2575.83 C3599.07,2599.54 3566.18,2651.99 3548.04,2680.74 C3527.32,2713.27 3488.30,2774.57 3469.99,2803.33 C3454.93,2827.09 3418.38,2885.14 3396.90,2919.44 C3385.81,2937.72 3374.34,2956.64 3373.95,2957.28" fill="none" stroke="rgb(161, 156, 198)" stroke-width="414.70" stroke-opacity="1.00" stroke-linejoin="round"/>
<path d="M3573.54,2742.48 C3574.89,2744.41 3578.35,2749.60 3578.95,2753.13 C3579.19,2754.61 3578.20,2774.37 3577.74,2778.88 C3575.86,2797.16 3567.26,2825.21 3564.04,2835.81 C3555.99,2861.54 3537.78,2919.06 3527.61,2950.84 C3515.41,2988.41 3491.70,3061.98 3480.20,3097.98 C3470.65,3129.06 3453.47,3186.29 3445.85,3212.45 C3444.22,3218.29 3437.24,3245.44 3434.37,3257.65 C3431.91,3268.94 3427.70,3291.82 3427.01,3297.32 C3426.25,3303.40 3423.71,3345.65 3423.51,3348.92" fill="none" stroke="rgb(161, 156, 198)" stroke-width="414.70" stroke-opacity="1.00" stroke-linejoin="round"/>
</g>
</svg>
