<?xml version="1.0" encoding="UTF-8" standalone="no"?>
<!DOCTYPE svg PUBLIC "-//W3C//DTD SVG 1.1//EN" "http://www.w3.org/Graphics/SVG/1.1/DTD/svg11.dtd">
<svg width="3600.00" height="6000.00" viewBox="0.00 0.00 3600.00 6000.00" xmlns="http://www.w3.org/2000/svg" xmlns:xlink="http://www.w3.org/1999/xlink">
<g stroke-linecap="round" id="ground_3">
<path d="M3607.35,2754.18 C3612.47,2759.38 3622.29,2769.29 3623.76,2771.75 C3624.67,2773.35 3625.29,2776.28 3624.95,2777.47 C3624.49,2778.85 3623.29,2780.02 3621.95,2780.57 C3615.56,2782.96 3607.89,2785.03 3600.88,2786.26 C3593.27,2787.58 3548.47,2793.05 3530.36,2795.91 C3513.00,2799.07 3481.89,2805.87 3466.37,2809.76 C3435.59,2818.40 3374.98,2835.87 3345.16,2844.69 C3314.80,2854.28 3252.81,2874.41 3224.39,2884.48 C3193.61,2895.76 3132.49,2918.55 3102.16,2930.05 C3078.39,2939.39 3032.78,2957.57 3010.92,2966.41 C2997.66,2972.17 2967.07,2985.88 2949.75,2993.84 C2912.32,3011.75 2850.38,3041.64 2825.88,3053.62 C2798.17,3067.32 2739.55,3096.42 2708.63,3111.83 C2674.81,3128.79 2608.70,3161.85 2576.42,3177.96 C2547.16,3192.43 2491.65,3219.72 2465.40,3232.54 C2453.41,3238.34 2423.09,3252.86 2404.77,3261.58 C2384.85,3270.84 2348.13,3287.63 2331.32,3295.17 C2303.89,3306.80 2257.36,3325.03 2233.90,3334.08 C2207.70,3343.80 2151.36,3364.22 2121.22,3374.92 C2105.66,3380.24 2074.76,3390.49 2059.42,3395.42 C2044.34,3399.92 2010.92,3409.56 1998.10,3412.79 C1981.32,3416.72 1947.79,3424.15 1931.02,3427.64 C1914.66,3430.68 1883.82,3436.28 1869.34,3438.86 C1856.88,3440.97 1834.49,3444.69 1807.62,3448.12 C1797.21,3449.25 1762.02,3451.70 1753.67,3451.91 C1738.64,3452.19 1707.54,3452.56 1691.64,3452.36 C1679.42,3452.02 1644.73,3449.25 1628.85,3447.49 C1606.13,3444.34 1589.21,3441.14 1567.92,3436.04 C1549.83,3431.22 1518.51,3421.35 1508.30,3417.29 C1494.75,3411.73 1467.01,3399.16 1452.98,3392.19 C1439.00,3384.81 1417.38,3372.54 1398.92,3360.72 C1385.83,3351.94 1359.52,3333.18 1346.48,3323.32 C1330.80,3311.02 1309.38,3292.72 1297.29,3281.97 C1285.15,3270.76 1261.59,3248.77 1250.17,3237.99 C1240.09,3228.22 1220.97,3209.51 1211.94,3200.57 C1203.16,3191.65 1182.57,3169.97 1170.78,3157.22 C1148.18,3131.67 1104.36,3081.58 1083.14,3057.04 C1058.87,3028.74 1013.55,2976.02 992.50,2951.61 C983.57,2941.33 960.89,2915.47 947.14,2899.89 C935.57,2887.19 915.51,2865.71 907.03,2856.93 C889.06,2838.80 845.63,2797.02 821.48,2774.85 C809.44,2764.27 785.12,2744.14 772.62,2734.43 C759.92,2724.89 734.07,2706.41 721.00,2697.56 C705.02,2687.12 680.91,2672.70 667.07,2664.83 C652.92,2657.22 624.35,2642.33 609.94,2635.05 C600.39,2630.42 567.49,2615.76 553.16,2609.53 C538.52,2603.50 509.23,2591.73 494.58,2585.99 C479.74,2580.62 449.74,2570.09 434.59,2564.92 C419.28,2560.00 388.67,2550.47 373.37,2545.86 C358.35,2541.84 328.01,2534.03 312.71,2530.25 C297.22,2526.75 266.03,2520.69 250.32,2518.13 C234.96,2516.09 203.63,2512.84 187.66,2511.64 C171.59,2510.71 139.54,2509.75 123.57,2509.72 C107.66,2510.09 75.63,2511.76 59.48,2513.03 C43.53,2514.56 12.43,2517.72 -2.73,2519.35 C-18.92,2521.42 -51.09,2525.79 -67.08,2528.08 C-82.16,2530.55 -116.17,2536.51 -126.80,2538.82 C-142.93,2542.55 -173.24,2550.58 -187.91,2554.66 C-201.38,2558.69 -236.31,2570.39 -244.52,2573.62 C-251.76,2576.63 -269.46,2584.76 -274.86,2587.51 C-289.50,2595.26 -319.72,2612.48 -334.14,2620.86 C-343.25,2626.22 -343.96,2626.77 -346.20,2628.83" fill="none" stroke="rgb(114, 127, 180)" stroke-width="414.70" stroke-opacity="1.00" stroke-linejoin="round"/>
<path d="M3579.58,2935.45 C3578.83,2955.96 3576.98,3007.36 3576.24,3045.45 C3576.25,3082.75 3576.61,3144.57 3576.96,3169.10 C3577.42,3196.78 3578.44,3255.31 3579.00,3286.16 C3579.67,3320.16 3581.10,3391.34 3581.87,3428.51 C3582.73,3468.28 3584.44,3546.11 3585.29,3584.16 C3586.11,3619.57 3587.71,3687.75 3588.50,3720.52 C3589.26,3750.64 3590.74,3808.26 3591.46,3835.74 C3592.47,3870.75 3594.72,3944.53 3595.97,3983.30 C3597.15,4014.44 3599.44,4069.23 3600.55,4092.88 C3601.67,4117.45 3603.99,4172.21 3605.18,4202.40 C3606.43,4238.23 3608.47,4297.89 3609.25,4321.72 C3609.92,4343.30 3611.29,4387.88 3611.99,4410.88 C3612.70,4435.31 3614.14,4485.59 3614.86,4511.45 C3615.61,4538.73 3617.11,4594.71 3617.88,4623.42 C3618.72,4654.36 3620.56,4719.16 3621.55,4753.03 C3622.68,4789.84 3625.10,4866.40 3626.38,4906.14 C3627.80,4948.82 3630.79,5037.13 3632.36,5082.75 C3633.88,5125.86 3636.42,5197.46 3637.45,5225.94 C3638.52,5255.41 3640.71,5315.33 3641.83,5345.77 C3643.00,5377.20 3645.38,5441.03 3646.59,5473.44 C3647.85,5506.82 3650.43,5574.58 3651.73,5608.94 C3653.09,5644.29 3655.85,5715.96 3657.26,5752.28 C3658.71,5789.59 3661.66,5865.18 3663.16,5903.47 C3664.70,5942.58 3667.74,6019.83 3669.24,6057.96 C3670.69,6094.57 3673.53,6166.27 3674.92,6201.36 C3676.25,6234.92 3678.85,6300.53 3680.13,6332.57 C3681.34,6363.09 3683.71,6422.60 3684.87,6451.59 C3685.97,6479.07 3688.11,6532.49 3689.16,6558.43 C3690.14,6582.86 3692.05,6630.19 3692.98,6653.09 C3694.39,6686.89 3697.71,6764.83 3699.62,6808.98 C3701.27,6845.89 3704.31,6912.64 3705.69,6942.47 C3706.76,6965.60 3708.54,7004.31 3709.26,7019.91" fill="none" stroke="rgb(114, 127, 180)" stroke-width="414.70" stroke-opacity="1.00" stroke-linejoin="round"/>
<path d="M3373.28,2984.34 C3369.15,2993.74 3365.09,3004.27 3361.33,3023.39 C3357.66,3044.06 3355.50,3067.04 3354.49,3080.46 C3353.60,3095.06 3352.48,3129.70 3352.09,3147.47 C3352.14,3172.34 3352.62,3227.78 3353.05,3258.34 C3354.01,3296.60 3355.96,3362.79 3356.94,3390.71 C3358.00,3417.48 3360.30,3473.62 3361.54,3502.98 C3362.95,3534.89 3365.95,3600.82 3367.53,3634.83 C3369.28,3670.80 3372.95,3744.71 3374.87,3782.64 C3376.13,3806.78 3378.59,3853.58 3379.79,3876.22 C3381.05,3899.55 3383.62,3946.88 3384.92,3970.88 C3386.29,3995.56 3389.06,4045.60 3390.48,4070.96 C3391.98,4097.40 3395.25,4154.10 3397.03,4184.36 C3399.12,4218.96 3403.62,4292.49 3406.03,4331.43 C3408.76,4374.70 3414.52,4465.59 3417.56,4513.20 C3420.80,4563.37 3425.73,4639.46 3427.42,4665.39 C3429.18,4692.29 3432.76,4747.07 3434.59,4774.94 C3436.49,4803.79 3440.36,4862.47 3442.33,4892.30 C3444.37,4923.10 3448.52,4985.68 3450.63,5017.45 C3452.82,5050.20 3457.25,5116.68 3459.50,5150.41 C3461.82,5185.11 3466.54,5255.49 3468.93,5291.16 C3471.39,5327.81 3476.39,5402.09 3478.92,5439.72 C3481.51,5478.10 3486.63,5554.14 3489.16,5591.80 C3491.62,5628.44 3496.45,5700.73 3498.83,5736.38 C3501.13,5771.01 3505.65,5839.27 3507.87,5872.90 C3510.02,5905.51 3514.23,5969.74 3516.30,6001.36 C3518.29,6031.96 3522.20,6092.16 3524.11,6121.76 C3525.95,6150.35 3529.55,6206.52 3531.31,6234.10 C3532.99,6260.68 3536.28,6312.82 3537.89,6338.38 C3541.09,6390.12 3547.35,6492.31 3550.40,6542.77 C3553.03,6587.78 3557.87,6672.35 3560.08,6711.92 C3561.87,6746.04 3565.04,6808.84 3566.41,6837.53 C3567.56,6862.94 3569.76,6912.21 3570.82,6936.06 C3571.80,6958.35 3573.67,7001.36 3574.56,7022.09 C3575.37,7041.25 3577.17,7084.84 3578.15,7109.27 C3579.58,7149.31 3582.01,7221.69 3583.01,7254.02 C3583.66,7275.17 3584.33,7297.25 3584.36,7298.19" fill="none" stroke="rgb(114, 127, 180)" stroke-width="414.70" stroke-opacity="1.00" stroke-linejoin="round"/>
<path d="M3187.51,3020.60 C3189.14,3039.84 3193.20,3088.16 3195.60,3125.38 C3197.37,3165.75 3200.06,3233.16 3200.96,3260.22 C3201.81,3290.84 3203.45,3355.50 3204.25,3389.54 C3205.12,3424.06 3206.99,3492.38 3207.99,3526.17 C3209.13,3559.19 3211.57,3624.49 3212.89,3656.76 C3214.34,3688.58 3217.40,3751.77 3219.00,3783.13 C3220.80,3814.52 3224.66,3877.75 3226.71,3909.59 C3229.02,3941.88 3233.73,4004.78 3236.13,4035.39 C3238.75,4066.33 3244.21,4128.83 3247.05,4160.41 C3250.12,4192.56 3256.33,4256.93 3259.48,4289.15 C3262.69,4321.31 3269.17,4385.57 3272.44,4417.67 C3275.69,4448.90 3282.26,4511.58 3285.58,4543.02 C3288.97,4574.74 3295.82,4638.43 3299.28,4670.40 C3302.71,4702.36 3309.52,4766.17 3312.89,4798.02 C3316.22,4829.78 3322.82,4893.49 3326.10,4925.45 C3329.35,4957.81 3335.81,5022.86 3339.03,5055.57 C3342.22,5088.61 3348.50,5154.14 3351.59,5186.62 C3354.54,5217.98 3360.29,5279.58 3363.09,5309.82 C3365.75,5339.24 3370.95,5397.52 3373.49,5426.38 C3375.89,5454.43 3380.58,5509.73 3382.86,5536.97 C3385.13,5565.91 3389.80,5628.66 3392.20,5662.46 C3394.74,5701.14 3399.51,5776.40 3401.75,5812.98 C3403.36,5840.72 3406.62,5898.02 3408.28,5927.58 C3409.99,5958.98 3413.47,6023.61 3415.24,6056.84 C3417.06,6091.90 3420.75,6163.61 3422.61,6200.25 C3424.39,6235.91 3427.83,6305.53 3429.49,6339.51 C3431.03,6371.81 3433.99,6434.72 3435.41,6465.34 C3436.71,6494.28 3439.43,6556.58 3440.85,6589.94 C3442.43,6629.95 3445.27,6705.64 3446.54,6741.31 C3447.51,6772.66 3449.18,6832.12 3449.90,6860.23 C3450.52,6888.09 3451.69,6943.74 3452.23,6971.52 C3452.70,6999.76 3453.60,7064.46 3454.04,7100.92 C3454.35,7137.54 3454.85,7210.51 3455.04,7246.86 C3455.10,7277.69 3455.09,7332.25 3455.02,7355.98 C3454.88,7372.37 3453.59,7385.19 3450.60,7402.83" fill="none" stroke="rgb(114, 127, 180)" stroke-width="414.70" stroke-opacity="1.00" stroke-linejoin="round"/>
<path d="M2997.92,2983.63 C2997.74,3001.70 2997.36,3041.75 2997.15,3063.73 C2996.89,3089.62 2996.35,3145.31 2996.06,3175.10 C2995.73,3208.81 2995.03,3280.02 2994.67,3317.53 C2994.41,3355.71 2994.05,3431.32 2993.95,3468.76 C2994.01,3505.45 2994.31,3578.08 2994.53,3614.02 C2994.93,3649.21 2995.89,3719.35 2996.47,3754.29 C2997.23,3789.17 2998.93,3858.24 2999.87,3892.44 C3000.98,3925.97 3003.38,3992.34 3004.66,4025.18 C3006.12,4057.36 3009.16,4121.07 3010.74,4152.62 C3012.31,4183.66 3015.44,4245.24 3016.99,4275.78 C3018.53,4305.82 3021.59,4365.40 3023.11,4394.94 C3024.63,4424.33 3027.95,4487.92 3029.74,4522.13 C3031.52,4555.87 3035.07,4622.90 3036.84,4656.19 C3038.60,4689.02 3042.11,4754.22 3043.86,4786.58 C3045.55,4818.31 3048.88,4881.01 3050.50,4911.99 C3052.05,4942.22 3055.06,5001.93 3056.54,5031.42 C3057.96,5060.41 3060.80,5118.55 3062.22,5147.71 C3063.57,5176.41 3066.20,5233.34 3067.47,5261.58 C3068.68,5289.35 3071.06,5344.92 3072.24,5372.72 C3073.60,5403.46 3076.56,5468.35 3078.15,5502.51 C3079.97,5540.10 3083.84,5618.69 3085.89,5659.69 C3087.44,5689.99 3090.40,5747.44 3091.82,5774.57 C3093.31,5802.99 3096.39,5861.11 3097.97,5890.81 C3099.63,5921.79 3103.04,5985.03 3104.79,6017.29 C3106.62,6050.83 3110.37,6119.19 3112.28,6154.01 C3114.25,6189.56 3118.15,6260.03 3120.09,6294.96 C3122.00,6329.20 3125.78,6397.01 3127.66,6430.57 C3129.51,6463.46 3133.17,6528.54 3134.98,6560.74 C3136.77,6592.25 3140.30,6654.60 3142.05,6685.44 C3144.21,6723.14 3148.61,6799.97 3150.86,6839.09 C3153.05,6877.06 3157.39,6951.84 3159.53,6988.65 C3161.62,7024.31 3165.75,7094.46 3167.79,7128.96 C3169.75,7161.87 3173.55,7225.31 3175.38,7255.84 C3177.10,7283.99 3180.40,7337.90 3181.99,7363.66 C3183.46,7387.04 3186.27,7431.40 3187.61,7452.38 C3190.47,7491.99 3196.04,7564.84 3198.73,7598.10 C3199.76,7611.38 3201.54,7635.60 3202.29,7646.54 C3203.31,7663.21 3201.84,7682.16 3201.42,7687.67" fill="none" stroke="rgb(114, 127, 180)" stroke-width="414.70" stroke-opacity="1.00" stroke-linejoin="round"/>
<path d="M2850.39,3126.74 C2850.00,3128.91 2849.26,3131.45 2848.03,3135.12 C2842.48,3151.23 2835.28,3175.06 2831.02,3191.12 C2827.43,3205.20 2820.01,3235.21 2816.21,3252.02 C2812.76,3268.79 2806.78,3299.51 2804.24,3313.47 C2801.74,3328.45 2796.78,3359.39 2794.33,3375.34 C2792.03,3392.10 2787.63,3425.92 2785.54,3442.99 C2782.58,3472.50 2776.98,3533.90 2774.35,3565.80 C2772.08,3598.50 2768.16,3661.21 2766.52,3691.22 C2765.26,3720.57 2763.00,3780.98 2762.00,3812.04 C2761.33,3847.53 2760.44,3915.05 2760.22,3947.10 C2760.26,3978.50 2760.49,4044.03 2760.69,4078.16 C2761.01,4113.12 2761.72,4180.09 2762.09,4212.11 C2762.52,4241.09 2763.59,4300.62 2764.25,4331.17 C2764.99,4358.73 2766.62,4411.75 2767.51,4437.20 C2769.04,4469.76 2772.84,4543.94 2775.11,4585.56 C2776.60,4611.06 2779.69,4662.90 2781.28,4689.23 C2783.05,4717.86 2786.76,4777.43 2788.71,4808.37 C2790.84,4841.60 2795.20,4909.59 2797.45,4944.34 C2799.68,4979.04 2804.13,5048.37 2806.36,5082.99 C2808.57,5117.52 2812.97,5186.50 2815.17,5220.95 C2817.30,5254.52 2821.51,5321.36 2823.59,5354.63 C2825.67,5387.98 2829.80,5454.78 2831.87,5488.22 C2833.92,5521.75 2838.01,5588.82 2840.05,5622.35 C2841.98,5654.87 2845.71,5718.61 2847.50,5749.82 C2849.16,5779.73 2852.36,5838.22 2853.88,5866.81 C2855.28,5894.09 2858.35,5956.81 2860.02,5992.26 C2861.44,6025.39 2864.02,6089.35 2865.18,6120.18 C2866.09,6148.73 2867.75,6206.13 2868.50,6234.99 C2869.14,6265.78 2870.30,6329.28 2870.83,6362.00 C2871.23,6395.30 2871.86,6459.59 2872.09,6490.58 C2872.25,6523.20 2872.50,6590.05 2872.59,6624.30 C2872.61,6660.16 2872.56,6732.14 2872.50,6768.24 C2872.35,6801.54 2871.96,6865.22 2871.72,6895.60 C2871.39,6923.06 2870.39,6984.80 2869.72,7019.07 C2868.99,7043.01 2867.42,7086.73 2866.57,7106.50 C2864.63,7137.70 2861.02,7183.25 2859.36,7203.47 C2858.32,7215.34 2854.97,7238.43 2853.35,7248.32" fill="none" stroke="rgb(114, 127, 180)" stroke-width="414.70" stroke-opacity="1.00" stroke-linejoin="round"/>
<path d="M2620.34,3095.14 C2620.07,3114.67 2619.32,3165.93 2618.85,3197.66 C2618.04,3241.02 2616.76,3311.41 2616.29,3338.43 C2615.74,3368.64 2614.57,3432.25 2613.95,3465.65 C2613.29,3500.27 2611.99,3568.49 2611.35,3602.09 C2610.71,3634.66 2609.58,3697.42 2609.09,3727.61 C2608.63,3757.14 2607.74,3815.65 2607.31,3844.64 C2606.97,3873.88 2606.61,3935.60 2606.58,3968.08 C2606.90,4004.09 2607.78,4075.15 2608.36,4110.20 C2608.99,4137.61 2610.40,4194.04 2611.17,4223.06 C2612.10,4253.67 2614.09,4316.48 2615.16,4348.69 C2616.38,4382.47 2618.93,4450.49 2620.27,4484.71 C2621.70,4518.66 2624.68,4586.27 2626.22,4619.94 C2627.86,4653.32 2631.25,4719.81 2632.99,4752.92 C2634.87,4785.50 2638.72,4850.59 2640.70,4883.10 C2642.79,4915.56 2647.08,4980.43 2649.28,5012.83 C2651.58,5045.19 2656.28,5109.77 2658.67,5141.99 C2661.08,5173.77 2665.89,5236.85 2668.29,5268.15 C2670.70,5298.98 2675.53,5360.17 2677.94,5390.52 C2680.41,5420.92 2685.45,5482.51 2688.03,5513.69 C2690.63,5544.60 2695.83,5606.13 2698.43,5636.75 C2701.05,5667.09 2706.31,5727.51 2708.94,5757.60 C2711.62,5788.38 2717.06,5851.04 2719.82,5882.92 C2722.64,5915.92 2728.36,5983.03 2731.25,6017.14 C2734.13,6051.37 2739.39,6113.85 2741.77,6142.09 C2744.19,6171.13 2749.08,6229.98 2751.55,6259.81 C2754.07,6290.42 2759.15,6352.43 2761.71,6383.83 C2764.32,6416.02 2769.57,6481.03 2772.20,6513.86 C2774.79,6546.87 2779.93,6613.04 2782.47,6646.19 C2784.96,6679.50 2789.90,6746.28 2792.35,6779.74 C2794.75,6813.35 2799.52,6881.11 2801.89,6915.27 C2804.29,6950.82 2809.05,7022.19 2811.40,7058.00 C2813.70,7094.09 2818.26,7166.52 2820.51,7202.87 C2822.72,7239.49 2827.08,7312.93 2829.24,7349.75 C2831.25,7384.57 2835.08,7451.06 2836.91,7482.75 C2838.54,7511.30 2841.62,7565.27 2843.06,7590.70 C2844.32,7612.99 2846.75,7657.45 2847.93,7679.63 C2848.67,7698.16 2849.80,7731.35 2850.19,7746.01 C2850.21,7751.95 2850.14,7766.25 2849.72,7770.78 C2848.89,7779.46 2845.41,7791.91 2845.03,7792.45 C2843.89,7794.01 2841.19,7796.03 2839.47,7796.83" fill="none" stroke="rgb(114, 127, 180)" stroke-width="414.70" stroke-opacity="1.00" stroke-linejoin="round"/>
<path d="M2439.00,3379.56 C2438.55,3384.88 2437.47,3397.04 2435.78,3407.43 C2433.73,3418.87 2428.96,3444.66 2425.93,3463.16 C2421.02,3498.32 2414.02,3558.06 2410.37,3590.62 C2407.04,3625.36 2401.32,3691.04 2398.93,3721.97 C2396.93,3753.64 2393.17,3817.19 2391.40,3849.08 C2389.93,3879.60 2387.25,3940.08 2386.04,3970.03 C2384.98,4001.16 2383.07,4066.49 2382.22,4100.69 C2381.78,4130.44 2381.09,4190.48 2380.83,4220.77 C2380.70,4253.19 2380.69,4318.87 2380.80,4352.13 C2381.20,4385.74 2382.28,4450.63 2382.96,4481.89 C2383.89,4512.87 2385.99,4575.47 2387.16,4607.10 C2388.56,4639.21 2391.60,4703.64 2393.23,4735.95 C2395.10,4768.47 2399.11,4832.52 2401.25,4864.04 C2403.63,4896.26 2408.65,4961.42 2411.28,4994.35 C2414.03,5027.08 2419.48,5091.09 2422.18,5122.36 C2424.83,5152.15 2430.15,5210.53 2432.82,5239.10 C2435.50,5266.80 2440.85,5321.32 2443.52,5348.13 C2446.36,5375.58 2452.86,5436.19 2456.51,5469.37 C2461.02,5508.69 2469.56,5582.17 2473.59,5616.34 C2476.68,5642.09 2483.11,5695.41 2486.45,5722.97 C2490.03,5752.34 2497.45,5812.89 2501.27,5844.07 C2505.35,5877.05 2513.70,5944.58 2517.99,5979.12 C2522.26,6013.67 2530.77,6082.55 2535.00,6116.87 C2539.18,6150.96 2547.51,6218.89 2551.65,6252.74 C2555.74,6286.35 2563.98,6354.06 2568.12,6388.17 C2572.31,6422.84 2580.66,6492.04 2584.81,6526.57 C2588.93,6560.96 2597.12,6629.60 2601.20,6663.85 C2605.24,6697.96 2613.23,6765.59 2617.18,6799.11 C2620.92,6830.97 2628.21,6892.96 2631.74,6923.09 C2635.07,6951.51 2641.51,7006.62 2644.62,7033.32 C2647.53,7058.29 2655.13,7123.93 2659.83,7164.59 C2663.85,7199.77 2671.22,7264.66 2674.57,7294.38 C2677.51,7321.09 2683.44,7375.95 2686.43,7404.08 C2689.48,7433.71 2695.70,7495.13 2698.86,7526.92 C2702.16,7561.06 2708.87,7631.50 2712.29,7667.79 C2715.65,7704.03 2721.78,7770.40 2724.55,7800.54 C2726.72,7824.23 2731.24,7876.97 2733.08,7906.21 C2733.36,7913.23 2733.81,7928.15 2733.99,7936.04 C2734.16,7946.36 2733.34,7960.74 2731.82,7967.11 C2730.43,7972.79 2724.90,7984.02 2723.88,7986.10 C2720.54,7984.89 2715.00,7983.01 2713.08,7981.87 C2709.96,7979.98 2705.59,7975.03 2703.18,7971.55 C2700.10,7966.88 2693.49,7953.72 2690.41,7945.70 C2685.72,7933.35 2675.89,7897.36 2671.86,7880.53 C2668.29,7864.51 2661.90,7834.94 2658.05,7814.25 C2656.71,7805.90 2654.21,7788.32 2654.09,7787.49" fill="none" stroke="rgb(114, 127, 180)" stroke-width="414.70" stroke-opacity="1.00" stroke-linejoin="round"/>
<path d="M2312.41,3430.24 C2311.85,3431.83 2309.54,3437.55 2308.64,3439.77 C2301.94,3456.14 2295.36,3476.28 2290.49,3494.32 C2286.06,3511.60 2280.09,3540.10 2276.46,3560.68 C2272.23,3588.35 2264.45,3649.07 2260.53,3681.58 C2258.76,3698.67 2255.40,3733.06 2253.81,3750.38 C2251.51,3782.30 2247.48,3846.90 2245.75,3879.58 C2244.42,3911.33 2242.09,3973.18 2241.09,4003.27 C2240.52,4033.02 2239.76,4092.32 2239.57,4121.87 C2239.91,4157.64 2240.91,4221.22 2241.56,4249.03 C2242.44,4279.15 2244.44,4342.44 2245.56,4375.62 C2246.99,4409.71 2250.19,4478.01 2251.95,4512.22 C2254.03,4544.76 2258.50,4609.31 2260.88,4641.33 C2263.59,4673.99 2269.25,4739.55 2272.21,4772.46 C2275.17,4804.06 2281.08,4865.80 2284.02,4895.95 C2287.05,4925.01 2293.22,4982.56 2296.36,5011.04 C2299.56,5038.88 2306.13,5094.60 2309.50,5122.49 C2313.65,5154.51 2322.81,5223.38 2327.84,5260.23 C2332.63,5294.07 2340.79,5351.18 2344.16,5374.45 C2347.78,5399.13 2355.26,5449.89 2359.13,5475.97 C2363.24,5503.46 2371.71,5559.85 2376.06,5588.75 C2380.67,5619.11 2390.14,5681.80 2395.01,5714.13 C2400.14,5748.57 2410.68,5819.56 2416.08,5856.12 C2421.74,5894.78 2433.34,5974.23 2439.27,6015.00 C2444.69,6052.48 2454.40,6119.75 2458.69,6149.54 C2463.11,6180.33 2472.06,6242.89 2476.60,6274.67 C2481.26,6307.43 2490.71,6373.95 2495.49,6407.71 C2500.40,6442.46 2510.34,6512.95 2515.37,6548.68 C2520.52,6585.41 2530.91,6659.56 2536.15,6696.98 C2541.18,6733.05 2550.99,6803.46 2555.77,6837.79 C2560.29,6870.39 2569.07,6933.85 2573.34,6964.71 C2577.34,6993.84 2585.10,7050.36 2588.85,7077.75 C2592.34,7103.41 2599.08,7152.99 2602.31,7176.91 C2607.51,7216.16 2618.40,7299.90 2624.09,7344.38 C2628.26,7379.05 2635.34,7440.10 2638.24,7466.46 C2640.67,7489.57 2645.11,7532.95 2647.13,7553.22 C2648.44,7568.32 2651.06,7601.99 2652.38,7620.55 C2653.17,7636.02 2654.40,7664.41 2654.83,7677.32 C2655.02,7687.25 2654.93,7694.24 2654.18,7707.89 C2653.43,7717.81 2651.10,7731.56 2649.41,7735.72 C2646.71,7742.23 2637.53,7753.75 2634.82,7757.17 C2632.61,7756.25 2624.51,7752.87 2623.49,7752.34 C2619.64,7750.32 2612.90,7743.81 2610.22,7740.22 C2604.96,7733.05 2593.33,7709.04 2592.24,7706.77" fill="none" stroke="rgb(114, 127, 180)" stroke-width="414.70" stroke-opacity="1.00" stroke-linejoin="round"/>
<path d="M2073.30,3435.01 C2074.13,3447.47 2075.59,3476.85 2075.35,3491.21 C2074.92,3513.62 2073.84,3564.37 2073.20,3592.71 C2072.34,3627.01 2070.58,3698.52 2069.67,3735.75 C2068.94,3771.61 2067.65,3841.94 2067.09,3876.41 C2066.74,3910.94 2066.28,3979.55 2066.16,4013.61 C2066.26,4046.35 2066.67,4110.59 2066.98,4142.07 C2067.49,4172.77 2068.71,4233.46 2069.43,4263.45 C2070.41,4293.92 2072.75,4356.28 2074.11,4388.16 C2075.74,4419.48 2079.27,4481.71 2081.17,4512.63 C2083.33,4544.04 2087.91,4607.51 2090.32,4639.58 C2092.98,4670.77 2098.56,4733.28 2101.48,4764.60 C2104.67,4797.06 2111.29,4862.86 2114.72,4896.21 C2118.14,4928.51 2124.94,4991.64 2128.31,5022.48 C2131.63,5051.71 2138.30,5108.65 2141.63,5136.37 C2144.97,5163.23 2151.65,5216.11 2154.99,5242.12 C2158.87,5270.39 2167.83,5333.16 2172.92,5367.66 C2179.23,5408.39 2190.69,5481.39 2195.85,5513.66 C2200.10,5539.72 2208.93,5593.64 2213.52,5621.49 C2218.44,5651.12 2228.63,5712.16 2233.89,5743.58 C2239.50,5776.78 2251.03,5844.88 2256.96,5879.79 C2262.88,5914.71 2274.61,5983.91 2280.40,6018.17 C2286.06,6051.77 2297.25,6118.30 2302.78,6151.24 C2308.18,6183.51 2318.84,6247.38 2324.10,6278.98 C2330.01,6314.59 2341.77,6385.70 2347.63,6421.20 C2353.32,6455.93 2364.54,6524.60 2370.06,6558.56 C2375.42,6591.73 2385.96,6657.25 2391.15,6689.60 C2396.12,6720.69 2405.82,6781.53 2410.56,6811.28 C2415.08,6839.69 2423.87,6895.17 2428.16,6922.23 C2432.22,6947.95 2442.12,7011.00 2447.97,7048.33 C2453.28,7082.59 2463.38,7148.04 2468.16,7179.23 C2472.50,7207.89 2481.16,7265.54 2485.49,7294.53 C2489.88,7324.26 2498.72,7384.53 2503.17,7415.08 C2507.84,7447.81 2517.32,7514.54 2522.12,7548.54 C2527.05,7583.82 2536.74,7653.63 2541.49,7688.16 C2545.53,7718.31 2552.86,7774.19 2556.16,7799.91 C2557.92,7814.65 2561.85,7850.87 2564.02,7872.36 C2565.43,7889.72 2566.85,7917.07 2567.37,7929.76 C2567.75,7947.50 2567.21,7968.36 2564.35,7985.73 C2563.78,7988.91 2562.67,7994.85 2562.11,7997.61 C2561.57,8000.36 2558.79,8007.24 2557.25,8009.82 C2555.13,8013.24 2551.01,8017.06 2547.34,8018.60 C2545.38,8019.38 2542.47,8019.65 2540.52,8019.29 C2536.79,8018.49 2530.81,8015.32 2527.88,8012.91 C2522.41,8008.30 2512.72,7996.92 2507.40,7989.08 C2505.16,7985.71 2501.47,7980.17 2500.03,7977.99" fill="none" stroke="rgb(114, 127, 180)" stroke-width="414.70" stroke-opacity="1.00" stroke-linejoin="round"/>
<path d="M1901.22,3534.59 C1900.24,3535.88 1898.44,3538.61 1897.64,3540.11 C1897.42,3540.54 1890.57,3558.91 1889.27,3563.43 C1886.63,3572.73 1884.09,3585.88 1882.55,3595.85 C1880.71,3609.06 1877.17,3640.31 1875.45,3656.85 C1874.10,3674.47 1872.05,3705.80 1871.36,3719.52 C1870.95,3732.24 1870.31,3758.23 1870.06,3771.50 C1869.97,3800.82 1871.44,3873.92 1872.45,3910.92 C1873.52,3938.87 1875.96,3998.50 1877.33,4030.18 C1878.97,4065.19 1882.40,4134.66 1884.18,4169.10 C1886.06,4201.93 1890.02,4267.36 1892.11,4299.95 C1894.54,4333.22 1899.52,4398.11 1902.09,4429.74 C1904.80,4460.22 1910.41,4521.64 1913.30,4552.57 C1916.38,4584.10 1922.63,4646.22 1925.81,4676.81 C1929.17,4708.13 1936.08,4771.63 1939.64,4803.80 C1943.33,4836.22 1950.80,4900.78 1954.58,4932.92 C1958.45,4964.73 1966.32,5027.98 1970.33,5059.42 C1974.47,5091.02 1982.87,5154.34 1987.14,5186.08 C1991.49,5217.66 2000.27,5280.53 2004.69,5311.81 C2009.27,5343.17 2018.79,5407.12 2023.74,5439.71 C2028.87,5472.66 2039.27,5538.75 2044.54,5571.88 C2049.59,5603.22 2059.36,5663.61 2064.08,5692.65 C2068.70,5720.48 2077.90,5775.34 2082.49,5802.38 C2086.85,5827.69 2095.94,5879.60 2100.67,5906.20 C2107.19,5941.48 2122.09,6021.05 2130.48,6065.34 C2134.86,6088.16 2144.01,6135.70 2148.78,6160.43 C2153.94,6187.07 2164.65,6242.26 2170.20,6270.81 C2176.14,6301.27 2188.41,6364.10 2194.74,6396.48 C2201.33,6430.16 2214.60,6498.08 2221.29,6532.31 C2228.07,6567.09 2241.71,6637.21 2248.59,6672.54 C2255.55,6708.42 2269.58,6780.72 2276.63,6817.15 C2283.32,6851.72 2296.72,6921.04 2303.43,6955.79 C2310.23,6991.07 2323.92,7062.14 2330.81,7097.94 C2337.78,7134.26 2351.82,7207.42 2358.88,7244.26 C2365.98,7281.37 2379.69,7353.09 2386.30,7387.71 C2392.29,7419.11 2403.64,7478.69 2409.00,7506.88 C2413.73,7531.85 2422.57,7578.57 2426.68,7600.32 C2430.16,7618.86 2436.53,7652.87 2437.62,7667.03 C2438.07,7673.06 2438.21,7686.40 2436.75,7695.61 C2436.08,7699.74 2434.09,7708.17 2433.83,7708.62 C2433.16,7709.73 2430.84,7711.17 2429.58,7711.21 C2427.29,7711.22 2422.70,7708.00 2420.45,7706.42 C2416.24,7703.26 2411.96,7699.67 2408.88,7696.36 C2403.76,7690.82 2393.83,7676.36 2389.23,7668.44 C2385.23,7661.42 2379.30,7651.02 2377.39,7647.66" fill="none" stroke="rgb(114, 127, 180)" stroke-width="414.70" stroke-opacity="1.00" stroke-linejoin="round"/>
<path d="M1715.45,3536.98 C1713.15,3568.82 1711.08,3611.96 1709.93,3636.11 C1708.47,3667.00 1705.36,3734.41 1703.71,3770.94 C1702.42,3807.28 1700.29,3878.93 1699.46,3914.24 C1699.12,3948.49 1698.94,4016.13 1699.09,4049.52 C1699.71,4082.11 1701.35,4146.49 1702.39,4178.27 C1703.66,4209.13 1706.42,4269.92 1707.91,4299.85 C1709.78,4331.02 1713.99,4394.61 1716.32,4427.03 C1718.96,4458.54 1724.53,4521.10 1727.46,4552.15 C1730.63,4583.60 1737.22,4646.74 1740.64,4678.43 C1744.32,4709.55 1751.97,4772.83 1755.93,4804.97 C1760.16,4838.06 1768.62,4903.34 1772.84,4935.55 C1776.96,4966.12 1785.15,5025.83 1789.23,5054.96 C1793.37,5083.30 1801.63,5139.08 1805.75,5166.52 C1809.97,5193.80 1819.38,5253.22 1824.58,5285.36 C1830.90,5323.30 1842.65,5393.08 1848.08,5424.92 C1852.44,5450.18 1861.51,5502.51 1866.22,5529.57 C1871.26,5558.43 1881.70,5617.96 1887.09,5648.63 C1892.83,5681.08 1904.46,5747.03 1910.36,5780.54 C1916.33,5814.68 1928.36,5883.62 1934.41,5918.41 C1940.53,5953.85 1952.86,6025.36 1959.06,6061.43 C1964.70,6094.39 1975.82,6159.61 1981.31,6191.87 C1986.86,6224.68 1998.03,6290.84 2003.65,6324.20 C2009.33,6358.10 2020.75,6426.45 2026.49,6460.90 C2032.25,6495.58 2043.51,6563.48 2049.02,6596.71 C2054.24,6628.22 2064.38,6689.55 2069.31,6719.36 C2073.94,6747.46 2082.93,6801.96 2087.27,6828.36 C2092.59,6860.78 2105.11,6937.40 2112.32,6981.60 C2118.30,7018.69 2129.07,7085.93 2133.87,7116.08 C2137.86,7141.83 2145.16,7189.74 2148.48,7211.91 C2149.89,7221.65 2153.38,7247.61 2155.46,7263.82 C2157.51,7282.29 2160.32,7314.03 2161.18,7327.53 C2161.43,7333.52 2161.89,7347.91 2161.59,7352.44 C2160.96,7361.68 2158.41,7373.49 2156.32,7381.30 C2155.54,7384.30 2151.15,7391.21 2148.82,7392.62 C2147.98,7393.11 2144.34,7393.97 2143.02,7394.14 C2141.04,7394.34 2139.22,7394.09 2137.53,7393.38 C2134.37,7391.97 2129.74,7388.36 2127.87,7385.98 C2125.19,7382.61 2114.89,7368.34 2111.31,7362.06 C2106.93,7354.32 2099.60,7337.80 2096.31,7329.63 C2092.64,7319.88 2083.44,7293.81 2082.16,7290.17" fill="none" stroke="rgb(114, 127, 180)" stroke-width="414.70" stroke-opacity="1.00" stroke-linejoin="round"/>
<path d="M1485.81,3405.20 C1487.04,3423.07 1487.86,3444.33 1487.95,3460.19 C1487.96,3488.21 1487.87,3552.24 1487.76,3588.25 C1487.77,3621.91 1488.10,3689.36 1488.41,3723.16 C1489.02,3754.08 1490.63,3815.76 1491.63,3846.52 C1493.02,3875.90 1496.19,3934.94 1497.97,3964.60 C1500.31,3996.54 1505.86,4064.01 1509.05,4099.54 C1512.23,4128.69 1519.13,4189.58 1522.86,4221.33 C1527.09,4255.26 1535.59,4322.10 1539.87,4355.02 C1544.11,4386.23 1552.38,4445.15 1556.42,4472.86 C1560.47,4499.45 1568.63,4551.80 1572.74,4577.57 C1577.72,4606.62 1589.38,4672.10 1596.05,4708.52 C1603.86,4749.44 1616.55,4815.35 1621.42,4840.35 C1626.74,4867.34 1637.82,4923.33 1643.58,4952.32 C1649.78,4983.30 1662.64,5047.27 1669.29,5080.26 C1676.35,5115.05 1690.44,5184.40 1697.47,5218.97 C1704.37,5252.79 1718.04,5319.67 1724.81,5352.73 C1731.44,5385.04 1744.57,5448.90 1751.07,5480.45 C1757.71,5512.61 1771.01,5577.03 1777.67,5609.30 C1784.20,5640.85 1797.13,5703.26 1803.53,5734.11 C1809.79,5764.26 1822.20,5823.89 1828.33,5853.37 C1834.41,5883.16 1846.55,5943.50 1852.61,5974.05 C1858.65,6005.35 1870.71,6068.72 1876.73,6100.78 C1882.73,6133.60 1894.16,6197.05 1899.61,6227.67 C1904.91,6258.30 1915.53,6320.25 1920.83,6351.57 C1926.12,6383.56 1936.70,6448.25 1941.99,6480.93 C1947.27,6514.29 1957.77,6581.23 1962.98,6614.80 C1968.00,6647.50 1977.83,6712.03 1982.64,6743.84 C1987.26,6774.76 1996.28,6835.69 2000.69,6865.71 C2004.90,6894.84 2014.25,6960.51 2019.38,6997.05 C2024.55,7034.83 2034.50,7108.77 2039.29,7144.92 C2043.71,7179.45 2052.17,7246.71 2056.20,7279.44 C2059.75,7309.47 2066.37,7366.73 2069.44,7393.95 C2072.01,7418.34 2076.79,7465.01 2079.87,7502.80 C2081.18,7524.08 2083.28,7564.29 2083.74,7581.64 C2084.06,7608.32 2084.49,7643.47 2084.61,7651.94" fill="none" stroke="rgb(114, 127, 180)" stroke-width="414.70" stroke-opacity="1.00" stroke-linejoin="round"/>
<path d="M95.93,2601.84 C94.90,2603.21 93.39,2605.99 92.80,2607.79 C92.40,2609.05 84.06,2692.64 80.60,2730.06 C78.67,2754.57 74.49,2808.33 72.24,2837.57 C69.69,2871.53 64.55,2941.20 61.96,2976.92 C59.56,3012.08 54.94,3081.82 52.72,3116.40 C50.90,3148.16 47.43,3211.30 45.77,3242.68 C44.28,3273.85 41.44,3336.07 40.09,3367.13 C38.90,3398.89 36.65,3463.27 35.60,3495.88 C34.69,3529.34 33.19,3592.79 32.60,3622.78 C32.13,3653.66 31.28,3716.30 30.92,3748.06 C30.66,3780.71 30.26,3846.40 30.12,3879.44 C30.08,3912.20 30.12,3977.41 30.19,4009.87 C30.37,4042.03 30.93,4105.39 31.31,4136.58 C31.82,4167.87 32.94,4230.76 33.56,4262.36 C34.28,4294.28 35.83,4358.40 36.66,4390.60 C37.57,4422.83 39.48,4487.22 40.47,4519.39 C41.54,4551.50 43.76,4615.67 44.91,4647.72 C45.85,4671.85 47.73,4719.06 48.68,4742.15 C49.66,4765.33 51.67,4811.79 52.70,4835.06 C53.76,4858.43 55.93,4905.27 57.04,4928.74 C58.23,4953.33 60.89,5007.54 62.35,5037.16 C64.11,5072.16 67.90,5147.57 69.94,5187.97 C72.26,5233.76 77.20,5330.74 79.82,5381.92 C82.08,5426.10 85.69,5496.19 87.03,5522.11 C88.43,5549.08 91.27,5604.08 92.73,5632.11 C94.23,5661.20 97.30,5720.42 98.86,5750.56 C100.48,5781.76 103.77,5845.21 105.44,5877.46 C107.17,5910.77 110.69,5978.44 112.47,6012.81 C114.31,6048.23 118.04,6120.13 119.94,6156.60 C121.89,6194.13 125.84,6270.26 127.85,6308.84 C129.91,6348.46 134.00,6427.29 136.04,6466.50 C138.00,6504.50 141.87,6579.29 143.77,6616.09 C145.60,6651.67 149.19,6721.61 150.95,6755.98 C152.64,6789.14 155.96,6854.25 157.58,6886.19 C159.14,6916.93 162.18,6977.19 163.67,7006.72 C165.09,7035.03 167.86,7090.45 169.21,7117.55 C170.49,7143.45 172.99,7194.02 174.20,7218.70 C175.35,7242.17 178.91,7317.18 181.33,7368.71 C183.41,7415.45 187.14,7501.97 188.79,7541.77 C190.00,7574.64 192.09,7634.62 192.97,7661.74 C193.72,7685.23 195.07,7728.62 195.68,7748.52 C196.16,7764.84 197.10,7797.66 196.47,7827.68" fill="none" stroke="rgb(114, 127, 180)" stroke-width="414.70" stroke-opacity="1.00" stroke-linejoin="round"/>
<path d="M2.28,5937.58 C26.14,5946.21 67.10,5960.84 84.37,5966.40 C101.83,5971.51 131.15,5978.99 149.38,5982.78 C164.21,5985.54 194.44,5990.23 209.87,5992.18 C225.83,5993.87 258.49,5996.97 275.19,5998.36 C290.97,5999.33 322.23,6001.00 337.72,6001.69 C370.70,6002.49 436.01,6003.50 468.33,6003.72 C497.63,6003.48 554.62,6002.66 582.32,6002.09 C612.03,6001.38 680.19,6000.24 718.63,5999.81 C743.34,5999.67 793.94,5999.49 819.84,5999.44 C848.24,5999.49 907.60,5999.66 938.56,5999.79 C972.70,6000.08 1044.27,6000.81 1081.72,6001.25 C1122.47,6001.86 1195.55,6003.03 1227.86,6003.58 C1260.30,6004.19 1326.90,6005.49 1361.05,6006.18 C1396.90,6006.95 1470.32,6008.57 1507.88,6009.42 C1545.11,6010.30 1615.98,6011.98 1649.63,6012.78 C1679.65,6013.52 1736.07,6014.91 1762.47,6015.56 C1785.25,6016.15 1844.94,6017.87 1881.85,6019.01 C1909.23,6019.88 1993.81,6021.99 2004.52,6021.32 C2008.21,6021.08 2013.33,6020.17 2014.76,6019.51 C2015.38,6019.19 2016.38,6018.29 2016.40,6017.94 C2016.38,6017.18 2013.33,6014.56 2010.75,6013.12 C2005.28,6010.09 1986.34,6002.81 1977.42,6000.56 C1968.33,5998.31 1950.23,5996.58 1941.55,5997.25 C1937.07,5997.61 1913.58,6001.80 1912.64,6001.97" fill="none" stroke="rgb(114, 127, 180)" stroke-width="414.70" stroke-opacity="1.00" stroke-linejoin="round"/>
<path d="M1292.79,3349.75 C1296.72,3354.14 1306.68,3365.26 1312.71,3371.99 C1319.29,3379.45 1329.51,3393.71 1331.90,3399.33 C1333.47,3403.09 1335.48,3410.07 1335.98,3413.52 C1336.20,3415.08 1337.10,3456.34 1337.53,3467.56 C1338.49,3490.45 1340.61,3540.47 1341.77,3567.60 C1343.13,3598.98 1346.04,3665.97 1347.60,3701.58 C1349.36,3741.43 1352.89,3821.22 1354.66,3861.17 C1356.30,3897.99 1359.45,3968.47 1360.96,4002.14 C1362.35,4032.68 1364.98,4090.60 1366.23,4118.00 C1367.89,4154.35 1371.12,4224.47 1372.70,4258.23 C1373.92,4282.99 1376.10,4326.99 1377.06,4346.24 C1378.09,4374.71 1380.27,4442.51 1381.41,4481.85 C1382.31,4516.80 1383.79,4575.74 1384.38,4599.71 C1384.99,4625.75 1386.24,4679.88 1386.88,4707.97 C1387.54,4738.12 1388.90,4800.48 1389.58,4832.68 C1390.30,4866.95 1391.75,4937.45 1392.49,4973.69 C1393.27,5010.03 1394.86,5082.04 1395.68,5117.72 C1396.53,5152.74 1398.29,5222.11 1399.19,5256.46 C1400.13,5290.15 1402.05,5356.87 1403.03,5389.90 C1404.05,5422.27 1406.25,5489.40 1407.43,5524.17 C1408.66,5558.24 1411.19,5625.70 1412.48,5659.09 C1413.83,5691.78 1416.58,5756.48 1417.98,5788.48 C1419.44,5819.79 1422.42,5881.81 1423.93,5912.51 C1425.47,5943.22 1428.57,6004.78 1430.13,6035.63 C1431.71,6066.62 1434.89,6128.74 1436.49,6159.87 C1438.11,6191.14 1441.38,6253.83 1443.02,6285.24 C1444.79,6318.81 1448.37,6386.44 1450.18,6420.51 C1452.02,6454.80 1455.72,6523.60 1457.59,6558.10 C1459.48,6592.83 1463.28,6662.50 1465.20,6697.44 C1467.11,6731.91 1470.88,6798.99 1472.73,6831.61 C1474.52,6862.34 1478.05,6921.92 1479.78,6950.76 C1481.45,6977.71 1484.74,7029.74 1486.35,7054.80 C1489.46,7099.48 1495.91,7186.71 1499.24,7229.26 C1502.22,7261.56 1507.61,7318.35 1510.01,7342.83 C1511.74,7360.47 1513.78,7381.46 1514.11,7384.80" fill="none" stroke="rgb(114, 127, 180)" stroke-width="414.70" stroke-opacity="1.00" stroke-linejoin="round"/>
<path d="M1639.57,4948.36 C1637.01,4957.31 1635.74,4963.89 1635.10,4971.87 C1634.28,4984.74 1632.65,5013.91 1632.02,5032.22 C1631.44,5057.35 1631.63,5113.89 1631.78,5140.00 C1632.10,5171.29 1632.86,5237.59 1633.32,5272.58 C1633.90,5308.90 1635.16,5382.29 1635.85,5419.37 C1636.53,5449.71 1637.99,5511.30 1638.76,5542.55 C1639.61,5574.71 1641.41,5639.80 1642.36,5672.74 C1643.44,5705.44 1645.75,5770.33 1646.98,5802.53 C1648.36,5834.24 1651.39,5898.82 1653.04,5931.69 C1654.91,5964.69 1658.84,6030.26 1660.90,6062.84 C1663.13,6094.97 1667.73,6158.58 1670.10,6190.05 C1672.60,6220.78 1677.71,6281.49 1680.32,6311.47 C1683.54,6345.18 1690.21,6412.40 1693.66,6445.91 C1697.30,6478.58 1704.67,6542.59 1708.42,6573.93 C1712.21,6603.47 1720.11,6662.54 1724.22,6692.08 C1727.27,6712.17 1733.42,6751.39 1736.51,6770.53 C1742.68,6805.57 1753.51,6866.27 1758.16,6891.92 C1759.01,6896.60 1760.58,6905.26 1761.29,6909.25" fill="none" stroke="rgb(114, 127, 180)" stroke-width="414.70" stroke-opacity="1.00" stroke-linejoin="round"/>
<path d="M125.45,2716.50 C127.96,2719.17 132.13,2723.69 134.78,2725.16 C137.88,2726.86 144.85,2728.33 146.14,2728.61 C157.95,2730.97 189.50,2736.39 206.91,2739.25 C225.04,2742.45 265.80,2750.93 275.62,2753.47 C291.25,2757.78 323.93,2768.19 335.13,2772.35 C349.39,2778.00 378.94,2790.06 394.24,2796.48 C407.81,2802.51 434.79,2814.74 448.19,2820.95 C462.32,2827.68 491.03,2841.63 505.62,2848.85 C520.29,2856.45 549.71,2872.05 564.45,2880.04 C577.67,2887.65 604.32,2903.26 617.74,2911.26 C631.36,2919.64 658.72,2936.72 672.45,2945.43 C686.10,2954.31 713.29,2972.26 726.84,2981.32 C753.05,2999.44 804.19,3036.61 829.81,3055.56 C842.54,3065.28 867.81,3084.77 880.36,3094.53 C892.72,3104.34 917.38,3124.20 929.69,3134.24 C954.20,3154.93 1002.84,3196.76 1026.97,3217.91 C1038.72,3228.52 1062.01,3249.73 1073.55,3260.34 C1085.30,3271.50 1108.77,3294.05 1120.49,3305.44 C1143.63,3328.56 1188.07,3373.39 1209.38,3395.10 C1229.95,3416.55 1269.72,3458.55 1288.93,3479.10 C1299.43,3490.85 1321.71,3516.21 1333.50,3529.83 C1353.37,3553.63 1394.31,3603.29 1415.37,3629.16 C1437.56,3656.84 1478.83,3708.56 1497.91,3732.61 C1519.30,3760.20 1559.57,3812.86 1575.35,3834.58 C1583.29,3845.94 1599.83,3870.12 1608.43,3882.94 C1627.96,3913.26 1658.40,3962.13 1669.17,3979.47" fill="none" stroke="rgb(114, 127, 180)" stroke-width="414.70" stroke-opacity="1.00" stroke-linejoin="round"/>
<path d="M37.90,3478.54 C39.72,3480.83 42.01,3481.89 46.80,3482.79 C61.67,3485.42 88.41,3485.72 98.87,3485.83 C124.90,3486.02 183.75,3486.37 216.57,3486.53 C255.31,3486.66 330.85,3486.92 367.64,3487.06 C400.62,3487.23 465.95,3487.60 498.30,3487.82 C537.22,3488.25 605.65,3489.22 635.14,3489.75 C662.21,3490.68 717.85,3493.13 746.43,3494.65 C778.19,3496.98 843.21,3502.29 876.47,3505.26 C908.24,3508.35 970.27,3514.62 1000.54,3517.81 C1030.20,3521.26 1089.30,3528.49 1118.73,3532.28 C1154.38,3537.56 1219.94,3547.77 1249.85,3552.69 C1283.59,3558.49 1352.70,3570.63 1388.07,3576.96 C1418.43,3582.81 1475.04,3594.08 1516.34,3603.47 C1539.81,3609.45 1562.54,3616.30 1577.75,3621.78 C1583.43,3623.95 1594.16,3628.34 1599.22,3630.55 C1606.73,3634.00 1618.30,3639.97 1626.38,3645.25 C1633.19,3649.74 1653.34,3666.62 1655.95,3668.78" fill="none" stroke="rgb(114, 127, 180)" stroke-width="414.70" stroke-opacity="1.00" stroke-linejoin="round"/>
<path d="M1409.93,3631.79 C1400.50,3630.45 1394.80,3628.65 1385.10,3625.17 C1354.13,3613.73 1292.30,3591.07 1261.46,3579.85 C1253.19,3577.07 1235.83,3571.42 1228.35,3569.25 C1222.04,3567.53 1190.44,3563.04 1174.42,3560.84 C1146.00,3556.93 1082.73,3548.14 1047.89,3543.26 C1030.90,3540.75 997.79,3535.66 981.66,3533.09 C965.51,3530.36 933.21,3524.76 917.06,3521.89 C901.27,3518.90 870.30,3512.81 855.12,3509.72 C826.57,3503.43 775.68,3490.73 751.32,3483.98 C737.30,3479.81 705.69,3470.13 688.11,3464.62 C653.25,3453.26 590.90,3432.66 563.40,3423.43 C532.02,3412.77 465.81,3390.15 430.98,3378.19 C398.16,3366.63 336.15,3344.41 306.97,3333.75 C293.73,3328.75 262.60,3316.75 244.70,3309.74 C224.04,3301.19 185.33,3284.73 169.01,3277.25 C151.49,3268.79 87.18,3235.52 80.06,3230.83 C73.22,3226.30 64.78,3218.72 64.12,3218.11 C61.64,3215.69 60.22,3211.58 59.04,3205.11 C61.52,3204.43 68.76,3202.43 71.99,3202.12 C77.46,3201.62 107.75,3204.70 119.52,3206.39 C155.44,3212.56 222.22,3224.41 253.09,3230.09 C290.47,3237.12 360.72,3250.16 393.59,3256.18 C407.23,3258.58 440.16,3264.10 459.44,3267.23 C487.07,3271.05 507.18,3272.41 517.87,3272.45 C523.00,3272.36 535.31,3271.79 543.89,3270.25 C552.21,3268.73 565.66,3264.06 571.33,3260.84 C573.96,3259.28 578.67,3253.45 579.89,3250.16 C580.80,3247.62 582.25,3239.32 582.34,3236.49 C582.42,3233.25 581.61,3221.91 581.59,3220.22 C581.58,3215.85 583.15,3209.58 585.29,3206.32 C587.38,3203.25 593.31,3198.31 597.15,3196.50 C600.69,3194.89 613.48,3192.69 621.19,3193.04 C630.68,3193.51 648.18,3196.15 654.74,3197.17 C687.13,3203.00 754.62,3216.55 792.01,3224.98 C798.05,3226.42 807.14,3228.58 810.19,3229.30 C801.15,3224.99 777.91,3214.03 759.63,3206.03 C728.18,3193.22 664.48,3167.71 632.23,3154.99 C620.35,3150.08 584.25,3134.41 576.88,3130.52 C566.17,3124.72 540.02,3111.38 530.83,3107.06 C509.35,3097.02 461.43,3074.69 434.99,3062.40 C403.60,3047.85 335.90,3016.54 299.59,2999.76 C263.68,2983.13 195.97,2951.69 164.18,2936.88 C136.50,2923.89 85.28,2899.72 61.73,2888.54 C39.52,2877.63 -2.08,2856.87 -18.20,2848.38 C-31.06,2841.26 -51.43,2829.19 -60.49,2823.55 C-73.00,2815.47 -91.66,2802.18 -103.41,2790.31 C-105.76,2787.87 -110.12,2783.26 -112.13,2781.09 C-117.15,2775.44 -120.99,2766.76 -122.08,2764.21" fill="none" stroke="rgb(114, 127, 180)" stroke-width="414.70" stroke-opacity="1.00" stroke-linejoin="round"/>
<path d="M166.11,3403.41 C166.87,3405.80 167.55,3409.76 167.82,3411.51 C169.37,3422.06 173.05,3447.26 175.19,3461.91 C177.45,3479.20 181.33,3517.77 182.95,3539.04 C184.23,3561.54 186.75,3608.16 187.98,3632.29 C189.27,3659.60 191.93,3717.40 193.29,3747.89 C194.71,3781.56 197.64,3851.29 199.15,3887.36 C200.83,3923.44 204.37,3995.47 206.22,4031.41 C208.25,4067.22 212.47,4138.68 214.67,4174.33 C216.99,4208.77 221.72,4276.21 224.13,4309.22 C226.70,4342.24 231.99,4408.30 234.72,4441.33 C237.61,4474.38 243.54,4540.50 246.59,4573.56 C249.75,4606.44 256.05,4671.30 259.18,4703.28 C262.27,4734.33 268.41,4795.48 271.46,4825.59 C274.46,4854.75 280.43,4912.14 283.40,4940.36 C286.85,4972.49 293.80,5036.29 297.30,5067.96 C300.75,5098.47 307.62,5158.33 311.03,5187.67 C314.41,5215.85 321.28,5272.72 324.78,5301.40 C328.57,5332.25 336.42,5396.12 340.49,5429.14 C344.85,5464.32 353.68,5535.43 358.15,5571.36 C361.62,5598.93 368.72,5655.25 372.34,5684.00 C376.11,5713.94 383.80,5775.00 387.73,5806.12 C391.80,5838.43 400.09,5904.23 404.32,5937.72 C408.68,5972.31 417.37,6041.20 421.70,6075.52 C425.94,6109.11 434.33,6175.58 438.48,6208.46 C442.55,6240.61 450.58,6304.21 454.55,6335.64 C458.43,6366.36 466.82,6432.59 471.32,6468.10 C476.39,6508.01 486.38,6586.58 491.29,6625.24 C496.04,6662.65 505.38,6736.22 509.97,6772.38 C514.33,6806.75 522.54,6871.64 526.40,6902.16 C529.73,6928.64 535.87,6977.57 538.68,7000.02 C539.89,7009.72 542.17,7028.13 543.25,7036.82 C544.89,7050.17 545.15,7064.04 545.20,7066.43" fill="none" stroke="rgb(114, 127, 180)" stroke-width="414.70" stroke-opacity="1.00" stroke-linejoin="round"/>
<path d="M385.89,3496.43 C383.54,3518.78 382.08,3539.77 382.04,3555.13 C382.29,3583.20 383.25,3646.75 383.97,3682.24 C384.93,3715.65 387.26,3781.32 388.64,3813.59 C390.32,3844.07 393.97,3905.31 395.94,3936.08 C398.10,3964.59 402.78,4023.22 405.30,4053.34 C408.66,4087.47 415.66,4153.59 419.30,4185.58 C423.05,4215.47 431.10,4278.05 435.40,4310.74 C440.01,4344.51 449.21,4410.66 453.79,4443.04 C458.21,4473.10 466.67,4529.40 470.71,4555.66 C474.77,4581.14 482.93,4631.51 487.03,4656.39 C492.36,4686.48 504.84,4754.83 511.99,4793.08 C520.36,4836.41 533.96,4906.23 539.17,4932.72 C544.87,4961.38 556.74,5020.87 562.91,5051.69 C569.57,5084.69 583.35,5152.85 590.47,5188.01 C598.08,5225.34 613.22,5299.58 620.76,5336.51 C627.80,5371.02 641.39,5437.62 647.94,5469.72 C653.99,5499.40 665.60,5556.36 671.15,5583.63 C676.22,5608.48 690.76,5680.00 700.25,5726.65 C707.40,5762.08 719.46,5822.14 724.36,5846.77 C728.93,5870.30 738.48,5920.23 743.48,5946.63 C748.52,5973.81 758.59,6028.65 763.63,6056.32 C769.05,6086.45 780.23,6149.06 785.99,6181.54 C791.81,6214.85 803.41,6281.85 809.20,6315.55 C814.87,6349.26 825.91,6415.72 831.29,6448.46 C836.70,6481.99 847.57,6549.81 853.03,6584.11 C858.26,6617.38 868.12,6680.55 872.75,6710.46 C876.80,6737.01 886.37,6801.28 891.88,6839.01 C896.22,6871.30 903.58,6929.01 906.61,6954.43 C907.99,6967.16 911.10,6998.42 912.83,7016.95 C914.15,7033.92 916.36,7065.50 916.91,7078.23 C917.14,7087.02 916.25,7100.54 914.54,7108.43 C913.75,7112.04 911.84,7119.14 911.58,7119.65 C910.81,7121.13 908.68,7123.37 907.33,7124.10 C905.91,7124.80 903.88,7124.82 902.12,7124.19 C899.09,7123.01 894.80,7119.28 892.47,7116.47 C887.42,7110.22 875.48,7082.89 873.63,7078.63" fill="none" stroke="rgb(114, 127, 180)" stroke-width="414.70" stroke-opacity="1.00" stroke-linejoin="round"/>
<path d="M538.85,3562.02 C537.80,3567.73 535.07,3582.75 534.36,3592.15 C534.06,3596.20 532.33,3677.50 531.75,3712.81 C531.54,3747.34 531.70,3813.32 532.07,3844.78 C532.91,3874.95 535.09,3937.43 536.44,3969.75 C538.10,3999.13 541.77,4058.84 543.78,4089.18 C546.24,4121.53 551.75,4187.67 554.81,4221.46 C558.08,4252.24 564.93,4313.16 568.51,4343.29 C572.54,4374.79 581.07,4438.75 585.57,4471.22 C590.54,4504.42 600.58,4568.95 605.65,4600.29 C610.86,4630.43 621.67,4691.56 627.27,4722.55 C633.25,4754.27 645.47,4817.79 651.70,4849.60 C658.16,4881.41 671.36,4944.80 678.09,4976.38 C685.15,5008.16 699.60,5072.21 706.99,5104.48 C714.64,5137.05 729.75,5200.87 737.19,5232.13 C744.33,5261.73 758.45,5319.75 765.43,5348.18 C772.52,5376.29 786.52,5431.32 793.42,5458.23 C800.21,5484.21 815.05,5540.15 823.09,5570.10 C832.91,5605.81 852.86,5677.86 863.00,5714.19 C869.82,5738.31 883.97,5788.28 891.31,5814.14 C899.17,5841.73 915.42,5898.66 923.81,5927.99 C932.73,5959.06 951.01,6022.66 960.37,6055.18 C969.92,6088.12 989.16,6154.31 998.86,6187.56 C1008.72,6221.12 1028.58,6288.54 1038.58,6322.41 C1048.75,6356.59 1069.15,6424.94 1079.39,6459.12 C1089.80,6493.66 1110.78,6563.12 1121.36,6598.04 C1132.10,6633.32 1153.76,6704.27 1164.68,6739.93 C1175.67,6775.68 1196.77,6844.34 1206.89,6877.24 C1215.87,6906.50 1232.71,6961.41 1240.56,6987.04 C1247.28,7009.04 1259.60,7049.41 1265.19,7067.78 C1269.27,7081.21 1271.68,7094.94 1272.10,7097.32" fill="none" stroke="rgb(114, 127, 180)" stroke-width="414.70" stroke-opacity="1.00" stroke-linejoin="round"/>
<path d="M775.54,3451.11 C774.17,3452.83 769.04,3459.13 768.54,3459.81 C763.81,3466.29 760.68,3478.00 759.49,3483.39 C758.32,3489.15 755.79,3503.93 755.19,3510.02 C753.77,3524.54 753.69,3565.51 753.89,3578.04 C754.90,3606.84 758.57,3673.55 760.62,3707.77 C762.73,3739.34 767.03,3799.61 769.21,3828.32 C771.67,3857.81 777.52,3923.44 780.90,3959.57 C784.03,3990.06 790.34,4050.25 793.53,4079.95 C797.14,4112.67 804.66,4179.82 808.57,4214.26 C812.59,4247.59 820.70,4313.02 824.80,4345.13 C829.45,4378.29 839.05,4444.32 844.00,4477.18 C849.16,4509.25 859.57,4572.45 864.81,4603.58 C870.00,4633.60 880.33,4692.44 885.47,4721.26 C890.65,4748.94 901.08,4803.87 906.33,4831.13 C911.69,4858.10 923.55,4915.86 930.04,4946.65 C938.14,4983.10 954.74,5056.43 963.23,5093.31 C968.99,5117.68 980.98,5168.12 987.21,5194.20 C993.92,5221.99 1007.80,5279.27 1014.97,5308.77 C1022.63,5339.98 1038.32,5403.84 1046.37,5436.49 C1054.57,5469.77 1071.11,5536.92 1079.46,5570.78 C1087.94,5605.22 1105.05,5674.68 1113.68,5709.70 C1122.34,5744.87 1139.08,5812.77 1147.15,5845.50 C1155.35,5878.78 1171.89,5945.88 1180.22,5979.71 C1188.69,6014.09 1205.74,6083.40 1214.33,6118.32 C1223.05,6153.80 1240.24,6223.74 1248.71,6258.20 C1256.55,6290.07 1271.60,6351.23 1278.81,6380.52 C1285.39,6407.22 1297.92,6458.03 1303.87,6482.15 C1309.19,6503.67 1324.14,6563.91 1333.77,6602.62 C1341.03,6631.50 1354.53,6686.05 1360.78,6711.72 C1367.37,6740.63 1381.32,6803.96 1388.68,6838.38 C1395.20,6870.49 1403.88,6914.12 1406.05,6925.65 C1407.27,6931.95 1407.49,6949.05 1406.21,6954.88 C1405.26,6958.95 1403.18,6962.96 1400.09,6966.10 C1398.62,6967.55 1395.63,6969.76 1394.06,6970.48 C1390.74,6971.93 1384.53,6971.76 1380.84,6970.80 C1377.95,6970.01 1371.38,6967.30 1368.13,6965.54 C1361.22,6961.75 1348.45,6951.35 1341.64,6944.48 C1338.40,6941.20 1325.27,6926.83 1321.27,6922.46" fill="none" stroke="rgb(114, 127, 180)" stroke-width="414.70" stroke-opacity="1.00" stroke-linejoin="round"/>
<path d="M423.32,5210.13 C425.25,5221.60 430.26,5250.39 434.19,5270.34 C438.69,5290.54 448.89,5336.04 454.59,5361.35 C461.51,5391.75 476.37,5456.90 484.32,5491.64 C492.52,5527.12 509.06,5598.36 517.40,5634.11 C525.75,5669.54 541.60,5736.49 549.10,5768.01 C556.72,5799.76 572.08,5863.47 579.82,5895.45 C587.67,5927.63 603.34,5991.33 611.17,6022.86 C618.90,6053.25 634.25,6112.88 641.88,6142.13 C649.98,6172.33 668.51,6240.06 678.94,6277.58 C689.18,6312.88 709.38,6381.01 719.33,6413.85 C727.99,6441.91 743.75,6492.65 750.85,6515.32 C755.93,6531.32 764.51,6555.61 770.63,6571.87 C773.23,6578.51 779.69,6594.70 779.78,6594.94 C780.68,6597.30 782.88,6600.12 783.81,6601.11" fill="none" stroke="rgb(114, 127, 180)" stroke-width="414.70" stroke-opacity="1.00" stroke-linejoin="round"/>
<path d="M974.39,3676.51 C976.49,3695.87 981.72,3746.85 985.14,3790.28 C987.31,3822.02 991.31,3882.49 993.15,3911.22 C995.15,3944.36 999.32,4013.34 1001.49,4049.16 C1003.79,4083.40 1008.52,4150.11 1010.94,4182.58 C1013.83,4215.88 1019.91,4281.49 1023.11,4313.80 C1026.53,4344.25 1033.75,4404.76 1037.54,4434.82 C1041.88,4465.98 1050.98,4528.60 1055.75,4560.06 C1060.72,4590.21 1071.15,4651.66 1076.61,4682.95 C1082.56,4715.36 1094.73,4780.13 1100.95,4812.49 C1107.34,4844.15 1120.31,4906.80 1126.88,4937.79 C1133.92,4968.87 1148.22,5030.61 1155.49,5061.27 C1162.98,5091.52 1178.28,5152.13 1186.09,5182.50 C1194.26,5213.42 1210.98,5275.78 1219.53,5307.22 C1228.45,5338.84 1246.71,5402.91 1256.05,5435.37 C1265.83,5468.67 1285.12,5533.97 1294.64,5565.97 C1303.30,5594.77 1319.78,5649.20 1327.59,5674.82 C1339.23,5711.48 1360.29,5776.48 1369.70,5804.81 C1378.89,5831.52 1397.86,5885.84 1407.63,5913.46 C1418.10,5942.50 1439.82,6001.80 1451.05,6032.06 C1456.93,6047.17 1468.96,6077.58 1475.11,6092.87 C1482.12,6109.65 1496.44,6143.36 1503.74,6160.31 C1518.10,6192.52 1541.10,6244.05 1549.75,6263.37" fill="none" stroke="rgb(114, 127, 180)" stroke-width="414.70" stroke-opacity="1.00" stroke-linejoin="round"/>
<path d="M1021.49,3571.56 C1019.47,3579.04 1018.42,3587.01 1017.78,3591.65 C1017.00,3597.66 1015.14,3612.38 1014.56,3619.05 C1012.87,3644.00 1012.92,3672.88 1012.97,3685.35 C1013.60,3716.07 1015.58,3781.84 1016.91,3816.89 C1017.84,3833.78 1019.86,3866.95 1020.95,3883.22 C1022.24,3898.65 1024.97,3929.23 1026.43,3944.38 C1029.86,3974.06 1037.69,4036.23 1042.08,4068.73 C1046.85,4100.82 1056.25,4162.03 1060.88,4191.14 C1066.09,4222.64 1076.97,4287.01 1082.64,4319.87 C1088.57,4352.43 1100.74,4417.35 1106.99,4449.70 C1113.65,4482.21 1127.29,4547.23 1134.27,4579.73 C1141.34,4611.50 1155.11,4672.76 1161.80,4702.24 C1168.73,4731.91 1183.91,4795.54 1192.16,4829.49 C1199.82,4859.76 1214.89,4918.63 1222.30,4947.24 C1230.28,4977.04 1246.61,5037.25 1254.97,5067.66 C1263.50,5097.90 1281.02,5158.89 1290.00,5189.64 C1299.58,5221.50 1318.57,5283.57 1327.98,5313.77 C1332.35,5327.24 1343.12,5359.52 1349.53,5378.35 C1355.45,5394.69 1366.32,5424.14 1371.27,5437.24 C1377.77,5453.89 1381.74,5462.03 1388.06,5473.87" fill="none" stroke="rgb(114, 127, 180)" stroke-width="414.70" stroke-opacity="1.00" stroke-linejoin="round"/>
<path d="M1146.67,3557.25 C1148.22,3566.96 1152.05,3591.16 1154.58,3609.05 C1158.22,3640.35 1164.69,3699.47 1167.53,3727.28 C1171.11,3761.29 1178.90,3831.07 1183.11,3866.84 C1186.70,3895.21 1194.40,3954.73 1198.50,3985.87 C1203.05,4019.27 1212.42,4085.85 1217.23,4119.04 C1222.25,4151.70 1232.67,4216.79 1238.05,4249.23 C1243.76,4281.52 1255.47,4345.90 1261.48,4378.00 C1267.58,4409.40 1279.72,4471.02 1285.75,4501.24 C1291.83,4530.82 1304.32,4590.44 1310.74,4620.49 C1317.13,4649.49 1330.17,4707.42 1336.81,4736.35 C1344.63,4768.45 1361.40,4835.53 1370.34,4870.51 C1378.16,4899.86 1394.59,4960.79 1403.19,4992.37 C1412.57,5026.17 1431.73,5094.65 1441.50,5129.33 C1450.46,5160.78 1467.49,5220.16 1475.56,5248.10 C1484.98,5279.92 1505.92,5348.75 1517.43,5385.75 C1525.92,5410.89 1542.99,5460.13 1551.57,5484.24 C1564.37,5517.36 1581.02,5560.22 1584.87,5569.97" fill="none" stroke="rgb(114, 127, 180)" stroke-width="414.70" stroke-opacity="1.00" stroke-linejoin="round"/>
</g>
</svg>
