<?xml version="1.0" encoding="UTF-8" standalone="no"?>
<!DOCTYPE svg PUBLIC "-//W3C//DTD SVG 1.1//EN" "http://www.w3.org/Graphics/SVG/1.1/DTD/svg11.dtd">
<svg width="3600.00" height="6000.00" viewBox="0.00 0.00 3600.00 6000.00" xmlns="http://www.w3.org/2000/svg" xmlns:xlink="http://www.w3.org/1999/xlink">
<g stroke-linecap="round" id="sun">
<path d="M1760.00,1200.00" fill="none" stroke="rgb(255, 255, 255)" stroke-width="953.80" stroke-opacity="1.00" stroke-linejoin="round"/>
<path d="M1769.21,733.61 C1761.92,731.70 1755.14,731.10 1743.04,730.70 C1725.56,730.40 1696.79,729.99 1692.25,730.18 C1688.84,730.34 1652.43,739.34 1636.55,743.35 C1628.37,745.52 1592.54,757.55 1581.50,762.15 C1573.56,765.63 1567.04,768.83 1556.16,775.04 C1544.49,782.05 1514.21,801.60 1499.66,811.13 C1485.94,820.29 1457.29,839.59 1446.33,847.58 C1442.08,850.78 1431.35,860.80 1428.43,863.85 C1417.65,875.47 1387.40,908.06 1386.03,909.64 C1380.92,915.60 1373.26,926.75 1368.37,934.51 C1360.05,948.17 1337.80,981.59 1334.49,987.14 C1330.69,993.54 1324.69,1006.01 1321.51,1013.88 C1316.13,1028.00 1303.15,1063.29 1301.08,1070.43 C1298.82,1078.48 1296.71,1089.84 1295.87,1098.72 C1295.11,1107.86 1294.40,1121.74 1294.00,1130.17 C1293.45,1139.48 1290.82,1154.67 1290.30,1159.06 C1289.69,1164.33 1288.89,1202.02 1288.68,1218.10 C1288.64,1234.98 1288.85,1270.29 1290.02,1282.84 C1290.48,1288.90 1291.11,1302.81 1291.24,1310.85 C1291.36,1319.67 1293.58,1333.40 1295.89,1340.82 C1298.02,1347.63 1311.68,1386.46 1317.04,1397.66 C1319.39,1402.41 1326.97,1417.00 1330.35,1424.10 C1333.51,1430.98 1341.40,1449.39 1343.34,1453.43 C1346.93,1460.83 1354.68,1472.98 1359.52,1478.68 C1367.59,1488.12 1386.59,1514.73 1395.25,1527.22 C1406.21,1542.38 1419.71,1559.38 1432.98,1574.53 C1435.34,1577.20 1439.63,1582.03 1441.55,1584.20 C1446.88,1590.01 1449.52,1592.57 1453.03,1594.64 C1456.06,1596.39 1473.85,1604.23 1481.19,1607.46 C1490.16,1611.45 1500.71,1615.73 1508.77,1618.13 C1515.38,1620.09 1530.73,1627.71 1532.13,1628.39 C1538.15,1631.31 1554.52,1636.60 1562.25,1638.89 C1570.85,1641.23 1587.14,1645.50 1593.90,1647.06 C1602.58,1648.97 1615.77,1649.81 1619.93,1650.35 C1627.64,1651.37 1667.25,1659.51 1684.11,1663.11 C1690.38,1664.35 1708.08,1667.63 1712.73,1667.72 C1718.58,1667.81 1762.89,1673.58 1773.09,1674.77 C1790.33,1676.49 1818.63,1677.38 1838.79,1677.16 C1845.06,1677.04 1864.50,1676.35 1868.72,1675.94 C1875.49,1675.26 1887.42,1672.63 1895.34,1670.13 C1903.20,1667.62 1915.72,1661.68 1922.82,1657.37 C1930.81,1652.52 1944.47,1645.03 1949.98,1642.30 C1956.78,1639.14 1969.31,1633.38 1975.03,1630.78 C1979.93,1628.56 2013.22,1608.82 2028.77,1599.48 C2035.33,1595.31 2051.30,1584.96 2057.29,1580.38 C2060.24,1578.11 2070.70,1569.13 2078.05,1563.74 C2082.20,1560.78 2097.95,1551.01 2102.22,1547.73 C2104.46,1546.00 2109.74,1541.54 2111.41,1539.68 C2115.90,1534.57 2124.24,1520.18 2127.62,1513.97 C2138.54,1492.70 2151.20,1469.90 2159.73,1456.81 C2164.01,1450.54 2173.21,1438.12 2177.48,1431.39 C2181.90,1424.38 2188.34,1412.28 2192.50,1403.64 C2197.08,1393.42 2211.87,1356.16 2215.11,1345.06 C2217.02,1338.45 2219.70,1324.87 2220.67,1315.90 C2220.98,1312.96 2222.84,1292.40 2223.59,1285.27 C2224.03,1281.59 2226.61,1265.48 2227.56,1254.73 C2228.71,1239.17 2230.89,1208.63 2231.93,1193.64 C2232.56,1184.91 2233.69,1169.74 2233.13,1162.36 C2232.36,1152.46 2224.65,1109.96 2222.78,1101.84 C2220.00,1090.09 2209.75,1061.69 2204.55,1047.55 C2195.72,1025.08 2190.01,1013.01 2186.51,1007.32 C2184.61,1004.26 2175.48,991.18 2169.73,980.47 C2165.26,971.84 2150.23,939.39 2142.76,925.72 C2137.05,915.94 2129.30,904.23 2124.32,897.22 C2122.47,894.76 2073.29,832.73 2067.13,826.20 C2055.87,814.56 2028.89,787.29 2020.69,780.50 C2013.58,774.63 1999.05,766.37 1995.54,764.62 C1992.12,762.92 1975.91,755.76 1968.92,752.58 C1962.22,749.41 1944.56,740.72 1941.53,739.35 C1933.94,735.95 1919.42,731.19 1909.75,728.81 C1901.74,726.87 1886.30,722.66 1882.13,720.92 C1878.25,719.45 1861.14,715.68 1854.08,714.19 C1845.63,712.52 1829.62,710.81 1821.55,710.71 C1812.56,710.63 1773.74,714.02 1762.99,715.85 C1753.82,717.59 1742.31,720.38 1734.97,722.19 C1726.84,724.34 1714.65,728.57 1704.43,732.68 C1686.49,740.43 1671.82,748.44 1660.72,754.91 C1653.35,759.07 1648.71,760.73 1647.85,761.04" fill="none" stroke="rgb(255, 255, 255)" stroke-width="216.90" stroke-opacity="1.00" stroke-linejoin="round"/>
<path d="M1736.70,734.52 C1727.53,732.58 1718.87,731.06 1708.77,730.85 C1694.92,730.67 1654.04,731.60 1646.58,732.28 C1638.86,733.01 1623.39,735.69 1617.86,737.31 C1611.35,739.24 1596.67,745.51 1588.87,749.49 C1582.84,752.67 1569.62,760.10 1562.76,764.05 C1545.05,774.84 1519.14,792.36 1506.83,801.93 C1494.28,811.99 1470.48,833.34 1459.41,843.89 C1446.51,856.76 1426.39,879.00 1416.29,891.57 C1403.22,908.51 1390.70,926.85 1381.45,943.88 C1378.29,949.88 1371.93,962.08 1368.35,970.33 C1364.06,980.26 1357.20,1005.77 1355.95,1010.49" fill="none" stroke="rgb(255, 255, 255)" stroke-width="216.90" stroke-opacity="1.00" stroke-linejoin="round"/>
<path d="M1845.58,748.86 C1873.93,756.79 1950.49,778.61 1968.88,784.65 C1977.49,787.61 1992.32,793.09 1998.55,795.62 C2009.99,800.62 2033.72,812.89 2048.94,821.58 C2062.04,829.37 2090.10,846.98 2103.41,856.56 C2109.92,861.44 2120.31,869.59 2129.11,877.18 C2135.40,882.83 2147.57,894.47 2153.45,900.46 C2163.87,911.67 2188.84,939.20 2195.50,948.06 C2197.61,950.89 2204.63,961.32 2205.77,963.00" fill="none" stroke="rgb(255, 255, 255)" stroke-width="216.90" stroke-opacity="1.00" stroke-linejoin="round"/>
<path d="M1282.46,1080.37 C1281.03,1085.13 1276.64,1099.73 1275.47,1105.52 C1273.69,1114.41 1272.09,1131.01 1271.58,1138.46 C1270.99,1150.39 1270.56,1192.14 1270.83,1203.82 C1271.53,1220.30 1274.24,1254.26 1275.51,1264.53 C1276.53,1271.82 1279.10,1288.92 1280.12,1293.89 C1283.19,1308.32 1293.15,1341.45 1298.66,1358.07 C1301.46,1366.06 1306.92,1381.08 1309.57,1388.11 C1317.50,1408.11 1328.38,1426.73 1331.75,1432.49" fill="none" stroke="rgb(255, 255, 255)" stroke-width="216.90" stroke-opacity="1.00" stroke-linejoin="round"/>
</g>
</svg>
