<?xml version="1.0" encoding="UTF-8" standalone="no"?>
<!DOCTYPE svg PUBLIC "-//W3C//DTD SVG 1.1//EN" "http://www.w3.org/Graphics/SVG/1.1/DTD/svg11.dtd">
<svg width="3600.00" height="6000.00" viewBox="0.00 0.00 3600.00 6000.00" xmlns="http://www.w3.org/2000/svg" xmlns:xlink="http://www.w3.org/1999/xlink">
<g stroke-linecap="round" id="sunset">
<path d="M-631.24,206.12 C-617.05,206.12 -587.20,206.12 -571.56,206.12 C-554.46,206.12 -518.81,206.12 -500.26,206.12 C-480.27,206.12 -438.82,206.12 -417.37,206.12 C-394.47,206.12 -347.22,206.12 -322.87,206.12 C-297.08,206.12 -244.03,206.12 -216.78,206.12 C-188.08,206.12 -129.23,206.12 -99.08,206.12 C-67.48,206.12 -2.89,206.12 30.09,206.12 C64.37,206.12 134.21,206.12 169.77,206.12 C206.63,206.12 281.63,206.12 319.77,206.12 C359.20,206.12 439.36,206.12 480.08,206.12 C522.09,206.12 607.41,206.12 650.71,206.12 C695.30,206.12 785.77,206.12 831.65,206.12 C878.82,206.12 974.45,206.12 1022.91,206.12 C1055.59,206.12 1117.52,206.12 1146.77,206.12 C1176.45,206.12 1236.26,206.12 1266.39,206.12 C1296.95,206.12 1358.50,206.12 1389.49,206.12 C1420.92,206.12 1484.22,206.12 1516.08,206.12 C1548.38,206.12 1613.42,206.12 1646.16,206.12 C1679.33,206.12 1746.11,206.12 1779.72,206.12 C1813.76,206.12 1882.28,206.12 1916.76,206.12 C1951.68,206.12 2021.94,206.12 2057.29,206.12 C2093.08,206.12 2165.08,206.12 2201.31,206.12 C2237.96,206.12 2311.71,206.12 2348.81,206.12 C2386.33,206.12 2461.83,206.12 2499.79,206.12 C2538.15,206.12 2614.43,206.12 2652.36,206.12 C2689.58,206.12 2763.29,206.12 2799.78,206.12 C2835.55,206.12 2906.38,206.12 2941.44,206.12 C2975.77,206.12 3043.73,206.12 3077.34,206.12 C3110.24,206.12 3175.31,206.12 3207.49,206.12 C3238.95,206.12 3301.14,206.12 3331.88,206.12 C3361.90,206.12 3421.22,206.12 3450.52,206.12 C3479.10,206.12 3535.54,206.12 3563.40,206.12 C3590.54,206.12 3644.10,206.12 3670.52,206.12 C3696.22,206.12 3746.91,206.12 3771.89,206.12 C3796.15,206.12 3843.96,206.12 3867.50,206.12 C3890.33,206.12 3959.62,206.12 4006.08,206.12 C4057.02,206.12 4154.87,206.12 4201.76,206.12 C4244.60,206.12 4326.23,206.12 4365.02,206.12 C4399.76,206.12 4465.22,206.12 4495.94,206.12 C4523.65,206.12 4576.51,206.12 4601.67,206.12 C4624.27,206.12 4666.91,206.12 4686.96,206.12 C4704.45,206.12 4736.87,206.12 4751.81,206.12 C4761.41,206.12 4771.99,206.12 4772.98,206.12 C4759.68,207.01 4726.95,209.26 4709.72,210.82 C4702.30,211.67 4686.41,213.96 4680.51,215.47 C4676.86,216.42 4666.20,220.60 4655.74,222.99 C4646.87,225.00 4609.75,231.52 4594.06,234.17 C4556.96,239.97 4474.92,252.48 4458.42,254.30 C4455.18,254.61 4446.61,254.99 4435.71,256.26 C4408.13,260.16 4344.92,269.39 4309.29,274.72 C4292.37,277.09 4260.12,281.44 4244.79,283.42 C4226.42,285.50 4192.28,289.02 4176.51,290.44 C4147.62,292.69 4086.11,298.88 4054.89,302.25 C4038.10,304.29 4005.56,308.57 3989.82,310.81 C3975.21,313.17 3947.20,318.11 3933.03,320.60 C3919.30,323.29 3886.48,330.04 3878.14,331.64 C3862.57,334.31 3826.90,339.18 3806.79,341.39 C3804.73,341.58 3741.35,345.63 3717.63,347.10 C3691.02,348.64 3634.94,351.80 3605.47,353.43 C3573.11,355.13 3505.53,358.60 3470.30,360.38 C3432.36,362.22 3356.61,365.86 3318.80,367.64 C3282.17,369.32 3210.10,372.57 3174.65,374.14 C3140.39,375.59 3073.04,378.40 3039.96,379.75 C3008.06,381.00 2940.92,383.53 2905.67,384.82 C2868.45,386.09 2795.65,388.46 2760.08,389.57 C2726.15,390.53 2659.93,392.27 2627.64,393.06 C2596.98,393.70 2536.45,394.89 2506.57,395.44 C2477.01,395.95 2418.19,396.92 2388.94,397.39 C2360.00,397.81 2302.43,398.61 2273.79,398.98 C2244.05,399.35 2184.28,400.05 2154.26,400.39 C2124.44,400.69 2064.97,401.27 2035.33,401.54 C2005.88,401.77 1946.83,402.25 1917.22,402.49 C1885.99,402.90 1821.73,403.90 1788.71,404.49 C1753.91,405.27 1682.51,407.01 1645.91,407.97 C1612.23,408.98 1549.64,410.95 1520.73,411.91 C1490.72,412.98 1429.60,415.22 1398.49,416.40 C1366.29,417.69 1300.79,420.37 1267.49,421.76 C1233.09,423.26 1163.36,426.37 1128.02,427.97 C1093.31,429.60 1024.96,432.84 991.31,434.46 C958.72,436.08 894.59,439.31 863.06,440.93 C832.57,442.54 772.67,445.76 743.24,447.37 C711.25,449.22 640.76,453.45 602.26,455.84 C565.43,458.26 493.45,463.11 458.30,465.55 C424.82,468.02 359.51,472.98 327.69,475.47 C297.30,477.91 237.85,482.72 208.79,485.09 C181.05,487.38 126.92,491.89 100.52,494.10 C74.84,496.30 22.30,500.89 -4.56,503.27 C-29.86,505.56 -78.87,510.04 -102.60,512.23 C-124.75,514.32 -170.71,518.78 -194.51,521.14 C-226.33,524.47 -298.16,532.13 -338.17,536.46 C-386.36,541.77 -476.31,551.77 -518.06,556.46 C-544.49,559.46 -599.02,565.68 -627.13,568.89 C-656.90,572.30 -718.10,579.31 -749.54,582.92 C-782.65,586.72 -850.53,594.53 -885.31,598.54 C-921.75,602.74 -996.31,611.35 -1034.43,615.75 C-1074.21,620.35 -1154.75,629.67 -1195.52,634.39 C-1234.39,638.88 -1309.92,647.59 -1346.57,651.81 C-1381.01,655.76 -1447.68,663.39 -1479.90,667.07 C-1509.91,670.48 -1567.72,677.03 -1595.51,680.17 C-1621.09,683.04 -1670.04,688.51 -1693.40,691.12 C-1714.55,693.45 -1754.90,697.89 -1803.07,701.68 C-1818.73,702.54 -1848.55,704.18 -1862.16,705.16 C-1875.21,706.36 -1902.95,709.73 -1919.69,713.00 C-1932.28,715.76 -1965.03,724.53 -1977.47,727.86 C-1984.88,729.92 -1997.16,733.26 -2004.74,733.78 C-2018.19,734.67 -2087.92,734.54 -2103.25,734.37 C-2112.56,734.10 -2133.85,732.94 -2134.19,732.95 C-2140.04,733.23 -2153.73,736.15 -2162.24,738.49 C-2177.20,742.89 -2186.62,745.44 -2193.35,746.68 C-2197.24,747.37 -2205.02,748.11 -2208.53,747.88 C-2210.65,747.73 -2217.56,746.35 -2221.14,746.42 C-2227.20,746.57 -2240.90,750.10 -2249.82,753.43 C-2258.43,756.67 -2273.73,760.34 -2281.61,761.08 C-2289.19,761.76 -2304.83,760.94 -2312.24,760.50 C-2319.62,760.00 -2338.78,758.56 -2341.11,758.62 C-2344.44,758.73 -2351.08,759.96 -2354.26,761.06 C-2357.53,762.21 -2366.02,766.97 -2367.12,767.60 C-2370.43,769.47 -2378.29,772.08 -2383.27,772.95 C-2386.63,773.52 -2394.46,774.06 -2398.71,774.02 C-2402.44,773.97 -2426.33,772.53 -2428.36,772.95 C-2430.24,773.38 -2431.51,774.47 -2432.92,776.76 C-2434.57,779.50 -2437.60,782.63 -2441.24,785.83 C-2411.73,785.84 -2359.68,785.85 -2337.14,785.87 C-2310.28,785.88 -2252.24,785.91 -2221.07,785.93 C-2185.57,785.95 -2110.27,785.99 -2070.45,786.01 C-2028.28,786.03 -1947.52,786.06 -1908.92,786.07 C-1874.30,786.06 -1809.04,786.02 -1778.40,786.00 C-1751.74,785.96 -1696.85,785.81 -1668.62,785.71 C-1648.02,785.46 -1613.46,784.90 -1599.50,784.58 C-1587.24,784.51 -1562.04,785.25 -1549.23,786.07 C-1536.40,787.22 -1509.08,790.42 -1494.58,792.47 C-1479.40,794.59 -1442.93,797.53 -1422.45,798.52 C-1407.48,798.93 -1377.05,799.46 -1361.58,799.58 C-1326.38,799.09 -1258.55,798.41 -1225.92,798.22 C-1212.00,798.47 -1181.11,799.30 -1165.48,800.10 C-1151.17,801.09 -1131.87,803.00 -1114.76,805.22 C-1100.51,806.73 -1063.32,809.73 -1042.86,811.23 C-1013.69,812.88 -950.76,816.11 -917.01,817.68 C-878.98,819.21 -808.42,821.89 -775.89,823.06 C-748.77,823.85 -672.13,825.58 -653.96,825.29 C-644.49,825.01 -616.05,825.28 -599.71,825.60 C-574.61,826.58 -524.64,828.64 -499.76,829.72 C-471.24,831.00 -410.53,833.76 -378.34,835.24 C-342.51,836.92 -267.18,840.48 -227.68,842.36 C-186.77,844.32 -107.91,848.09 -69.98,849.89 C-35.15,851.54 31.42,854.67 63.15,856.15 C91.78,857.47 145.94,859.96 171.47,861.12 C217.09,863.02 299.20,866.24 335.70,867.55 C357.28,868.03 401.60,868.93 424.35,869.34 C454.83,870.00 509.52,871.22 533.71,871.78 C554.39,872.26 597.71,873.28 620.34,873.82 C644.94,874.41 696.08,875.66 722.63,876.32 C751.20,877.02 811.83,878.42 843.89,879.11 C880.02,879.76 956.38,881.01 996.59,881.62 C1040.89,882.18 1133.57,883.26 1181.94,883.78 C1212.11,884.05 1268.63,884.52 1294.97,884.73 C1322.36,884.93 1378.16,885.32 1406.58,885.51 C1436.04,885.69 1496.00,886.05 1526.49,886.22 C1558.03,886.39 1622.13,886.71 1654.70,886.87 C1688.31,887.02 1756.56,887.30 1791.21,887.44 C1826.89,887.58 1899.11,887.83 1935.65,887.96 C1971.78,888.08 2043.39,888.35 2078.88,888.48 C2113.72,888.62 2182.76,888.91 2216.96,889.06 C2250.52,889.21 2316.99,889.52 2349.91,889.68 C2382.18,889.85 2446.07,890.18 2477.70,890.36 C2508.68,890.53 2570.01,890.90 2600.35,891.08 C2630.63,891.27 2694.54,891.69 2728.16,891.91 C2760.93,892.15 2825.63,892.62 2857.56,892.86 C2888.64,893.11 2949.94,893.62 2980.17,893.88 C3009.55,894.15 3067.47,894.69 3096.00,894.97 C3123.69,895.26 3178.21,895.84 3205.05,896.13 C3231.21,896.43 3284.68,897.02 3311.98,897.31 C3340.92,897.59 3400.42,898.12 3430.98,898.37 C3463.17,898.62 3529.17,899.08 3562.99,899.30 C3598.44,899.51 3670.95,899.91 3708.03,900.10 C3746.73,900.27 3825.75,900.60 3866.08,900.76 C3899.92,900.87 3963.70,901.07 3993.65,901.16 C4024.41,901.24 4086.74,901.39 4118.32,901.46 C4150.72,901.53 4216.33,901.64 4249.54,901.70 C4283.58,901.75 4352.46,901.84 4387.31,901.88 C4422.98,901.91 4495.14,901.97 4531.63,901.99 C4568.93,902.01 4644.36,902.03 4682.48,902.04 C4721.43,902.04 4800.13,902.04 4839.89,902.03 C4879.84,902.02 4958.23,901.99 4996.66,901.98 C5033.49,901.97 5105.53,901.95 5140.75,901.94 C5174.36,901.93 5239.96,901.91 5271.95,901.90 C5302.34,901.89 5361.50,901.87 5390.27,901.86 C5417.44,901.85 5470.16,901.84 5495.71,901.83 C5519.66,901.82 5565.94,901.81 5588.27,901.80 C5608.99,901.80 5648.83,901.78 5667.94,901.78 C5702.31,901.77 5754.03,901.77 5771.37,901.78" fill="none" stroke="rgb(255, 193, 194)" stroke-width="2000.00" stroke-opacity="1.00" stroke-linejoin="round"/>
<path d="M12.88,2125.62 C31.77,2124.60 78.25,2122.07 105.84,2120.56 C140.96,2118.78 216.48,2115.41 256.88,2113.82 C286.07,2113.02 336.82,2111.79 358.38,2111.36 C381.45,2110.92 429.11,2110.03 453.70,2109.57 C479.81,2109.11 533.53,2108.17 561.15,2107.69 C590.28,2107.20 650.07,2106.21 680.72,2105.71 C712.89,2105.19 778.73,2104.15 812.42,2103.62 C847.61,2103.09 919.52,2101.99 956.23,2101.44 C994.26,2100.88 1070.09,2099.77 1107.88,2099.23 C1145.11,2098.70 1219.01,2097.67 1255.68,2097.16 C1291.78,2096.68 1363.43,2095.72 1398.97,2095.26 C1433.95,2094.81 1503.34,2093.94 1537.75,2093.51 C1571.60,2093.11 1638.74,2092.32 1672.03,2091.93 C1704.75,2091.56 1769.64,2090.85 1801.80,2090.51 C1834.76,2090.17 1904.11,2089.48 1940.49,2089.13 C1976.11,2088.80 2046.58,2088.18 2081.44,2087.89 C2115.54,2087.62 2182.97,2087.11 2216.30,2086.87 C2248.87,2086.65 2313.25,2086.26 2345.06,2086.07 C2376.11,2085.91 2437.44,2085.63 2467.73,2085.50 C2497.25,2085.40 2555.93,2085.23 2585.10,2085.16 C2614.61,2085.14 2674.00,2085.16 2703.87,2085.19 C2734.12,2085.27 2794.96,2085.48 2825.57,2085.61 C2856.54,2085.79 2918.84,2086.20 2950.17,2086.43 C2981.87,2086.71 3045.63,2087.31 3077.69,2087.64 C3110.12,2088.01 3175.60,2088.82 3208.66,2089.26 C3242.44,2089.75 3310.41,2090.78 3344.59,2091.33 C3379.17,2091.92 3448.73,2093.16 3483.70,2093.80 C3519.07,2094.50 3590.22,2095.94 3625.99,2096.68 C3662.15,2097.48 3734.88,2099.12 3771.44,2099.97 C3808.40,2100.87 3882.65,2102.71 3919.94,2103.66 C3956.06,2104.59 4026.53,2106.40 4060.87,2107.28 C4093.44,2108.12 4156.80,2109.74 4187.59,2110.54 C4216.60,2111.28 4272.85,2112.73 4300.08,2113.43 C4325.54,2114.09 4374.68,2115.35 4398.36,2115.96 C4420.26,2116.53 4463.81,2117.67 4485.47,2118.24 C4525.62,2119.47 4599.19,2121.62 4632.62,2122.55 C4659.24,2123.20 4712.64,2124.30 4739.43,2124.74 C4756.85,2124.68 4779.71,2125.59 4798.96,2127.23 C4816.05,2129.06 4838.48,2131.47 4843.83,2132.06 C4843.83,2132.06 4837.39,2151.38 4837.39,2151.38 C4836.31,2151.18 4833.64,2150.60 4833.25,2150.55 C4830.07,2150.13 4823.46,2151.63 4818.48,2153.15 C4814.01,2154.58 4793.10,2162.14 4788.40,2163.57 C4786.71,2164.07 4782.86,2164.91 4781.46,2164.98 C4780.39,2165.03 4777.29,2164.03 4776.64,2163.99 C4773.57,2163.82 4760.63,2167.58 4750.13,2171.12 C4735.15,2176.61 4701.84,2192.10 4693.03,2195.19 C4679.71,2199.83 4643.77,2207.23 4633.21,2210.81 C4626.20,2213.21 4612.25,2220.33 4605.50,2222.24 C4599.36,2223.94 4582.64,2225.62 4576.91,2226.64 C4568.06,2228.23 4532.19,2237.79 4516.64,2242.19 C4500.17,2246.79 4466.56,2256.01 4449.42,2260.64 C4431.99,2265.04 4411.65,2268.55 4404.65,2268.40 C4401.53,2268.31 4395.06,2266.85 4392.36,2266.70 C4385.30,2266.35 4373.12,2268.54 4368.35,2269.39 C4342.77,2274.53 4282.88,2286.86 4248.56,2294.06 C4230.68,2297.29 4194.71,2303.39 4176.61,2306.26 C4159.69,2308.54 4126.00,2312.76 4109.24,2314.69 C4075.05,2318.01 4007.58,2323.17 3974.94,2325.54 C3948.65,2327.70 3889.83,2333.01 3857.30,2336.15 C3844.65,2337.64 3818.30,2340.51 3802.88,2341.80 C3766.93,2344.10 3721.27,2346.00 3700.01,2346.81 C3675.61,2347.66 3623.67,2349.40 3596.13,2350.30 C3565.46,2351.24 3500.98,2353.17 3467.17,2354.16 C3431.61,2355.23 3359.94,2357.47 3323.83,2358.64 C3287.19,2359.93 3213.35,2362.60 3176.17,2363.99 C3138.44,2365.49 3066.39,2368.45 3032.07,2369.91 C2999.05,2371.39 2932.51,2374.45 2899.00,2376.02 C2864.99,2377.68 2796.48,2381.09 2761.99,2382.85 C2727.00,2384.68 2656.66,2388.44 2621.32,2390.36 C2587.31,2392.21 2521.15,2395.81 2488.99,2397.56 C2458.67,2399.20 2399.87,2402.38 2371.39,2403.92 C2344.76,2405.35 2293.33,2408.11 2268.53,2409.44 C2227.10,2411.74 2150.07,2416.05 2114.46,2418.06 C2084.69,2419.76 2029.69,2422.98 2004.48,2424.50 C1977.10,2426.51 1919.19,2431.11 1888.66,2433.71 C1855.61,2436.83 1796.44,2442.69 1770.33,2445.43 C1742.32,2448.51 1684.40,2454.98 1654.49,2458.38 C1622.69,2462.11 1557.24,2469.90 1523.59,2473.96 C1489.55,2478.18 1421.73,2486.75 1387.95,2491.08 C1354.44,2495.51 1287.68,2504.49 1254.44,2509.03 C1221.85,2513.67 1157.36,2523.07 1125.46,2527.84 C1093.46,2532.74 1029.36,2542.70 997.26,2547.75 C965.07,2552.94 900.62,2563.46 868.37,2568.79 C836.54,2574.10 773.44,2584.67 742.16,2589.93 C711.45,2595.14 650.59,2605.50 620.44,2610.65 C590.91,2615.75 532.48,2625.93 503.58,2631.00 C475.15,2636.03 418.75,2646.04 390.78,2651.03 C363.28,2655.96 308.58,2665.84 281.38,2670.77 C251.98,2676.26 190.17,2688.00 157.75,2694.24 C122.32,2701.23 48.44,2715.97 9.99,2723.71 C-27.19,2731.33 -94.14,2745.14 -123.92,2751.34 C-155.18,2757.89 -219.21,2771.37 -251.97,2778.30 C-286.23,2785.58 -356.23,2800.52 -391.98,2808.17 C-429.23,2816.18 -505.20,2832.56 -543.92,2840.94 C-581.64,2849.12 -654.07,2864.86 -688.80,2872.42 C-720.54,2879.36 -781.05,2892.60 -809.80,2898.90 C-835.58,2904.59 -884.14,2915.33 -906.93,2920.39 C-917.21,2922.68 -937.01,2927.11 -946.54,2929.25 C-953.80,2930.89 -968.19,2935.00 -977.23,2937.82 C-986.27,2940.88 -1008.19,2948.97 -1011.28,2950.10 C-990.60,2957.40 -971.63,2963.58 -968.01,2963.62 C-966.99,2963.62 -964.35,2962.41 -963.60,2962.41 C-959.97,2962.39 -926.18,2974.75 -921.10,2975.86 C-916.16,2976.92 -910.81,2977.12 -906.86,2976.49 C-900.02,2975.38 -887.04,2976.58 -881.30,2977.08 C-848.18,2980.42 -779.29,2987.92 -743.53,2992.08 C-736.87,2992.99 -720.40,2995.32 -714.82,2996.35 C-702.33,2998.67 -690.14,3003.19 -684.64,3005.39 C-678.68,3007.53 -667.67,3010.18 -661.35,3011.24 C-648.71,3013.24 -617.84,3014.73 -607.79,3014.92 C-596.44,3014.94 -574.70,3014.92 -553.90,3015.69 C-506.31,3018.79 -445.82,3024.00 -415.30,3026.78 C-378.71,3030.43 -306.34,3037.83 -270.57,3041.57 C-241.73,3044.73 -178.47,3051.89 -144.05,3055.91 C-118.89,3059.33 -48.21,3068.24 -32.26,3069.70 C-12.03,3071.55 30.45,3075.43 52.69,3077.45 C76.93,3079.64 127.42,3084.20 153.66,3086.57 C181.92,3089.10 240.42,3094.35 270.67,3097.05 C302.93,3099.93 369.45,3105.86 403.72,3108.90 C439.98,3112.12 514.52,3118.73 552.79,3122.12 C593.07,3125.68 674.79,3132.90 716.23,3136.56 C756.33,3140.09 835.01,3147.02 873.59,3150.41 C910.65,3153.66 983.25,3160.02 1018.79,3163.13 C1052.81,3166.10 1119.34,3171.89 1151.84,3174.72 C1182.82,3177.41 1243.27,3182.64 1272.73,3185.19 C1300.68,3187.59 1355.05,3192.26 1381.47,3194.52 C1415.56,3197.40 1505.01,3204.81 1560.38,3209.34 C1606.67,3213.01 1690.16,3219.47 1727.36,3222.27 C1755.48,3224.20 1804.92,3227.40 1826.25,3228.68 C1847.69,3229.93 1891.19,3232.45 1913.24,3233.72 C1935.88,3235.01 1981.76,3237.61 2005.00,3238.91 C2028.91,3240.17 2077.54,3242.72 2102.26,3244.00 C2127.79,3245.31 2179.66,3247.96 2206.00,3249.29 C2233.41,3250.64 2292.14,3253.27 2323.45,3254.55 C2359.41,3255.75 2435.97,3258.06 2476.57,3259.17 C2521.82,3260.20 2600.41,3261.84 2633.76,3262.45 C2659.05,3262.84 2710.88,3263.61 2737.41,3263.98 C2765.19,3264.35 2821.99,3265.06 2851.01,3265.40 C2881.28,3265.74 2943.05,3266.39 2974.56,3266.71 C3007.31,3267.01 3074.06,3267.61 3108.05,3267.90 C3143.28,3268.17 3214.00,3268.71 3249.49,3268.97 C3284.65,3269.21 3354.63,3269.69 3389.46,3269.91 C3423.94,3270.12 3492.58,3270.53 3526.73,3270.73 C3560.55,3270.91 3627.84,3271.25 3661.32,3271.41 C3694.46,3271.56 3760.42,3271.84 3793.22,3271.97 C3830.22,3272.09 3906.50,3272.29 3945.78,3272.39 C3984.60,3272.46 4061.76,3272.59 4100.11,3272.64 C4138.00,3272.67 4213.31,3272.71 4250.74,3272.72 C4287.70,3272.71 4361.16,3272.66 4397.66,3272.63 C4432.70,3272.59 4500.08,3272.51 4532.41,3272.47 C4562.03,3272.43 4618.54,3272.37 4645.43,3272.33 C4669.61,3272.31 4715.25,3272.25 4736.71,3272.23 C4755.45,3272.21 4792.91,3272.18 4811.62,3272.16 C4797.17,3272.27 4764.86,3272.35 4748.67,3272.01 C4738.36,3271.53 4726.89,3270.50 4719.23,3271.51 C4707.37,3273.13 4669.49,3284.51 4659.38,3285.58 C4655.59,3285.97 4650.88,3285.59 4647.66,3284.74 C4642.83,3283.71 4628.09,3285.42 4618.82,3286.97 C4611.47,3288.36 4594.65,3291.90 4585.94,3293.77 C4577.92,3295.30 4560.69,3297.96 4555.65,3298.35 C4546.40,3299.04 4528.76,3297.51 4524.96,3297.38 C4515.34,3297.08 4487.26,3300.47 4470.17,3303.36 C4462.37,3304.76 4445.51,3306.90 4436.23,3307.76 C4417.01,3309.12 4393.13,3309.40 4382.84,3309.50 C4359.54,3309.64 4309.27,3309.81 4282.31,3309.85 C4251.71,3309.79 4186.84,3309.58 4152.58,3309.42 C4114.87,3309.18 4039.54,3308.84 4001.92,3308.74 C3965.70,3308.88 3894.64,3309.38 3859.81,3309.74 C3826.37,3310.34 3760.89,3311.76 3728.85,3312.58 C3693.72,3313.84 3624.47,3316.67 3590.35,3318.26 C3557.88,3320.16 3494.61,3324.27 3463.80,3326.48 C3434.62,3329.01 3376.18,3334.28 3346.93,3337.03 C3316.63,3339.96 3255.00,3345.99 3223.67,3349.10 C3191.30,3352.38 3127.69,3358.89 3096.44,3362.11 C3067.09,3365.15 3007.53,3371.38 2977.33,3374.56 C2946.28,3377.87 2883.34,3384.62 2851.44,3388.06 C2818.70,3391.63 2752.72,3398.80 2719.49,3402.40 C2686.48,3405.84 2620.71,3412.55 2587.94,3415.82 C2555.42,3418.92 2490.61,3424.95 2458.32,3427.88 C2426.03,3430.65 2360.38,3436.07 2327.03,3438.72 C2293.60,3441.20 2226.65,3445.97 2193.13,3448.27 C2159.53,3450.40 2092.23,3454.47 2058.54,3456.42 C2025.09,3458.21 1959.42,3461.72 1927.19,3463.43 C1896.25,3465.06 1835.67,3468.24 1806.03,3469.79 C1777.68,3471.26 1721.69,3474.15 1694.06,3475.55 C1665.28,3476.95 1609.02,3479.64 1581.53,3480.94 C1555.36,3482.16 1504.30,3484.49 1479.42,3485.61 C1455.68,3486.64 1404.67,3488.64 1377.39,3489.61 C1344.46,3490.52 1272.93,3492.29 1234.33,3493.15 C1190.08,3493.96 1102.88,3495.41 1059.93,3496.05 C1034.93,3496.36 983.63,3496.97 957.32,3497.26 C929.71,3497.55 873.18,3498.13 844.26,3498.41 C814.03,3498.68 752.26,3499.21 720.73,3499.48 C687.88,3499.73 620.89,3500.23 586.73,3500.48 C551.27,3500.71 479.05,3501.18 442.28,3501.41 C404.88,3501.62 330.93,3502.01 294.38,3502.20 C258.74,3502.35 188.36,3502.62 153.63,3502.74 C119.80,3502.83 53.04,3502.99 20.12,3503.05 C-11.90,3503.08 -75.04,3503.11 -106.15,3503.11 C-136.36,3503.08 -195.87,3502.99 -225.18,3502.93 C-259.88,3502.81 -341.08,3502.41 -387.58,3502.13 C-431.42,3501.77 -516.45,3500.97 -557.64,3500.52 C-596.16,3499.99 -670.56,3498.84 -706.43,3498.22 C-739.61,3497.52 -802.92,3496.16 -833.05,3495.50 C-859.99,3494.90 -910.69,3493.79 -934.45,3493.27 C-955.02,3492.82 -992.99,3491.99 -1010.38,3491.61 C-1017.88,3491.44 -1027.99,3491.22 -1030.60,3491.17" fill="none" stroke="rgb(253, 219, 212)" stroke-width="2000.00" stroke-opacity="1.00" stroke-linejoin="round"/>
<path d="M103.06,1249.61 C126.75,1246.30 186.37,1237.97 222.31,1232.94 C259.84,1227.65 325.82,1218.27 354.27,1214.18 C375.20,1211.41 409.97,1206.94 423.80,1205.24 C437.84,1203.69 487.42,1201.28 518.06,1200.76 C537.56,1200.44 578.50,1199.79 599.93,1199.46 C623.31,1199.11 671.99,1198.40 697.30,1198.04 C724.55,1197.66 780.99,1196.90 810.17,1196.51 C841.30,1196.10 905.48,1195.27 938.54,1194.85 C973.54,1194.42 1045.12,1193.54 1081.70,1193.10 C1118.51,1192.68 1192.23,1191.85 1229.14,1191.45 C1266.15,1191.08 1340.28,1190.34 1377.39,1189.98 C1414.61,1189.65 1489.14,1189.00 1526.46,1188.69 C1563.88,1188.40 1638.82,1187.85 1676.34,1187.58 C1713.97,1187.33 1786.38,1186.88 1821.16,1186.68 C1851.13,1186.53 1911.15,1186.24 1941.20,1186.10 C1971.33,1185.97 2031.66,1185.73 2061.87,1185.61 C2092.16,1185.51 2152.81,1185.32 2183.18,1185.23 C2213.62,1185.16 2274.59,1185.02 2305.12,1184.95 C2335.72,1184.90 2397.01,1184.81 2427.69,1184.77 C2458.45,1184.75 2520.06,1184.71 2550.90,1184.69 C2581.85,1184.69 2644.11,1184.70 2675.42,1184.71 C2707.13,1184.74 2770.97,1184.80 2803.10,1184.84 C2835.63,1184.89 2901.10,1185.00 2934.04,1185.06 C2967.38,1185.14 3034.49,1185.30 3068.24,1185.39 C3102.40,1185.49 3171.14,1185.70 3205.71,1185.81 C3240.69,1185.94 3311.05,1186.20 3346.44,1186.34 C3382.23,1186.49 3452.64,1186.80 3487.26,1186.96 C3520.65,1187.12 3587.78,1187.45 3621.52,1187.62 C3655.60,1187.81 3724.11,1188.18 3758.53,1188.37 C3793.30,1188.57 3863.19,1188.99 3898.30,1189.20 C3933.76,1189.42 4005.03,1189.88 4040.83,1190.11 C4076.98,1190.35 4149.62,1190.85 4186.12,1191.10 C4222.96,1191.36 4296.98,1191.89 4334.16,1192.17 C4371.69,1192.45 4446.99,1193.02 4484.76,1193.31 C4521.55,1193.59 4593.78,1194.14 4629.22,1194.40 C4663.32,1194.65 4730.15,1195.12 4762.90,1195.35 C4794.30,1195.57 4855.74,1195.97 4885.79,1196.17 C4914.49,1196.35 4970.55,1196.69 4997.90,1196.85 C5023.91,1197.00 5074.57,1197.27 5099.23,1197.40 C5122.54,1197.51 5167.81,1197.72 5189.77,1197.82 C5210.39,1197.89 5255.03,1197.99 5279.07,1198.01 C5319.75,1197.56 5395.28,1196.24 5430.11,1195.37 C5457.66,1194.36 5495.96,1192.86 5506.70,1192.36 C5511.32,1192.12 5523.28,1191.43 5529.97,1189.95 C5533.24,1189.21 5544.93,1185.50 5545.93,1185.19 C5543.33,1184.93 5533.84,1183.98 5532.66,1183.92 C5528.28,1183.70 5520.30,1184.97 5516.68,1186.32 C5513.04,1187.73 5506.82,1191.73 5503.65,1193.86 C5500.75,1195.68 5494.24,1198.30 5490.86,1198.85 C5487.30,1199.38 5478.60,1198.20 5476.61,1198.06 C5470.00,1197.63 5456.98,1199.51 5446.95,1201.88 C5439.56,1203.76 5417.59,1209.73 5416.75,1209.93 C5413.19,1210.73 5406.54,1211.28 5404.07,1210.69 C5403.14,1210.47 5399.60,1209.75 5397.15,1210.01 C5388.61,1210.96 5356.28,1221.58 5349.25,1223.22 C5345.34,1224.11 5336.96,1225.04 5333.94,1224.52 C5328.13,1223.50 5325.22,1223.32 5320.48,1223.84 C5313.60,1224.63 5291.83,1230.80 5259.46,1237.31 C5228.27,1242.91 5162.65,1254.12 5128.24,1259.73 C5122.06,1260.60 5106.98,1262.63 5102.54,1262.90 C5097.73,1263.18 5091.77,1262.82 5089.52,1262.08 C5085.44,1260.76 5070.16,1262.32 5060.47,1263.77 C5038.30,1267.58 4975.27,1281.15 4963.17,1284.22 C4953.76,1286.78 4943.58,1290.45 4939.54,1291.39 C4930.97,1293.34 4892.32,1298.27 4876.21,1300.10 C4858.04,1301.98 4824.67,1305.73 4811.62,1307.58 C4799.47,1309.49 4786.38,1312.38 4780.64,1314.40 C4770.92,1317.70 4737.48,1322.87 4722.30,1324.83 C4688.51,1328.54 4625.59,1335.02 4596.45,1337.79 C4565.57,1340.71 4515.43,1345.51 4496.17,1347.39 C4473.22,1349.68 4420.88,1354.85 4391.48,1357.72 C4348.85,1361.60 4261.55,1369.36 4216.87,1373.25 C4191.29,1375.38 4137.84,1379.81 4109.96,1382.11 C4079.79,1384.58 4017.13,1389.70 3984.65,1392.34 C3949.88,1395.15 3878.02,1400.96 3840.94,1403.94 C3801.75,1407.08 3724.45,1413.25 3686.34,1416.28 C3650.52,1419.10 3581.15,1424.52 3547.60,1427.12 C3516.33,1429.51 3456.07,1434.07 3427.08,1436.25 C3400.37,1438.21 3342.24,1442.39 3310.83,1444.60 C3265.72,1447.49 3185.71,1452.28 3150.82,1454.18 C3126.13,1455.08 3079.46,1456.35 3057.47,1456.72 C3030.65,1457.04 2972.18,1457.61 2940.53,1457.88 C2913.69,1458.01 2860.62,1458.23 2834.39,1458.32 C2805.91,1458.39 2746.68,1458.52 2715.94,1458.57 C2682.93,1458.61 2615.09,1458.66 2580.27,1458.67 C2545.47,1458.62 2476.11,1458.46 2441.55,1458.35 C2407.23,1458.17 2338.82,1457.75 2304.73,1457.51 C2273.97,1457.22 2216.43,1456.63 2189.65,1456.32 C2162.80,1455.99 2109.05,1455.29 2082.14,1454.93 C2055.17,1454.53 2001.16,1453.72 1974.12,1453.30 C1947.01,1452.85 1891.54,1451.94 1863.17,1451.48 C1831.84,1451.04 1766.21,1450.17 1731.90,1449.74 C1694.62,1449.33 1617.07,1448.52 1576.81,1448.13 C1533.57,1447.75 1451.94,1447.08 1413.55,1446.78 C1386.62,1446.60 1331.78,1446.25 1303.88,1446.08 C1275.01,1445.92 1216.31,1445.60 1186.47,1445.45 C1155.67,1445.30 1093.11,1445.01 1061.34,1444.87 C1028.61,1444.73 962.18,1444.48 928.49,1444.35 C893.82,1444.23 823.53,1444.00 787.90,1443.89 C751.31,1443.79 677.55,1443.59 640.39,1443.50 C604.01,1443.44 532.13,1443.33 496.64,1443.29 C462.04,1443.27 393.72,1443.27 360.01,1443.28 C327.18,1443.31 262.43,1443.41 230.49,1443.47 C199.45,1443.56 138.25,1443.76 108.09,1443.87 C78.83,1444.01 21.18,1444.31 -7.19,1444.48 C-34.68,1444.67 -104.73,1445.25 -147.29,1445.64 C-188.63,1446.12 -268.98,1447.16 -307.99,1447.71 C-344.67,1448.34 -415.71,1449.68 -450.07,1450.38 C-482.09,1451.16 -543.81,1452.80 -573.51,1453.66 C-601.68,1454.59 -657.80,1456.52 -685.73,1457.52 C-713.45,1458.60 -768.67,1460.82 -796.17,1461.96 C-823.45,1463.18 -877.78,1465.70 -904.84,1466.99 C-931.68,1468.35 -990.58,1471.50 -1022.65,1473.29 C-1055.77,1475.27 -1121.80,1479.36 -1154.71,1481.46 C-1187.41,1483.68 -1252.61,1488.23 -1285.10,1490.57 C-1317.38,1493.02 -1381.52,1497.93 -1413.38,1500.40 C-1444.76,1502.83 -1507.02,1507.68 -1537.91,1510.09 C-1568.31,1512.47 -1628.62,1517.21 -1658.54,1519.57 C-1693.96,1522.49 -1766.38,1528.47 -1803.38,1531.53 C-1839.95,1534.56 -1912.68,1540.56 -1948.83,1543.53 C-1983.90,1546.42 -2050.16,1551.92 -2081.35,1554.54 C-2108.34,1556.85 -2158.14,1561.19 -2180.94,1563.21 C-2190.77,1564.11 -2207.71,1565.64 -2237.18,1569.52 C-2245.49,1570.78 -2260.91,1573.24 -2268.03,1574.45 C-2273.84,1575.54 -2287.60,1578.25 -2291.10,1579.77 C-2293.12,1580.66 -2298.26,1583.81 -2299.53,1584.55 C-2267.96,1584.57 -2204.77,1584.59 -2173.16,1584.60 C-2169.29,1584.55 -2162.64,1583.91 -2159.57,1583.53 C-2156.21,1583.33 -2140.05,1587.41 -2132.78,1589.42 C-2120.92,1592.82 -2106.93,1595.92 -2097.96,1596.96 C-2090.52,1597.81 -2075.63,1598.33 -2068.17,1598.09 C-2063.62,1597.93 -2046.38,1596.72 -2037.04,1596.65 C-2028.86,1596.72 -2012.55,1597.71 -2005.28,1598.38 C-1990.43,1600.05 -1954.84,1606.21 -1942.62,1607.92 C-1927.08,1609.81 -1897.18,1611.53 -1882.47,1611.46 C-1867.28,1611.02 -1834.27,1610.45 -1816.44,1610.32 C-1802.53,1610.51 -1773.18,1611.10 -1757.74,1611.50 C-1741.04,1612.12 -1707.61,1613.67 -1690.89,1614.60 C-1674.54,1615.83 -1643.56,1618.45 -1628.94,1619.84 C-1599.67,1623.16 -1536.16,1630.82 -1502.19,1634.67 C-1469.44,1637.73 -1401.22,1643.63 -1365.75,1646.47 C-1332.93,1649.13 -1260.24,1655.51 -1239.03,1658.26 C-1222.99,1660.65 -1198.26,1666.20 -1185.19,1668.29 C-1174.21,1669.83 -1138.40,1673.25 -1122.46,1674.22 C-1110.97,1674.70 -1079.34,1674.59 -1065.14,1674.04 C-1049.41,1673.78 -1023.40,1674.76 -1005.18,1675.91 C-979.38,1677.63 -922.07,1681.60 -890.55,1683.84 C-853.31,1686.61 -777.22,1692.27 -738.37,1695.16 C-703.75,1697.62 -638.80,1702.07 -608.46,1704.08 C-577.88,1705.86 -515.95,1709.07 -484.61,1710.50 C-459.20,1711.25 -416.80,1711.77 -389.54,1712.49 C-352.54,1714.02 -279.23,1717.38 -242.94,1719.21 C-218.96,1720.46 -168.75,1723.12 -142.51,1724.53 C-113.99,1726.08 -54.70,1729.34 -23.91,1731.05 C9.15,1732.91 77.53,1736.78 112.86,1738.78 C150.46,1740.94 227.76,1745.41 267.47,1747.71 C306.35,1749.95 382.23,1754.30 419.23,1756.41 C454.32,1758.39 522.63,1762.21 555.83,1764.06 C587.14,1765.77 647.87,1769.07 677.28,1770.65 C704.80,1772.10 759.83,1774.95 787.33,1776.35 C824.91,1778.08 896.11,1781.24 929.73,1782.66 C959.38,1783.78 1014.72,1785.72 1040.41,1786.53 C1062.14,1787.04 1104.83,1787.85 1125.81,1788.14 C1152.39,1788.40 1211.33,1788.89 1243.69,1789.12 C1281.82,1789.32 1363.87,1789.68 1407.78,1789.85 C1442.40,1789.94 1498.64,1790.05 1520.27,1790.08 C1542.76,1790.11 1588.62,1790.16 1611.98,1790.18 C1636.21,1790.21 1685.53,1790.26 1710.63,1790.28 C1736.59,1790.30 1789.38,1790.34 1816.20,1790.36 C1843.89,1790.38 1900.15,1790.42 1928.70,1790.44 C1958.13,1790.46 2017.84,1790.49 2048.13,1790.50 C2079.29,1790.52 2142.47,1790.54 2174.49,1790.56 C2207.38,1790.57 2274.03,1790.59 2307.78,1790.60 C2342.40,1790.61 2412.51,1790.63 2448.00,1790.63 C2484.35,1790.64 2557.92,1790.65 2595.14,1790.66 C2633.23,1790.66 2710.26,1790.67 2749.21,1790.67 C2789.03,1790.67 2869.53,1790.67 2910.22,1790.67 C2951.49,1790.67 3033.44,1790.67 3074.12,1790.67 C3114.08,1790.66 3193.29,1790.66 3232.54,1790.66 C3271.06,1790.66 3347.39,1790.66 3385.20,1790.66 C3422.29,1790.66 3495.75,1790.66 3532.11,1790.66 C3567.76,1790.66 3638.35,1790.65 3673.28,1790.65 C3707.49,1790.65 3775.20,1790.65 3808.69,1790.65 C3841.47,1790.65 3906.30,1790.65 3938.35,1790.65 C3969.69,1790.65 4031.65,1790.66 4062.26,1790.66 C4092.16,1790.66 4151.25,1790.66 4180.43,1790.66 C4208.89,1790.66 4265.09,1790.66 4292.84,1790.66 C4319.86,1790.66 4373.19,1790.66 4399.50,1790.67 C4425.08,1790.67 4475.54,1790.67 4500.41,1790.67 C4549.11,1790.65 4653.87,1790.60 4709.92,1790.57 C4761.60,1790.55 4860.58,1790.51 4907.87,1790.49 C4950.79,1790.48 5032.25,1790.47 5070.79,1790.47 C5104.95,1790.48 5168.89,1790.49 5198.67,1790.50 C5225.15,1790.52 5276.05,1790.54 5300.46,1790.56 C5322.81,1790.57 5365.42,1790.59 5385.69,1790.60 C5403.89,1790.61 5438.22,1790.63 5454.35,1790.64 C5468.41,1790.65 5491.65,1790.67 5500.84,1790.67" fill="none" stroke="rgb(254, 194, 195)" stroke-width="2000.00" stroke-opacity="1.00" stroke-linejoin="round"/>
<path d="M1707.66,813.87 C1705.44,812.03 1698.26,806.09 1696.28,804.68 C1692.50,802.02 1685.15,798.80 1681.11,798.07 C1679.43,797.78 1658.32,796.35 1654.06,797.14 C1649.92,797.93 1630.04,804.35 1626.03,805.90 C1617.53,809.20 1605.24,815.66 1597.67,820.75 C1593.54,823.55 1556.05,852.09 1553.60,854.23 C1544.57,862.17 1518.12,892.34 1508.55,903.46 C1485.27,931.34 1452.13,972.84 1446.25,981.00 C1439.05,991.17 1434.37,999.92 1431.17,1007.99 C1426.46,1019.84 1416.02,1045.92 1410.38,1060.60 C1408.99,1064.32 1403.28,1081.56 1400.99,1088.62 C1398.74,1095.85 1394.54,1112.39 1393.48,1118.34 C1391.45,1130.65 1387.78,1168.31 1387.14,1178.82 C1386.48,1192.25 1389.70,1225.41 1391.28,1240.98 C1393.24,1258.35 1397.88,1298.01 1399.36,1306.21 C1400.60,1312.95 1411.90,1347.46 1416.99,1362.75 C1422.58,1378.76 1431.50,1402.21 1435.24,1408.46 C1436.16,1409.97 1445.87,1424.06 1449.62,1430.09 C1455.43,1439.86 1462.41,1449.83 1467.67,1455.38 C1470.24,1458.06 1508.41,1493.09 1511.02,1495.22 C1517.44,1500.42 1529.20,1507.96 1535.63,1511.66 C1545.73,1517.18 1571.85,1530.15 1592.36,1539.00 C1600.89,1542.53 1615.11,1547.35 1621.92,1549.02 C1628.79,1550.68 1643.13,1552.83 1651.74,1553.48 C1673.38,1554.76 1698.34,1554.97 1714.73,1554.74 C1735.09,1554.13 1764.79,1551.66 1776.06,1550.09 C1790.06,1547.82 1821.34,1540.33 1835.78,1536.03 C1842.85,1533.79 1857.34,1528.61 1864.34,1525.87 C1871.21,1523.03 1884.87,1516.91 1891.69,1513.63 C1902.43,1508.12 1932.52,1491.40 1946.00,1484.46 C1952.94,1481.09 1966.26,1474.98 1972.57,1471.93 C1979.08,1468.65 1990.02,1462.31 1998.79,1456.60 C2005.42,1452.19 2018.30,1443.40 2024.55,1439.02 C2033.31,1432.79 2043.41,1424.09 2047.93,1418.68 C2053.07,1412.47 2072.39,1381.10 2080.94,1368.27 C2085.60,1361.52 2094.51,1348.25 2098.41,1341.96 C2102.32,1335.48 2108.84,1321.88 2112.17,1313.28 C2115.97,1302.84 2118.46,1294.85 2121.28,1284.14 C2123.82,1273.56 2126.32,1260.21 2126.98,1253.35 C2127.56,1247.19 2127.68,1234.15 2127.27,1224.18 C2126.79,1216.71 2125.74,1204.84 2124.26,1194.61 C2123.06,1187.25 2120.19,1172.20 2118.54,1164.68 C2115.24,1150.94 2106.66,1124.66 2099.81,1106.51 C2095.72,1096.25 2079.13,1059.07 2074.38,1050.57 C2070.26,1043.22 2062.69,1031.61 2056.93,1023.79 C2050.44,1015.25 2026.17,987.21 2016.29,975.86 C2001.35,958.98 1991.82,949.42 1972.56,931.91 C1964.44,924.76 1957.19,918.92 1952.94,915.66 C1944.41,909.25 1911.09,891.86 1898.21,885.23 C1881.45,876.84 1849.35,861.05 1834.01,853.65 C1827.88,850.84 1812.67,844.01 1805.25,841.63 C1797.87,839.29 1785.14,838.47 1779.34,838.06 C1773.00,837.75 1758.06,836.91 1750.71,837.11 C1741.24,837.37 1698.70,842.40 1686.37,844.30 C1678.15,845.70 1662.20,848.79 1654.57,850.66 C1647.00,852.64 1632.30,856.98 1625.18,859.33 C1618.09,861.85 1603.73,867.47 1596.45,870.59 C1583.79,876.30 1553.38,892.57 1542.72,898.90 C1529.20,907.24 1508.39,921.48 1489.19,936.39 C1475.81,947.36 1444.49,973.98 1443.19,975.14 C1435.93,981.67 1426.66,991.03 1422.71,995.87 C1416.20,1004.12 1395.46,1034.65 1390.67,1043.10 C1382.33,1058.10 1368.77,1088.42 1362.66,1103.11 C1354.66,1123.20 1344.99,1150.43 1340.99,1164.43 C1338.41,1174.23 1335.20,1189.56 1334.17,1198.66 C1333.17,1207.68 1333.29,1219.25 1333.81,1230.42 C1334.24,1237.17 1335.60,1251.95 1336.99,1259.10 C1338.36,1266.05 1345.18,1286.59 1345.66,1287.84 C1345.80,1288.21 1354.58,1309.95 1357.43,1317.09 C1358.74,1320.35 1365.53,1334.63 1370.36,1341.66 C1374.62,1347.84 1398.85,1378.60 1409.64,1392.06 C1420.36,1405.21 1445.88,1435.19 1452.81,1442.90 C1458.12,1448.54 1470.66,1460.83 1474.28,1463.91 C1480.53,1469.22 1491.41,1477.03 1499.00,1481.70 C1522.21,1495.88 1570.07,1523.36 1583.69,1530.11 C1593.16,1534.53 1605.67,1539.46 1612.94,1541.65 C1619.64,1543.66 1632.84,1546.31 1642.28,1547.81 C1654.78,1549.50 1689.71,1551.86 1706.87,1552.56 C1722.01,1553.25 1751.08,1554.62 1765.01,1555.30 C1772.42,1555.77 1786.13,1555.71 1795.39,1555.40 C1808.14,1554.72 1844.96,1551.29 1862.45,1549.50 C1880.14,1547.47 1921.31,1542.61 1923.29,1542.30 C1933.99,1540.62 1942.29,1538.15 1950.62,1534.62 C1954.27,1533.06 1970.19,1525.12 1977.32,1521.55 C1987.01,1516.58 2001.91,1508.10 2007.07,1504.67 C2012.04,1501.35 2023.03,1492.81 2027.62,1488.71 C2041.39,1476.05 2100.43,1416.34 2125.63,1390.60 C2134.98,1380.95 2151.57,1363.86 2163.19,1349.18 C2164.96,1346.96 2168.46,1342.06 2170.24,1339.56 C2174.32,1333.79 2178.73,1321.98 2181.70,1312.14 C2184.73,1301.33 2193.30,1266.05 2196.34,1251.23 C2198.23,1241.21 2199.70,1229.92 2200.04,1221.97 C2200.33,1214.76 2199.79,1199.65 2198.99,1189.32 C2197.54,1174.07 2193.82,1137.07 2193.22,1128.97 C2192.84,1122.90 2192.16,1109.18 2191.06,1102.40 C2190.28,1097.71 2186.68,1082.05 2185.02,1075.22 C2183.00,1067.49 2178.28,1051.69 2175.59,1043.68 C2173.58,1038.03 2166.84,1021.24 2163.56,1013.70 C2156.52,998.50 2142.35,970.57 2134.12,956.97 C2117.41,931.11 2088.55,886.01 2082.72,877.46 C2077.10,869.68 2068.88,859.22 2062.94,852.88 C2057.53,847.14 2048.39,838.76 2040.28,831.99 C2034.22,827.19 2021.73,817.95 2015.34,813.75 C2008.91,809.67 1995.47,801.69 1988.47,797.81 C1971.05,788.62 1948.00,778.68 1928.55,771.77 C1920.69,769.16 1905.87,764.39 1898.90,762.25 C1889.65,759.60 1875.71,756.42 1869.14,755.68 C1866.18,755.35 1849.50,754.27 1842.22,754.20 C1830.21,754.17 1818.87,754.42 1810.69,755.49 C1804.15,756.36 1789.82,760.14 1781.02,763.14 C1773.67,765.77 1762.17,770.21 1752.25,774.71 C1745.22,778.08 1731.26,785.34 1724.39,789.39 C1720.32,791.82 1703.09,803.66 1699.31,806.54 C1693.18,811.22 1681.52,821.72 1675.96,827.63 C1670.44,833.52 1660.43,845.97 1655.68,851.97 C1649.88,859.66 1644.78,867.82 1642.04,874.35 C1641.30,876.17 1640.23,878.79 1639.62,880.17" fill="none" stroke="rgb(255, 255, 255)" stroke-width="414.70" stroke-opacity="1.00" stroke-linejoin="round"/>
<path d="M1664.92,961.69 C1664.82,947.21 1664.58,907.06 1666.12,895.70 C1666.45,893.30 1668.05,885.37 1669.91,881.89 C1670.95,880.00 1673.79,877.37 1675.31,876.84 C1676.94,876.33 1700.09,878.12 1703.38,878.25 C1707.24,878.39 1712.70,877.69 1715.99,877.05 C1718.91,876.46 1726.69,873.54 1728.56,873.06 C1734.24,871.61 1748.26,871.29 1754.20,871.17 C1786.69,870.98 1858.80,870.94 1898.42,871.08 C1913.30,871.18 1950.28,871.50 1950.42,871.53 C1951.62,871.80 1953.39,873.45 1953.42,874.53 C1953.45,875.57 1952.89,879.34 1953.42,880.54 C1953.83,881.45 1957.56,883.70 1957.57,883.71 C1958.79,884.83 1959.61,887.04 1959.73,889.06 C1960.57,901.60 1959.60,931.43 1958.77,937.13 C1958.12,941.46 1955.53,947.78 1954.64,949.85 C1951.92,955.97 1945.85,969.40 1942.25,973.25 C1940.87,974.69 1935.40,979.16 1932.39,982.72 C1929.15,986.59 1919.34,1001.61 1914.81,1006.80 C1911.66,1010.38 1898.72,1022.06 1892.62,1026.49 C1890.98,1027.64 1889.48,1028.00 1887.13,1027.87 C1884.80,1027.74 1883.73,1027.88 1882.52,1028.56 C1880.72,1029.59 1878.08,1031.30 1877.78,1031.45 C1874.74,1033.00 1868.76,1033.88 1863.60,1034.14 C1847.81,1034.65 1789.02,1033.68 1785.50,1032.96 C1781.55,1032.09 1761.28,1021.72 1757.99,1020.14 C1754.11,1018.28 1747.46,1016.10 1746.72,1015.88 C1743.21,1014.81 1723.51,1002.09 1721.14,1000.65 C1714.01,996.34 1699.94,990.49 1690.49,987.92 C1686.69,986.85 1679.54,984.10 1676.94,982.72 C1673.19,980.70 1668.76,977.14 1665.39,973.52 C1657.91,965.47 1632.83,947.10 1627.79,942.58 C1626.35,941.27 1624.24,938.60 1623.61,937.08 C1623.58,937.01 1623.26,928.67 1621.82,926.07 C1621.57,925.61 1618.76,921.62 1618.22,920.50 C1616.82,917.54 1615.76,909.62 1615.68,906.13 C1615.62,902.29 1616.77,894.65 1618.65,891.62 C1619.07,890.95 1626.48,883.25 1627.68,880.63 C1628.11,879.72 1629.70,876.56 1631.86,874.53 C1634.81,871.82 1649.66,863.36 1656.34,861.40 C1659.93,860.37 1668.15,859.09 1670.27,858.59 C1673.55,857.80 1680.38,855.15 1683.44,853.48 C1685.35,852.43 1693.04,847.56 1696.94,845.96 C1703.40,843.36 1719.87,840.78 1727.82,839.67 C1736.66,838.19 1750.85,833.24 1755.08,832.46 C1761.87,831.23 1791.74,829.63 1813.48,829.36 C1847.43,829.45 1903.10,829.48 1907.39,829.20 C1915.09,828.69 1922.42,829.31 1932.28,830.65 C1949.52,833.22 1982.89,838.23 1999.01,840.67 C2009.77,842.25 2016.44,843.12 2024.85,846.68 C2031.97,849.89 2046.13,856.32 2053.17,859.53 C2064.23,864.57 2073.60,869.37 2080.00,873.77 C2085.75,877.74 2103.35,892.28 2103.69,892.56 C2109.01,897.16 2112.82,901.72 2119.94,910.95 C2125.09,917.64 2135.50,931.34 2140.78,938.35 C2147.34,947.47 2155.01,959.33 2156.96,965.04 C2158.72,970.55 2162.72,982.44 2164.64,988.17 C2167.39,996.11 2169.71,1009.97 2170.22,1019.79 C2170.60,1031.81 2169.80,1076.06 2169.37,1086.97 C2169.10,1092.43 2168.65,1096.34 2167.80,1099.60 C2166.47,1104.52 2161.13,1115.76 2155.66,1126.00 C2152.04,1132.58 2144.93,1144.13 2141.43,1149.75 C2136.25,1157.73 2110.75,1190.67 2100.13,1204.03 C2094.95,1210.42 2085.59,1221.92 2081.42,1227.01 C2075.17,1234.63 2066.72,1243.43 2061.61,1247.19 C2059.02,1249.08 2040.39,1260.73 2037.57,1262.21 C2034.06,1264.05 2020.81,1269.84 2011.25,1275.61 C2006.30,1278.70 1990.06,1289.46 1988.33,1290.54 C1981.26,1294.92 1965.04,1303.16 1955.79,1307.28 C1944.47,1312.17 1908.68,1325.72 1892.43,1331.61 C1886.35,1333.68 1871.24,1338.68 1866.05,1339.41 C1864.31,1339.65 1858.61,1339.24 1853.75,1339.72 C1846.48,1340.45 1808.57,1346.27 1791.06,1349.06 C1783.02,1350.13 1764.39,1352.38 1759.12,1352.76 C1742.88,1353.81 1716.27,1352.48 1699.46,1352.35 C1692.01,1352.46 1676.05,1353.06 1669.09,1352.93 C1656.99,1352.69 1622.83,1348.76 1606.64,1346.43 C1590.72,1343.99 1558.10,1338.21 1541.87,1335.19 C1535.40,1333.85 1520.22,1330.59 1515.03,1329.06 C1512.02,1328.16 1501.77,1324.09 1491.24,1320.46 C1476.44,1315.65 1446.22,1305.59 1430.41,1299.80 C1422.84,1296.80 1408.91,1291.14 1402.56,1288.49 C1393.54,1284.58 1382.17,1278.29 1379.42,1277.24 C1376.59,1276.18 1371.13,1275.19 1368.67,1273.86 C1365.18,1271.94 1350.40,1259.92 1343.13,1253.69 C1336.05,1247.43 1319.98,1232.94 1319.31,1232.16 C1316.38,1228.72 1314.93,1223.06 1313.30,1220.14 C1312.01,1217.85 1306.72,1210.64 1306.38,1210.11 C1304.22,1206.72 1301.37,1197.13 1300.73,1192.94 C1299.63,1185.25 1298.91,1173.37 1298.59,1160.00 C1298.45,1152.55 1298.16,1135.48 1298.65,1128.29 C1299.09,1122.50 1302.13,1112.07 1306.08,1101.28 C1309.84,1091.52 1316.16,1078.66 1320.23,1072.91 C1323.08,1068.91 1349.67,1037.41 1360.55,1023.69 C1365.82,1017.10 1377.83,1002.46 1379.42,1000.75 C1383.78,996.08 1388.63,992.01 1391.26,990.74 C1395.30,988.82 1427.46,969.61 1442.53,961.69 C1455.95,955.18 1485.12,942.17 1499.47,935.95 C1507.30,932.82 1522.57,926.88 1529.35,924.48 C1535.75,922.34 1549.12,918.27 1556.82,916.64 C1569.01,914.08 1600.88,911.22 1616.53,907.68 C1625.43,905.66 1638.43,903.50 1647.60,902.52 C1656.62,901.70 1666.69,901.48 1675.05,902.04 C1683.06,902.44 1726.34,897.23 1738.20,896.14 C1754.16,894.99 1785.38,895.48 1800.16,895.57 C1807.96,895.45 1830.22,894.83 1831.02,894.82 C1838.11,894.73 1852.51,895.87 1859.88,897.66 C1863.06,898.45 1880.45,903.86 1888.17,905.41 C1894.36,906.64 1912.82,908.81 1917.36,910.60 C1919.74,911.56 1923.26,913.63 1924.60,914.94 C1925.44,915.77 1931.74,922.26 1935.08,924.68 C1937.34,926.30 1945.27,930.86 1947.75,932.59 C1950.53,934.57 1954.42,939.12 1955.80,941.33 C1958.90,946.38 1962.69,956.35 1966.15,967.01 C1970.99,982.48 1981.45,1016.61 1986.28,1033.48 C1988.23,1040.84 1992.22,1056.59 1993.61,1063.07 C1995.63,1072.93 1996.54,1083.09 1996.15,1090.38 C1995.49,1106.18 1995.30,1213.19 1995.64,1218.23 C1996.00,1224.14 1995.79,1228.01 1994.97,1231.76 C1987.61,1265.08 1977.60,1309.81 1977.47,1310.30 C1976.31,1314.31 1974.37,1317.91 1971.46,1322.32 C1971.23,1322.65 1958.01,1341.83 1955.40,1346.09 C1949.86,1355.26 1942.97,1368.02 1940.37,1371.23 C1938.05,1374.06 1933.06,1378.45 1929.90,1380.52 C1925.70,1383.23 1910.52,1389.97 1902.33,1394.44 C1895.03,1398.47 1877.23,1409.79 1876.54,1410.19 C1869.48,1414.21 1855.43,1419.99 1847.83,1422.21 C1840.27,1424.41 1824.33,1427.63 1816.05,1428.59 C1809.02,1429.40 1792.10,1430.19 1784.97,1430.46 C1777.26,1430.65 1767.11,1429.74 1758.08,1430.51 C1748.95,1431.36 1710.60,1436.11 1695.87,1437.02 C1687.85,1437.35 1672.15,1437.51 1664.54,1437.35 C1657.12,1437.02 1642.82,1435.84 1635.90,1435.00 C1620.57,1432.71 1542.69,1416.11 1511.65,1409.47 C1498.24,1407.02 1487.58,1406.38 1481.60,1406.47 C1479.79,1406.49 1461.03,1407.24 1451.66,1406.16 C1444.55,1405.27 1428.88,1402.38 1422.95,1401.67 C1410.72,1400.21 1382.93,1399.81 1359.72,1400.22 C1326.60,1400.50 1283.54,1400.56 1283.25,1400.45 C1282.27,1400.08 1280.87,1398.54 1280.24,1397.45 C1280.67,1396.36 1281.95,1394.95 1283.25,1394.44 C1284.19,1394.09 1293.05,1394.50 1295.27,1394.44 C1297.39,1394.39 1304.60,1393.70 1307.29,1394.44 C1309.91,1395.21 1318.46,1400.29 1319.31,1400.45 C1320.03,1400.59 1324.54,1400.31 1325.32,1400.45 C1326.20,1400.62 1336.43,1406.28 1337.34,1406.47 C1338.41,1406.67 1343.00,1406.41 1343.35,1406.47 C1344.25,1406.60 1352.23,1411.16 1355.38,1412.48 C1358.29,1413.67 1375.44,1419.11 1383.83,1423.09 C1391.38,1426.67 1401.05,1429.48 1410.68,1431.32 C1443.01,1438.09 1490.82,1447.93 1506.29,1451.01 C1510.31,1451.89 1517.91,1454.09 1518.63,1454.18 C1522.82,1454.70 1543.93,1454.01 1547.23,1454.02 C1555.20,1454.07 1571.80,1455.71 1580.30,1457.21 C1588.67,1458.70 1605.76,1461.14 1610.43,1460.88 C1613.27,1460.56 1618.40,1460.09 1622.84,1460.56 C1628.10,1461.14 1645.17,1464.53 1650.20,1465.20 C1660.47,1466.53 1689.91,1466.81 1701.81,1466.91 C1730.78,1467.01 1795.65,1467.11 1831.55,1467.10 C1873.08,1467.00 1951.66,1466.80 1988.71,1466.71 C2019.16,1466.66 2075.02,1466.59 2100.45,1466.58 C2117.93,1466.79 2147.92,1467.25 2160.61,1466.74 C2171.15,1466.23 2205.96,1461.54 2220.89,1460.56 C2230.30,1460.13 2251.83,1460.74 2254.26,1460.82 C2262.00,1461.05 2276.64,1460.38 2283.06,1459.16 C2285.60,1458.67 2292.81,1456.67 2296.22,1456.10 C2303.66,1454.89 2320.31,1454.13 2327.25,1453.98 C2360.67,1454.28 2423.19,1454.57 2452.30,1454.55" fill="none" stroke="rgb(254, 194, 195)" stroke-width="722.60" stroke-opacity="1.00" stroke-linejoin="round"/>
</g>
</svg>
