<?xml version="1.0" encoding="UTF-8"?><svg id="Lag_1" xmlns="http://www.w3.org/2000/svg" viewBox="0 0 777.22 129.3"><defs><style>.cls-1{fill:#fff;stroke-width:0px;}</style></defs><path class="cls-1" d="M416.07,92.86c3.44-13.02,3.31-38.61-16.67-33.41-6.84.47-2.52,15.8-3.7,21.07,1.11,8.33-4.53,25.05,9.45,22.39,5.5-.54,9.24-3.78,10.92-10.05ZM456.49,59.06c6.42,29.86-2.03,67.24-37.39,69.98h-3c-.75-1.68-2.32-.91-3.51-1.06-8.38-1.06-15.63-4.34-21.21-10.87-1.9.78-2.23,2.57-3.17,3.81-6.69,9.24-19.84,3.79-29.56,5.33-2.61.05-3.42-.85-3.42-3.45.06-39.39.08-78.78-.02-118.18-.01-3.22,1.25-3.79,4.12-3.86,8.94-.06,17.86.63,26.78-.51,15.21,4.2,7.41,27.45,9.25,39.27,2,.66,2.62-.31,3.35-.87,23.64-18.31,51.56-8.62,57.78,20.41Z"/><path class="cls-1" d="M682.86,121.59c1.79,3.64,1.49,4.8-2.9,4.69-10.15-.25-20.31-.17-30.46-.02-2.69.04-4.19-.83-5.47-3.2-5.05-9.31-10.31-18.52-15.6-27.96-3.62,2.82-5.12,6.06-4.89,10.45.32,5.81.01,11.64.11,17.46.04,2.3-.69,3.25-3.13,3.23-11.32-.09-22.64-.1-33.96.01-2.62.02-3.49-.86-3.41-3.46.15-5.15.04-10.3.04-15.46,0-33.75.07-67.5-.09-101.25-.02-4.06.96-5.4,5.19-5.37,8.24.04,16.52.85,24.74-.46h1c7.19,2.15,8.96,7.47,9.27,14.35.59,13.63.08,27.25.32,40.88.03,1.98,0,3.96,0,6.37,2.63-.92,3.37-3.08,4.58-4.65,5.76-7.53,11.39-15.15,17.09-22.72,1.08-1.43,2-2.94,4.28-2.92,10.28.1,20.56.05,31.82.05-2.85,4.74-5.24,8.79-7.7,12.8-4.6,7.51-9.14,15.06-13.91,22.45-1.45,2.24-1.5,3.91-.32,6.31,7.89,16.1,15.51,32.32,23.4,48.42Z"/><path class="cls-1" d="M99.24,123.54c.02,2.37-1.13,2.69-3.06,2.68-11.33-.05-22.65-.13-33.97.04-3.45.05-3.14-1.95-3.14-4.16.02-17.3.01-34.6.01-51.9-.01-3.47.61-7.4-3.39-9.14-4.58-2-9.5-1.41-14.2-.27-2.15.52-1.21,2.84-1.22,4.36-.06,18.79-.13,37.59.05,56.38.03,3.61-.73,4.87-4.61,4.77-11.81-.32-23.64-.2-35.46-.25V32.19c10.13-.89,20.28-.32,30.41-.31,4.09.01,6.23,2.77,7.39,6.35.57,1.73.93,3.53,1.52,5.82,1.88-1.48,3.63-2.82,5.33-4.21,9.99-8.11,21.48-10.98,34.11-9.6,11.59,1.26,19.41,9.13,19.82,22.46.73,23.59.29,47.23.41,70.84Z"/><path class="cls-1" d="M776.97,86.11v16.97c-.27.17-.72.28-.79.51-4.4,14.45-15.47,20.62-29.25,22.95-16.01,2.71-31.81,1.73-47.24-3.8-3.52-1.26-4.9-3.11-4.63-6.9.36-4.8.23-9.65.04-14.47-.13-3.34.29-4.77,4.36-3.74,8.53,2.17,17.19,3.87,25.96,4.96,3.68.45,7.29.49,10.91-.32,2.16-.49,4.48-.95,4.68-3.67.22-3.15-2.46-3.79-4.66-4.24-5.86-1.21-11.8-2-17.67-3.17-16.1-3.21-23.44-10.75-24.56-25.04-1.26-16.03,5.63-27.76,20.49-32.59,18.33-5.95,36.76-4.5,54.96,1.29,1.69.54,2.44,1.34,2.43,3.16-.07,6.96-.03,13.93-.03,20.95-9.46-1.47-18.48-2.89-27.5-4.28-3.8-.59-7.61-.82-11.4.15-1.97.51-4.06,1-4.14,3.57s1.9,3.41,3.91,3.77c6.05,1.08,12.14,1.93,18.2,2.99,5.76,1.01,11.32,2.63,16.29,5.89,5.49,3.59,7.59,9.29,9.64,15.06Z"/><path class="cls-1" d="M262.93,64.44c1.18,6.38,1.38,12.87,1.12,19.38-.12,3.16-1.21,4.3-4.51,4.21-8.32-.23-16.66-.07-24.99-.07s-16.66.12-24.98-.06c-3.47-.08-3.97,1.17-2.98,4.12,2.02,5.95,5.98,9.47,12.3,10.11,8.93.89,17.63.04,25.79-4.01,4.46-2.22,9.15-.92,13.74-1.05,1.92-.06,1.56,1.8,1.57,3.06.03,5.32-.07,10.65.06,15.97.04,1.95-.64,3.12-2.39,3.86-23.16,9.88-46.52,11.82-70.14,1.61-1.36-.58-2.6-1.47-3.85-2.3-6.27-4.2-6.05-3.9-12.56.52-14.55,9.88-30.25,10.66-46.02,3.66-10.13-4.5-13.42-13.93-13.33-24.35.09-10.91,4.3-19.76,14.75-24.61,6.75-3.13,13.97-4.23,21.36-4.34,4.83-.08,9.67-.18,14.49.04,2.83.13,3.42-1.08,3.21-3.53-.34-4.19-2.47-6.78-6.56-7.7-8.4-1.92-16.67-1.06-24.38,2.51-4.58,2.12-9.13,1.18-13.7,1.5-1.78.12-2.29-1-2.29-2.53,0-6.99.02-13.97-.04-20.96-.02-2.1,1.17-2.82,2.91-3.42,17.33-5.91,35.02-7.75,53.12-4.66,3.28.56,6.57,1.65,9.18,3.73,2.88,2.31,5.2,2.08,8.47.5,15.49-7.5,31.56-7.72,47.52-1.92,14.13,5.13,20.54,16.69,23.13,30.73ZM219.64,69.98c8.51,0,8.8-.35,6.42-8.46-1.21-4.09-3.51-7.04-8.23-7.37-4.91-.35-8.24,1.69-10.18,6.19-3.69,8.58-3.05,9.64,6.03,9.64h5.96ZM157.73,105.89c4.53-.03,11.36-3.71,10.94-6.16-.63-3.74-1.4-7.58-2.95-10.99-.81-1.77-3.7-.5-5.4-.78-8.12.01-11.17,2.52-11.12,8.94.05,5.43,3.45,9.02,8.53,8.99Z"/><path class="cls-1" d="M346.05,59.43c.17,3.59-.65,5.05-4.59,4.8-7.17-.45-14.25.75-21.34,1.79-3.59.52-4.99,1.75-4.93,5.67.24,16.63-.01,33.27.19,49.89.05,3.74-.95,4.81-4.7,4.71-10.49-.26-20.98-.19-31.47-.03-3.03.05-3.98-.84-3.97-3.93.11-28.94.1-57.88,0-86.82-.01-3.1,1.02-4.02,4.02-3.96,7.32.16,14.65.04,21.97.05,8.69.01,11.04,1.95,12.82,10.55.16.78.23,1.57.47,3.27,3.69-4.33,6.61-7.97,10.65-10.44,2.43-1.49,5.03-2.56,7.78-3.26,11.04-2.82,13.02-1.33,13.02,9.75,0,5.99-.2,11.99.08,17.96Z"/><path class="cls-1" d="M567.96,58.21c11.75,27.12,2.29,65.79-42.82,69.62-14.96,1.26-29.41-1.13-41.47-10.82-16.32-13.1-20.17-30.67-15.74-50.24,4.51-19.96,18.08-30.99,37.51-35.54,4.73-1.11,9.54-1.34,14.44-1.27,21.26.5,39.14,7.62,48.08,28.25ZM544.2,79.1c0-5.81.07-11.62-.02-17.43-.07-5.13-2.15-7.28-7.27-7.32-11.63-.09-23.26-.08-34.89-.01-5.2.03-7.3,2.08-7.33,7.2-.07,11.62.03,23.24-.04,34.86-.04,4.81,2.35,7.05,6.98,7.06,11.8.05,23.6.1,35.4-.01,5.12-.05,7.08-2.2,7.16-7.42.07-5.64,0-11.29,0-16.93Z"/></svg>