<svg width="44" height="44" viewBox="0 0 44 44" fill="none" xmlns="http://www.w3.org/2000/svg">
<mask id="mask0_138_1150" style="mask-type:alpha" maskUnits="userSpaceOnUse" x="0" y="0" width="44" height="44">
<rect width="44" height="44" fill="#D9D9D9"/>
</mask>
<g mask="url(#mask0_138_1150)">
<path d="M7.33337 38.5V36.6667H10.4005V30.2711C9.42521 30.0456 8.67018 29.5843 8.13546 28.8874C7.60074 28.1904 7.33337 27.3753 7.33337 26.4422V13.75H15.3015V26.4422C15.3015 27.3283 15.0282 28.1316 14.4815 28.8521C13.9352 29.5726 13.186 30.0456 12.2339 30.2711V36.6667H15.3015V38.5H7.33337ZM9.16671 21.8941H13.4682V15.5833H9.16671V21.8941ZM11.3172 28.5931C11.9072 28.5931 12.4132 28.3821 12.8352 27.9602C13.2572 27.5382 13.4682 27.0322 13.4682 26.4422V23.7275H9.16671V26.4422C9.16671 27.0322 9.37769 27.5382 9.79967 27.9602C10.2216 28.3821 10.7275 28.5931 11.3172 28.5931ZM23.6922 38.5C23.188 38.5 22.7564 38.3205 22.3974 37.9615C22.0384 37.6024 21.8589 37.1708 21.8589 36.6667V18.9117C21.8589 18.5185 21.9823 18.167 22.2292 17.8571C22.4761 17.547 22.7781 17.325 23.1353 17.1912L24.877 16.5142C25.6809 16.2203 26.3073 15.8342 26.7562 15.356C27.205 14.8775 27.4295 14.0954 27.4295 13.0098V6.91671C27.4295 6.51062 27.5647 6.17299 27.8351 5.90379C28.1052 5.6346 28.4401 5.5 28.8397 5.5H31.5192C31.9188 5.5 32.2539 5.63521 32.5243 5.90562C32.7944 6.17573 32.9295 6.51063 32.9295 6.91029V13.0098C32.9295 14.0954 33.1598 14.8775 33.6206 15.356C34.0814 15.8342 34.7136 16.2203 35.5172 16.5142L37.2942 17.1912C37.6514 17.3268 37.9416 17.5494 38.165 17.859C38.3884 18.1682 38.5 18.5191 38.5 18.9117V36.6667C38.5 37.1708 38.3205 37.6024 37.9615 37.9615C37.6025 38.3205 37.1709 38.5 36.6667 38.5H23.6922ZM29.2628 9.34312H31.0961V7.33333H29.2628V9.34312ZM23.6922 23.0931H36.6667V18.9117L34.8897 18.2348C33.7286 17.807 32.8062 17.2112 32.1223 16.4473C31.4382 15.6834 31.0961 14.5446 31.0961 13.0309V11.1765H29.2628V13.0309C29.2628 14.5446 28.9209 15.6834 28.237 16.4473C27.5529 17.2112 26.6303 17.807 25.4692 18.2348L23.6922 18.9117V23.0931ZM23.6922 36.6667H36.6667V31.7309H23.6922V36.6667ZM23.6922 29.8975H36.6667V24.9265H23.6922V29.8975Z" fill="#7B7B7B"/>
</g>
</svg>
