<svg width="40" height="40" viewBox="0 0 40 40" fill="none" xmlns="http://www.w3.org/2000/svg">
<mask id="mask0_181_1376" style="mask-type:alpha" maskUnits="userSpaceOnUse" x="0" y="0" width="40" height="40">
<rect width="40" height="40" fill="#D9D9D9"/>
</mask>
<g mask="url(#mask0_181_1376)">
<path d="M19.1666 35.8334V27.763L12.9166 33.9297L11.737 32.7501L19.1666 25.3205V20.8334H14.6795L7.24996 28.263L6.07038 27.0834L12.237 20.8334H4.16663V19.1667H12.237L6.07038 12.9167L7.24996 11.7372L14.6795 19.1667H19.1666V14.6797L11.737 7.25008L12.9166 6.0705L19.1666 12.2372V4.16675H20.8333V12.2372L27.0833 6.0705L28.2629 7.25008L20.8333 14.6797V19.1667H25.3204L32.75 11.7372L33.9295 12.9167L27.7629 19.1667H35.8333V20.8334H27.7629L33.9295 27.0834L32.75 28.263L25.3204 20.8334H20.8333V25.3205L28.2629 32.7501L27.0833 33.9297L20.8333 27.763V35.8334H19.1666Z" fill="#7B7B7B"/>
</g>
</svg>
