<svg width="40" height="40" viewBox="0 0 40 40" fill="none" xmlns="http://www.w3.org/2000/svg">
<mask id="mask0_181_1369" style="mask-type:alpha" maskUnits="userSpaceOnUse" x="0" y="0" width="40" height="40">
<rect width="40" height="40" fill="#D9D9D9"/>
</mask>
<g mask="url(#mask0_181_1369)">
<path d="M7.6925 27.3718H32.3075C32.6067 27.3718 32.8525 27.2757 33.045 27.0834C33.2372 26.8912 33.3333 26.6455 33.3333 26.3463V17.7563H6.66667V26.3463C6.66667 26.6455 6.76278 26.8912 6.955 27.0834C7.1475 27.2757 7.39333 27.3718 7.6925 27.3718ZM28.5217 24.2309C28.9836 24.2309 29.3775 24.0693 29.7033 23.7459C30.0294 23.4226 30.1925 23.03 30.1925 22.568C30.1925 22.1061 30.0308 21.7122 29.7075 21.3863C29.3839 21.0605 28.9913 20.8976 28.5296 20.8976C28.0676 20.8976 27.6737 21.0593 27.3479 21.3826C27.0221 21.7059 26.8592 22.0986 26.8592 22.5605C26.8592 23.0225 27.0208 23.4163 27.3442 23.7422C27.6675 24.068 28.06 24.2309 28.5217 24.2309ZM35 16.0897H32.6633L28.625 11.923H11.375L7.33667 16.0897H5L9.90708 11.0547C10.1485 10.7919 10.4361 10.5932 10.77 10.4584C11.1039 10.3237 11.4551 10.2563 11.8237 10.2563H28.1762C28.5449 10.2563 28.8961 10.3237 29.23 10.4584C29.5639 10.5932 29.8515 10.7919 30.0929 11.0547L35 16.0897ZM7.6925 29.0384C6.95194 29.0384 6.31806 28.7748 5.79083 28.2476C5.26361 27.7204 5 27.0866 5 26.3463V16.0897H35V26.3463C35 27.0866 34.7364 27.7204 34.2092 28.2476C33.6819 28.7748 33.0481 29.0384 32.3075 29.0384H7.6925Z" fill="#7B7B7B"/>
</g>
</svg>
