<svg width="40" height="40" viewBox="0 0 40 40" fill="none" xmlns="http://www.w3.org/2000/svg">
<mask id="mask0_181_1390" style="mask-type:alpha" maskUnits="userSpaceOnUse" x="0" y="0" width="40" height="40">
<rect width="40" height="40" fill="#D9D9D9"/>
</mask>
<g mask="url(#mask0_181_1390)">
<path d="M21.4887 33.1049C21.4107 33.1761 21.3242 33.2265 21.2292 33.2562C21.1342 33.2862 21.0343 33.3012 20.9296 33.3012C20.8249 33.3012 20.7147 33.2847 20.5992 33.2516C20.4839 33.2185 20.3857 33.1613 20.3046 33.0799C19.4221 32.0927 18.726 31.0297 18.2162 29.8908C17.7068 28.7519 17.4521 27.5423 17.4521 26.262C17.4521 25.3331 17.5835 24.358 17.8462 23.3366C18.109 22.3152 18.5833 20.9872 19.2692 19.3524C19.8439 17.876 20.2562 16.7062 20.5062 15.8429C20.7562 14.9792 20.8812 14.1795 20.8812 13.4437C20.8812 12.4812 20.6729 11.5636 20.2562 10.6908C19.8396 9.81772 19.1868 8.95383 18.2979 8.09911C18.2201 8.01383 18.1585 7.91425 18.1129 7.80036C18.0676 7.68619 18.045 7.57216 18.045 7.45827C18.045 7.36438 18.0599 7.2698 18.0896 7.17452C18.1196 7.07952 18.17 6.99147 18.2408 6.91035C18.3261 6.82897 18.4237 6.76272 18.5338 6.71161C18.6438 6.66022 18.7575 6.63452 18.875 6.63452C18.9925 6.63452 19.0961 6.65869 19.1858 6.70702C19.2756 6.75535 19.3589 6.81994 19.4358 6.90077C20.3803 7.80438 21.1351 8.80647 21.7004 9.90702C22.2654 11.0073 22.5479 12.1829 22.5479 13.4337C22.5479 14.309 22.4189 15.2281 22.1608 16.1912C21.9025 17.154 21.4536 18.4108 20.8142 19.9616C20.1625 21.5213 19.7169 22.7563 19.4775 23.6666C19.2383 24.5769 19.1187 25.4348 19.1187 26.2404C19.1187 27.2501 19.3147 28.2237 19.7067 29.1612C20.0989 30.0987 20.7117 31.0151 21.545 31.9104C21.6158 31.9951 21.6725 32.0869 21.715 32.1858C21.7575 32.2847 21.7788 32.3906 21.7788 32.5037C21.7788 32.6165 21.7532 32.7237 21.7021 32.8254C21.6507 32.9267 21.5796 33.0199 21.4887 33.1049ZM28.9404 33.0991C28.8626 33.1741 28.7765 33.2319 28.6821 33.2724C28.5879 33.313 28.4828 33.3333 28.3667 33.3333C28.2506 33.3333 28.1396 33.3105 28.0338 33.2649C27.9282 33.2197 27.8357 33.158 27.7563 33.0799C26.8738 32.1141 26.1724 31.058 25.6521 29.9116C25.1318 28.7655 24.8717 27.5601 24.8717 26.2954C24.8717 25.3779 25.0085 24.3984 25.2821 23.357C25.5557 22.3156 26.0354 20.9808 26.7213 19.3524C27.3174 17.8547 27.735 16.6854 27.9742 15.8445C28.2136 15.0037 28.3333 14.219 28.3333 13.4904C28.3333 12.5048 28.125 11.5701 27.7083 10.6862C27.2917 9.80202 26.6389 8.93966 25.75 8.09911C25.6689 8.01216 25.6081 7.91425 25.5675 7.80536C25.5267 7.69647 25.5063 7.58397 25.5063 7.46785C25.5063 7.36785 25.5197 7.27716 25.5467 7.19577C25.5733 7.11438 25.6225 7.03077 25.6942 6.94494C25.78 6.85938 25.8801 6.79161 25.9946 6.74161C26.1093 6.69161 26.2217 6.66661 26.3317 6.66661C26.4414 6.66661 26.541 6.68786 26.6304 6.73036C26.7196 6.77286 26.8054 6.82966 26.8879 6.90077C27.8324 7.80438 28.5871 8.80647 29.1521 9.90702C29.7174 11.0073 30 12.1829 30 13.4337C30 14.309 29.8701 15.2226 29.6104 16.1745C29.351 17.1265 28.8922 18.4027 28.2342 20.0033C27.5822 21.5844 27.1367 22.8194 26.8975 23.7083C26.6581 24.5972 26.5383 25.4399 26.5383 26.2366C26.5383 27.2327 26.7467 28.2013 27.1633 29.1424C27.58 30.0838 28.205 31.0204 29.0383 31.952C29.1025 32.0331 29.1506 32.121 29.1825 32.2158C29.2147 32.3105 29.2308 32.4052 29.2308 32.4999C29.2308 32.6083 29.2051 32.7166 29.1537 32.8249C29.1026 32.933 29.0315 33.0244 28.9404 33.0991ZM14.0367 33.0991C13.9589 33.1741 13.8728 33.2319 13.7783 33.2724C13.6839 33.313 13.5786 33.3333 13.4625 33.3333C13.3464 33.3333 13.2356 33.3105 13.13 33.2649C13.0242 33.2197 12.9317 33.158 12.8525 33.0799C11.97 32.1141 11.274 31.058 10.7646 29.9116C10.2549 28.7655 10 27.5601 10 26.2954C10 25.3779 10.1314 24.3984 10.3942 23.357C10.6569 22.3156 11.1314 20.9808 11.8175 19.3524C12.4136 17.8547 12.8313 16.6854 13.0704 15.8445C13.3099 15.0037 13.4296 14.219 13.4296 13.4904C13.4296 12.5048 13.2212 11.5701 12.8046 10.6862C12.3879 9.80202 11.7351 8.93966 10.8462 8.09911C10.7554 8.01188 10.6904 7.91369 10.6513 7.80452C10.6124 7.69536 10.5929 7.58674 10.5929 7.47869C10.5929 7.37036 10.6079 7.26883 10.6379 7.17411C10.6676 7.07938 10.7181 6.99147 10.7892 6.91035C10.8742 6.82897 10.9728 6.76272 11.085 6.71161C11.1972 6.66022 11.3057 6.63452 11.4104 6.63452C11.5151 6.63452 11.6161 6.65869 11.7133 6.70702C11.8106 6.75535 11.9008 6.81994 11.9842 6.90077C12.9286 7.80438 13.6833 8.80633 14.2483 9.90661C14.8136 11.0069 15.0963 12.1876 15.0963 13.4487C15.0963 14.2926 14.9733 15.1905 14.7275 16.1424C14.4819 17.0944 14.0307 18.3717 13.3737 19.9745C12.7421 21.5256 12.3013 22.7563 12.0513 23.6666C11.8013 24.5769 11.6763 25.4348 11.6763 26.2404C11.6763 27.2554 11.8776 28.2354 12.2804 29.1804C12.6832 30.1254 13.3013 31.0492 14.1346 31.952C14.1988 32.0331 14.2468 32.121 14.2787 32.2158C14.311 32.3105 14.3271 32.4052 14.3271 32.4999C14.3271 32.6083 14.3014 32.7166 14.25 32.8249C14.1986 32.933 14.1275 33.0244 14.0367 33.0991Z" fill="#7B7B7B"/>
</g>
</svg>
