<svg width="40" height="40" viewBox="0 0 40 40" fill="none" xmlns="http://www.w3.org/2000/svg">
<mask id="mask0_181_1383" style="mask-type:alpha" maskUnits="userSpaceOnUse" x="0" y="0" width="40" height="40">
<rect width="40" height="40" fill="#D9D9D9"/>
</mask>
<g mask="url(#mask0_181_1383)">
<path d="M11.6667 29.205C10.5128 29.205 9.5299 28.7991 8.71796 27.9871C7.90601 27.1752 7.50004 26.1923 7.50004 25.0384V12.923H9.16671V25.0384C9.16671 25.7245 9.41185 26.3127 9.90212 26.803C10.3927 27.2932 10.9809 27.5384 11.6667 27.5384C12.3525 27.5384 12.9407 27.2932 13.4313 26.803C13.9216 26.3127 14.1667 25.7245 14.1667 25.0384V17.0896C14.1667 15.936 14.5727 14.9531 15.3846 14.1409C16.1966 13.3289 17.1795 12.923 18.3334 12.923C19.4873 12.923 20.4702 13.3289 21.2821 14.1409C22.0941 14.9531 22.5 15.936 22.5 17.0896V25.0384C22.5 25.7245 22.7452 26.3127 23.2355 26.803C23.726 27.2932 24.3142 27.5384 25 27.5384C25.6859 27.5384 26.2741 27.2932 26.7646 26.803C27.2549 26.3127 27.5 25.7245 27.5 25.0384V15.423C27.5 14.2694 27.906 13.2864 28.718 12.4742C29.5299 11.6623 30.5128 11.2563 31.6667 11.2563H35.6442L32.8525 8.46463L34 7.27588L38.8142 12.0896L34 16.8621L32.8525 15.673L35.6763 12.923H31.6667C30.9809 12.923 30.3927 13.1682 29.9021 13.6588C29.4118 14.1491 29.1667 14.7371 29.1667 15.423V25.0384C29.1667 26.1923 28.7607 27.1752 27.9488 27.9871C27.1368 28.7991 26.1539 29.205 25 29.205C23.8462 29.205 22.8632 28.7991 22.0513 27.9871C21.2393 27.1752 20.8334 26.1923 20.8334 25.0384V17.0896C20.8334 16.4038 20.5882 15.8157 20.098 15.3255C19.6074 14.8349 19.0192 14.5896 18.3334 14.5896C17.6475 14.5896 17.0593 14.8349 16.5688 15.3255C16.0785 15.8157 15.8334 16.4038 15.8334 17.0896V25.0384C15.8334 26.1923 15.4274 27.1752 14.6155 27.9871C13.8035 28.7991 12.8206 29.205 11.6667 29.205ZM6.02587 34.3334C5.28004 34.3334 4.64476 34.0712 4.12004 33.5467C3.5956 33.022 3.33337 32.3867 3.33337 31.6409V20.2309H36.6667V31.6409C36.6667 32.3867 36.4045 33.022 35.88 33.5467C35.3553 34.0712 34.72 34.3334 33.9742 34.3334H6.02587ZM6.02587 32.6667H33.9742C34.2734 32.6667 34.5192 32.5706 34.7117 32.3784C34.9039 32.1859 35 31.94 35 31.6409V21.8975H5.00004V31.6409C5.00004 31.94 5.09615 32.1859 5.28837 32.3784C5.48087 32.5706 5.72671 32.6667 6.02587 32.6667Z" fill="#7B7B7B"/>
</g>
</svg>
