<svg width="40" height="40" viewBox="0 0 40 40" fill="none" xmlns="http://www.w3.org/2000/svg">
<mask id="mask0_210_2759" style="mask-type:alpha" maskUnits="userSpaceOnUse" x="0" y="0" width="40" height="40">
<rect width="40" height="40" fill="#D9D9D9"/>
</mask>
<g mask="url(#mask0_210_2759)">
<path d="M20 11.6667C19.2969 11.6667 18.7046 11.4258 18.2229 10.9438C17.741 10.4622 17.5 9.8698 17.5 9.16675C17.5 8.46369 17.741 7.87133 18.2229 7.38966C18.7046 6.90772 19.2969 6.66675 20 6.66675C20.7031 6.66675 21.2954 6.90772 21.7771 7.38966C22.259 7.87133 22.5 8.46369 22.5 9.16675C22.5 9.8698 22.259 10.4622 21.7771 10.9438C21.2954 11.4258 20.7031 11.6667 20 11.6667ZM18.3333 33.3334V16.2822H21.6667V33.3334H18.3333Z" fill="#7B7B7B"/>
</g>
</svg>
