<svg width="44" height="44" viewBox="0 0 44 44" fill="none" xmlns="http://www.w3.org/2000/svg">
<mask id="mask0_138_1149" style="mask-type:alpha" maskUnits="userSpaceOnUse" x="0" y="0" width="44" height="44">
<rect width="44" height="44" fill="#D9D9D9"/>
</mask>
<g mask="url(#mask0_138_1149)">
<path d="M7.81258 38.5H7.33316V36.6667H7.81258C9.09133 36.6667 10.3365 36.4827 11.548 36.1148C12.7598 35.7469 13.9674 35.2116 15.1707 34.5088C16.2141 35.1835 17.2772 35.7 18.3597 36.0585C19.442 36.4169 20.6319 36.5961 21.9292 36.5961C23.2266 36.5961 24.4166 36.4169 25.4992 36.0585C26.5815 35.7 27.6444 35.1835 28.6878 34.5088C29.8844 35.2116 31.0919 35.7469 32.3105 36.1148C33.5294 36.4827 34.778 36.6667 36.0565 36.6667H36.6665V38.5H36.0565C34.7942 38.5 33.5526 38.3625 32.3316 38.0875C31.1106 37.8125 29.9067 37.3882 28.7199 36.8147C27.615 37.3717 26.4938 37.7902 25.3562 38.0701C24.2186 38.3497 23.0763 38.4895 21.9292 38.4895C20.7822 38.4895 19.6417 38.3497 18.5078 38.0701C17.3736 37.7902 16.2542 37.3717 15.1496 36.8147C13.9625 37.3882 12.7585 37.8125 11.5375 38.0875C10.3165 38.3625 9.07483 38.5 7.81258 38.5ZM21.9645 32.2245C20.6717 32.2245 19.4848 31.8366 18.4037 31.0608C17.3224 30.2853 16.2176 29.2629 15.0895 27.9936C14.0531 29.1477 13.1288 30.0208 12.3166 30.613C11.5045 31.2055 10.6119 31.6944 9.63904 32.0797L6.90645 22.3525C6.80073 21.9742 6.83877 21.611 7.02058 21.263C7.20238 20.915 7.4864 20.6788 7.87262 20.5544L10.1185 19.8211V12.1284C10.1185 11.3138 10.4084 10.6165 10.9884 10.0366C11.5683 9.45664 12.2654 9.16667 13.0797 9.16667H18.6503V5.5H25.2787V9.16667H30.8493C31.6636 9.16667 32.3608 9.45664 32.9407 10.0366C33.5206 10.6165 33.8106 11.3138 33.8106 12.1284V19.8211L36.0565 20.5544C36.4427 20.6788 36.7267 20.915 36.9085 21.263C37.0903 21.611 37.1283 21.9742 37.0226 22.3525L34.29 32.0797C33.3172 31.6944 32.4246 31.2055 31.6125 30.613C30.8003 30.0208 29.876 29.1477 28.8395 27.9936C27.7114 29.2629 26.6067 30.2853 25.5253 31.0608C24.4443 31.8366 23.2573 32.2245 21.9645 32.2245ZM22.0209 30.3912C23.2031 30.3912 24.2255 29.9956 25.0881 29.2045C25.951 28.4138 26.7702 27.5729 27.5457 26.6819L28.8432 25.2047L30.0876 26.6008C30.5649 27.1486 31.0438 27.6734 31.5245 28.1751C32.0051 28.6768 32.5545 29.104 33.1726 29.4566L35.1045 22.1691L21.9292 18.1537L8.83512 22.1691L10.767 29.4566C11.3851 29.104 11.9345 28.6768 12.4152 28.1751C12.8961 27.6734 13.3751 27.1486 13.852 26.6008L15.0964 25.2047L16.394 26.6819C17.1698 27.5799 18.0042 28.4226 18.8974 29.21C19.7905 29.9975 20.8317 30.3912 22.0209 30.3912ZM11.8812 19.2816L21.9292 16.2181L31.9773 19.2816V11H11.8812V19.2816Z" fill="#7B7B7B"/>
</g>
</svg>
