<svg width="40" height="40" viewBox="0 0 40 40" fill="none" xmlns="http://www.w3.org/2000/svg">
<mask id="mask0_181_1422" style="mask-type:alpha" maskUnits="userSpaceOnUse" x="0" y="0" width="40" height="40">
<rect width="40" height="40" fill="#D9D9D9"/>
</mask>
<g mask="url(#mask0_181_1422)">
<path d="M10.4826 33.2049C9.37035 33.2049 8.42424 32.8155 7.64424 32.0366C6.86424 31.2574 6.47424 30.3114 6.47424 29.1987V15.1283H8.14091V29.1987C8.14091 29.8614 8.36535 30.4171 8.81424 30.8658C9.26313 31.3141 9.81924 31.5383 10.4826 31.5383C11.1459 31.5383 11.7015 31.3141 12.1492 30.8658C12.5967 30.4171 12.8205 29.8614 12.8205 29.1987V10.8012C12.8205 9.68839 13.2098 8.74242 13.9884 7.96325C14.7673 7.18437 15.7129 6.79492 16.8251 6.79492C17.9376 6.79492 18.8837 7.18437 19.6634 7.96325C20.4434 8.74242 20.8334 9.68839 20.8334 10.8012V29.1987C20.8334 29.8614 21.0579 30.4171 21.5067 30.8658C21.9554 31.3141 22.5113 31.5383 23.1747 31.5383C23.8383 31.5383 24.3938 31.3141 24.8413 30.8658C25.2891 30.4171 25.513 29.8614 25.513 29.1987V10.8012C25.513 9.68839 25.9023 8.74242 26.6809 7.96325C27.4595 7.18437 28.4051 6.79492 29.5176 6.79492C30.6298 6.79492 31.5759 7.18437 32.3559 7.96325C33.1359 8.74242 33.5259 9.68839 33.5259 10.8012V24.8716H31.8592V10.8012C31.8592 10.1384 31.6348 9.5827 31.1859 9.13409C30.737 8.68575 30.1809 8.46159 29.5176 8.46159C28.8542 8.46159 28.2987 8.68575 27.8509 9.13409C27.4034 9.5827 27.1797 10.1384 27.1797 10.8012V29.1987C27.1797 30.3114 26.7904 31.2574 26.0117 32.0366C25.2329 32.8155 24.2873 33.2049 23.1751 33.2049C22.0626 33.2049 21.1165 32.8155 20.3367 32.0366C19.5567 31.2574 19.1667 30.3114 19.1667 29.1987V10.8012C19.1667 10.1384 18.9423 9.5827 18.4934 9.13409C18.0448 8.68575 17.4888 8.46159 16.8255 8.46159C16.1619 8.46159 15.6063 8.68575 15.1588 9.13409C14.711 9.5827 14.4872 10.1384 14.4872 10.8012V29.1987C14.4872 30.3114 14.0979 31.2574 13.3192 32.0366C12.5406 32.8155 11.5951 33.2049 10.4826 33.2049Z" fill="#7B7B7B"/>
</g>
</svg>
