<svg width="44" height="44" viewBox="0 0 44 44" fill="none" xmlns="http://www.w3.org/2000/svg">
<mask id="mask0_138_1152" style="mask-type:alpha" maskUnits="userSpaceOnUse" x="0" y="0" width="44" height="44">
<rect width="44" height="44" fill="#D9D9D9"/>
</mask>
<g mask="url(#mask0_138_1152)">
<path d="M9.16649 36.6667V19.9022L5.61991 22.6348L4.51257 21.1819L9.16649 17.6V12.7627H10.9998V16.1792L21.9998 7.79167L39.4871 21.1819L38.3797 22.6243L34.8332 19.9022V36.6667H9.16649ZM10.9998 34.8333H19.4616V26.0897H24.5381V34.8333H32.9998V18.5167L21.9998 10.1292L10.9998 18.5167V34.8333ZM9.16649 10.577C9.16649 9.47237 9.5191 8.52637 10.2243 7.73896C10.9292 6.95154 11.9399 6.55783 13.2562 6.55783C14.0577 6.55783 14.6341 6.34685 14.9855 5.92487C15.3369 5.5029 15.5126 4.98514 15.5126 4.37158H17.3459C17.3459 5.47647 16.9933 6.42262 16.2881 7.21004C15.5832 7.99746 14.5725 8.39117 13.2562 8.39117C12.4547 8.39117 11.8783 8.602 11.5269 9.02367C11.1755 9.44564 10.9998 9.9634 10.9998 10.577H9.16649Z" fill="#7B7B7B"/>
</g>
</svg>
