<svg width="40" height="40" viewBox="0 0 40 40" fill="none" xmlns="http://www.w3.org/2000/svg">
<mask id="mask0_181_1405" style="mask-type:alpha" maskUnits="userSpaceOnUse" x="0" y="0" width="40" height="40">
<rect width="40" height="40" fill="#D9D9D9"/>
</mask>
<g mask="url(#mask0_181_1405)">
<path d="M13.1408 33.3334C11.3497 33.3334 9.82288 32.7022 8.56038 31.4397C7.29788 30.1772 6.66663 28.6504 6.66663 26.8592V13.1409C6.66663 11.3498 7.29788 9.823 8.56038 8.5605C9.82288 7.298 11.3497 6.66675 13.1408 6.66675H26.8591C28.6502 6.66675 30.177 7.298 31.4395 8.5605C32.702 9.823 33.3333 11.3498 33.3333 13.1409V26.8592C33.3333 28.6504 32.702 30.1772 31.4395 31.4397C30.177 32.7022 28.6502 33.3334 26.8591 33.3334H13.1408ZM13.1408 31.6667H26.8591C28.1944 31.6667 29.3295 31.1994 30.2645 30.2647C31.1993 29.3297 31.6666 28.1945 31.6666 26.8592V13.1409C31.6666 11.8056 31.1993 10.6705 30.2645 9.7355C29.3295 8.80078 28.1944 8.33341 26.8591 8.33341H13.1408C11.8055 8.33341 10.6704 8.80078 9.73538 9.7355C8.80065 10.6705 8.33329 11.8056 8.33329 13.1409V26.8592C8.33329 28.1945 8.80065 29.3297 9.73538 30.2647C10.6704 31.1994 11.8055 31.6667 13.1408 31.6667ZM20.002 27.2759C21.8276 27.2759 23.3787 26.6369 24.6554 25.3588C25.932 24.0808 26.5704 22.529 26.5704 20.7034C26.5704 18.8776 25.9315 17.3263 24.6537 16.0497C23.3757 14.773 21.8237 14.1347 19.9979 14.1347C18.1723 14.1347 16.6212 14.7737 15.3445 16.0517C14.0679 17.3295 13.4295 18.8813 13.4295 20.7072C13.4295 22.5327 14.0684 24.0838 15.3462 25.3605C16.6243 26.6374 18.1762 27.2759 20.002 27.2759ZM20 25.6092C18.6411 25.6092 17.484 25.1316 16.5287 24.1763C15.5737 23.2213 15.0962 22.0642 15.0962 20.7051C15.0962 19.3462 15.5737 18.1892 16.5287 17.2342C17.484 16.279 18.6411 15.8013 20 15.8013C21.3588 15.8013 22.5159 16.279 23.4712 17.2342C24.4262 18.1892 24.9037 19.3462 24.9037 20.7051C24.9037 22.0642 24.4262 23.2213 23.4712 24.1763C22.5159 25.1316 21.3588 25.6092 20 25.6092ZM20.002 12.5322C20.3659 12.5322 20.6702 12.4091 20.915 12.163C21.1597 11.9169 21.282 11.6119 21.282 11.248C21.282 10.8841 21.159 10.5798 20.9129 10.3351C20.6668 10.0904 20.3618 9.968 19.9979 9.968C19.634 9.968 19.3297 10.0911 19.085 10.3372C18.8402 10.5833 18.7179 10.8883 18.7179 11.2522C18.7179 11.6161 18.8409 11.9204 19.087 12.1651C19.3332 12.4098 19.6382 12.5322 20.002 12.5322Z" fill="#7B7B7B"/>
</g>
</svg>
