<svg xmlns:xlink="http://www.w3.org/1999/xlink" xmlns="http://www.w3.org/2000/svg"   fill="none" viewBox="0 0 32 32" class="w-10 h-10" width="1"  height="1" ><path fill="#242424" d="M32 16.098C32 7.206 24.837 0 16 0S0 7.206 0 16.098C0 24.133 5.85 30.793 13.5 32V20.75H9.438v-4.652H13.5V12.55c0-4.034 2.387-6.263 6.044-6.263 1.75 0 3.581.314 3.581.314v3.962h-2.019c-1.987 0-2.606 1.242-2.606 2.515v3.018h4.438l-.71 4.654H18.5V32C26.15 30.793 32 24.134 32 16.098"></path><path fill="#FFFFFF" d="M32 16.098C32 7.206 24.837 0 16 0S0 7.206 0 16.098C0 24.133 5.85 30.793 13.5 32V20.75H9.438v-4.652H13.5V12.55c0-4.034 2.387-6.263 6.044-6.263 1.75 0 3.581.314 3.581.314v3.962h-2.019c-1.987 0-2.606 1.242-2.606 2.515v3.018h4.438l-.71 4.654H18.5V32C26.15 30.793 32 24.134 32 16.098"></path></svg>