<svg xmlns:xlink="http://www.w3.org/1999/xlink" xmlns="http://www.w3.org/2000/svg"   fill="none" viewBox="0 0 32 32" class="w-10 h-10" width="1"  height="1" ><path fill="#242424" d="M29.63 0H2.37C1.06 0 0 1.06 0 2.308v27.384C0 30.94 1.06 32 2.37 32h27.26c1.31 0 2.37-1.06 2.37-2.308V2.308C32 .998 30.94 0 29.63 0M9.48 27.26h-4.74V11.976h4.74zM7.111 9.917c-1.497 0-2.745-1.247-2.745-2.745S5.614 4.43 7.111 4.43s2.745 1.247 2.745 2.744S8.608 9.918 7.11 9.918M27.26 27.26h-4.74v-7.423c0-1.746-.063-4.054-2.496-4.054-2.495 0-2.869 1.933-2.869 3.93v7.547h-4.74V11.977h4.553v2.058h.062c.624-1.185 2.183-2.495 4.491-2.495 4.804 0 5.677 3.181 5.677 7.298v8.421z"></path><path fill="#FFFFFF" d="M29.63 0H2.37C1.06 0 0 1.06 0 2.308v27.384C0 30.94 1.06 32 2.37 32h27.26c1.31 0 2.37-1.06 2.37-2.308V2.308C32 .998 30.94 0 29.63 0M9.48 27.26h-4.74V11.976h4.74zM7.111 9.917c-1.497 0-2.745-1.247-2.745-2.745S5.614 4.43 7.111 4.43s2.745 1.247 2.745 2.744S8.608 9.918 7.11 9.918M27.26 27.26h-4.74v-7.423c0-1.746-.063-4.054-2.496-4.054-2.495 0-2.869 1.933-2.869 3.93v7.547h-4.74V11.977h4.553v2.058h.062c.624-1.185 2.183-2.495 4.491-2.495 4.804 0 5.677 3.181 5.677 7.298v8.421z"></path></svg>