<svg xmlns:xlink="http://www.w3.org/1999/xlink" xmlns="http://www.w3.org/2000/svg"   fill="none" viewBox="0 0 128 128" class="text-[34px]" width="1"  height="1" ><path fill="#FAD85B" d="M128 64a64.005 64.005 0 0 1-39.51 59.129A63.998 63.998 0 0 1 4.873 39.504 64 64 0 0 1 128 64"></path><path fill="#242424" d="M102.53 90.896 52.671 18.693c-.791-1.068-1.283-.702-1.307-.222q-.06 3.778-.114 7.552c0 .6-.102.6-.33.438-1.757-1.314-2.956-2.964-4.48-4.385a.666.666 0 0 0-1.096.552l.989 5.578c.108.99.761 2.4 0 3.173-1.643 2.082-3.172-.762-4.923-.762-1.313.654.983 1.752.216 2.622-1.421-1.2-3.496-2.621-5.469-1.968.114 1.314 2.189 1.86 2.081 3.282a6.56 6.56 0 0 0-4.263-1.752c-.552 0-1.535-.324-1.643.552.641.792 1.84 1.091 2.518 1.991.108.438.216.876-.222 1.092-3.598 1.098-7.195 2.297-10.715 3.72a2.57 2.57 0 0 0-.876 2.398c1.53 5.25 3.598 9.844 3.172 16.196-.108.438.438.654.762.438l3.394-3.94c.983.221.324 1.75.545 2.399 0 .653-.108 1.967.768 1.637.875-.984 1.859-2.513 2.842-3.065-.114 1.428.216 3.065-.114 4.799l-10.055.108c-.114 5.692.107 11.817 0 18.709 0 2.957.893 4.595 3.28 4.595h18.15c2.998 0 3.832-1.308 3.832-3.6V61.247L39.22 61.03c.33-2.628-1.199-4.703 1.53-6.892 1.75-1.422.437 1.967 1.42 1.967 2.297-1.422 3.287-5.249 6.453-5.249a2.824 2.824 0 0 1 2.632 2.676l.216 31.792c-.336 4.582-1.595 4.6-4.797 8.313a4.55 4.55 0 0 0 0 3.174 3.95 3.95 0 0 0 2.518 2.075L97.86 99a6.24 6.24 0 0 0 3.934-2.19 6.08 6.08 0 0 0 .767-5.908M35.612 50.197h2.518l.108 10.833-2.734-.108zM25.514 82.042c-.69-1.86-.516-4.666-.072-6.244h.336l2.512 2.951zm20.16-10.707a17 17 0 0 1 2.95-3.281v5.908l-.324.216zm2.398 4.271-2.614 2.927-3.832-4.157 2.626-2.843c1.206 1.2 2.735 2.735 3.826 4.049zm-2.62-5.693L42.28 66.41c1.75-.108 3.495 0 5.354 0l.438.444a25.7 25.7 0 0 1-2.614 3.035zm-1.422 0a31.6 31.6 0 0 1-3.597 4.265c-.876-.87-1.86-1.853-2.627-2.735l.108-.432 3.502-3.833zm-3.94 5.693c-.721 1.046-1.567 2-2.518 2.843l-3.717-4.157 2.518-2.735a33 33 0 0 1 3.724 4.025zm-2.518-5.8c-1.199-.876-2.074-2.19-3.058-3.174a27.6 27.6 0 0 1 5.247-.222l.33.552c-.522.96-1.721 1.974-2.513 2.82zm-1.307.215-3.598 4.05-.33-.109-2.518-2.735 3.724-4.157zm-3.94 5.471a14.2 14.2 0 0 1-2.734 3.065c-1.199-1.313-2.512-2.513-3.718-4.049.546-1.2 1.752-1.967 2.627-3.065zm-2.734-5.794-2.842-3.174a26.6 26.6 0 0 1 5.139-.114l.33.444zm-1.199.215a44 44 0 0 1-3.058 3.396l-.108-5.585.432-.654c.99.522 1.864 1.866 2.734 2.82zm-2.428 13.113 2.428-2.825c1.313.984 2.189 2.297 3.172 3.497-1.859-.132-4.395.618-5.6-.696zm3.85-2.94c1.096-1.529 2.518-2.842 3.723-4.264.983.654 1.745 1.86 2.734 2.735l-.114.33-3.717 4.043zm4.484 3.6c-.215 0-.437-.324-.545-.546l2.626-3.065c1.2 1.098 2.189 2.19 3.28 3.395zm3.502-3.72c1.092-1.42 2.399-2.842 3.598-4.156l2.734 2.951-3.717 3.941c-1.086-.78-1.74-1.98-2.615-2.747zm4.264 3.504-.324-.438c.87-.984 1.529-2.19 2.62-2.843l2.866 3.167c-1.12.774-3.627.21-5.162.102zm6.026-.738-2.525-2.67 3.065-3.418c.197 2.237.45 5.104-.54 6.088m.318-20.7c.33.983.108 2.189.215 3.28h-23.29c-.107-1.2-.329-2.189 0-3.28z"></path></svg>