<svg xmlns:xlink="http://www.w3.org/1999/xlink" xmlns="http://www.w3.org/2000/svg"   fill="currentColor" viewBox="0 0 32 32" class="w-10 h-10" width="1"  height="1" ><path fill-rule="evenodd" d="M32 16c0 8.837-7.163 16-16 16S0 24.838 0 16 7.164 0 16 0s16 7.164 16 16M20.456 5.47a5.36 5.36 0 0 0 2.346 3.509l.001-.001c.839.547 1.84.867 2.914.867v3.846a9.15 9.15 0 0 1-5.352-1.72v7.816a7.087 7.087 0 0 1-7.079 7.08 7.04 7.04 0 0 1-4.057-1.283 7.07 7.07 0 0 1-3.023-5.797c0-3.903 3.177-7.08 7.08-7.08.324 0 .642.027.954.07v3.926a3.2 3.2 0 0 0-.954-.149 3.237 3.237 0 0 0-3.233 3.233 3.236 3.236 0 0 0 3.233 3.233 3.234 3.234 0 0 0 3.227-3.111l.006-15.415h3.846c0 .333.033.66.091.976" clip-rule="evenodd" fill="#FFFFFF"></path><path fill-rule="evenodd" d="M32 16c0 8.837-7.163 16-16 16S0 24.838 0 16 7.164 0 16 0s16 7.164 16 16M20.456 5.47a5.36 5.36 0 0 0 2.346 3.509l.001-.001c.839.547 1.84.867 2.914.867v3.846a9.15 9.15 0 0 1-5.352-1.72v7.816a7.087 7.087 0 0 1-7.079 7.08 7.04 7.04 0 0 1-4.057-1.283 7.07 7.07 0 0 1-3.023-5.797c0-3.903 3.177-7.08 7.08-7.08.324 0 .642.027.954.07v3.926a3.2 3.2 0 0 0-.954-.149 3.237 3.237 0 0 0-3.233 3.233 3.236 3.236 0 0 0 3.233 3.233 3.234 3.234 0 0 0 3.227-3.111l.006-15.415h3.846c0 .333.033.66.091.976" clip-rule="evenodd" fill="#FFFFFF"></path></svg>