<svg xmlns:xlink="http://www.w3.org/1999/xlink" xmlns="http://www.w3.org/2000/svg"   fill="none" viewBox="0 0 40 28" class="w-10 h-10" width="1"  height="1" ><path fill="#242424" d="M39.61 6.05s-.39-2.715-1.56-3.956C36.492.543 34.855.465 34.075.388 28.46 0 20.04 0 20.04 0S11.618 0 6.004.388c-.78.077-2.495.077-3.977 1.706C.857 3.335.467 6.05.467 6.05S0 9.23 0 12.488v3.024c0 3.258.39 6.438.39 6.438s.39 2.715 1.56 3.956c1.559 1.551 3.508 1.551 4.444 1.706 3.197.31 13.645.388 13.645.388s8.421 0 14.035-.388c.78-.077 2.495-.077 3.977-1.706 1.17-1.241 1.56-3.956 1.56-3.956S40 18.692 40 15.513v-3.025c0-3.258-.39-6.438-.39-6.438M15.906 19.158V7.988l10.839 5.585z"></path><path fill="#FFFFFF" d="M39.61 6.05s-.39-2.715-1.56-3.956C36.492.543 34.855.465 34.075.388 28.46 0 20.04 0 20.04 0S11.618 0 6.004.388c-.78.077-2.495.077-3.977 1.706C.857 3.335.467 6.05.467 6.05S0 9.23 0 12.488v3.024c0 3.258.39 6.438.39 6.438s.39 2.715 1.56 3.956c1.559 1.551 3.508 1.551 4.444 1.706 3.197.31 13.645.388 13.645.388s8.421 0 14.035-.388c.78-.077 2.495-.077 3.977-1.706 1.17-1.241 1.56-3.956 1.56-3.956S40 18.692 40 15.513v-3.025c0-3.258-.39-6.438-.39-6.438M15.906 19.158V7.988l10.839 5.585z"></path></svg>