<?xml version="1.0" encoding="UTF-8"?>
<svg id="Ebene_2" data-name="Ebene 2" xmlns="http://www.w3.org/2000/svg" xmlns:xlink="http://www.w3.org/1999/xlink" viewBox="0 0 328.08 214.38">
  <defs>
    <style>
      .cls-1 {
        fill: #2d414b;
      }

      .cls-1, .cls-2, .cls-3, .cls-4, .cls-5, .cls-6, .cls-7, .cls-8, .cls-9, .cls-10, .cls-11, .cls-12, .cls-13, .cls-14, .cls-15, .cls-16, .cls-17, .cls-18, .cls-19, .cls-20, .cls-21, .cls-22, .cls-23, .cls-24, .cls-25, .cls-26, .cls-27, .cls-28, .cls-29 {
        stroke-width: 0px;
      }

      .cls-2 {
        fill: #995715;
      }

      .cls-3 {
        fill: #0d778b;
      }

      .cls-4 {
        fill: url(#Unbenannter_Verlauf_5);
      }

      .cls-5 {
        fill: #ba7912;
      }

      .cls-6 {
        fill: #86898a;
      }

      .cls-7 {
        fill: #792f10;
      }

      .cls-8 {
        fill: #f5cb3c;
      }

      .cls-9 {
        fill: #661319;
      }

      .cls-10 {
        fill: #0f1616;
      }

      .cls-11 {
        fill: #4f2811;
      }

      .cls-12 {
        fill: #a9aaac;
      }

      .cls-13 {
        fill: #d0d0d0;
      }

      .cls-14 {
        fill: #1c2a31;
      }

      .cls-15 {
        fill: #774211;
      }

      .cls-16 {
        fill: #091c1f;
      }

      .cls-17 {
        fill: #626c74;
      }

      .cls-18 {
        fill: #efb123;
      }

      .cls-19 {
        fill: #420f13;
      }

      .cls-20 {
        fill: #727274;
      }

      .cls-21 {
        fill: #8b1723;
      }

      .cls-22 {
        fill: #22211a;
      }

      .cls-23 {
        fill: #e2970c;
      }

      .cls-24 {
        fill: #b8672e;
      }

      .cls-25 {
        fill: #013e4b;
      }

      .cls-26 {
        fill: #030303;
      }

      .cls-27 {
        fill: #aa2830;
      }

      .cls-28 {
        fill: #fcfcfd;
      }

      .cls-29 {
        fill: #595e61;
      }
    </style>
    <linearGradient id="Unbenannter_Verlauf_5" data-name="Unbenannter Verlauf 5" x1="140.21" y1="133.79" x2="171.56" y2="166.3" gradientUnits="userSpaceOnUse">
      <stop offset="0" stop-color="#70370f"/>
      <stop offset=".81" stop-color="#ec9c23"/>
    </linearGradient>
  </defs>
  <g id="Ebene_1-2" data-name="Ebene 1">
    <g>
      <g>
        <path class="cls-13" d="M310.19,146.44c.79,7.78,3.88,12.32,1.75,20.83-4.38,17.49-39.06,29.42-54.79,32.73-14.66,3.09-54.21,6.95-69.31,7-8.47.03-42.49-1.9-51.46-2.8-10.68-1.07-21.25-3.36-31.86-4.9-6.44-.94-13.19-1.05-19.6-2.1-7.11-1.17-26.57-5.41-33.26-7.35-4.56-1.33-12.09-4.04-15.93-6.3,5.7,1.61,11.48,2.35,17.33,3.15.39.05.55,1.01.7,1.05,1.07.27.48-.89,2.1-.7,3.58.42,7.09.77,10.68,1.05-.14,2.94,5.45,1.69,5.78,1.75.32.06,0,.83,6.13,1.4l.18.7c18.47,1.38,36.82,5.64,55.31,7,17.09,1.26,51.99,1.13,69.31,0,26.17-1.7,56.28-5.59,78.77-19.95,7.8-4.98,16.04-9.99,13.13-20.83-.28-1.05-5.27-8.23-6.13-8.93-.76-.62-15.32-8.58-17.15-9.45-.32-.15-3.69-1.13-6.65-2.45-.62-.27-1,.37-1.05.35-.86-.4-2.53-3.82-5.78-3.15-5.59-3.64-11.51-6.92-17.15-10.5,24.07,3.28,47.93,9.98,68.96,22.4Z"/>
        <path class="cls-13" d="M19.28,175.85c1.95,2.66,12.96,6.71,16.45,7.7,3.84,2.27,11.37,4.98,15.93,6.3,6.68,1.95,26.15,6.18,33.26,7.35,6.42,1.05,13.16,1.16,19.6,2.1,10.61,1.54,21.18,3.83,31.86,4.9,8.97.9,42.99,2.83,51.46,2.8,15.11-.05,54.65-3.91,69.31-7,15.72-3.32,50.41-15.24,54.79-32.73,2.13-8.51-.96-13.05-1.75-20.83,3.25,1.92,17.13,10.76,17.85,13.83.41,1.75-2.56,11.41-3.15,14-.23,1,.76,3.34-.35,5.08-1,1.56-10.69,7.67-12.95,9.1-.61.39-3.67,1.38-4.03,1.75-.85.89.15,1.85-.7,2.45-.88.63-2.64-.73-2.8-.7-1.73.32-14.51,7.24-33.08,11.9-27.17,6.82-61.83,9.29-89.97,10.15l-.18-1.05c-34.57-3.88-68.81-9.33-103.27-13.65-12.16-3.28-47.21-10.99-56.01-15.05-9.8-4.52-13.31-13.72-11.03-23.98.1-.46,3.26-8.35,3.5-8.75,1.21-1.99,5.55-2.68,4.55-9.63,5.55-3.11,13.65-6.87,19.6-9.1-.58,3.02-6.07,6.2-8.4,9.98-2.93,4.74-3.27,10-4.2,12.25-3.33,8.03-9.58,12.64-9.1,17.15.06.56,1.94,4.54,2.8,3.68Z"/>
        <path class="cls-13" d="M105.74,118.44c.18.18.85.51,1.05.7,3.39,4.31-6.31,3.71-10.68,4.9-18.06,4.94-31.47,15.33-47.96,22.75-1.71,2.52-3.26,1.83-5.95,3.5-3.08,1.91-13.73,9.31-13.48,12.6-4.8,1.94-14.24,6.45-9.45,12.95-.86.87-2.74-3.12-2.8-3.68-.47-4.52,5.78-9.12,9.1-17.15.93-2.26,1.27-7.51,4.2-12.25,2.34-3.78,7.82-6.96,8.4-9.98,20.21-7.57,46.09-11.33,67.56-14.35Z"/>
        <path class="cls-12" d="M181.01,214.01c-19.13.59-38.29.48-57.41-.35,5.07-1.91-8.63-2.89-11.73-3.5-1.64-.32-3.31-1.71-3.5-1.75-1.37-.25-2.24.45-2.8.35-11.9-2.13-24.08-3.14-35.36-7.7-12.23-1.72-24.32-4.91-36.06-8.75-.56-.18-1.87-1.2-2.45-1.4-.66-.22-2.78.89-6.65-2.1-20.24-5.11-23.15-21.62-17.33-39.91.73-.56,1.67-1.45,2.1-1.75,2.51-1.77,6.02-3.72,8.75-5.25,1,6.95-3.34,7.64-4.55,9.63-.24.4-3.4,8.29-3.5,8.75-2.28,10.26,1.22,19.46,11.03,23.98,8.81,4.06,43.85,11.77,56.01,15.05,34.46,4.33,68.7,9.78,103.27,13.65l.18,1.05Z"/>
        <path class="cls-12" d="M123.6,213.66c-30.06-1.31-64-4.26-92.77-13.3-.27-.09-.42.5-.88.35-.35-.11,0-.93-.35-1.05-1.89-.62-3.91-1.04-5.78-1.75C13.42,188.22,1.45,180.99.02,165.17c-.13-1.43.35-9.64.7-10.5.3-.72,5.83-4.88,7-5.78-5.83,18.28-2.91,34.8,17.33,39.91,3.87,2.99,5.99,1.88,6.65,2.1.58.2,1.89,1.22,2.45,1.4,11.74,3.84,23.83,7.03,36.06,8.75,11.28,4.56,23.45,5.57,35.36,7.7.56.1,1.43-.6,2.8-.35.19.04,1.86,1.43,3.5,1.75,3.1.61,16.8,1.59,11.73,3.5Z"/>
        <path class="cls-28" d="M78.44,191.25c-6.12-.57-5.81-1.34-6.13-1.4-.33-.06-5.92,1.19-5.78-1.75,20.92,1.65,41.9,1.46,62.84,2.8,4.06.08,5.1.35,2.63-1.4,3.3.17,6.5.29,9.8.35,10.61.19,21.44.11,32.03-.7,8.3-.63,47.93-4.93,48.14-15.4,3.5-.3,7-.48,10.5-.7,3.97-.25,7.94-.45,11.9-.7,7.83-.5,15.61-1.2,23.45-1.4,2.37-.06,2.84,1.89,8.05-.7,6.01-2.99,10.3-12.56,6.65-18.55l.88-.35c10.78,11.17-4.56,25.42-18.9,30.11-19.27,6.29-74.87,13.35-95.92,14-21.85.67-43.35-2.95-65.11-2.8-8.29-.93-16.74-.63-25.03-1.4Z"/>
        <path class="cls-13" d="M78.44,191.25c8.29.77,16.74.47,25.03,1.4,21.76-.15,43.26,3.47,65.11,2.8,21.05-.65,76.65-7.71,95.92-14,14.34-4.68,29.68-18.94,18.9-30.11l-.88.35s-.24-.13-.7-.7c-2-2.49-19.35-13.77-23.45-16.45,3.25-.67,4.92,2.75,5.78,3.15.05.02.43-.62,1.05-.35,2.96,1.32,6.33,2.3,6.65,2.45,1.84.87,16.39,8.83,17.15,9.45.86.7,5.85,7.88,6.13,8.93,2.91,10.84-5.33,15.85-13.13,20.83-22.49,14.36-52.6,18.25-78.77,19.95-17.33,1.13-52.23,1.26-69.31,0-18.49-1.36-36.84-5.62-55.31-7l-.18-.7Z"/>
        <path class="cls-28" d="M233.52,141.54c2.81,1.58,22.06,19.53,27.31,23.8-6.61-.66-39.43-2.58-41.48-3.15-.48-.13-.78-1.2-1.23-1.4-2.36-7.24-4.26-16.49-11.55-17.5.05-.17.09-1.94-.7-3.5-3.52-6.95-28.97-9.03-36.41-9.8.32-.37.4-1,.7-1.4,1.5-2.02,3.14-2.82,3.15-5.6,12.36,1.55,51.35,13.57,60.21,18.55Z"/>
        <path class="cls-13" d="M127.1,130.34c-8.24,1.09-30.52,1.88-36.41,7.35-1.62,1.51-1.97,2.7-2.1,4.9-.26.05-.46.23-.7.35.43-2.3.53-4.17,2.45-5.78-9.41,2.6-27,14.67-31.33,16.63-.81.36-9.1,2.25-5.95,2.45,8.68-1.45,17.5-.96,26.26-1.05.7,1.18-1.32,1.52.18,2.1-.36.91-.7,1.87-1.05,2.8-.1-2.25-.77-.36-.88-.35-4.74.36-7.25-.88-10.15-.7-.42.03.43.7,0,.7-10.82.12-21.7.43-32.56.7-2.07.76-4.09,1.63-6.13,2.45-.25-3.3,10.4-10.69,13.48-12.6,2.69-1.67,4.24-.98,5.95-3.5,16.49-7.43,29.9-17.81,47.96-22.75,4.36-1.19,14.07-.59,10.68-4.9,6.27,5.78,12.87,7.69,20.3,11.2Z"/>
        <g>
          <path class="cls-12" d="M78.44,160.09c-.67,1.74-.93,3.48-1.75,5.25-.25.55-.77,1.63-1.05,2.1-6.63.08-18.23.05-21,7.18,3.43,5.93,15.98,7.23,22.58,8.58.11.02-.23,1.94,1.23-.35,1.86.58,1.84-.03,1.93,0,.57.21-.36.92,0,1.05,1.86.66,2.3.3,4.55.7.43.08-.44.65,0,.7,2.8.33,4.99-.37,5.25-.35.19.01-.9.49,3.33.7,1.42.07,3.21.43,4.55-.35,9.08,2.13,22.77,3.66,32.21,4.2.58.03,1.17-.03,1.75,0,2.48,1.75,1.44,1.48-2.63,1.4-20.93-1.34-41.92-1.15-62.84-2.8-3.59-.28-7.1-.63-10.68-1.05-1.62-.19-1.03.97-2.1.7-.15-.04-.31-1-.7-1.05-5.85-.8-11.62-1.54-17.33-3.15-3.49-.99-14.5-5.05-16.45-7.7-4.78-6.51,4.65-11.02,9.45-12.95,2.04-.82,4.06-1.69,6.13-2.45,10.85-.27,21.74-.58,32.56-.7.43,0-.42-.67,0-.7,2.91-.18,5.41,1.06,10.15.7.1,0,.78-1.9.88.35Z"/>
          <path class="cls-29" d="M75.29,174.8c3.39,4.93,16.88,9.12,22.75,10.5-1.34.78-3.13.42-4.55.35-6.29-4.86-12.19-1.35-16.28-5.25-2.04,1.65-14.64-4.22-14.53-6.13.1-1.73,11.25-3.02,11.73-2.63.28.23.1,2.02.88,3.15Z"/>
          <path class="cls-20" d="M75.29,174.8c-.77-1.13-.59-2.92-.88-3.15-.48-.4-11.62.9-11.73,2.63-.12,1.91,12.49,7.78,14.53,6.13,4.09,3.9,9.99.39,16.28,5.25-4.22-.21-3.14-.69-3.33-.7-.26-.02-2.45.68-5.25.35-.44-.05.43-.62,0-.7-2.25-.4-2.69-.04-4.55-.7-.36-.13.57-.84,0-1.05-.09-.03-.07.58-1.93,0-3.4-1.06-18.68-4.91-19.25-8.58-.86-5.43,14.55-4.72,15.58-5.08.96-.33.83-1.67.88-1.75.28-.47.8-1.55,1.05-2.1-.49,3.22-1.87,6.13-1.4,9.45Z"/>
          <path class="cls-20" d="M75.64,167.45c-.05.08.09,1.42-.88,1.75-1.03.36-16.43-.36-15.58,5.08.58,3.66,15.85,7.51,19.25,8.58-1.45,2.29-1.11.37-1.23.35-6.6-1.35-19.15-2.65-22.58-8.58,2.78-7.12,14.38-7.1,21-7.18Z"/>
        </g>
        <path class="cls-28" d="M206.57,116.69c9.52,7.65,18.21,16.31,26.96,24.86-8.86-4.98-47.85-17-60.21-18.55,0-1.05-.8-2.85-1.05-3.85-.08-.31-.27-.39-.35-.7-.1-.39-.73-1.88-1.05-2.8l35.71,1.05Z"/>
        <g>
          <path class="cls-13" d="M261.88,166.05c1.16.94,2.32,1.89,3.5,2.8-4.11-.19-8.17.41-12.25.7-5.65.4-11.32.89-16.98,1.05l-3.68,2.45c-3.5.22-7.01.4-10.5.7.02-1.26-.99-4.11-1.4-5.6.69-.18.35-1.68.53-1.75,1.11-.48,23.02-1.1,24.16-.7.91.32-.16,1.19.35,1.4.28.11,5.07.54,5.78.18.04-.02-.77-.61-.18-.88,2.58-1.17,11.65,3.25,10.68-.35Z"/>
          <path class="cls-29" d="M265.38,168.85c.86.66,1.95,1.04,2.45,2.1-7.85.2-15.63.9-23.45,1.4-.25-1.42,2.92-.32,3.68-.7.56-.28-.58-1.17,0-1.4.24-.1,2.21.89,5.08-.7,4.08-.29,8.14-.89,12.25-.7Z"/>
          <path class="cls-6" d="M253.12,169.55c-2.86,1.59-4.83.6-5.08.7-.58.23.56,1.12,0,1.4-.76.38-3.93-.72-3.68.7-3.97.25-7.94.45-11.9.7l3.68-2.45c5.66-.16,11.33-.65,16.98-1.05Z"/>
          <path class="cls-13" d="M260.83,165.35c.3.24.75.46,1.05.7.97,3.6-8.09-.81-10.68.35-.6.27.21.85.18.88-.7.37-5.5-.06-5.78-.18-.51-.21.56-1.08-.35-1.4-1.14-.4-23.05.22-24.16.7-.17.07.16,1.57-.53,1.75-.4-1.46-1.77-5.26-2.45-7.35.44.2.75,1.27,1.23,1.4,2.06.57,34.87,2.49,41.48,3.15Z"/>
        </g>
        <path class="cls-28" d="M87.89,142.94c-5.53,2.78-6.32,9.09-8.4,14.35-1.5-.58.53-.92-.18-2.1-8.76.09-17.57-.4-26.26,1.05-3.15-.2,5.14-2.09,5.95-2.45,4.33-1.96,21.92-14.03,31.33-16.63-1.92,1.6-2.02,3.48-2.45,5.78Z"/>
      </g>
      <g>
        <g>
          <path class="cls-20" d="M202.36,36.87c-11.67,2.84-9.32-.38-17.33-4.9-12.49-7.06-22.16-8.63-23.1-9.45-1.7-1.48-4.17-18.66-3.68-22.05,15.21,2.27,44.77,14.37,51.11,29.93-.02,1.09-5.87,5.53-7,6.48Z"/>
          <path class="cls-16" d="M158.25.46c-.5,3.39,1.97,20.57,3.68,22.05.94.82,10.61,2.39,23.1,9.45,8.01,4.52,5.66,7.74,17.33,4.9-2.65,2.21-8.13,6.01-8.75,6.65-7.44-7.37-18.75-16.49-29.76-15.75-2.12,5.06,6.92,3.43,10.15,7.35-4.38-2-6.31-2.57-10.85-3.85-6.2-1.74-12.56-4.2-9.45-.35-.69-.16-9.47-1.69-9.98-1.75-2.41-.27-6.96-.39-5.43.35l-.7.35c.03-.13-.74-1.52-.35-2.63.25-.72,1.61-.74,1.75-1.75.14-1.02-5.5-17.5-4.55-19.95,1.9-4.92,14.94-6.4,23.8-5.08Z"/>
          <path class="cls-14" d="M193.26,44.57c-.4.43-1.89,2.16-2.1,2.45-4.59-5.32-10.8-9.01-17.15-11.9-3.23-3.92-12.27-2.29-10.15-7.35,11.36,3.19,21.07,8.38,29.41,16.8Z"/>
          <path class="cls-20" d="M174.01,35.12c6.35,2.9,12.57,6.58,17.15,11.9-.61.85-1.7,2.13-2.1,2.8-4.84-5.23-11.17-8.76-17.5-11.9,1.68-2.33-1.19-3.64-5.08-5.25-1.21-.5-3.03-.14-3.33-1.4,4.54,1.28,6.48,1.86,10.85,3.85Z"/>
          <path class="cls-22" d="M153.7,30.92c5.68,1.31,12.58,4.39,17.85,7,6.33,3.14,12.66,6.68,17.5,11.9-.31.52-.67,1-.7,1.05-12.45-12.08-29.66-18.33-46.56-21-1.09-.17-2.38-.12-3.5-.35-1.53-.74,3.01-.62,5.43-.35.5.06,9.28,1.59,9.98,1.75Z"/>
          <path class="cls-20" d="M193.61,43.52c-.39.4-.31,1.01-.35,1.05-8.34-8.42-18.05-13.61-29.41-16.8,11-.74,22.31,8.38,29.76,15.75Z"/>
          <path class="cls-29" d="M163.16,31.27c.29,1.26,2.12.9,3.33,1.4,3.88,1.61,6.76,2.92,5.08,5.25-5.27-2.61-12.17-5.69-17.85-7-3.1-3.85,3.25-1.39,9.45.35Z"/>
        </g>
        <g>
          <path class="cls-15" d="M153,37.57c-1.23,1.58-6.3,4.14-7,5.08-.59.78-6.82,17.25-7,18.2-.4,2.07.04,2.38,0,2.63l-1.05.18c.11,5.9-3.76,10.67-3.15,17.15l.7-.18c-.09.27.59.32,0,1.05-.22-.07-2.68-.56-4.55-1.05-3.4-.89-6.59-1.96-10.15-2.1,3.96-7.54,15.27-40.09,16.45-42.01.16-.26-.4-.88,1.23-1.05,2.74-.29,11.64,1.49,14.53,2.1Z"/>
          <path class="cls-11" d="M141.8,29.87c-.09,1.02,4.07,1.29,6.83,2.1,2.88.85,5.76,2.1,8.58,3.15,0,1.79,7.92,3.17,8.58,4.2.6.96-1.31,1.61,1.58,2.63-.61.53-1.04-.2-1.75-.18-3.9-2.4-8.25-3.28-12.6-4.2-2.89-.61-11.79-2.39-14.53-2.1-1.62.17-1.06.79-1.23,1.05-3.18.1-.71-2.18.35-6.65l.7-.35c1.12.23,2.41.18,3.5.35Z"/>
          <path class="cls-18" d="M188.36,50.87c-.05.1.24.33-.7,2.1-4.89-5.66-11.7-8.88-18.2-12.25-4.58-2.37-7.32-3.77-12.25-5.6-2.82-1.05-5.7-2.3-8.58-3.15-2.76-.81-6.91-1.08-6.83-2.1,16.9,2.67,34.11,8.92,46.56,21Z"/>
          <path class="cls-2" d="M187.66,52.97c-.11.22-.23,1.17-.35,1.4-5.2-4.59-16.21-9.86-16.98-10.5-1.73-1.43.81-1.46-.88-3.15,6.51,3.37,13.31,6.59,18.2,12.25Z"/>
          <path class="cls-5" d="M165.61,41.77c-3.03.09-1.61,1.19-2.28,1.4-.06.02-.98-.71-1.05-.7-1.31.11-.83.73-1.05.7-1.42-.19-5.82-3.91-8.93-.18-1.19,1.43-10.87,27.66-11.9,31.33-.9-2.1-.8-.23-2.45-.35-1.68-2.35,1.13-5.45,1.4-7.88.27-2.45-.37-2.49-.35-2.63.04-.24-.4-.56,0-2.63.19-.96,6.41-17.43,7-18.2.71-.93,5.77-3.5,7-5.08,4.35.92,8.7,1.8,12.6,4.2Z"/>
          <g>
            <path class="cls-23" d="M169.46,40.72c1.69,1.69-.85,1.72.88,3.15.77.64,11.78,5.91,16.98,10.5-3.85,7.58-4.49,10.34-7.35,17.5-.99,2.47-1.88,4.87-2.8,7.35-1.94,5.24-4.25,10.44-5.95,15.75-.28.86-1.24,2.1-1.4,2.8-9.33-5-18.75-10.31-28.71-14-2.75-6.49-1.97-4.93-.7-9.45,1.03-3.67,10.72-29.9,11.9-31.33,3.1-3.74,7.51-.02,8.93.18.22.03-.26-.59,1.05-.7.07,0,.99.72,1.05.7.67-.21-.75-1.31,2.28-1.4.71-.02,1.14.7,1.75.18-2.89-1.02-.97-1.67-1.58-2.63-.65-1.03-8.57-2.41-8.58-4.2,4.93,1.83,7.67,3.23,12.25,5.6Z"/>
            <path class="cls-8" d="M151.95,82.73c1.59-6.32,11.59-28.66,14-38.16,2.02.74,13.97,7.2,14.35,8.58.56,1.98-12.54,34.13-14.18,38.68-1.84-.67-14.66-6.72-14.88-7.53-.02-.08.5-.8.7-1.58Z"/>
            <path class="cls-23" d="M165.96,44.57c-2.42,9.5-12.41,31.84-14,38.16l-1.75-2.1c1.04-1.67,11.25-31.18,13.3-37.11,1.28.08,2.33,1,2.45,1.05Z"/>
            <path class="cls-8" d="M163.51,43.52c-2.05,5.93-12.26,35.43-13.3,37.11-.63,1.02-.72,1.2-1.75.53,4.81-12.59,8.89-25.65,14.18-37.98l.88.35Z"/>
          </g>
          <path class="cls-5" d="M140.4,74.33c-1.27,4.52-2.05,2.96.7,9.45-1.85-.69-3.72-1.5-5.6-2.1.59-.73-.09-.78,0-1.05,1.89-5.74.77-6.64,2.45-6.65,1.66.12,1.55-1.75,2.45.35Z"/>
          <path class="cls-2" d="M139,63.47c-.02.13.62.18.35,2.63-.27,2.43-3.08,5.53-1.4,7.88-1.68,0-.56.91-2.45,6.65l-.7.18c-.61-6.48,3.26-11.25,3.15-17.15l1.05-.18Z"/>
        </g>
        <g>
          <g>
            <path class="cls-24" d="M183.46,75.03c-.1,1.27.13,2.59,0,3.85-1.56,2.82-3.35,5.45-5.25,8.05-1.11-2.32.6-5.8-1.05-7.7.92-2.49,1.82-4.88,2.8-7.35.49.67,3.29,3.03,3.5,3.15Z"/>
            <path class="cls-7" d="M178.21,86.93c-1.55,2.12-5.06,6.7-7,8.05,1.7-5.32,4.01-10.52,5.95-15.75,1.65,1.9-.06,5.38,1.05,7.7Z"/>
          </g>
          <g>
            <path class="cls-3" d="M192.21,79.23c2.36,5.38,1.23,10.93-1.75,15.75-4.08-1.38-7.05-5.24-10.5-7.7,1.59-2.47,3.19-5.47,3.5-8.4.13-1.26-.1-2.59,0-3.85,1.13.68,4.74,1.86,8.75,4.2Z"/>
            <path class="cls-3" d="M203.06,93.58c-.89,2.84-1.43,5.52-3.15,8.05l-7.35-5.95c2.55-4.6,3.99-10.74,1.05-15.4.14.09,1.35.08,2.98,1.4,3.88,3.14,6.29,6.89,6.48,11.9Z"/>
            <path class="cls-16" d="M193.61,80.28c2.94,4.66,1.5,10.81-1.05,15.4-2.73,4.92-9.76,10.63-15.75,10.15-1.31-.92-1.35-1.01-2.45-2.1,6.2,1.26,12.99-3.71,16.1-8.75,2.98-4.83,4.11-10.37,1.75-15.75,1,.58,1.22.93,1.4,1.05Z"/>
            <path class="cls-16" d="M202.36,99.18c-.06.2-1.31,3-1.4,3.15-.05.07-.83,1.12-1.05,1.4-.85,1.11-3.59,2.92-4.55,4.2-1.68-.57-2.5.56-5.25.7,3.62-1.2,7.62-3.79,9.8-7,1.72-2.53,2.26-5.21,3.15-8.05.08,2.22-.09,3.49-.7,5.6Z"/>
            <path class="cls-10" d="M179.96,87.28c-1.1,1.7-7.93,9.51-10.15,10.85.02-.11-.03-.24,0-.35.16-.7,1.12-1.94,1.4-2.8,1.94-1.35,5.45-5.93,7-8.05,1.9-2.6,3.69-5.23,5.25-8.05-.31,2.94-1.91,5.93-3.5,8.4Z"/>
            <path class="cls-25" d="M190.46,94.98c-3.12,5.04-9.9,10.01-16.1,8.75-1.68-1.66-2.93-3.55-4.55-5.25.02-.11-.02-.24,0-.35,2.22-1.34,9.06-9.15,10.15-10.85,3.45,2.46,6.42,6.33,10.5,7.7Z"/>
            <path class="cls-25" d="M199.91,101.63c-2.18,3.21-6.18,5.8-9.8,7-6.34.32-7.86,1.03-13.3-2.8,5.99.48,13.02-5.23,15.75-10.15l7.35,5.95Z"/>
          </g>
          <g>
            <path class="cls-24" d="M241.22,124.04c5.64,3.58,11.56,6.86,17.15,10.5,4.11,2.68,21.45,13.96,23.45,16.45-.54,2.43-.99,10.25-4.03,9.1l-76.84-57.76c.09-.15,1.34-2.96,1.4-3.15,12.62,8.81,25.87,16.62,38.86,24.86Z"/>
            <path class="cls-7" d="M281.83,150.99c.46.57.67.66.7.7,3.65,6-.64,15.57-6.65,18.55,2.05-2.53-1.94-3.15-6.13-6.3-15.41-11.59-29.21-24.88-43.76-37.46-8.73-7.55-18.51-13.98-26.08-22.75.22-.28,1-1.33,1.05-1.4l76.84,57.76c3.03,1.15,3.49-6.67,4.03-9.1Z"/>
            <path class="cls-7" d="M275.88,170.25c-5.21,2.59-5.68.64-8.05.7-.5-1.06-1.59-1.44-2.45-2.1-1.18-.91-2.34-1.86-3.5-2.8-.3-.24-.75-.46-1.05-.7-5.24-4.27-24.5-22.23-27.31-23.8-8.74-8.55-17.44-17.2-26.96-24.86-1.69-1.36-10.3-8.44-11.2-8.75.96-1.28,3.7-3.09,4.55-4.2,7.57,8.77,17.35,15.21,26.08,22.75,14.55,12.58,28.35,25.87,43.76,37.46,4.19,3.15,8.17,3.77,6.13,6.3Z"/>
          </g>
        </g>
        <g>
          <path class="cls-26" d="M123.25,98.48c4.3,1.47,14.3,6.41,18.9,8.75,9.47,4.82,19.1,9.77,26.61,17.5.13.51,1.73,2.2,1.4,3.85-.3.4-.38,1.03-.7,1.4-6.73,7.79-17.3,10.23-27.13,7.7-3.16-.81-6.93-3.19-9.98-4.55-.91-.4-1.83-.96-2.8-1.4-.79-.36-1.62-1.01-2.45-1.4-7.44-3.51-14.03-5.43-20.3-11.2-.2-.19-.87-.52-1.05-.7-4.03-4.05-9.75-12.66-6.65-18.38.58-1.08,2.63-2.32,3.5-3.33,7.05-2.25,13.83-.58,20.65,1.75Z"/>
          <g>
            <path class="cls-16" d="M130.95,80.63c-1.75.24.43,1.72,1.05,2.1-.69,2.27.09,2.16-2.45,2.8.48,1.01,1.91,1.34,2.8,1.75-.39.96-1.04,1.84-1.4,2.8-.1.28-.26.42-.35.7-.13.41,0,1.78-.7,2.8-3.69.28-8.86-2.8-2.1,1.23-.03.3-3.21.37-4.55,3.68-6.82-2.33-13.6-4-20.65-1.75,1.07-1.24-1.24-.49,6.48-5.95,1.17-.83,2.23-2.71,2.45-2.8.68-.28,2.05.27,2.98-.18.51-.24,5.72-8.17,6.3-9.28,3.56.14,6.76,1.21,10.15,2.1Z"/>
            <path class="cls-6" d="M171.91,118.44c.08.31.27.39.35.7-.52,2.75-4.17,2.98-3.5,5.6-7.5-7.74-17.13-12.69-26.61-17.5-.84-2.21-.45-2.86.35-4.9,10.12,4.7,20.63,9.12,29.41,16.1Z"/>
            <path class="cls-20" d="M129.9,93.58c.11.03.24-.03.35,0,1.01,1.92-.65,3.36-.53,3.5.45.52,10.99,4.42,12.78,5.25-.8,2.05-1.19,2.69-.35,4.9-4.61-2.34-14.61-7.29-18.9-8.75,1.34-3.31,4.52-3.37,4.55-3.68-6.76-4.02-1.59-.95,2.1-1.23Z"/>
            <path class="cls-29" d="M173.31,122.99c-.02,2.78-1.65,3.59-3.15,5.6.33-1.66-1.27-3.34-1.4-3.85-.67-2.62,2.98-2.85,3.5-5.6.25,1,1.06,2.8,1.05,3.85Z"/>
            <path class="cls-17" d="M130.95,80.63c1.87.49,4.33.98,4.55,1.05,1.88.6,3.75,1.41,5.6,2.1,9.96,3.69,19.37,9,28.71,14-.03.11.02.24,0,.35-.02.11.02.24,0,.35-.1.56-.32,1.75-.35,2.1-11.18-8.44-21.87-11.02-33.26-16.1-1.21-.54-3.75-1.47-4.2-1.75-.62-.38-2.8-1.86-1.05-2.1Z"/>
            <path class="cls-1" d="M169.46,105.48c0,.16.8.72.18,3.15-12.19-7.58-25.36-13.3-38.68-18.55.36-.96,1.01-1.85,1.4-2.8,12.51,5.76,25.81,9.9,37.11,18.2Z"/>
            <path class="cls-1" d="M170.16,112.83h-.35c-9.02-4.76-30.73-16.5-38.86-18.9-.04-.01.26-.1-.7-.35-.11-.03-.24.03-.35,0,.7-1.02.57-2.4.7-2.8,7.05,2.15,35.74,15.54,39.03,19.6.96,1.19.28,1.75.53,2.45Z"/>
            <path class="cls-17" d="M136.2,87.63c1.52,1.03,24.33,7.69,33.26,15.4-.02.81.05,1.54,0,2.45-11.3-8.3-24.6-12.44-37.11-18.2-.9-.41-2.32-.74-2.8-1.75l6.65,2.1Z"/>
            <path class="cls-14" d="M136.2,84.48c-.5,1.56-1.61,2.06,0,3.15l-6.65-2.1c2.55-.64,1.76-.53,2.45-2.8.45.28,3,1.21,4.2,1.75Z"/>
            <path class="cls-29" d="M130.95,93.93c13,7.4,28.31,12.36,39.38,22.4l-.53-3.5h.35c.33.95.39,1.92.7,2.8.32.92.95,2.41,1.05,2.8-8.78-6.99-19.29-11.41-29.41-16.1-1.79-.83-12.32-4.73-12.78-5.25-.12-.14,1.53-1.58.53-3.5.96.25.66.34.7.35Z"/>
            <path class="cls-1" d="M169.46,100.58c-.01.12.02,1.68,0,2.45-8.93-7.71-31.74-14.37-33.26-15.4-1.61-1.09-.5-1.59,0-3.15,11.39,5.09,22.08,7.66,33.26,16.1Z"/>
            <path class="cls-6" d="M169.81,112.83l.53,3.5c-11.07-10.04-26.39-15.01-39.38-22.4,8.13,2.41,29.84,14.15,38.86,18.9Z"/>
          </g>
        </g>
      </g>
      <g>
        <g>
          <path class="cls-4" d="M205.86,139.79c-4.48,6.87-13.31,9.2-20.83,10.85-1.72.38-3.33-.03-3.5,0-.34.06-3.27,1.39-6.65,1.75-11.67,1.25-23.6-.12-35.18,1.4-8.65-.2-17.32-.48-25.91-1.75-7.58-1.12-20.4-3.47-25.21-9.45.13-2.2.48-3.39,2.1-4.9,1.48.19,2.38,2.4,4.73,3.85,13.58,8.38,50.79,3.99,67.56,4.55l.7-.7c-4.78-.69-18.24-3.07-21.53-4.55-3.89-1.75-2.6-2.4-3.33-2.8-.74-.41-4.17.5-5.08-2.28-.13-.4,1.8.23-1.4-2.63,3.05,1.36,6.82,3.74,9.98,4.55,9.83,2.53,20.4.09,27.13-7.7,7.44.77,32.88,2.85,36.41,9.8Z"/>
          <path class="cls-11" d="M129.55,131.74c-.5,1.02-.62,4.21.18,4.9.67.58,10.31,3.93,12.43,4.2,3.29,1.48,16.75,3.86,21.53,4.55l-.7.7c-16.77-.56-53.99,3.83-67.56-4.55-2.35-1.45-3.24-3.66-4.73-3.85,5.89-5.47,28.17-6.26,36.41-7.35.83.39,1.66,1.04,2.45,1.4Z"/>
          <path class="cls-24" d="M132.35,133.14c3.2,2.85,1.27,2.22,1.4,2.63.9,2.77,4.33,1.86,5.08,2.28.73.4-.56,1.05,3.33,2.8-2.12-.27-11.76-3.62-12.43-4.2-.8-.7-.68-3.88-.18-4.9.97.44,1.89,1,2.8,1.4Z"/>
          <path class="cls-23" d="M206.57,143.29c-2.37,7.4-27.47,9.33-33.96,9.8-10.94.79-21.93.95-32.91.7,11.58-1.52,23.51-.15,35.18-1.4,3.39-.36,6.31-1.69,6.65-1.75.17-.03,1.78.38,3.5,0,7.52-1.66,16.35-3.98,20.83-10.85.79,1.56.75,3.33.7,3.5Z"/>
        </g>
        <g>
          <path class="cls-9" d="M139.7,153.79c10.98.25,21.97.09,32.91-.7,0,.24.09.64-.18.7-1.78.43-7.12.26-1.23,1.05-9.61,1.32-19.66-.21-29.23.7-.27.03-.48.69-.53.7-.35.05-2.8.07-2.8-.18,7.21-.08-6.84-1.89-5.43.53-4-.28-13.82-2.37-17.85-.35-.68.34-5.55,4.51-1.75,5.6,5.15,1.48,19.27,2.27,25.21,2.45.27,0,.08.69.35.7.33,0-1.32-.73,6.13-.7.35,0,.7,0,1.05,0-1.71,1.06-5.59,1.84-6.65,4.73,2.18,5.3,6.85,9.7,5.95,16.1l2.28.53c2.31-4.91,1.8-1.61,3.5-1.75.34-.03,2.97-3.02,5.08,1.58-4.35,1.58-5.99-3.69-4.03,3.68-3.56.66-7.32-.25-10.68.7-3.31-.06-6.5-.18-9.8-.35-.58-.03-1.17.03-1.75,0,2.07-11.11-2.79-5.4-4.73-7.35-1.66-1.67,1.63-2.76-1.05-3.85-3.11-.84-5.67,4.27-6.48-.18,4.79-3.29,3.23-5.85,3.5-6.3.35-.59,2.62,1.8,5.95-3.5-1.18-1.6-2.63-.31-4.03-.18-.83.08-.68-2.11-3.85,1.75-6.87.4-7.53-8.35-8.05-8.75-.5-.38-8.68-2.06-11.73-4.38-1.1-1.87,12.41-1.64,14-4.73,8.59,1.27,17.26,1.55,25.91,1.75Z"/>
          <path class="cls-19" d="M113.8,152.04c-1.6,3.09-15.1,2.85-14,4.73,3.05,2.32,11.23,3.99,11.73,4.38.52.4,1.18,9.15,8.05,8.75,3.17-3.86,3.02-1.67,3.85-1.75,1.39-.13,2.85-1.42,4.03.18-3.33,5.3-5.6,2.92-5.95,3.5-.27.45,1.29,3.01-3.5,6.3.81,4.44,3.37-.66,6.48.18,2.68,1.09-.61,2.18,1.05,3.85,1.94,1.95,6.79-3.76,4.73,7.35-9.43-.54-23.12-2.07-32.21-4.2-5.88-1.38-19.36-5.57-22.75-10.5-.47-3.32.91-6.23,1.4-9.45.82-1.77,1.08-3.51,1.75-5.25.35-.93.69-1.89,1.05-2.8,2.08-5.27,2.87-11.57,8.4-14.35.24-.12.44-.3.7-.35,4.8,5.99,17.63,8.33,25.21,9.45Z"/>
          <g>
            <path class="cls-21" d="M218.12,160.79c.68,2.09,2.05,5.89,2.45,7.35.41,1.49,1.43,4.34,1.4,5.6-.21,10.47-39.84,14.77-48.14,15.4-10.59.81-21.42.89-32.03.7,3.35-.95,7.12-.04,10.68-.7-1.97-7.37-.33-2.09,4.03-3.68-2.1-4.6-4.73-1.6-5.08-1.58-1.7.14-1.19-3.16-3.5,1.75l-2.28-.53c.9-6.41-3.77-10.8-5.95-16.1,1.06-2.88,4.95-3.66,6.65-4.73,1.4,0,2.8.02,4.2,0,.13,1.66,3.69.93,3.15-.35,8.48-.17,16.93.06,25.38-1.05,1.53,7.37.65,5.65,1.75-.35,12.01-.18,43.54-8.56,27.66-18.2-.94.02-5.66,6.02-16.45,8.75-1.09.27-1.81-.41-2.1-.35-.32.07.08,1.02-5.95,1.75-2.57.31-4.76-.39-5.6-.35-.37.02-1.48,1.46-7.18.7-5.89-.79-.55-.63,1.23-1.05.26-.06.18-.46.18-.7,6.48-.47,31.58-2.41,33.96-9.8,7.29,1.01,9.2,10.26,11.55,17.5Z"/>
            <g>
              <path class="cls-9" d="M153.7,163.95c.54,1.28-3.02,2.01-3.15.35,2.11-.03,2.91-.35,3.15-.35Z"/>
              <path class="cls-27" d="M212.34,169.9c.45.32.19,1.54-.35.7-.22-.35.31-.73.35-.7Z"/>
              <path class="cls-27" d="M174.88,169.2l.18.18.18.18.18.18-.18.18h-.35l-.18-.18v-.35l.18-.18Z"/>
              <path class="cls-27" d="M197.29,174.1l.18.18.18.18.18.18-.18.18h-.35l-.18-.18v-.35l.18-.18Z"/>
              <path class="cls-27" d="M196.94,170.25l.18.18.18.18.18.18-.18.18h-.35l-.18-.18v-.35l.18-.18Z"/>
            </g>
          </g>
          <g>
            <path class="cls-27" d="M153.7,163.95c-.24,0-1.04.32-3.15.35-1.4.02-2.8,0-4.2,0-.35,0-.7,0-1.05,0-.36-2.34-4.66-3.76-3.85-8.05.04,0,.25-.67.53-.7,9.57-.91,19.62.62,29.23-.7,5.69.76,6.81-.68,7.18-.7.84-.04,3.03.66,5.6.35,6.03-.73,5.63-1.68,5.95-1.75.29-.06,1.02.62,2.1.35,10.79-2.73,15.51-8.73,16.45-8.75,15.89,9.64-15.64,18.02-27.66,18.2-1.1,6-.22,7.72-1.75.35-8.45,1.11-16.9.88-25.38,1.05Z"/>
            <path class="cls-21" d="M141.45,156.24c-.81,4.29,3.49,5.71,3.85,8.05-7.45-.03-5.8.71-6.13.7-.27,0-.08-.69-.35-.7-5.94-.18-20.06-.97-25.21-2.45-3.8-1.1,1.07-5.26,1.75-5.6,4.04-2.02,13.85.07,17.85.35-1.41-2.41,12.64-.6,5.43-.53,0,.25,2.45.22,2.8.18Z"/>
          </g>
        </g>
      </g>
    </g>
  </g>
</svg>