<svg xmlns="http://www.w3.org/2000/svg" version="1.1" viewBox="-5.0 -10.0 110.0 135.0">
 <g fill-rule="evenodd" fill="#777">
  <path d="m41.668 20.832c-11.508 0-20.836 9.3281-20.836 20.836 0 11.504 9.3281 20.832 20.836 20.832 11.504 0 20.832-9.3281 20.832-20.832 0-11.508-9.3281-20.836-20.832-20.836zm-29.168 20.836c0-16.109 13.059-29.168 29.168-29.168 16.105 0 29.164 13.059 29.164 29.168 0 16.105-13.059 29.164-29.164 29.164-16.109 0-29.168-13.059-29.168-29.164z"/>
  <path d="m57.469 57.469c1.6289-1.625 4.2656-1.625 5.8945 0l18.75 18.75c1.625 1.6289 1.625 4.2656 0 5.8945-1.6289 1.625-4.2656 1.625-5.8945 0l-18.75-18.75c-1.625-1.6289-1.625-4.2656 0-5.8945z"/>
 </g>
</svg>